<?xml version="1.0" encoding="UTF-8" standalone="no"?>
<!-- Created with Inkscape (http://www.inkscape.org/) -->

<svg
   xmlns:dc="http://purl.org/dc/elements/1.1/"
   xmlns:cc="http://creativecommons.org/ns#"
   xmlns:rdf="http://www.w3.org/1999/02/22-rdf-syntax-ns#"
   xmlns:svg="http://www.w3.org/2000/svg"
   xmlns="http://www.w3.org/2000/svg"
   xmlns:sodipodi="http://sodipodi.sourceforge.net/DTD/sodipodi-0.dtd"
   xmlns:inkscape="http://www.inkscape.org/namespaces/inkscape"
   width="90"
   height="90"
   viewBox="0 0 90 90"
   id="svg4183"
   version="1.1"
   inkscape:version="0.91 r13725"
   sodipodi:docname="iconlinear_dim.svg">
  <defs
     id="defs4185" />
  <sodipodi:namedview
     id="base"
     pagecolor="#ffffff"
     bordercolor="#666666"
     borderopacity="1.0"
     inkscape:pageopacity="0.0"
     inkscape:pageshadow="2"
     inkscape:zoom="1.979899"
     inkscape:cx="-7.8571429"
     inkscape:cy="55.924552"
     inkscape:document-units="px"
     inkscape:current-layer="layer4"
     showgrid="false"
     units="px"
     inkscape:window-width="1280"
     inkscape:window-height="687"
     inkscape:window-x="0"
     inkscape:window-y="1"
     inkscape:window-maximized="1" />
  <metadata
     id="metadata4188">
    <rdf:RDF>
      <cc:Work
         rdf:about="">
        <dc:format>image/svg+xml</dc:format>
        <dc:type
           rdf:resource="http://purl.org/dc/dcmitype/StillImage" />
        <dc:title></dc:title>
      </cc:Work>
    </rdf:RDF>
  </metadata>
  <g
     inkscape:label="sociale"
     inkscape:groupmode="layer"
     id="layer1"
     transform="translate(0,-962.3622)"
     sodipodi:insensitive="true"
     style="display:inline">
    <g
       id="g4749"
       transform="translate(-0.76865821,-0.68764329)">
      <path
         sodipodi:nodetypes="ccsssssscsssscsscccsscssccccssscsssssssssssssscc"
         inkscape:connector-curvature="0"
         id="path4177-3"
         d="m 59.089215,979.51886 -3.86936,2.24062 -3.46158,-2.02027 c -3.27186,-1.90953 -3.57175,-2.02618 -5.47182,-2.12843 -1.56264,-0.0841 -2.2917,0.0165 -3.27425,0.45151 -2.58902,1.1464 -21.564653,12.30204 -22.566543,13.26671 -0.57248,0.5512 -1.30736,1.62231 -1.63309,2.38024 -0.57807,1.34513 -0.59029,1.7002 -0.51131,14.86146 l 0.0809,13.4834 0.77055,1.3121 c 0.42379,0.7216 1.12667,1.6115 1.56192,1.9775 0.43527,0.3659 5.71225,3.5063 11.72665,6.9786 10.021863,5.7858 11.070043,6.3254 12.548703,6.4596 0.88738,0.081 2.08279,0.017 2.65645,-0.1419 1.38748,-0.3835 22.11622,-12.3339 23.33236,-13.4514 0.52346,-0.481 1.25243,-1.5101 1.61995,-2.287 l 0.66821,-1.4125 0.002,-13.3029 0.002,-13.30286 -0.88372,-1.77027 c -0.94558,-1.89416 -1.64555,-2.46203 -6.11234,-4.95868 l -2.02167,-1.12999 -0.006,-4.53408 c -0.006,-4.46333 -0.14819,-5.21208 -0.98675,-5.21208 -0.16661,0 -2.04413,1.00827 -4.17227,2.24062 z m -7.61622,1.9147 3.74071,2.12622 3.52479,-2.01078 c 1.93864,-1.10593 3.58894,-2.01079 3.66735,-2.01079 0.0784,0 0.14399,1.87509 0.14569,4.16685 l 0.004,4.16684 3.37672,1.93581 c 3.9933,2.28927 5.1781,3.46378 5.64134,5.59227 0.2306,1.05956 0.3019,5.14582 0.23832,13.65922 -0.0882,11.8072 -0.10776,12.1791 -0.69822,13.2774 -0.33413,0.6215 -0.90561,1.401 -1.26996,1.7321 -0.56895,0.5172 -18.93096,11.251 -21.66083,12.6623 -0.70481,0.3643 -1.42295,0.4675 -2.69135,0.3867 -1.66437,-0.1061 -2.13666,-0.3445 -12.443783,-6.2816 -5.89255,-3.3941 -11.01185,-6.4408 -11.37618,-6.7704 -0.36434,-0.3295 -0.90408,-1.0707 -1.19941,-1.6472 -0.50512,-0.986 -0.53695,-1.828 -0.53695,-14.2068 0,-12.39366 0.0314,-13.21955 0.53858,-14.20674 0.29622,-0.57646 0.89946,-1.37636 1.34052,-1.77754 1.04338,-0.94907 21.750673,-12.87451 22.673393,-13.05772 1.74912,-0.34733 3.24507,0.13744 6.98616,2.26386 z"
         style="fill:#3db39e;fill-opacity:1;stroke:#3db39e;stroke-width:1;stroke-opacity:1" />
      <path
         inkscape:connector-curvature="0"
         id="path5206"
         d="m 35.716665,1019.7497 c -0.28427,-0.137 -0.33339,-0.4 -0.26981,-1.4452 0.22742,-3.7391 3.14806,-7.0887 6.99386,-8.0212 0.5883,-0.1426 1.09775,-0.168 3.37256,-0.168 2.51036,0 2.72877,0.014 3.45864,0.2128 1.77441,0.4849 2.92376,1.1618 4.2567,2.5069 1.04036,1.0499 1.64311,2.0055 2.08676,3.3082 0.35109,1.031 0.49872,1.8345 0.49972,2.7202 6.5e-4,0.5569 -0.0229,0.6356 -0.24275,0.8085 -0.24297,0.1911 -0.26371,0.1915 -10.09462,0.1852 -6.9349,0 -9.91328,-0.036 -10.06105,-0.1074 z m 8.94858,-11.161 c -1.34749,-0.2845 -2.30784,-0.8079 -3.29145,-1.7938 -1.22246,-1.2252 -1.79744,-2.6164 -1.79744,-4.3488 0,-1.7311 0.57441,-3.1216 1.79744,-4.35085 0.80719,-0.81129 1.53321,-1.2651 2.5915,-1.6198 0.93453,-0.31321 2.66906,-0.31321 3.60357,0 1.05829,0.3547 1.78431,0.80851 2.59152,1.6198 1.223,1.22925 1.79746,2.61975 1.79746,4.35085 0,1.7324 -0.57502,3.1236 -1.79746,4.3488 -1.22578,1.2287 -2.47578,1.783 -4.16231,1.8457 -0.50819,0.019 -1.10796,0 -1.33283,-0.052 z"
         style="fill:#3db39e;fill-opacity:1" />
    </g>
  </g>
  <g
     inkscape:groupmode="layer"
     id="layer2"
     inkscape:label="eco"
     sodipodi:insensitive="true"
     style="display:none">
    <g
       id="g9562"
       transform="translate(-426.45317,-125.83335)">
      <path
         inkscape:connector-curvature="0"
         id="path5215"
         d="m 465.13894,184.30077 c -0.13452,-0.0984 -0.21497,-0.36783 -0.27823,-0.93191 -0.0489,-0.43644 -0.19165,-1.06789 -0.31712,-1.40323 -0.2104,-0.56236 -0.4261,-0.88072 -1.60322,-2.36629 -0.54198,-0.68398 -1.39472,-2.34365 -1.69423,-3.29743 -0.46133,-1.46911 -0.38811,-3.65857 0.17133,-5.12347 0.19967,-0.5228 0.2617,-0.54531 0.68071,-0.24695 0.48978,0.34874 1.80882,0.93664 2.55113,1.13704 0.48786,0.13171 1.08281,0.18621 2.02101,0.18513 1.57821,-0.002 2.25811,-0.15961 3.71398,-0.86206 0.84978,-0.41002 1.14963,-0.63071 1.9786,-1.45622 1.16176,-1.15691 1.7185,-2.05109 2.19532,-3.52582 0.27826,-0.86065 0.43128,-1.15711 0.80158,-1.55307 0.82561,-0.88278 2.80886,-1.55918 3.25717,-1.11087 0.25209,0.2521 0.22431,0.57418 -0.11169,1.29488 -0.23141,0.49638 -0.29141,0.78095 -0.2925,1.38728 l -9e-4,0.7628 0.80501,0.83274 c 0.95598,0.9889 1.37667,1.58546 1.86806,2.64902 0.34312,0.74265 0.38532,0.78979 0.70737,0.79036 0.54673,9e-4 1.12058,0.20127 1.29667,0.45268 0.12989,0.18545 0.16269,0.58269 0.16269,1.97069 0,0.9889 -0.0472,1.82664 -0.10953,1.94306 -0.16254,0.30373 -0.66959,0.52595 -1.20004,0.52595 l -0.46918,0 -0.2336,0.61163 c -0.38307,1.00291 -1.16195,2.13755 -2.16893,3.15958 -1.2333,1.25176 -1.56246,1.89697 -1.56258,3.06303 -1.1e-4,1.26647 0.0323,1.24983 -2.43009,1.24983 -2.32482,0 -2.35639,-0.0122 -2.3569,-0.91251 l -3.3e-4,-0.52347 -1.43569,0 -1.43567,0 0,0.54195 c 0,0.87706 -0.0447,0.89403 -2.35476,0.89403 -1.44574,0 -2.01577,-0.0367 -2.15497,-0.13838 z m 12.93978,-12.83698 c 0.35153,-0.27652 0.44365,-0.66971 0.24631,-1.05132 -0.31252,-0.60435 -1.09662,-0.65897 -1.4857,-0.10348 -0.57688,0.82362 0.44727,1.77787 1.23939,1.1548 z m -12.51728,-0.63922 c -2.30312,-0.41653 -4.24212,-1.91629 -5.15801,-3.98954 -0.82408,-1.86542 -0.71154,-4.3207 0.28034,-6.11623 0.78159,-1.41487 2.48575,-2.76994 4.06854,-3.23517 2.99521,-0.88038 6.48121,0.57885 7.90643,3.30958 1.99446,3.82136 0.13881,8.49484 -3.87662,9.76332 -0.95801,0.30263 -2.37662,0.4207 -3.22068,0.26804 z m 3.07672,-3.16288 c 0.49358,-0.18589 0.5307,-0.22492 0.5159,-0.54249 -0.009,-0.18821 -0.0968,-0.46554 -0.19555,-0.6163 -0.14531,-0.22177 -0.23365,-0.26072 -0.46271,-0.20403 -0.15571,0.0385 -0.68998,0.094 -1.18726,0.1233 -0.73771,0.0434 -0.97227,0.0178 -1.27431,-0.13924 -0.33689,-0.17518 -0.85308,-0.78388 -0.85308,-1.00598 0,-0.0498 0.40175,-0.0906 0.89276,-0.0906 0.95396,0 1.02189,-0.0392 1.02189,-0.58998 0,-0.36401 -0.29396,-0.47371 -1.26943,-0.47371 -0.69171,0 -0.85795,-0.0309 -0.85795,-0.15956 0,-0.1292 0.17053,-0.15955 0.89654,-0.15955 0.96808,0 1.23234,-0.12169 1.22922,-0.56603 -0.003,-0.42421 -0.13212,-0.48717 -1.06545,-0.51957 l -0.90076,-0.0313 0.42788,-0.44039 c 0.64931,-0.6683 1.27693,-0.79803 2.4841,-0.51347 0.78029,0.18393 0.87022,0.14403 1.07524,-0.47715 0.18322,-0.55519 0.0773,-0.67665 -0.79593,-0.91303 -1.81697,-0.49183 -3.66309,0.26982 -4.37149,1.80355 -0.24133,0.52252 -0.26653,0.54226 -0.75796,0.59367 -0.50353,0.0527 -0.50865,0.0571 -0.54228,0.46783 -0.0378,0.46116 0.0806,0.59168 0.53921,0.59424 0.18837,9e-4 0.29251,0.0584 0.29251,0.16118 0,0.0958 -0.0982,0.15956 -0.24559,0.15956 -0.41472,0 -0.62626,0.23164 -0.58715,0.64291 0.0337,0.35452 0.0521,0.36871 0.51699,0.39907 0.4751,0.031 0.48476,0.0392 0.6733,0.57002 0.20459,0.57606 0.83518,1.33789 1.3925,1.68233 0.88284,0.54562 2.33339,0.64976 3.40886,0.24473 z"
         style="fill:#ffd460;fill-opacity:1" />
      <path
         sodipodi:nodetypes="ccsssssscsssscsscccsscssccccssscsssssssssssssscc"
         inkscape:connector-curvature="0"
         id="path4177-3-5"
         d="m 458.13261,142.30251 3.86936,2.24062 3.46158,-2.02027 c 3.27186,-1.90953 3.57175,-2.02618 5.47182,-2.12843 1.56264,-0.0841 2.2917,0.0165 3.27425,0.45151 2.58902,1.1464 21.56465,12.30204 22.56654,13.26671 0.57248,0.5512 1.30736,1.62231 1.63309,2.38024 0.57807,1.34513 0.59029,1.7002 0.51131,14.86147 l -0.0809,13.4834 -0.77055,1.31209 c -0.42379,0.72165 -1.12667,1.61153 -1.56192,1.97748 -0.43527,0.36597 -5.71225,3.50635 -11.72665,6.97861 -10.02186,5.78586 -11.07004,6.32543 -12.5487,6.45963 -0.88738,0.0805 -2.08279,0.0167 -2.65645,-0.14189 -1.38748,-0.38353 -22.11622,-12.3339 -23.33236,-13.45139 -0.52346,-0.481 -1.25243,-1.51016 -1.61995,-2.28703 l -0.66821,-1.41249 -0.002,-13.30289 -0.002,-13.30289 0.88372,-1.77027 c 0.94558,-1.89416 1.64555,-2.46203 6.11234,-4.95868 l 2.02167,-1.12999 0.006,-4.53408 c 0.006,-4.46333 0.14819,-5.21208 0.98675,-5.21208 0.16661,0 2.04413,1.00827 4.17227,2.24062 z m 7.61622,1.9147 -3.74071,2.12622 -3.52479,-2.01078 c -1.93864,-1.10593 -3.58894,-2.01079 -3.66735,-2.01079 -0.0784,0 -0.14399,1.87509 -0.14569,4.16685 l -0.004,4.16684 -3.37672,1.93581 c -3.9933,2.28927 -5.1781,3.46378 -5.64134,5.59227 -0.2306,1.05956 -0.3019,5.14586 -0.23832,13.65923 0.0882,11.80723 0.10776,12.17906 0.69822,13.2774 0.33413,0.6215 0.90561,1.40095 1.26996,1.73213 0.56895,0.51715 18.93096,11.25099 21.66083,12.66223 0.70481,0.36436 1.42295,0.46754 2.69135,0.3867 1.66437,-0.10606 2.13666,-0.3445 12.44378,-6.28153 5.89255,-3.39418 11.01185,-6.44086 11.37618,-6.7704 0.36434,-0.32952 0.90408,-1.07078 1.19941,-1.64725 0.50512,-0.98599 0.53695,-1.82803 0.53695,-14.20677 0,-12.39368 -0.0314,-13.21957 -0.53858,-14.20676 -0.29622,-0.57646 -0.89946,-1.37636 -1.34052,-1.77754 -1.04338,-0.94907 -21.75067,-12.87451 -22.67339,-13.05772 -1.74912,-0.34733 -3.24507,0.13744 -6.98616,2.26386 z"
         style="fill:#ffd460;fill-opacity:1;stroke:#ffd460;stroke-width:1;stroke-opacity:1" />
    </g>
  </g>
  <g
     inkscape:groupmode="layer"
     id="layer3"
     inkscape:label="enviro"
     sodipodi:insensitive="true"
     style="display:none">
    <g
       id="g9573"
       transform="translate(-279.02894,-125.83335)">
      <path
         inkscape:connector-curvature="0"
         id="path5165"
         d="m 311.36256,181.52541 c -0.3948,-0.19461 -1.10502,-1.26322 -1.10502,-1.66263 0,-0.48215 0.45313,-1.18542 1.16167,-1.80294 1.42949,-1.24587 1.85834,-1.67714 1.85834,-1.86884 0,-0.10784 -0.10691,-0.45269 -0.23757,-0.76633 -0.20664,-0.49599 -0.23823,-0.77389 -0.24262,-2.13418 -0.005,-1.83042 0.19262,-2.70395 0.94162,-4.14362 1.1353,-2.18218 3.42678,-4.17314 6.08797,-5.28951 1.74045,-0.73013 2.44037,-0.82847 7.31031,-1.02714 3.95183,-0.16122 4.82486,-0.39549 6.23568,-1.67326 0.43153,-0.39084 1.04483,-0.83117 1.36287,-0.97852 0.4993,-0.23134 0.62793,-0.25155 0.94174,-0.14798 0.5768,0.19036 0.94227,0.57294 1.30149,1.36245 0.53624,1.17861 0.81554,2.73058 0.82122,4.56327 0.0165,5.32017 -2.55159,9.50273 -7.58417,12.3522 -3.17251,1.7963 -6.25895,2.47912 -9.44243,2.08901 -1.48854,-0.18242 -2.46299,-0.4728 -3.95003,-1.17708 -0.74879,-0.35464 -1.45624,-0.64479 -1.57209,-0.64479 -0.27038,0 -0.51452,0.27305 -1.25368,1.40214 -0.69725,1.06509 -0.77691,1.16426 -1.19324,1.48558 -0.37042,0.28588 -0.93856,0.31038 -1.44206,0.0622 z m 7.61482,-7.08117 c 1.58663,-1.5426 2.14813,-2.01371 3.23946,-2.71799 1.70427,-1.09982 3.43597,-1.63229 5.76892,-1.77385 1.39362,-0.0846 1.40535,-0.0875 1.70649,-0.42452 0.34054,-0.38113 0.37542,-0.63852 0.14653,-1.08115 -0.24665,-0.47696 -0.66825,-0.59115 -1.87148,-0.50693 -4.24247,0.29699 -7.95375,2.21548 -11.03598,5.70493 -0.60029,0.6796 -0.74161,0.90801 -0.74161,1.19869 0,0.51999 0.43769,0.9278 0.99576,0.9278 0.40039,0 0.51223,-0.0828 1.79191,-1.32698 z"
         style="fill:#a1b870;fill-opacity:1" />
      <path
         sodipodi:nodetypes="ccsssssscsssscsscccsscssccccssscsssssssssssssscc"
         inkscape:connector-curvature="0"
         id="path4177"
         d="m 310.70838,199.36419 3.86936,-2.24062 3.46158,2.02027 c 3.27186,1.90953 3.57175,2.02618 5.47182,2.12843 1.56264,0.0841 2.2917,-0.0165 3.27425,-0.45151 2.58902,-1.1464 21.56465,-12.30204 22.56654,-13.26671 0.57248,-0.5512 1.30736,-1.62231 1.63309,-2.38024 0.57807,-1.34513 0.59029,-1.7002 0.51131,-14.86147 l -0.0809,-13.4834 -0.77055,-1.31209 c -0.42379,-0.72165 -1.12667,-1.61153 -1.56192,-1.97748 -0.43527,-0.36597 -5.71225,-3.50635 -11.72665,-6.97861 -10.02186,-5.78586 -11.07004,-6.32543 -12.5487,-6.45963 -0.88738,-0.0805 -2.08279,-0.0167 -2.65645,0.14189 -1.38748,0.38353 -22.11622,12.3339 -23.33236,13.45139 -0.52346,0.481 -1.25243,1.51016 -1.61995,2.28703 l -0.66821,1.41249 -0.002,13.30289 -0.002,13.30289 0.88372,1.77027 c 0.94558,1.89416 1.64555,2.46203 6.11234,4.95868 l 2.02167,1.12999 0.006,4.53408 c 0.006,4.46333 0.14819,5.21208 0.98675,5.21208 0.16661,0 2.04413,-1.00827 4.17227,-2.24062 z m 7.61622,-1.9147 -3.74071,-2.12622 -3.52479,2.01078 c -1.93864,1.10593 -3.58894,2.01079 -3.66735,2.01079 -0.0784,0 -0.14399,-1.87509 -0.14569,-4.16685 l -0.004,-4.16684 -3.37672,-1.93581 c -3.9933,-2.28927 -5.1781,-3.46378 -5.64134,-5.59227 -0.2306,-1.05956 -0.3019,-5.14586 -0.23832,-13.65923 0.0882,-11.80723 0.10776,-12.17906 0.69822,-13.2774 0.33413,-0.6215 0.90561,-1.40095 1.26996,-1.73213 0.56895,-0.51715 18.93096,-11.25099 21.66083,-12.66223 0.70481,-0.36436 1.42295,-0.46754 2.69135,-0.3867 1.66437,0.10606 2.13666,0.3445 12.44378,6.28153 5.89255,3.39418 11.01185,6.44086 11.37618,6.7704 0.36434,0.32952 0.90408,1.07078 1.19941,1.64725 0.50512,0.98599 0.53695,1.82803 0.53695,14.20677 0,12.39368 -0.0314,13.21957 -0.53858,14.20676 -0.29622,0.57646 -0.89946,1.37636 -1.34052,1.77754 -1.04338,0.94907 -21.75067,12.87451 -22.67339,13.05772 -1.74912,0.34733 -3.24507,-0.13744 -6.98616,-2.26386 z"
         style="fill:#a1b870;fill-opacity:1;stroke:#a1b870;stroke-width:1;stroke-opacity:1" />
    </g>
  </g>
  <g
     inkscape:groupmode="layer"
     id="layer4"
     inkscape:label="demo"
     sodipodi:insensitive="true"
     style="display:none">
    <g
       id="g9556"
       transform="translate(-352.64095,-125.83336)">
      <g
         style="fill:#ec605f;fill-opacity:1"
         transform="matrix(0.08286172,0,0,0.08286172,354.30718,127.66041)"
         id="g5200">
        <path
           style="fill:#ec605f;fill-opacity:1"
           d="m 414.19577,656.67247 c -1.38609,-1.53162 -9.89102,-26.29388 -18.89994,-55.02719 l -16.37969,-52.24238 -0.004,-47.26 c -0.004,-42.95523 0.21775,-47.53125 2.41946,-50.23739 2.16854,-2.66512 51.77781,-18.10334 148.92467,-46.34465 l 7.85089,-2.28236 0,-7.57513 c 0,-5.7294 0.67435,-8.24977 2.76862,-10.34383 2.58862,-2.58859 4.61445,-2.76862 31.14743,-2.76862 32.33419,0 32.97906,0.21123 34.57741,11.32096 0.47328,3.29076 0.67363,54.78308 0.4457,114.42738 l -0.41522,108.4443 -3.88409,3.34056 c -3.81575,3.2817 -4.35479,3.34049 -30.61469,3.34049 -24.78396,0 -26.99133,-0.2047 -30.31047,-2.81597 -2.96231,-2.33011 -3.65117,-4.15123 -3.99357,-10.55737 l -0.41377,-7.74151 -36.5053,-10.96383 c -20.07792,-6.03005 -36.71124,-10.75794 -36.96291,-10.50627 -0.25189,0.25187 3.23813,12.41756 7.75507,27.03522 8.45673,27.36747 8.7894,30.47264 3.71657,34.68274 -2.92099,2.4242 -49.68666,16.85959 -54.61917,16.85959 -2.33397,0 -5.16415,-1.19336 -6.60432,-2.78474 z m 29.08552,-26.39275 c 5.32973,-1.62462 9.90714,-3.15683 10.17209,-3.40501 0.58362,-0.54661 -15.15883,-52.12907 -16.34879,-53.57004 -0.74418,-0.90113 -27.09947,-9.31067 -29.30423,-9.35052 -0.47982,-0.007 2.80043,11.66452 7.29,25.94043 4.48951,14.27586 9.46557,30.18186 11.0579,35.34651 2.27596,7.38167 3.38157,9.24076 5.16902,8.69132 1.25055,-0.38471 6.63436,-2.02813 11.96401,-3.65269 z m 140.50968,-127.25196 0,-98.28753 -11.7668,0 -11.76679,0 0,98.28753 0,98.28752 11.76679,0 11.7668,0 0,-98.28752 z m -45.68293,-0.86715 c 0,-71.21607 -0.13578,-75.41717 -2.42258,-74.737 -1.33238,0.39633 -31.07825,9.19045 -66.10187,19.54249 -35.02355,10.35203 -64.7694,19.14455 -66.10178,19.53879 -2.22589,0.65838 -2.4226,3.60929 -2.4226,36.34446 l 0,35.62763 40.49171,12.04574 c 22.2704,6.62516 52.63922,15.67183 67.4862,20.10369 14.84691,4.43187 27.46163,7.81802 28.03268,7.5249 0.57128,-0.29327 1.03824,-34.48899 1.03824,-75.9907 z m 110.462,71.47325 c -15.18628,-7.68278 -27.91997,-14.99818 -28.7249,-16.50217 -3.64993,-6.82012 1.61242,-16.72696 8.88508,-16.72696 4.08198,0 52.4896,23.77378 57.15522,28.06984 3.80113,3.50012 4.13301,10.54251 0.69176,14.68685 -5.11622,6.16234 -8.83831,5.22934 -38.00753,-9.52756 z M 351.66793,556.80897 c -5.74241,-2.87817 -6.10912,-6.50314 -5.6892,-56.22537 0.45151,-53.49693 0.17419,-52.17407 10.94764,-52.17407 4.27006,0 6.31324,0.79797 8.28803,3.23669 2.45933,3.03714 2.62084,6.2042 2.62084,51.38154 0,43.81781 -0.21777,48.40712 -2.42261,51.06273 -2.89913,3.49199 -9.56952,4.81123 -13.7447,2.71848 z m 290.48565,-44.92276 c -4.33221,-3.03431 -6.02187,-7.98418 -4.28495,-12.5526 2.61829,-6.88669 4.30672,-7.28919 30.77561,-7.33645 24.3368,-0.0435 24.67586,-0.004 28.03269,3.35386 2.14189,2.14188 3.3979,4.97953 3.3979,7.67674 0,2.6972 -1.25601,5.53487 -3.3979,7.67676 -3.34608,3.34608 -3.76339,3.39789 -27.37859,3.39789 -19.74755,0 -24.53925,-0.39123 -27.14476,-2.2162 z M 624.44062,464.0317 c -5.6828,-2.75165 -7.58145,-10.79374 -3.81704,-16.16811 2.67476,-3.81878 53.26719,-29.28006 58.18033,-29.28006 8.69148,0 13.54169,13.02608 7.08153,19.01869 -3.89863,3.61648 -53.07993,28.08219 -56.19523,27.95495 -1.26104,-0.0509 -3.62337,-0.73803 -5.24959,-1.52547 z"
           id="path5178"
           inkscape:connector-curvature="0" />
        <path
           style="fill:#ec605f;fill-opacity:1;fill-rule:evenodd;stroke:none;stroke-width:1px;stroke-linecap:butt;stroke-linejoin:miter;stroke-opacity:1"
           d="m 392.68533,458.97104 0,93.80817 32.72377,97.08053 43.63171,-16.36188 -21.81585,-69.81073 99.26212,30.54219 1.09079,-186.52553 z"
           id="path5198"
           inkscape:connector-curvature="0" />
      </g>
      <path
         sodipodi:nodetypes="ccsssssscsssscsscccsscssccccssscsssssssssssssscc"
         inkscape:connector-curvature="0"
         id="path4177-3-5-5"
         d="m 410.96151,199.3642 -3.86936,-2.24062 -3.46158,2.02027 c -3.27186,1.90953 -3.57175,2.02618 -5.47182,2.12843 -1.56264,0.0841 -2.2917,-0.0165 -3.27425,-0.45151 -2.58902,-1.1464 -21.56465,-12.30204 -22.56654,-13.26671 -0.57248,-0.5512 -1.30736,-1.62231 -1.63309,-2.38024 -0.57807,-1.34513 -0.59029,-1.7002 -0.51131,-14.86147 l 0.0809,-13.4834 0.77055,-1.31209 c 0.42379,-0.72165 1.12667,-1.61153 1.56192,-1.97748 0.43527,-0.36597 5.71225,-3.50635 11.72665,-6.97861 10.02186,-5.78586 11.07004,-6.32543 12.5487,-6.45963 0.88738,-0.0805 2.08279,-0.0167 2.65645,0.14189 1.38748,0.38353 22.11622,12.3339 23.33236,13.45139 0.52346,0.481 1.25243,1.51016 1.61995,2.28703 l 0.66821,1.41249 0.002,13.30289 0.002,13.30289 -0.88372,1.77027 c -0.94558,1.89416 -1.64555,2.46203 -6.11234,4.95868 l -2.02167,1.12999 -0.006,4.53408 c -0.006,4.46333 -0.14819,5.21208 -0.98675,5.21208 -0.16661,0 -2.04413,-1.00827 -4.17227,-2.24062 z m -7.61622,-1.9147 3.74071,-2.12622 3.52479,2.01078 c 1.93864,1.10593 3.58894,2.01079 3.66735,2.01079 0.0784,0 0.14399,-1.87509 0.14569,-4.16685 l 0.004,-4.16684 3.37672,-1.93581 c 3.9933,-2.28927 5.1781,-3.46378 5.64134,-5.59227 0.2306,-1.05956 0.3019,-5.14586 0.23832,-13.65923 -0.0882,-11.80723 -0.10776,-12.17906 -0.69822,-13.2774 -0.33413,-0.6215 -0.90561,-1.40095 -1.26996,-1.73213 -0.56895,-0.51715 -18.93096,-11.25099 -21.66083,-12.66223 -0.70481,-0.36436 -1.42295,-0.46754 -2.69135,-0.3867 -1.66437,0.10606 -2.13666,0.3445 -12.44378,6.28153 -5.89255,3.39418 -11.01185,6.44086 -11.37618,6.7704 -0.36434,0.32952 -0.90408,1.07078 -1.19941,1.64725 -0.50512,0.98599 -0.53695,1.82803 -0.53695,14.20677 0,12.39368 0.0314,13.21957 0.53858,14.20676 0.29622,0.57646 0.89946,1.37636 1.34052,1.77754 1.04338,0.94907 21.75067,12.87451 22.67339,13.05772 1.74912,0.34733 3.24507,-0.13744 6.98616,-2.26386 z"
         style="fill:#ec605f;fill-opacity:1;stroke:#ec605f;stroke-width:1;stroke-opacity:1" />
    </g>
  </g>
</svg>
