<?xml version="1.0" encoding="UTF-8" standalone="no"?>
<!-- Created with Inkscape (http://www.inkscape.org/) -->

<svg
   xmlns:dc="http://purl.org/dc/elements/1.1/"
   xmlns:cc="http://creativecommons.org/ns#"
   xmlns:rdf="http://www.w3.org/1999/02/22-rdf-syntax-ns#"
   xmlns:svg="http://www.w3.org/2000/svg"
   xmlns="http://www.w3.org/2000/svg"
   xmlns:sodipodi="http://sodipodi.sourceforge.net/DTD/sodipodi-0.dtd"
   xmlns:inkscape="http://www.inkscape.org/namespaces/inkscape"
   width="200"
   height="220"
   viewBox="0 0 200 220"
   id="svg4328"
   version="1.1"
   inkscape:version="0.91 r13725"
   sodipodi:docname="dim_eco.svg">
  <defs
     id="defs4330" />
  <sodipodi:namedview
     id="base"
     pagecolor="#ffffff"
     bordercolor="#666666"
     borderopacity="1.0"
     inkscape:pageopacity="0"
     inkscape:pageshadow="2"
     inkscape:zoom="2.3201613"
     inkscape:cx="67.382689"
     inkscape:cy="116.94821"
     inkscape:document-units="px"
     inkscape:current-layer="layer1"
     showgrid="false"
     units="px"
     inkscape:window-width="1280"
     inkscape:window-height="1002"
     inkscape:window-x="-8"
     inkscape:window-y="-8"
     inkscape:window-maximized="1" />
  <metadata
     id="metadata4333">
    <rdf:RDF>
      <cc:Work
         rdf:about="">
        <dc:format>image/svg+xml</dc:format>
        <dc:type
           rdf:resource="http://purl.org/dc/dcmitype/StillImage" />
        <dc:title />
      </cc:Work>
    </rdf:RDF>
  </metadata>
  <g
     inkscape:label="Calque 1"
     inkscape:groupmode="layer"
     id="layer1"
     transform="translate(0,-832.3622)">
    <g
       id="g4190">
      <path
         inkscape:connector-curvature="0"
         id="path4311-0-7-8"
         d="m 41.473343,1041.6472 c -0.393233,-0.3932 -0.871207,-1.3175 -1.062158,-2.054 -0.386664,-1.4913 -0.809104,-12.9618 -0.833871,-22.6423 l -0.01602,-6.2877 -4.887154,-2.7515 C 17.853489,998.44163 16.697634,997.45871 12.473215,989.03207 l -2.093168,-4.17533 0,-42.9217 0,-42.92169 1.517914,-3.21805 c 2.573124,-5.45513 5.00585,-8.57262 8.539698,-10.94341 9.378782,-6.29204 57.232871,-33.89521 69.489767,-40.08304 4.454496,-2.24883 5.921409,-2.55945 11.112784,-2.35311 4.07178,0.16182 5.6727,0.63913 10.87053,3.24099 8.95724,4.4837 57.41528,32.44706 67.58213,38.99919 3.075,1.9817 4.92939,4.1099 7.96248,9.1382 l 1.83686,3.04519 0.22706,37.55981 c 0.23606,39.0471 0.0894,48.72391 -0.78838,52.00877 -0.85211,3.18888 -3.68442,7.90904 -6.14595,10.2425 -3.30624,3.13425 -54.09348,33.21881 -69.78724,41.33941 -6.18131,3.1985 -6.87058,3.3833 -12.46576,3.3408 -7.736675,-0.059 -9.076708,-0.5631 -22.802106,-8.5838 -4.282572,-2.5027 -7.900536,-4.5502 -8.039915,-4.5502 -0.139379,0 -4.678316,2.5381 -10.086547,5.6403 -11.241344,6.4481 -15.236866,8.5253 -16.398557,8.5253 -0.495155,0 -1.097796,-0.2813 -1.531404,-0.715 z"
         style="fill:#ffd460;fill-opacity:1" />
      <g
         id="text5078-6-4-3-7-1"
         style="font-style:normal;font-weight:normal;font-size:33.82696915px;line-height:100%;font-family:sans-serif;letter-spacing:0px;word-spacing:0px;display:inline;fill:#2d4059;fill-opacity:1;stroke:none;stroke-width:1px;stroke-linecap:butt;stroke-linejoin:miter;stroke-opacity:1">
        <path
           id="path4151"
           style="font-style:normal;font-variant:normal;font-weight:800;font-stretch:normal;font-size:20.53698349px;line-height:100%;font-family:Mosk;-inkscape-font-specification:'Mosk Ultra-Bold';fill:#2d4059;fill-opacity:1"
           d="m 48.684635,964.80805 q 1.519737,0 2.567123,0.69825 1.047386,0.69826 1.560811,1.86887 0.533961,1.17061 0.533961,2.62873 l 0,0.96524 -6.387002,0 q 0.451814,1.74564 2.628734,1.74564 1.417052,0 2.813567,-0.7804 l 0.903627,2.23853 q -0.698257,0.51343 -1.725106,0.82148 -1.006313,0.30805 -2.217995,0.30805 -2.731418,0 -4.312766,-1.37597 -1.560811,-1.37598 -1.560811,-3.81988 0,-1.60189 0.657184,-2.79303 0.657183,-1.21168 1.827791,-1.84833 1.191145,-0.65718 2.710882,-0.65718 z m -0.08215,2.64927 q -0.677721,0 -1.150071,0.47235 -0.451814,0.45181 -0.533962,1.21168 l 3.368066,0 q -0.123222,-0.75987 -0.554499,-1.21168 -0.41074,-0.47235 -1.129534,-0.47235 z m 2.731419,-8.19426 -2.156384,3.73773 -2.279605,-0.49289 1.211682,-3.24484 3.224307,0 z" />
        <path
           id="path4153"
           style="font-style:normal;font-variant:normal;font-weight:800;font-stretch:normal;font-size:20.53698349px;line-height:100%;font-family:Mosk;-inkscape-font-specification:'Mosk Ultra-Bold';fill:#2d4059;fill-opacity:1"
           d="m 59.619295,964.80805 q 0.780405,0 1.745644,0.24644 0.965238,0.24644 1.684032,0.78041 l -0.903627,2.23853 q -0.698257,-0.3286 -1.211682,-0.45182 -0.513425,-0.14376 -1.108997,-0.14376 -0.965238,0 -1.622422,0.73934 -0.636646,0.73933 -0.636646,1.8894 0,1.15007 0.636646,1.84833 0.657184,0.69825 1.622422,0.69825 0.575035,0 1.108997,-0.14375 0.533962,-0.14376 1.211682,-0.47236 l 0.903627,2.25907 q -0.698257,0.5545 -1.663495,0.78041 -0.944702,0.2259 -1.766181,0.2259 -1.601885,0 -2.834104,-0.6161 -1.211682,-0.61611 -1.889402,-1.78672 -0.657184,-1.19115 -0.657184,-2.79303 0,-1.60189 0.657184,-2.79303 0.67772,-1.21168 1.889402,-1.84833 1.232219,-0.65718 2.834104,-0.65718 z" />
        <path
           id="path4155"
           style="font-style:normal;font-variant:normal;font-weight:800;font-stretch:normal;font-size:20.53698349px;line-height:100%;font-family:Mosk;-inkscape-font-specification:'Mosk Ultra-Bold';fill:#2d4059;fill-opacity:1"
           d="m 69.247932,975.30244 q -1.622422,0 -2.854641,-0.59557 -1.232219,-0.61611 -1.930476,-1.78672 -0.677721,-1.19114 -0.677721,-2.85464 0,-1.60188 0.698258,-2.79303 0.718794,-1.19114 1.951013,-1.82779 1.252756,-0.63664 2.854641,-0.63664 1.622421,0 2.85464,0.63664 1.252756,0.61611 1.930477,1.80726 0.698257,1.19114 0.698257,2.85464 0,1.60188 -0.718794,2.77249 -0.698257,1.17061 -1.951013,1.80726 -1.252756,0.6161 -2.854641,0.6161 z m 2.197457,-5.19585 q 0,-1.15007 -0.595572,-1.8894 -0.575036,-0.73934 -1.540274,-0.73934 -1.006312,0 -1.601885,0.7188 -0.595572,0.69826 -0.595572,1.86886 0,1.17061 0.575035,1.88941 0.595573,0.69825 1.581348,0.69825 0.985775,0 1.581348,-0.69825 0.595572,-0.69826 0.595572,-1.84833 z" />
        <path
           id="path4157"
           style="font-style:normal;font-variant:normal;font-weight:800;font-stretch:normal;font-size:20.53698349px;line-height:100%;font-family:Mosk;-inkscape-font-specification:'Mosk Ultra-Bold';fill:#2d4059;fill-opacity:1"
           d="m 81.839668,967.41624 q -0.862553,0 -2.341216,0.86256 l 0,6.79774 -3.224306,0 0,-9.96044 1.992087,0 0.554499,1.04739 q 0.903627,-0.61611 1.951013,-0.98578 1.067923,-0.3902 2.012624,-0.3902 1.848329,0 2.669808,1.06792 0.842017,1.04739 0.842017,2.87518 l 0,6.34593 -3.224307,0 0,-6.09949 q 0,-0.71879 -0.308055,-1.12953 -0.308054,-0.43128 -0.924164,-0.43128 z" />
        <path
           id="path4159"
           style="font-style:normal;font-variant:normal;font-weight:800;font-stretch:normal;font-size:20.53698349px;line-height:100%;font-family:Mosk;-inkscape-font-specification:'Mosk Ultra-Bold';fill:#2d4059;fill-opacity:1"
           d="m 93.194375,975.30244 q -1.622421,0 -2.85464,-0.59557 -1.232219,-0.61611 -1.930477,-1.78672 -0.67772,-1.19114 -0.67772,-2.85464 0,-1.60188 0.698257,-2.79303 0.718795,-1.19114 1.951014,-1.82779 1.252756,-0.63664 2.85464,-0.63664 1.622422,0 2.854641,0.63664 1.252756,0.61611 1.930476,1.80726 0.698258,1.19114 0.698258,2.85464 0,1.60188 -0.718794,2.77249 -0.698258,1.17061 -1.951014,1.80726 -1.252756,0.6161 -2.854641,0.6161 z m 2.197458,-5.19585 q 0,-1.15007 -0.595573,-1.8894 -0.575035,-0.73934 -1.540274,-0.73934 -1.006312,0 -1.601884,0.7188 -0.595573,0.69826 -0.595573,1.86886 0,1.17061 0.575036,1.88941 0.595572,0.69825 1.581347,0.69825 0.985776,0 1.581348,-0.69825 0.595573,-0.69826 0.595573,-1.84833 z" />
        <path
           id="path4161"
           style="font-style:normal;font-variant:normal;font-weight:800;font-stretch:normal;font-size:20.53698349px;line-height:100%;font-family:Mosk;-inkscape-font-specification:'Mosk Ultra-Bold';fill:#2d4059;fill-opacity:1"
           d="m 116.40373,968.54578 0,6.53076 -3.20377,0 0,-6.09949 q 0,-0.75986 -0.24644,-1.15007 -0.22591,-0.41074 -0.86255,-0.41074 -0.43128,0 -0.96524,0.24645 -0.53396,0.2259 -1.19115,0.61611 l 0,0.26698 0,6.53076 -3.20377,0 0,-6.09949 q 0,-0.75986 -0.24644,-1.15007 -0.22591,-0.41074 -0.86255,-0.41074 -0.43128,0 -0.98578,0.24645 -0.53396,0.2259 -1.19114,0.61611 l 0,6.79774 -3.22431,0 0,-9.96044 1.99209,0 0.5545,1.04739 q 0.90362,-0.61611 1.90994,-0.98578 1.00631,-0.3902 1.8894,-0.3902 2.01262,0 2.81357,1.29383 0.88309,-0.57504 1.84832,-0.92416 0.96524,-0.36967 1.8278,-0.36967 1.78671,0 2.56712,0.98577 0.7804,0.96524 0.7804,2.7725 z" />
        <path
           id="path4163"
           style="font-style:normal;font-variant:normal;font-weight:800;font-stretch:normal;font-size:20.53698349px;line-height:100%;font-family:Mosk;-inkscape-font-specification:'Mosk Ultra-Bold';fill:#2d4059;fill-opacity:1"
           d="m 121.85983,961.97394 q 0,0.7188 -0.53396,1.25276 -0.51343,0.51342 -1.25276,0.51342 -0.71879,0 -1.25275,-0.51342 -0.51343,-0.53396 -0.51343,-1.25276 0,-0.73933 0.51343,-1.25275 0.53396,-0.53396 1.25275,-0.53396 0.73933,0 1.25276,0.53396 0.53396,0.51342 0.53396,1.25275 z m -0.1643,3.14216 0,9.96044 -3.2243,0 0,-9.96044 3.2243,0 z" />
        <path
           id="path4165"
           style="font-style:normal;font-variant:normal;font-weight:800;font-stretch:normal;font-size:20.53698349px;line-height:100%;font-family:Mosk;-inkscape-font-specification:'Mosk Ultra-Bold';fill:#2d4059;fill-opacity:1"
           d="m 133.35477,979.80004 -3.22431,0 0,-4.90833 q -0.92416,0.41073 -1.82779,0.41073 -2.32068,0 -3.69666,-1.35544 -1.37598,-1.35544 -1.37598,-3.84041 0,-2.48498 1.39652,-3.88149 1.39651,-1.41705 3.79934,-1.41705 0.69826,0 1.39652,0.28751 0.71879,0.26698 1.31436,0.75987 l 0.57504,-0.71879 1.64296,0 0,14.6634 z m -3.22431,-7.63975 0,-4.25116 q -0.73933,-0.51342 -1.56081,-0.51342 -0.90363,0 -1.45813,0.73933 -0.55449,0.73933 -0.55449,1.95101 0,1.23222 0.55449,1.95101 0.5545,0.69826 1.54028,0.69826 0.67772,0 1.47866,-0.57503 z" />
        <path
           id="path4167"
           style="font-style:normal;font-variant:normal;font-weight:800;font-stretch:normal;font-size:20.53698349px;line-height:100%;font-family:Mosk;-inkscape-font-specification:'Mosk Ultra-Bold';fill:#2d4059;fill-opacity:1"
           d="m 139.99367,972.79693 q 0.92416,0 2.32068,-0.88309 l 0,-6.7772 3.2243,0 0,9.96044 -1.78671,0 -0.75987,-1.04739 q -0.92417,0.59557 -1.97155,0.98577 -1.02685,0.39021 -1.97155,0.39021 -1.86887,0 -2.71089,-1.06793 -0.82147,-1.06792 -0.82147,-2.89571 l 0,-6.32539 3.2243,0 0,6.07895 q 0,0.73933 0.30806,1.1706 0.30805,0.41074 0.9447,0.41074 z" />
        <path
           id="path4169"
           style="font-style:normal;font-variant:normal;font-weight:800;font-stretch:normal;font-size:20.53698349px;line-height:100%;font-family:Mosk;-inkscape-font-specification:'Mosk Ultra-Bold';fill:#2d4059;fill-opacity:1"
           d="m 152.252,964.80805 q 1.51974,0 2.56713,0.69825 1.04738,0.69826 1.56081,1.86887 0.53396,1.17061 0.53396,2.62873 l 0,0.96524 -6.387,0 q 0.45181,1.74564 2.62873,1.74564 1.41705,0 2.81357,-0.7804 l 0.90362,2.23853 q -0.69825,0.51343 -1.7251,0.82148 -1.00632,0.30805 -2.218,0.30805 -2.73142,0 -4.31276,-1.37597 -1.56081,-1.37598 -1.56081,-3.81988 0,-1.60189 0.65718,-2.79303 0.65718,-1.21168 1.82779,-1.84833 1.19115,-0.65718 2.71088,-0.65718 z m -0.0822,2.64927 q -0.67772,0 -1.15007,0.47235 -0.45181,0.45181 -0.53396,1.21168 l 3.36807,0 q -0.12322,-0.75987 -0.5545,-1.21168 -0.41074,-0.47235 -1.12954,-0.47235 z" />
      </g>
      <g
         id="text5078-6-9-2-7-7-2-4"
         style="font-style:normal;font-weight:normal;font-size:53.71519089px;line-height:100%;font-family:sans-serif;letter-spacing:0px;word-spacing:0px;display:inline;fill:#ffffff;fill-opacity:1;stroke:none;stroke-width:1px;stroke-linecap:butt;stroke-linejoin:miter;stroke-opacity:1">
        <path
           id="path4172"
           style="font-style:normal;font-variant:normal;font-weight:800;font-stretch:normal;font-size:32.61149597px;line-height:100%;font-family:Mosk;-inkscape-font-specification:'Mosk Ultra-Bold';fill:#ffffff;fill-opacity:1"
           d="m 40.730437,957.0426 -2.60892,0 -0.945733,-1.27185 q -0.978345,0.75007 -2.119748,1.20663 -1.141402,0.42395 -2.348027,0.42395 -3.685099,0 -5.87007,-2.15236 -2.18497,-2.15236 -2.18497,-6.09835 0,-3.94599 2.217582,-6.16357 2.217582,-2.2502 6.033127,-2.2502 1.337071,0 2.706754,0.65223 l 0,-7.01147 5.120005,-0.35872 0,23.02371 z m -7.468033,-3.71771 q 1.07618,0 2.348028,-0.91312 l 0,-6.75058 q -1.174014,-0.81529 -2.478474,-0.81529 -1.434906,0 -2.315416,1.17402 -0.88051,1.17401 -0.88051,3.09809 0,1.95669 0.88051,3.09809 0.88051,1.10879 2.445862,1.10879 z" />
        <path
           id="path4174"
           style="font-style:normal;font-variant:normal;font-weight:800;font-stretch:normal;font-size:32.61149597px;line-height:100%;font-family:Mosk;-inkscape-font-specification:'Mosk Ultra-Bold';fill:#ffffff;fill-opacity:1"
           d="m 49.802038,936.23647 q 0,1.1414 -0.847899,1.9893 -0.815287,0.81529 -1.989301,0.81529 -1.141402,0 -1.989301,-0.81529 -0.815287,-0.8479 -0.815287,-1.9893 0,-1.17402 0.815287,-1.9893 0.847899,-0.8479 1.989301,-0.8479 1.174014,0 1.989301,0.8479 0.847899,0.81528 0.847899,1.9893 z m -0.260892,4.98956 0,15.81657 -5.120005,0 0,-15.81657 5.120005,0 z" />
        <path
           id="path4176"
           style="font-style:normal;font-variant:normal;font-weight:800;font-stretch:normal;font-size:32.61149597px;line-height:100%;font-family:Mosk;-inkscape-font-specification:'Mosk Ultra-Bold';fill:#ffffff;fill-opacity:1"
           d="m 78.65404,946.67215 0,10.37045 -5.087393,0 0,-9.68561 q 0,-1.20663 -0.391338,-1.82625 -0.358727,-0.65223 -1.369683,-0.65223 -0.684841,0 -1.53274,0.39134 -0.847899,0.35873 -1.891467,0.97835 l 0,0.42395 0,10.37045 -5.087393,0 0,-9.68561 q 0,-1.20663 -0.391338,-1.82625 -0.358727,-0.65223 -1.369683,-0.65223 -0.684842,0 -1.565352,0.39134 -0.847899,0.35873 -1.891467,0.97835 l 0,10.7944 -5.120005,0 0,-15.81657 3.163316,0 0.88051,1.66318 q 1.434906,-0.97834 3.032869,-1.56535 1.597963,-0.61962 3.000258,-0.61962 3.195926,0 4.467775,2.05453 1.402294,-0.91312 2.935034,-1.46752 1.532741,-0.58701 2.902423,-0.58701 2.837201,0 4.076437,1.56535 1.239237,1.53275 1.239237,4.40256 z" />
        <path
           id="path4178"
           style="font-style:normal;font-variant:normal;font-weight:800;font-stretch:normal;font-size:32.61149597px;line-height:100%;font-family:Mosk;-inkscape-font-specification:'Mosk Ultra-Bold';fill:#ffffff;fill-opacity:1"
           d="m 89.209464,940.73685 q 2.413251,0 4.076437,1.1088 1.663186,1.10879 2.478474,2.96764 0.847898,1.85886 0.847898,4.17427 l 0,1.53274 -10.142175,0 q 0.717453,2.77198 4.174272,2.77198 2.250193,0 4.467775,-1.23924 l 1.434905,3.55466 q -1.10879,0.81528 -2.739365,1.30446 -1.597963,0.48917 -3.522042,0.48917 -4.337329,0 -6.848414,-2.18497 -2.478474,-2.18497 -2.478474,-6.06574 0,-2.5437 1.043568,-4.43516 1.043568,-1.92408 2.902423,-2.93504 1.891467,-1.04357 4.304718,-1.04357 z m -0.130446,4.20689 q -1.076179,0 -1.826244,0.75006 -0.717453,0.71745 -0.847899,1.92408 l 5.348286,0 q -0.195669,-1.20663 -0.880511,-1.92408 -0.65223,-0.75006 -1.793632,-0.75006 z" />
        <path
           id="path4180"
           style="font-style:normal;font-variant:normal;font-weight:800;font-stretch:normal;font-size:32.61149597px;line-height:100%;font-family:Mosk;-inkscape-font-specification:'Mosk Ultra-Bold';fill:#ffffff;fill-opacity:1"
           d="m 107.8449,944.87851 q -1.36968,0 -3.71771,1.36969 l 0,10.7944 -5.120006,0 0,-15.81657 3.163316,0 0.88051,1.66318 q 1.43491,-0.97834 3.09809,-1.56535 1.6958,-0.61962 3.19593,-0.61962 2.93503,0 4.23949,1.6958 1.33707,1.66319 1.33707,4.56561 l 0,10.07695 -5.12,0 0,-9.68561 q 0,-1.1414 -0.48917,-1.79363 -0.48918,-0.68485 -1.46752,-0.68485 z" />
        <path
           id="path4182"
           style="font-style:normal;font-variant:normal;font-weight:800;font-stretch:normal;font-size:32.61149597px;line-height:100%;font-family:Mosk;-inkscape-font-specification:'Mosk Ultra-Bold';fill:#ffffff;fill-opacity:1"
           d="m 123.39701,957.40133 q -1.30446,0 -3.16331,-0.42395 -1.85886,-0.42395 -2.96765,-1.30446 l 1.50013,-3.32637 q 1.01096,0.48917 2.21758,0.81528 1.23924,0.29351 2.08714,0.29351 0.78267,0 1.36968,-0.26089 0.61962,-0.29351 0.61962,-0.78268 0,-0.42395 -0.58701,-0.81529 -0.55439,-0.39134 -1.56535,-0.71745 -2.38064,-0.81529 -3.91338,-2.02191 -1.53274,-1.20663 -1.53274,-3.06548 0,-2.34803 1.76102,-3.6851 1.76102,-1.36969 4.8265,-1.36969 1.23924,0 2.86981,0.42395 1.66319,0.39134 2.80459,1.23924 l -1.46751,3.32637 q -2.28281,-1.01095 -4.04383,-1.01095 -0.75006,0 -1.23924,0.2935 -0.48917,0.2935 -0.48917,0.75006 0,0.52179 2.05453,1.23924 5.44611,1.89147 5.44611,5.28306 0,2.44587 -1.69579,3.78294 -1.66319,1.33707 -4.89173,1.33707 z" />
        <path
           id="path4184"
           style="font-style:normal;font-variant:normal;font-weight:800;font-stretch:normal;font-size:32.61149597px;line-height:100%;font-family:Mosk;-inkscape-font-specification:'Mosk Ultra-Bold';fill:#ffffff;fill-opacity:1"
           d="m 137.8276,936.23647 q 0,1.1414 -0.8479,1.9893 -0.81528,0.81529 -1.9893,0.81529 -1.1414,0 -1.9893,-0.81529 -0.81529,-0.8479 -0.81529,-1.9893 0,-1.17402 0.81529,-1.9893 0.8479,-0.8479 1.9893,-0.8479 1.17402,0 1.9893,0.8479 0.8479,0.81528 0.8479,1.9893 z m -0.26089,4.98956 0,15.81657 -5.12,0 0,-15.81657 5.12,0 z" />
        <path
           id="path4186"
           style="font-style:normal;font-variant:normal;font-weight:800;font-stretch:normal;font-size:32.61149597px;line-height:100%;font-family:Mosk;-inkscape-font-specification:'Mosk Ultra-Bold';fill:#ffffff;fill-opacity:1"
           d="m 148.67805,957.40133 q -2.57631,0 -4.533,-0.94573 -1.95668,-0.97835 -3.06548,-2.8372 -1.07618,-1.89147 -1.07618,-4.533 0,-2.5437 1.1088,-4.43517 1.1414,-1.89146 3.09809,-2.90242 1.9893,-1.01096 4.533,-1.01096 2.5763,0 4.53299,1.01096 1.98931,0.97835 3.06548,2.86981 1.1088,1.89147 1.1088,4.533 0,2.5437 -1.14141,4.40255 -1.10879,1.85886 -3.09809,2.86981 -1.9893,0.97835 -4.533,0.97835 z m 3.48943,-8.25071 q 0,-1.82624 -0.94573,-3.00026 -0.91312,-1.17401 -2.44586,-1.17401 -1.59797,0 -2.5437,1.1414 -0.94573,1.10879 -0.94573,2.96765 0,1.85885 0.91312,3.00026 0.94573,1.10879 2.51108,1.10879 1.56536,0 2.51109,-1.10879 0.94573,-1.1088 0.94573,-2.93504 z" />
        <path
           id="path4188"
           style="font-style:normal;font-variant:normal;font-weight:800;font-stretch:normal;font-size:32.61149597px;line-height:100%;font-family:Mosk;-inkscape-font-specification:'Mosk Ultra-Bold';fill:#ffffff;fill-opacity:1"
           d="m 168.67298,944.87851 q -1.36968,0 -3.71771,1.36969 l 0,10.7944 -5.12001,0 0,-15.81657 3.16332,0 0.88051,1.66318 q 1.4349,-0.97834 3.09809,-1.56535 1.6958,-0.61962 3.19593,-0.61962 2.93503,0 4.23949,1.6958 1.33707,1.66319 1.33707,4.56561 l 0,10.07695 -5.12,0 0,-9.68561 q 0,-1.1414 -0.48917,-1.79363 -0.48918,-0.68485 -1.46752,-0.68485 z" />
      </g>
      <path
         inkscape:connector-curvature="0"
         id="path5215"
         d="m 90.690577,929.85456 c -0.202622,-0.14817 -0.323801,-0.55404 -0.419087,-1.40368 -0.07369,-0.65739 -0.288665,-1.60851 -0.477647,-2.11361 -0.316921,-0.84705 -0.641809,-1.32657 -2.41484,-3.56419 -0.816351,-1.03026 -2.100782,-3.53012 -2.551925,-4.96674 -0.694873,-2.21283 -0.584591,-5.51068 0.258075,-7.71717 0.300744,-0.78748 0.394183,-0.82138 1.025311,-0.37197 0.737718,0.52528 2.724513,1.41081 3.842613,1.71265 0.73484,0.19839 1.630978,0.28048 3.044135,0.27885 2.377165,-0.003 3.401254,-0.24041 5.594146,-1.29847 1.279966,-0.61759 1.731622,-0.95001 2.980242,-2.19341 1.74989,-1.74259 2.58848,-3.08944 3.30669,-5.31075 0.41912,-1.29635 0.64961,-1.74287 1.20737,-2.33929 1.24357,-1.32967 4.23082,-2.3485 4.90609,-1.67324 0.3797,0.37972 0.33786,0.86485 -0.16824,1.9504 -0.34855,0.74767 -0.43894,1.17631 -0.44058,2.08957 l -0.001,1.14898 1.21255,1.2543 c 1.43993,1.48952 2.07359,2.38809 2.81375,3.99007 0.51682,1.1186 0.58039,1.1896 1.06547,1.19046 0.82351,0.001 1.68786,0.30317 1.9531,0.68186 0.19565,0.27932 0.24505,0.87766 0.24505,2.96832 0,1.48952 -0.0711,2.75137 -0.16498,2.92672 -0.24483,0.45749 -1.00856,0.79222 -1.80755,0.79222 l -0.7067,0 -0.35187,0.92126 c -0.57699,1.51062 -1.75016,3.21966 -3.26692,4.75909 -1.85765,1.88544 -2.35344,2.85728 -2.35362,4.61365 -1.6e-4,1.90762 0.0486,1.88255 -3.6603,1.88255 -3.50174,0 -3.5493,-0.0185 -3.55007,-1.37446 l -4.9e-4,-0.78848 -2.162491,0 -2.162478,0 0,0.81631 c 1.4e-5,1.32106 -0.06731,1.34663 -3.546836,1.34663 -2.177624,0 -3.036236,-0.0552 -3.245902,-0.20843 z m 19.490433,-19.3356 c 0.52949,-0.41649 0.66825,-1.00874 0.37101,-1.58353 -0.47074,-0.91031 -1.65179,-0.99258 -2.23783,-0.15587 -0.86893,1.24057 0.6737,2.67789 1.86682,1.7394 z m -18.854053,-0.96281 c -3.469044,-0.6274 -6.389651,-2.8864 -7.769205,-6.00921 -1.24126,-2.80978 -1.071739,-6.50802 0.422263,-9.21251 1.17727,-2.13115 3.744138,-4.17221 6.128211,-4.87296 4.511496,-1.32606 9.762257,0.87188 11.908994,4.98503 3.00412,5.75589 0.20907,12.79528 -5.839141,14.70591 -1.442986,0.45584 -3.57976,0.63368 -4.851122,0.40374 z m 4.634291,-4.76406 c 0.743445,-0.28 0.799359,-0.33879 0.777075,-0.81713 -0.01357,-0.28348 -0.145758,-0.70121 -0.294555,-0.92829 -0.218867,-0.33403 -0.351936,-0.39272 -0.696949,-0.30732 -0.234543,0.058 -1.039276,0.14161 -1.788299,0.18572 -1.111165,0.0654 -1.464471,0.0269 -1.919413,-0.20973 -0.507451,-0.26386 -1.284947,-1.18071 -1.284947,-1.51524 0,-0.0751 0.605124,-0.13653 1.344715,-0.13653 1.43688,0 1.539209,-0.059 1.539209,-0.88866 0,-0.54829 -0.442783,-0.71352 -1.912071,-0.71352 -1.041882,0 -1.292276,-0.0466 -1.292276,-0.24033 0,-0.19461 0.256854,-0.24032 1.350402,-0.24032 1.45816,0 1.856197,-0.1833 1.851502,-0.85259 -0.0041,-0.63895 -0.198999,-0.73379 -1.604827,-0.78259 l -1.356753,-0.0471 0.644482,-0.66333 c 0.978014,-1.00662 1.923362,-1.20203 3.741654,-0.77341 1.175303,0.27705 1.31076,0.21694 1.619565,-0.71871 0.275976,-0.83624 0.116443,-1.0192 -1.198849,-1.37523 -2.736796,-0.74083 -5.517509,0.40641 -6.584525,2.71657 -0.363498,0.78705 -0.401457,0.81677 -1.141672,0.89421 -0.758442,0.0794 -0.766151,0.086 -0.816799,0.70467 -0.05687,0.69462 0.121464,0.89121 0.812171,0.89507 0.283738,0.001 0.440597,0.0879 0.440597,0.24278 0,0.14422 -0.147915,0.24032 -0.369917,0.24032 -0.624668,0 -0.943299,0.34891 -0.884385,0.96838 0.05076,0.534 0.07844,0.55537 0.778704,0.60109 0.71561,0.0467 0.730172,0.059 1.014155,0.8586 0.308167,0.86768 1.25798,2.01518 2.097444,2.53399 1.329773,0.82184 3.514644,0.9787 5.134562,0.36863 z"
         style="fill:#2d4059;fill-opacity:1" />
    </g>
  </g>
</svg>
