<?xml version="1.0" encoding="UTF-8" standalone="no"?>
<!-- Created with Inkscape (http://www.inkscape.org/) -->

<svg
   xmlns:dc="http://purl.org/dc/elements/1.1/"
   xmlns:cc="http://creativecommons.org/ns#"
   xmlns:rdf="http://www.w3.org/1999/02/22-rdf-syntax-ns#"
   xmlns:svg="http://www.w3.org/2000/svg"
   xmlns="http://www.w3.org/2000/svg"
   xmlns:sodipodi="http://sodipodi.sourceforge.net/DTD/sodipodi-0.dtd"
   xmlns:inkscape="http://www.inkscape.org/namespaces/inkscape"
   width="200"
   height="220"
   viewBox="0 0 200 220"
   id="svg4328"
   version="1.1"
   inkscape:version="0.91 r13725"
   sodipodi:docname="dim_demo.svg">
  <defs
     id="defs4330" />
  <sodipodi:namedview
     id="base"
     pagecolor="#ffffff"
     bordercolor="#666666"
     borderopacity="1.0"
     inkscape:pageopacity="0"
     inkscape:pageshadow="2"
     inkscape:zoom="2.3201613"
     inkscape:cx="-16.663192"
     inkscape:cy="116.94821"
     inkscape:document-units="px"
     inkscape:current-layer="layer1"
     showgrid="false"
     units="px"
     inkscape:window-width="1280"
     inkscape:window-height="1002"
     inkscape:window-x="-8"
     inkscape:window-y="-8"
     inkscape:window-maximized="1" />
  <metadata
     id="metadata4333">
    <rdf:RDF>
      <cc:Work
         rdf:about="">
        <dc:format>image/svg+xml</dc:format>
        <dc:type
           rdf:resource="http://purl.org/dc/dcmitype/StillImage" />
        <dc:title />
      </cc:Work>
    </rdf:RDF>
  </metadata>
  <g
     inkscape:label="Calque 1"
     inkscape:groupmode="layer"
     id="layer1"
     transform="translate(0,-832.3622)">
    <g
       id="g4188">
      <path
         inkscape:connector-curvature="0"
         id="path4311-0-1"
         d="m 41.47332,1041.6472 c -0.39322,-0.3932 -0.871193,-1.3175 -1.062158,-2.054 -0.386651,-1.4913 -0.80909,-12.9618 -0.833858,-22.6423 l -0.01601,-6.2877 -4.887154,-2.7515 C 17.853485,998.44164 16.69763,997.4587 12.473212,989.03208 l -2.093155,-4.17534 0,-42.92169 0,-42.92168 1.517901,-3.21805 c 2.573123,-5.45515 5.005863,-8.57264 8.539698,-10.94341 9.378794,-6.29205 57.232866,-33.89521 69.489762,-40.08304 4.454495,-2.24884 5.921421,-2.55947 11.112792,-2.35313 4.07176,0.16183 5.67268,0.63915 10.87051,3.241 8.95725,4.48369 57.41528,32.44707 67.58213,38.99918 3.075,1.98171 4.92939,4.10992 7.96248,9.1382 l 1.83686,3.04519 0.22707,37.5598 c 0.23607,39.04712 0.0894,48.72393 -0.78839,52.00879 -0.85211,3.18886 -3.68441,7.90902 -6.14595,10.2425 -3.30624,3.13423 -54.09347,33.2188 -69.78723,41.3394 -6.18132,3.1985 -6.87057,3.3833 -12.46576,3.3408 -7.73666,-0.059 -9.076694,-0.5631 -22.802104,-8.5838 -4.282558,-2.5027 -7.900535,-4.5502 -8.039901,-4.5502 -0.139392,0 -4.678329,2.5381 -10.08656,5.6403 -11.241329,6.4481 -15.236865,8.5253 -16.398542,8.5253 -0.495155,0 -1.097809,-0.2814 -1.531418,-0.715 z"
         style="fill:#f18249;fill-opacity:1" />
      <g
         id="text5078-6-4-3-7"
         style="font-style:normal;font-weight:normal;font-size:33.82696915px;line-height:100%;font-family:sans-serif;letter-spacing:0px;word-spacing:0px;display:inline;fill:#2d4059;fill-opacity:1;stroke:none;stroke-width:1px;stroke-linecap:butt;stroke-linejoin:miter;stroke-opacity:1">
        <path
           id="path4144"
           style="font-style:normal;font-variant:normal;font-weight:800;font-stretch:normal;font-size:20.53698158px;line-height:100%;font-family:Mosk;-inkscape-font-specification:'Mosk Ultra-Bold';fill:#2d4059;fill-opacity:1"
           d="m 45.749538,975.07654 -1.642958,0 -0.595573,-0.80094 q -0.616109,0.47235 -1.334904,0.75986 -0.718794,0.26698 -1.478662,0.26698 -2.320679,0 -3.696657,-1.35544 -1.375978,-1.35544 -1.375978,-3.84041 0,-2.48498 1.396515,-3.88149 1.396515,-1.41705 3.799342,-1.41705 0.842016,0 1.704569,0.41074 l 0,-4.41545 3.224306,-0.22591 0,14.49911 z m -4.702969,-2.34122 q 0.677721,0 1.478663,-0.57503 l 0,-4.25116 q -0.739331,-0.51342 -1.56081,-0.51342 -0.903628,0 -1.458126,0.73933 -0.554499,0.73933 -0.554499,1.95101 0,1.23222 0.554499,1.95101 0.554498,0.69826 1.540273,0.69826 z"
           inkscape:connector-curvature="0" />
        <path
           id="path4146"
           style="font-style:normal;font-variant:normal;font-weight:800;font-stretch:normal;font-size:20.53698158px;line-height:100%;font-family:Mosk;-inkscape-font-specification:'Mosk Ultra-Bold';fill:#2d4059;fill-opacity:1"
           d="m 52.653494,964.80805 q 1.519737,0 2.567123,0.69825 1.047386,0.69826 1.56081,1.86887 0.533962,1.17061 0.533962,2.62873 l 0,0.96524 -6.387001,0 q 0.451813,1.74565 2.628733,1.74565 1.417052,0 2.813567,-0.78041 l 0.903627,2.23853 q -0.698257,0.51343 -1.725107,0.82148 -1.006312,0.30805 -2.217994,0.30805 -2.731418,0 -4.312766,-1.37597 -1.56081,-1.37598 -1.56081,-3.81988 0,-1.60189 0.657183,-2.79303 0.657184,-1.21168 1.827791,-1.84833 1.191145,-0.65718 2.710882,-0.65718 z m -0.08215,2.64927 q -0.67772,0 -1.150071,0.47235 -0.451813,0.45181 -0.533961,1.21168 l 3.368065,0 q -0.123222,-0.75987 -0.554499,-1.21168 -0.41074,-0.47235 -1.129534,-0.47235 z m 2.731419,-8.19426 -2.156383,3.73773 -2.279605,-0.49288 1.211682,-3.24485 3.224306,0 z"
           inkscape:connector-curvature="0" />
        <path
           id="path4148"
           style="font-style:normal;font-variant:normal;font-weight:800;font-stretch:normal;font-size:20.53698158px;line-height:100%;font-family:Mosk;-inkscape-font-specification:'Mosk Ultra-Bold';fill:#2d4059;fill-opacity:1"
           d="m 75.006714,968.54578 0,6.53076 -3.203769,0 0,-6.09949 q 0,-0.75986 -0.246444,-1.15007 -0.225907,-0.41074 -0.862553,-0.41074 -0.431277,0 -0.965238,0.24645 -0.533962,0.2259 -1.191145,0.61611 l 0,0.26698 0,6.53076 -3.203769,0 0,-6.09949 q 0,-0.75986 -0.246444,-1.15007 -0.225907,-0.41074 -0.862553,-0.41074 -0.431277,0 -0.985775,0.24645 -0.533962,0.2259 -1.191145,0.61611 l 0,6.79774 -3.224306,0 0,-9.96044 1.992087,0 0.554498,1.04739 q 0.903628,-0.61611 1.90994,-0.98578 1.006312,-0.3902 1.889402,-0.3902 2.012624,0 2.813566,1.29383 0.883091,-0.57504 1.848329,-0.92416 0.965238,-0.36967 1.827791,-0.36967 1.786717,0 2.567123,0.98578 0.780405,0.96523 0.780405,2.77249 z"
           inkscape:connector-curvature="0" />
        <path
           id="path4150"
           style="font-style:normal;font-variant:normal;font-weight:800;font-stretch:normal;font-size:20.53698158px;line-height:100%;font-family:Mosk;-inkscape-font-specification:'Mosk Ultra-Bold';fill:#2d4059;fill-opacity:1"
           d="m 81.920937,975.30244 q -1.622421,0 -2.85464,-0.59557 -1.232219,-0.61611 -1.930476,-1.78671 -0.677721,-1.19115 -0.677721,-2.85465 0,-1.60188 0.698258,-2.79302 0.718794,-1.19115 1.951013,-1.8278 1.252756,-0.63664 2.85464,-0.63664 1.622422,0 2.854641,0.63664 1.252756,0.61611 1.930476,1.80726 0.698257,1.19114 0.698257,2.85464 0,1.60188 -0.718794,2.77249 -0.698257,1.17061 -1.951013,1.80726 -1.252756,0.6161 -2.854641,0.6161 z m 2.197457,-5.19585 q 0,-1.15007 -0.595572,-1.8894 -0.575036,-0.73934 -1.540274,-0.73934 -1.006312,0 -1.601884,0.7188 -0.595573,0.69826 -0.595573,1.86886 0,1.17061 0.575036,1.88941 0.595572,0.69825 1.581347,0.69825 0.985775,0 1.581348,-0.69825 0.595572,-0.69826 0.595572,-1.84833 z"
           inkscape:connector-curvature="0" />
        <path
           id="path4152"
           style="font-style:normal;font-variant:normal;font-weight:800;font-stretch:normal;font-size:20.53698158px;line-height:100%;font-family:Mosk;-inkscape-font-specification:'Mosk Ultra-Bold';fill:#2d4059;fill-opacity:1"
           d="m 93.711733,964.80805 q 0.780406,0 1.745644,0.24644 0.965238,0.24644 1.684032,0.78041 l -0.903627,2.23853 q -0.698257,-0.32859 -1.211682,-0.45182 -0.513424,-0.14376 -1.108997,-0.14376 -0.965238,0 -1.622421,0.73934 -0.636647,0.73933 -0.636647,1.8894 0,1.15007 0.636647,1.84833 0.657183,0.69825 1.622421,0.69825 0.575036,0 1.108997,-0.14375 0.533962,-0.14376 1.211682,-0.47236 l 0.903627,2.25907 q -0.698257,0.5545 -1.663495,0.78041 -0.944701,0.2259 -1.766181,0.2259 -1.601884,0 -2.834103,-0.6161 -1.211682,-0.61611 -1.889402,-1.78672 -0.657184,-1.19115 -0.657184,-2.79303 0,-1.60189 0.657184,-2.79303 0.67772,-1.21168 1.889402,-1.84833 1.232219,-0.65718 2.834103,-0.65718 z"
           inkscape:connector-curvature="0" />
        <path
           id="path4154"
           style="font-style:normal;font-variant:normal;font-weight:800;font-stretch:normal;font-size:20.53698158px;line-height:100%;font-family:Mosk;-inkscape-font-specification:'Mosk Ultra-Bold';fill:#2d4059;fill-opacity:1"
           d="m 105.04494,967.68322 q -0.7188,0 -1.6635,0.41074 -0.92416,0.39021 -1.66349,1.02685 l 0,5.95573 -3.224311,0 0,-9.9399 1.642961,0 0.90363,1.41705 q 0.71879,-0.5545 1.66349,-0.98577 0.9447,-0.45182 1.70457,-0.45182 l 0.63665,2.56712 0,0 z"
           inkscape:connector-curvature="0" />
        <path
           id="path4156"
           style="font-style:normal;font-variant:normal;font-weight:800;font-stretch:normal;font-size:20.53698158px;line-height:100%;font-family:Mosk;-inkscape-font-specification:'Mosk Ultra-Bold';fill:#2d4059;fill-opacity:1"
           d="m 109.97092,967.56 q -0.59557,0 -1.35544,0.18484 -0.75987,0.18483 -1.3349,0.45181 l -0.86255,-2.46444 q 0.67772,-0.36966 1.86886,-0.63664 1.19115,-0.28752 2.13585,-0.28752 1.25275,0 2.21799,0.49288 0.96524,0.49289 1.47866,1.39652 0.53397,0.88309 0.53397,2.03316 l 0,6.34593 -1.78672,0 -0.75987,-1.04739 q -1.109,1.27329 -2.4439,1.27329 -1.80726,0 -2.73142,-0.88309 -0.92416,-0.90362 -0.92416,-2.4439 0,-1.51973 1.02684,-2.2796 1.02685,-0.75987 2.81357,-0.75987 l 1.56081,0 q -0.0411,-0.65718 -0.43127,-1.00631 -0.36967,-0.36967 -1.00632,-0.36967 z m -0.10268,3.30646 q -0.51343,0 -0.84202,0.30805 -0.30805,0.30806 -0.30805,0.78041 0,0.36966 0.26698,0.63664 0.26698,0.26698 0.69826,0.26698 0.90362,0 1.74564,-0.7804 l 0,-1.21168 -1.56081,0 z"
           inkscape:connector-curvature="0" />
        <path
           id="path4158"
           style="font-style:normal;font-variant:normal;font-weight:800;font-stretch:normal;font-size:20.53698158px;line-height:100%;font-family:Mosk;-inkscape-font-specification:'Mosk Ultra-Bold';fill:#2d4059;fill-opacity:1"
           d="m 120.48297,965.34201 2.21799,0 0.57504,2.50551 -2.79303,0 0,3.32699 q 0,0.69826 0.34913,1.12954 0.34913,0.43127 0.96524,0.43127 0.63664,0 1.27329,-0.32859 l 0.92416,2.23853 q -0.34913,0.28752 -1.06792,0.51343 -0.71879,0.2259 -1.3349,0.2259 -1.88941,0 -3.10109,-0.98577 -1.21168,-0.98578 -1.21168,-2.79303 l 0,-3.75827 -1.43759,0 0,-2.50551 1.43759,0 0,-2.52605 3.20377,-0.49289 0,3.01894 z"
           inkscape:connector-curvature="0" />
        <path
           id="path4160"
           style="font-style:normal;font-variant:normal;font-weight:800;font-stretch:normal;font-size:20.53698158px;line-height:100%;font-family:Mosk;-inkscape-font-specification:'Mosk Ultra-Bold';fill:#2d4059;fill-opacity:1"
           d="m 128.7167,961.97394 q 0,0.7188 -0.53396,1.25276 -0.51343,0.51342 -1.25276,0.51342 -0.71879,0 -1.25275,-0.51342 -0.51343,-0.53396 -0.51343,-1.25276 0,-0.73933 0.51343,-1.25275 0.53396,-0.53396 1.25275,-0.53396 0.73933,0 1.25276,0.53396 0.53396,0.51342 0.53396,1.25275 z m -0.1643,3.14216 0,9.96044 -3.2243,0 0,-9.96044 3.2243,0 z"
           inkscape:connector-curvature="0" />
        <path
           id="path4162"
           style="font-style:normal;font-variant:normal;font-weight:800;font-stretch:normal;font-size:20.53698158px;line-height:100%;font-family:Mosk;-inkscape-font-specification:'Mosk Ultra-Bold';fill:#2d4059;fill-opacity:1"
           d="m 140.21164,979.80004 -3.22431,0 0,-4.90833 q -0.92416,0.41073 -1.82779,0.41073 -2.32068,0 -3.69666,-1.35544 -1.37598,-1.35544 -1.37598,-3.84041 0,-2.48498 1.39652,-3.88149 1.39651,-1.41705 3.79934,-1.41705 0.69826,0 1.39651,0.28752 0.7188,0.26698 1.31437,0.75986 l 0.57504,-0.71879 1.64296,0 0,14.6634 z m -3.22431,-7.63975 0,-4.25116 q -0.73933,-0.51342 -1.56081,-0.51342 -0.90363,0 -1.45813,0.73933 -0.5545,0.73933 -0.5545,1.95101 0,1.23222 0.5545,1.95101 0.5545,0.69826 1.54028,0.69826 0.67772,0 1.47866,-0.57503 z"
           inkscape:connector-curvature="0" />
        <path
           id="path4164"
           style="font-style:normal;font-variant:normal;font-weight:800;font-stretch:normal;font-size:20.53698158px;line-height:100%;font-family:Mosk;-inkscape-font-specification:'Mosk Ultra-Bold';fill:#2d4059;fill-opacity:1"
           d="m 146.85053,972.79693 q 0.92416,0 2.32068,-0.88309 l 0,-6.7772 3.2243,0 0,9.96044 -1.78671,0 -0.75987,-1.04739 q -0.92417,0.59557 -1.97155,0.98577 -1.02685,0.39021 -1.97155,0.39021 -1.86887,0 -2.71088,-1.06793 -0.82148,-1.06792 -0.82148,-2.89571 l 0,-6.32539 3.2243,0 0,6.07895 q 0,0.73933 0.30806,1.1706 0.30805,0.41074 0.9447,0.41074 z"
           inkscape:connector-curvature="0" />
        <path
           id="path4166"
           style="font-style:normal;font-variant:normal;font-weight:800;font-stretch:normal;font-size:20.53698158px;line-height:100%;font-family:Mosk;-inkscape-font-specification:'Mosk Ultra-Bold';fill:#2d4059;fill-opacity:1"
           d="m 159.10886,964.80805 q 1.51974,0 2.56713,0.69825 1.04738,0.69826 1.56081,1.86887 0.53396,1.17061 0.53396,2.62873 l 0,0.96524 -6.387,0 q 0.45181,1.74565 2.62873,1.74565 1.41705,0 2.81357,-0.78041 l 0.90362,2.23853 q -0.69825,0.51343 -1.7251,0.82148 -1.00631,0.30805 -2.218,0.30805 -2.73142,0 -4.31276,-1.37597 -1.56081,-1.37598 -1.56081,-3.81988 0,-1.60189 0.65718,-2.79303 0.65718,-1.21168 1.82779,-1.84833 1.19115,-0.65718 2.71088,-0.65718 z m -0.0821,2.64927 q -0.67773,0 -1.15008,0.47235 -0.45181,0.45181 -0.53396,1.21168 l 3.36807,0 q -0.12322,-0.75987 -0.5545,-1.21168 -0.41074,-0.47235 -1.12953,-0.47235 z"
           inkscape:connector-curvature="0" />
      </g>
      <g
         id="text5078-6-9-2-7-7-2"
         style="font-style:normal;font-weight:normal;font-size:53.71518707px;line-height:100%;font-family:sans-serif;letter-spacing:0px;word-spacing:0px;display:inline;fill:#ffffff;fill-opacity:1;stroke:none;stroke-width:1px;stroke-linecap:butt;stroke-linejoin:miter;stroke-opacity:1">
        <path
           id="path4169"
           style="font-style:normal;font-variant:normal;font-weight:800;font-stretch:normal;font-size:32.61149216px;line-height:100%;font-family:Mosk;-inkscape-font-specification:'Mosk Ultra-Bold';fill:#ffffff;fill-opacity:1"
           d="m 40.226902,957.0426 -2.608919,0 -0.945733,-1.27185 q -0.978345,0.75007 -2.119747,1.20663 -1.141402,0.42395 -2.348028,0.42395 -3.685098,0 -5.870068,-2.15236 -2.18497,-2.15236 -2.18497,-6.09835 0,-3.94599 2.217581,-6.16357 2.217582,-2.25019 6.033126,-2.25019 1.337071,0 2.706754,0.65223 l 0,-7.01147 5.120004,-0.35873 0,23.02371 z m -7.468031,-3.71771 q 1.076179,0 2.348027,-0.91312 l 0,-6.75058 q -1.174014,-0.81529 -2.478473,-0.81529 -1.434906,0 -2.315416,1.17402 -0.88051,1.17401 -0.88051,3.09809 0,1.95669 0.88051,3.09809 0.88051,1.10879 2.445862,1.10879 z"
           inkscape:connector-curvature="0" />
        <path
           id="path4171"
           style="font-style:normal;font-variant:normal;font-weight:800;font-stretch:normal;font-size:32.61149216px;line-height:100%;font-family:Mosk;-inkscape-font-specification:'Mosk Ultra-Bold';fill:#ffffff;fill-opacity:1"
           d="m 49.298503,936.23647 q 0,1.1414 -0.847899,1.9893 -0.815287,0.81529 -1.989301,0.81529 -1.141402,0 -1.989301,-0.81529 -0.815287,-0.8479 -0.815287,-1.9893 0,-1.17401 0.815287,-1.9893 0.847899,-0.8479 1.989301,-0.8479 1.174014,0 1.989301,0.8479 0.847899,0.81529 0.847899,1.9893 z m -0.260892,4.98956 0,15.81657 -5.120004,0 0,-15.81657 5.120004,0 z"
           inkscape:connector-curvature="0" />
        <path
           id="path4173"
           style="font-style:normal;font-variant:normal;font-weight:800;font-stretch:normal;font-size:32.61149216px;line-height:100%;font-family:Mosk;-inkscape-font-specification:'Mosk Ultra-Bold';fill:#ffffff;fill-opacity:1"
           d="m 78.150501,946.67215 0,10.37045 -5.087393,0 0,-9.68561 q 0,-1.20663 -0.391338,-1.82624 -0.358726,-0.65223 -1.369683,-0.65223 -0.684841,0 -1.53274,0.39133 -0.847898,0.35873 -1.891466,0.97835 l 0,0.42395 0,10.37045 -5.087393,0 0,-9.68561 q 0,-1.20663 -0.391338,-1.82624 -0.358726,-0.65223 -1.369683,-0.65223 -0.684841,0 -1.565351,0.39133 -0.847899,0.35873 -1.891467,0.97835 l 0,10.7944 -5.120004,0 0,-15.81657 3.163315,0 0.88051,1.66318 q 1.434906,-0.97834 3.032869,-1.56535 1.597963,-0.61962 3.000257,-0.61962 3.195926,0 4.467774,2.05453 1.402295,-0.91312 2.935035,-1.46752 1.53274,-0.58701 2.902423,-0.58701 2.837199,0 4.076436,1.56536 1.239237,1.53274 1.239237,4.40255 z"
           inkscape:connector-curvature="0" />
        <path
           id="path4175"
           style="font-style:normal;font-variant:normal;font-weight:800;font-stretch:normal;font-size:32.61149216px;line-height:100%;font-family:Mosk;-inkscape-font-specification:'Mosk Ultra-Bold';fill:#ffffff;fill-opacity:1"
           d="m 88.705923,940.73686 q 2.41325,0 4.076436,1.10879 1.663186,1.10879 2.478474,2.96764 0.847899,1.85886 0.847899,4.17427 l 0,1.53274 -10.142175,0 q 0.717453,2.77198 4.174271,2.77198 2.250193,0 4.467775,-1.23924 l 1.434906,3.55466 q -1.108791,0.81528 -2.739366,1.30446 -1.597963,0.48917 -3.522041,0.48917 -4.337328,0 -6.848413,-2.18497 -2.478474,-2.18497 -2.478474,-6.06574 0,-2.54369 1.043568,-4.43516 1.043568,-1.92408 2.902423,-2.93504 1.891466,-1.04356 4.304717,-1.04356 z m -0.130446,4.20688 q -1.076179,0 -1.826244,0.75006 -0.717453,0.71746 -0.847899,1.92408 l 5.348285,0 q -0.195669,-1.20662 -0.88051,-1.92408 -0.65223,-0.75006 -1.793632,-0.75006 z"
           inkscape:connector-curvature="0" />
        <path
           id="path4177"
           style="font-style:normal;font-variant:normal;font-weight:800;font-stretch:normal;font-size:32.61149216px;line-height:100%;font-family:Mosk;-inkscape-font-specification:'Mosk Ultra-Bold';fill:#ffffff;fill-opacity:1"
           d="m 107.34135,944.87852 q -1.36968,0 -3.71771,1.36968 l 0,10.7944 -5.120004,0 0,-15.81657 3.163314,0 0.88051,1.66318 q 1.43491,-0.97834 3.09809,-1.56535 1.6958,-0.61962 3.19593,-0.61962 2.93503,0 4.23949,1.6958 1.33707,1.66319 1.33707,4.56561 l 0,10.07695 -5.12,0 0,-9.68561 q 0,-1.1414 -0.48917,-1.79363 -0.48917,-0.68484 -1.46752,-0.68484 z"
           inkscape:connector-curvature="0" />
        <path
           id="path4179"
           style="font-style:normal;font-variant:normal;font-weight:800;font-stretch:normal;font-size:32.61149216px;line-height:100%;font-family:Mosk;-inkscape-font-specification:'Mosk Ultra-Bold';fill:#ffffff;fill-opacity:1"
           d="m 122.89347,957.40133 q -1.30446,0 -3.16331,-0.42395 -1.85886,-0.42395 -2.96765,-1.30446 l 1.50013,-3.32637 q 1.01096,0.48917 2.21758,0.81528 1.23924,0.29351 2.08714,0.29351 0.78267,0 1.36968,-0.26089 0.61962,-0.29351 0.61962,-0.78268 0,-0.42395 -0.58701,-0.81529 -0.55439,-0.39133 -1.56535,-0.71745 -2.38064,-0.81529 -3.91338,-2.02191 -1.53274,-1.20663 -1.53274,-3.06548 0,-2.34803 1.76102,-3.6851 1.76102,-1.36968 4.8265,-1.36968 1.23924,0 2.86981,0.42395 1.66319,0.39133 2.80459,1.23923 l -1.46752,3.32637 q -2.2828,-1.01095 -4.04382,-1.01095 -0.75007,0 -1.23924,0.2935 -0.48917,0.29351 -0.48917,0.75007 0,0.52178 2.05452,1.23923 5.44612,1.89147 5.44612,5.28306 0,2.44587 -1.69579,3.78294 -1.66319,1.33707 -4.89173,1.33707 z"
           inkscape:connector-curvature="0" />
        <path
           id="path4181"
           style="font-style:normal;font-variant:normal;font-weight:800;font-stretch:normal;font-size:32.61149216px;line-height:100%;font-family:Mosk;-inkscape-font-specification:'Mosk Ultra-Bold';fill:#ffffff;fill-opacity:1"
           d="m 137.32405,936.23647 q 0,1.1414 -0.84789,1.9893 -0.81529,0.81529 -1.98931,0.81529 -1.1414,0 -1.9893,-0.81529 -0.81528,-0.8479 -0.81528,-1.9893 0,-1.17401 0.81528,-1.9893 0.8479,-0.8479 1.9893,-0.8479 1.17402,0 1.98931,0.8479 0.84789,0.81529 0.84789,1.9893 z m -0.26089,4.98956 0,15.81657 -5.12,0 0,-15.81657 5.12,0 z"
           inkscape:connector-curvature="0" />
        <path
           id="path4183"
           style="font-style:normal;font-variant:normal;font-weight:800;font-stretch:normal;font-size:32.61149216px;line-height:100%;font-family:Mosk;-inkscape-font-specification:'Mosk Ultra-Bold';fill:#ffffff;fill-opacity:1"
           d="m 148.17451,957.40133 q -2.57631,0 -4.533,-0.94573 -1.95669,-0.97835 -3.06548,-2.8372 -1.07618,-1.89147 -1.07618,-4.533 0,-2.5437 1.1088,-4.43516 1.1414,-1.89147 3.09809,-2.90243 1.9893,-1.01095 4.53299,-1.01095 2.57631,0 4.533,1.01095 1.9893,0.97835 3.06548,2.86981 1.10879,1.89147 1.10879,4.533 0,2.5437 -1.1414,4.40255 -1.10879,1.85886 -3.09809,2.86981 -1.9893,0.97835 -4.533,0.97835 z m 3.48943,-8.25071 q 0,-1.82624 -0.94573,-3.00026 -0.91312,-1.17401 -2.44586,-1.17401 -1.59797,0 -2.5437,1.1414 -0.94573,1.10879 -0.94573,2.96765 0,1.85885 0.91312,3.00026 0.94573,1.10879 2.51108,1.10879 1.56535,0 2.51109,-1.10879 0.94573,-1.1088 0.94573,-2.93504 z"
           inkscape:connector-curvature="0" />
        <path
           id="path4185"
           style="font-style:normal;font-variant:normal;font-weight:800;font-stretch:normal;font-size:32.61149216px;line-height:100%;font-family:Mosk;-inkscape-font-specification:'Mosk Ultra-Bold';fill:#ffffff;fill-opacity:1"
           d="m 168.16943,944.87852 q -1.36968,0 -3.71771,1.36968 l 0,10.7944 -5.12,0 0,-15.81657 3.16331,0 0.88051,1.66318 q 1.43491,-0.97834 3.09809,-1.56535 1.6958,-0.61962 3.19593,-0.61962 2.93503,0 4.23949,1.6958 1.33707,1.66319 1.33707,4.56561 l 0,10.07695 -5.12,0 0,-9.68561 q 0,-1.1414 -0.48917,-1.79363 -0.48918,-0.68484 -1.46752,-0.68484 z"
           inkscape:connector-curvature="0" />
      </g>
      <g
         transform="matrix(0.12480973,0,0,0.12480973,34.064261,844.54053)"
         id="g5200">
        <path
           style="fill:#2d4059;fill-opacity:1"
           d="m 414.19577,656.67247 c -1.38609,-1.53162 -9.89102,-26.29388 -18.89994,-55.02719 l -16.37969,-52.24238 -0.004,-47.26 c -0.004,-42.95523 0.21775,-47.53125 2.41946,-50.23739 2.16854,-2.66512 51.77781,-18.10334 148.92467,-46.34465 l 7.85089,-2.28236 0,-7.57513 c 0,-5.7294 0.67435,-8.24977 2.76862,-10.34383 2.58862,-2.58859 4.61445,-2.76862 31.14743,-2.76862 32.33419,0 32.97906,0.21123 34.57741,11.32096 0.47328,3.29076 0.67363,54.78308 0.4457,114.42738 l -0.41522,108.4443 -3.88409,3.34056 c -3.81575,3.2817 -4.35479,3.34049 -30.61469,3.34049 -24.78396,0 -26.99133,-0.2047 -30.31047,-2.81597 -2.96231,-2.33011 -3.65117,-4.15123 -3.99357,-10.55737 l -0.41377,-7.74151 -36.5053,-10.96383 c -20.07792,-6.03005 -36.71124,-10.75794 -36.96291,-10.50627 -0.25189,0.25187 3.23813,12.41756 7.75507,27.03522 8.45673,27.36747 8.7894,30.47264 3.71657,34.68274 -2.92099,2.4242 -49.68666,16.85959 -54.61917,16.85959 -2.33397,0 -5.16415,-1.19336 -6.60432,-2.78474 z m 29.08552,-26.39275 c 5.32973,-1.62462 9.90714,-3.15683 10.17209,-3.40501 0.58362,-0.54661 -15.15883,-52.12907 -16.34879,-53.57004 -0.74418,-0.90113 -27.09947,-9.31067 -29.30423,-9.35052 -0.47982,-0.007 2.80043,11.66452 7.29,25.94043 4.48951,14.27586 9.46557,30.18186 11.0579,35.34651 2.27596,7.38167 3.38157,9.24076 5.16902,8.69132 1.25055,-0.38471 6.63436,-2.02813 11.96401,-3.65269 z m 140.50968,-127.25196 0,-98.28753 -11.7668,0 -11.76679,0 0,98.28753 0,98.28752 11.76679,0 11.7668,0 0,-98.28752 z m -45.68293,-0.86715 c 0,-71.21607 -0.13578,-75.41717 -2.42258,-74.737 -1.33238,0.39633 -31.07825,9.19045 -66.10187,19.54249 -35.02355,10.35203 -64.7694,19.14455 -66.10178,19.53879 -2.22589,0.65838 -2.4226,3.60929 -2.4226,36.34446 l 0,35.62763 40.49171,12.04574 c 22.2704,6.62516 52.63922,15.67183 67.4862,20.10369 14.84691,4.43187 27.46163,7.81802 28.03268,7.5249 0.57128,-0.29327 1.03824,-34.48899 1.03824,-75.9907 z m 110.462,71.47325 c -15.18628,-7.68278 -27.91997,-14.99818 -28.7249,-16.50217 -3.64993,-6.82012 1.61242,-16.72696 8.88508,-16.72696 4.08198,0 52.4896,23.77378 57.15522,28.06984 3.80113,3.50012 4.13301,10.54251 0.69176,14.68685 -5.11622,6.16234 -8.83831,5.22934 -38.00753,-9.52756 z M 351.66793,556.80897 c -5.74241,-2.87817 -6.10912,-6.50314 -5.6892,-56.22537 0.45151,-53.49693 0.17419,-52.17407 10.94764,-52.17407 4.27006,0 6.31324,0.79797 8.28803,3.23669 2.45933,3.03714 2.62084,6.2042 2.62084,51.38154 0,43.81781 -0.21777,48.40712 -2.42261,51.06273 -2.89913,3.49199 -9.56952,4.81123 -13.7447,2.71848 z m 290.48565,-44.92276 c -4.33221,-3.03431 -6.02187,-7.98418 -4.28495,-12.5526 2.61829,-6.88669 4.30672,-7.28919 30.77561,-7.33645 24.3368,-0.0435 24.67586,-0.004 28.03269,3.35386 2.14189,2.14188 3.3979,4.97953 3.3979,7.67674 0,2.6972 -1.25601,5.53487 -3.3979,7.67676 -3.34608,3.34608 -3.76339,3.39789 -27.37859,3.39789 -19.74755,0 -24.53925,-0.39123 -27.14476,-2.2162 z M 624.44062,464.0317 c -5.6828,-2.75165 -7.58145,-10.79374 -3.81704,-16.16811 2.67476,-3.81878 53.26719,-29.28006 58.18033,-29.28006 8.69148,0 13.54169,13.02608 7.08153,19.01869 -3.89863,3.61648 -53.07993,28.08219 -56.19523,27.95495 -1.26104,-0.0509 -3.62337,-0.73803 -5.24959,-1.52547 z"
           id="path5178"
           inkscape:connector-curvature="0" />
        <path
           style="fill:#2d4059;fill-opacity:1;fill-rule:evenodd;stroke:none;stroke-width:1px;stroke-linecap:butt;stroke-linejoin:miter;stroke-opacity:1"
           d="m 392.68533,458.97104 0,93.80817 32.72377,97.08053 43.63171,-16.36188 -21.81585,-69.81073 99.26212,30.54219 1.09079,-186.52553 z"
           id="path5198"
           inkscape:connector-curvature="0" />
      </g>
    </g>
  </g>
</svg>
