<?xml version="1.0" encoding="UTF-8" standalone="no"?>
<!-- Created with Inkscape (http://www.inkscape.org/) -->

<svg
   xmlns:dc="http://purl.org/dc/elements/1.1/"
   xmlns:cc="http://creativecommons.org/ns#"
   xmlns:rdf="http://www.w3.org/1999/02/22-rdf-syntax-ns#"
   xmlns:svg="http://www.w3.org/2000/svg"
   xmlns="http://www.w3.org/2000/svg"
   xmlns:sodipodi="http://sodipodi.sourceforge.net/DTD/sodipodi-0.dtd"
   xmlns:inkscape="http://www.inkscape.org/namespaces/inkscape"
   width="200"
   height="220"
   viewBox="0 0 200 220"
   id="svg4328"
   version="1.1"
   inkscape:version="0.91 r13725"
   sodipodi:docname="dim_social.svg">
  <defs
     id="defs4330" />
  <sodipodi:namedview
     id="base"
     pagecolor="#ffffff"
     bordercolor="#666666"
     borderopacity="1.0"
     inkscape:pageopacity="0"
     inkscape:pageshadow="2"
     inkscape:zoom="2.3201613"
     inkscape:cx="67.382689"
     inkscape:cy="116.94821"
     inkscape:document-units="px"
     inkscape:current-layer="layer1"
     showgrid="false"
     units="px"
     inkscape:window-width="1280"
     inkscape:window-height="1002"
     inkscape:window-x="-8"
     inkscape:window-y="-8"
     inkscape:window-maximized="1" />
  <metadata
     id="metadata4333">
    <rdf:RDF>
      <cc:Work
         rdf:about="">
        <dc:format>image/svg+xml</dc:format>
        <dc:type
           rdf:resource="http://purl.org/dc/dcmitype/StillImage" />
        <dc:title />
      </cc:Work>
    </rdf:RDF>
  </metadata>
  <g
     inkscape:label="Calque 1"
     inkscape:groupmode="layer"
     id="layer1"
     transform="translate(0,-832.3622)">
    <g
       id="g4190">
      <path
         inkscape:connector-curvature="0"
         id="path4311-0"
         d="m 41.473343,1041.6472 c -0.393233,-0.3932 -0.871206,-1.3175 -1.062157,-2.054 -0.386665,-1.4913 -0.809104,-12.9618 -0.833872,-22.6423 l -0.01601,-6.2877 -4.887154,-2.7515 C 17.853489,998.44163 16.697634,997.45871 12.473216,989.03207 l -2.093169,-4.17534 0,-42.92169 0,-42.92169 1.517915,-3.21805 c 2.573123,-5.45515 5.00585,-8.57262 8.539698,-10.94341 9.378781,-6.29204 57.23287,-33.89521 69.489767,-40.08304 4.454496,-2.24884 5.921409,-2.55945 11.112783,-2.35311 4.07178,0.16181 5.6727,0.63913 10.87053,3.24099 8.95724,4.4837 57.41528,32.44706 67.58213,38.99918 3.075,1.98171 4.92939,4.10991 7.96248,9.13821 l 1.83686,3.04519 0.22706,37.55979 c 0.23606,39.04712 0.0894,48.72393 -0.78838,52.00879 -0.85211,3.18888 -3.68442,7.90904 -6.14595,10.2425 -3.30624,3.13424 -54.09348,33.21881 -69.78724,41.33941 -6.18131,3.1985 -6.87058,3.3833 -12.46576,3.3408 -7.736674,-0.059 -9.076707,-0.5631 -22.802105,-8.5838 -4.282572,-2.5027 -7.900536,-4.5502 -8.039915,-4.5502 -0.139379,0 -4.678317,2.5381 -10.086548,5.6403 -11.241343,6.4481 -15.236865,8.5253 -16.398556,8.5253 -0.495155,0 -1.097796,-0.2814 -1.531405,-0.715 z"
         style="fill:#3db39e;fill-opacity:1" />
      <g
         id="text5078-6-4-3-2"
         style="font-style:normal;font-weight:normal;font-size:33.82696915px;line-height:100%;font-family:sans-serif;letter-spacing:0px;word-spacing:0px;display:inline;fill:#2d4059;fill-opacity:1;stroke:none;stroke-width:1px;stroke-linecap:butt;stroke-linejoin:miter;stroke-opacity:1">
        <path
           id="path4157"
           style="font-style:normal;font-variant:normal;font-weight:800;font-stretch:normal;font-size:20.53698349px;line-height:100%;font-family:Mosk;-inkscape-font-specification:'Mosk Ultra-Bold';fill:#2d4059;fill-opacity:1"
           d="m 73.942883,975.30244 q -0.821479,0 -1.992087,-0.26698 -1.170608,-0.26698 -1.868866,-0.82148 l 0.944702,-2.09477 q 0.636646,0.30806 1.396514,0.51343 0.780406,0.18483 1.314367,0.18483 0.492888,0 0.862554,-0.1643 0.390202,-0.18483 0.390202,-0.49288 0,-0.26698 -0.369665,-0.51343 -0.349129,-0.24644 -0.985776,-0.45181 -1.499199,-0.51343 -2.464438,-1.27329 -0.965238,-0.75987 -0.965238,-1.93048 0,-1.47866 1.108997,-2.32068 1.108997,-0.86255 3.039474,-0.86255 0.780405,0 1.807254,0.26698 1.047387,0.24644 1.766181,0.7804 l -0.924164,2.09477 q -1.437589,-0.63664 -2.546586,-0.63664 -0.472351,0 -0.780406,0.18483 -0.308054,0.18483 -0.308054,0.47235 0,0.32859 1.29383,0.78041 3.429676,1.19114 3.429676,3.32699 0,1.54027 -1.067923,2.38229 -1.047386,0.84201 -3.080548,0.84201 z" />
        <path
           id="path4159"
           style="font-style:normal;font-variant:normal;font-weight:800;font-stretch:normal;font-size:20.53698349px;line-height:100%;font-family:Mosk;-inkscape-font-specification:'Mosk Ultra-Bold';fill:#2d4059;fill-opacity:1"
           d="m 84.488624,975.30244 q -1.622422,0 -2.854641,-0.59557 -1.232219,-0.61611 -1.930476,-1.78672 -0.677721,-1.19114 -0.677721,-2.85464 0,-1.60188 0.698258,-2.79303 0.718794,-1.19114 1.951013,-1.82779 1.252756,-0.63664 2.854641,-0.63664 1.622422,0 2.854641,0.63664 1.252756,0.61611 1.930476,1.80726 0.698258,1.19114 0.698258,2.85464 0,1.60188 -0.718795,2.77249 -0.698257,1.17061 -1.951013,1.80726 -1.252756,0.6161 -2.854641,0.6161 z m 2.197457,-5.19585 q 0,-1.15007 -0.595572,-1.8894 -0.575036,-0.73934 -1.540274,-0.73934 -1.006312,0 -1.601885,0.7188 -0.595572,0.69826 -0.595572,1.86886 0,1.17061 0.575035,1.88941 0.595573,0.69825 1.581348,0.69825 0.985775,0 1.581348,-0.69825 0.595572,-0.69826 0.595572,-1.84833 z" />
        <path
           id="path4161"
           style="font-style:normal;font-variant:normal;font-weight:800;font-stretch:normal;font-size:20.53698349px;line-height:100%;font-family:Mosk;-inkscape-font-specification:'Mosk Ultra-Bold';fill:#2d4059;fill-opacity:1"
           d="m 96.27942,964.80805 q 0.780405,0 1.745643,0.24644 0.965239,0.24644 1.684033,0.78041 l -0.903627,2.23853 q -0.698258,-0.3286 -1.211682,-0.45182 -0.513425,-0.14376 -1.108997,-0.14376 -0.965238,0 -1.622422,0.73934 -0.636646,0.73933 -0.636646,1.8894 0,1.15007 0.636646,1.84833 0.657184,0.69825 1.622422,0.69825 0.575035,0 1.108997,-0.14375 0.533961,-0.14376 1.211682,-0.47236 l 0.903627,2.25907 q -0.698257,0.5545 -1.663496,0.78041 -0.944701,0.2259 -1.76618,0.2259 -1.601885,0 -2.834104,-0.6161 -1.211682,-0.61611 -1.889402,-1.78672 -0.657184,-1.19115 -0.657184,-2.79303 0,-1.60189 0.657184,-2.79303 0.67772,-1.21168 1.889402,-1.84833 1.232219,-0.65718 2.834104,-0.65718 z" />
        <path
           id="path4163"
           style="font-style:normal;font-variant:normal;font-weight:800;font-stretch:normal;font-size:20.53698349px;line-height:100%;font-family:Mosk;-inkscape-font-specification:'Mosk Ultra-Bold';fill:#2d4059;fill-opacity:1"
           d="m 104.44993,961.97394 q 0,0.7188 -0.53396,1.25276 -0.51343,0.51342 -1.25276,0.51342 -0.71879,0 -1.25275,-0.51342 -0.51343,-0.53396 -0.51343,-1.25276 0,-0.73933 0.51343,-1.25275 0.53396,-0.53396 1.25275,-0.53396 0.73933,0 1.25276,0.53396 0.53396,0.51342 0.53396,1.25275 z m -0.1643,3.14216 0,9.96044 -3.2243,0 0,-9.96044 3.2243,0 z" />
        <path
           id="path4165"
           style="font-style:normal;font-variant:normal;font-weight:800;font-stretch:normal;font-size:20.53698349px;line-height:100%;font-family:Mosk;-inkscape-font-specification:'Mosk Ultra-Bold';fill:#2d4059;fill-opacity:1"
           d="m 110.09183,967.56 q -0.59558,0 -1.35544,0.18483 -0.75987,0.18484 -1.33491,0.45182 l -0.86255,-2.46444 q 0.67772,-0.36967 1.86886,-0.63665 1.19115,-0.28751 2.13585,-0.28751 1.25276,0 2.21799,0.49288 0.96524,0.49289 1.47867,1.39652 0.53396,0.88309 0.53396,2.03316 l 0,6.34593 -1.78672,0 -0.75987,-1.04739 q -1.10899,1.27329 -2.4439,1.27329 -1.80725,0 -2.73142,-0.88309 -0.92416,-0.90362 -0.92416,-2.4439 0,-1.51973 1.02685,-2.2796 1.02685,-0.75987 2.81356,-0.75987 l 1.56082,0 q -0.0411,-0.65718 -0.43128,-1.00631 -0.36967,-0.36967 -1.00631,-0.36967 z m -0.10269,3.30646 q -0.51342,0 -0.84201,0.30805 -0.30806,0.30806 -0.30806,0.78041 0,0.36966 0.26698,0.63664 0.26698,0.26698 0.69826,0.26698 0.90363,0 1.74564,-0.7804 l 0,-1.21168 -1.56081,0 z" />
        <path
           id="path4167"
           style="font-style:normal;font-variant:normal;font-weight:800;font-stretch:normal;font-size:20.53698349px;line-height:100%;font-family:Mosk;-inkscape-font-specification:'Mosk Ultra-Bold';fill:#2d4059;fill-opacity:1"
           d="m 120.23421,960.57743 0,14.49911 -3.20377,0 0,-14.27321 3.20377,-0.2259 z" />
        <path
           id="path4169"
           style="font-style:normal;font-variant:normal;font-weight:800;font-stretch:normal;font-size:20.53698349px;line-height:100%;font-family:Mosk;-inkscape-font-specification:'Mosk Ultra-Bold';fill:#2d4059;fill-opacity:1"
           d="m 127.18084,964.80805 q 1.51974,0 2.56713,0.69825 1.04738,0.69826 1.56081,1.86887 0.53396,1.17061 0.53396,2.62873 l 0,0.96524 -6.387,0 q 0.45181,1.74564 2.62873,1.74564 1.41705,0 2.81357,-0.7804 l 0.90362,2.23853 q -0.69825,0.51343 -1.7251,0.82148 -1.00631,0.30805 -2.218,0.30805 -2.73142,0 -4.31276,-1.37597 -1.56081,-1.37598 -1.56081,-3.81988 0,-1.60189 0.65718,-2.79303 0.65718,-1.21168 1.82779,-1.84833 1.19115,-0.65718 2.71088,-0.65718 z m -0.0821,2.64927 q -0.67773,0 -1.15008,0.47235 -0.45181,0.45181 -0.53396,1.21168 l 3.36807,0 q -0.12322,-0.75987 -0.5545,-1.21168 -0.41074,-0.47235 -1.12953,-0.47235 z" />
      </g>
      <g
         id="text5078-6-9-2-7-7-6"
         style="font-style:normal;font-weight:normal;font-size:53.71519089px;line-height:100%;font-family:sans-serif;letter-spacing:0px;word-spacing:0px;display:inline;fill:#ffffff;fill-opacity:1;stroke:none;stroke-width:1px;stroke-linecap:butt;stroke-linejoin:miter;stroke-opacity:1">
        <path
           id="path4172"
           style="font-style:normal;font-variant:normal;font-weight:800;font-stretch:normal;font-size:32.61149597px;line-height:100%;font-family:Mosk;-inkscape-font-specification:'Mosk Ultra-Bold';fill:#ffffff;fill-opacity:1"
           d="m 41.491446,957.0426 -2.60892,0 -0.945733,-1.27185 q -0.978345,0.75007 -2.119747,1.20663 -1.141403,0.42395 -2.348028,0.42395 -3.685099,0 -5.870069,-2.15236 -2.184971,-2.15236 -2.184971,-6.09835 0,-3.94599 2.217582,-6.16357 2.217582,-2.2502 6.033127,-2.2502 1.337071,0 2.706754,0.65223 l 0,-7.01147 5.120005,-0.35872 0,23.02371 z m -7.468033,-3.71771 q 1.07618,0 2.348028,-0.91312 l 0,-6.75058 q -1.174014,-0.81529 -2.478474,-0.81529 -1.434905,0 -2.315416,1.17402 -0.88051,1.17401 -0.88051,3.09809 0,1.95669 0.88051,3.09809 0.880511,1.10879 2.445862,1.10879 z" />
        <path
           id="path4174"
           style="font-style:normal;font-variant:normal;font-weight:800;font-stretch:normal;font-size:32.61149597px;line-height:100%;font-family:Mosk;-inkscape-font-specification:'Mosk Ultra-Bold';fill:#ffffff;fill-opacity:1"
           d="m 50.563048,936.23647 q 0,1.1414 -0.847899,1.9893 -0.815288,0.81529 -1.989302,0.81529 -1.141402,0 -1.989301,-0.81529 -0.815287,-0.8479 -0.815287,-1.9893 0,-1.17402 0.815287,-1.9893 0.847899,-0.8479 1.989301,-0.8479 1.174014,0 1.989302,0.8479 0.847899,0.81528 0.847899,1.9893 z m -0.260892,4.98956 0,15.81657 -5.120005,0 0,-15.81657 5.120005,0 z" />
        <path
           id="path4176"
           style="font-style:normal;font-variant:normal;font-weight:800;font-stretch:normal;font-size:32.61149597px;line-height:100%;font-family:Mosk;-inkscape-font-specification:'Mosk Ultra-Bold';fill:#ffffff;fill-opacity:1"
           d="m 79.415049,946.67215 0,10.37045 -5.087393,0 0,-9.68561 q 0,-1.20663 -0.391338,-1.82625 -0.358726,-0.65223 -1.369683,-0.65223 -0.684841,0 -1.53274,0.39134 -0.847899,0.35873 -1.891467,0.97835 l 0,0.42395 0,10.37045 -5.087393,0 0,-9.68561 q 0,-1.20663 -0.391338,-1.82625 -0.358727,-0.65223 -1.369683,-0.65223 -0.684841,0 -1.565352,0.39134 -0.847899,0.35873 -1.891467,0.97835 l 0,10.7944 -5.120004,0 0,-15.81657 3.163315,0 0.88051,1.66318 q 1.434906,-0.97834 3.032869,-1.56535 1.597964,-0.61962 3.000258,-0.61962 3.195926,0 4.467775,2.05453 1.402294,-0.91312 2.935034,-1.46752 1.532741,-0.58701 2.902424,-0.58701 2.8372,0 4.076437,1.56535 1.239236,1.53275 1.239236,4.40256 z" />
        <path
           id="path4178"
           style="font-style:normal;font-variant:normal;font-weight:800;font-stretch:normal;font-size:32.61149597px;line-height:100%;font-family:Mosk;-inkscape-font-specification:'Mosk Ultra-Bold';fill:#ffffff;fill-opacity:1"
           d="m 89.970473,940.73685 q 2.413251,0 4.076437,1.1088 1.663186,1.10879 2.478474,2.96764 0.847899,1.85886 0.847899,4.17427 l 0,1.53274 -10.142176,0 q 0.717453,2.77198 4.174272,2.77198 2.250193,0 4.467775,-1.23924 l 1.434906,3.55466 q -1.108791,0.81528 -2.739366,1.30446 -1.597963,0.48917 -3.522042,0.48917 -4.337328,0 -6.848414,-2.18497 -2.478473,-2.18497 -2.478473,-6.06574 0,-2.5437 1.043567,-4.43516 1.043568,-1.92408 2.902424,-2.93504 1.891466,-1.04357 4.304717,-1.04357 z m -0.130446,4.20689 q -1.076179,0 -1.826244,0.75006 -0.717453,0.71745 -0.847899,1.92408 l 5.348286,0 q -0.195669,-1.20663 -0.880511,-1.92408 -0.65223,-0.75006 -1.793632,-0.75006 z" />
        <path
           id="path4180"
           style="font-style:normal;font-variant:normal;font-weight:800;font-stretch:normal;font-size:32.61149597px;line-height:100%;font-family:Mosk;-inkscape-font-specification:'Mosk Ultra-Bold';fill:#ffffff;fill-opacity:1"
           d="m 108.60591,944.87851 q -1.36968,0 -3.71771,1.36969 l 0,10.7944 -5.120007,0 0,-15.81657 3.163317,0 0.88051,1.66318 q 1.4349,-0.97834 3.09809,-1.56535 1.6958,-0.61962 3.19593,-0.61962 2.93503,0 4.23949,1.6958 1.33707,1.66319 1.33707,4.56561 l 0,10.07695 -5.12,0 0,-9.68561 q 0,-1.1414 -0.48917,-1.79363 -0.48918,-0.68485 -1.46752,-0.68485 z" />
        <path
           id="path4182"
           style="font-style:normal;font-variant:normal;font-weight:800;font-stretch:normal;font-size:32.61149597px;line-height:100%;font-family:Mosk;-inkscape-font-specification:'Mosk Ultra-Bold';fill:#ffffff;fill-opacity:1"
           d="m 124.15802,957.40133 q -1.30446,0 -3.16331,-0.42395 -1.85886,-0.42395 -2.96765,-1.30446 l 1.50013,-3.32637 q 1.01096,0.48917 2.21758,0.81528 1.23924,0.29351 2.08714,0.29351 0.78267,0 1.36968,-0.26089 0.61962,-0.29351 0.61962,-0.78268 0,-0.42395 -0.58701,-0.81529 -0.55439,-0.39134 -1.56535,-0.71745 -2.38064,-0.81529 -3.91338,-2.02191 -1.53274,-1.20663 -1.53274,-3.06548 0,-2.34803 1.76102,-3.6851 1.76102,-1.36969 4.8265,-1.36969 1.23924,0 2.86981,0.42395 1.66319,0.39134 2.80459,1.23924 l -1.46752,3.32637 q -2.2828,-1.01095 -4.04382,-1.01095 -0.75007,0 -1.23924,0.2935 -0.48917,0.2935 -0.48917,0.75006 0,0.52179 2.05452,1.23924 5.44612,1.89147 5.44612,5.28306 0,2.44587 -1.69579,3.78294 -1.66319,1.33707 -4.89173,1.33707 z" />
        <path
           id="path4184"
           style="font-style:normal;font-variant:normal;font-weight:800;font-stretch:normal;font-size:32.61149597px;line-height:100%;font-family:Mosk;-inkscape-font-specification:'Mosk Ultra-Bold';fill:#ffffff;fill-opacity:1"
           d="m 138.58861,936.23647 q 0,1.1414 -0.8479,1.9893 -0.81528,0.81529 -1.9893,0.81529 -1.1414,0 -1.9893,-0.81529 -0.81529,-0.8479 -0.81529,-1.9893 0,-1.17402 0.81529,-1.9893 0.8479,-0.8479 1.9893,-0.8479 1.17402,0 1.9893,0.8479 0.8479,0.81528 0.8479,1.9893 z m -0.26089,4.98956 0,15.81657 -5.12001,0 0,-15.81657 5.12001,0 z" />
        <path
           id="path4186"
           style="font-style:normal;font-variant:normal;font-weight:800;font-stretch:normal;font-size:32.61149597px;line-height:100%;font-family:Mosk;-inkscape-font-specification:'Mosk Ultra-Bold';fill:#ffffff;fill-opacity:1"
           d="m 149.43906,957.40133 q -2.57631,0 -4.533,-0.94573 -1.95669,-0.97835 -3.06548,-2.8372 -1.07618,-1.89147 -1.07618,-4.533 0,-2.5437 1.1088,-4.43517 1.1414,-1.89146 3.09809,-2.90242 1.9893,-1.01096 4.533,-1.01096 2.5763,0 4.53299,1.01096 1.9893,0.97835 3.06548,2.86981 1.10879,1.89147 1.10879,4.533 0,2.5437 -1.1414,4.40255 -1.10879,1.85886 -3.09809,2.86981 -1.9893,0.97835 -4.533,0.97835 z m 3.48943,-8.25071 q 0,-1.82624 -0.94573,-3.00026 -0.91312,-1.17401 -2.44586,-1.17401 -1.59797,0 -2.5437,1.1414 -0.94573,1.10879 -0.94573,2.96765 0,1.85885 0.91312,3.00026 0.94573,1.10879 2.51108,1.10879 1.56536,0 2.51109,-1.10879 0.94573,-1.1088 0.94573,-2.93504 z" />
        <path
           id="path4188"
           style="font-style:normal;font-variant:normal;font-weight:800;font-stretch:normal;font-size:32.61149597px;line-height:100%;font-family:Mosk;-inkscape-font-specification:'Mosk Ultra-Bold';fill:#ffffff;fill-opacity:1"
           d="m 169.43399,944.87851 q -1.36969,0 -3.71771,1.36969 l 0,10.7944 -5.12001,0 0,-15.81657 3.16332,0 0.88051,1.66318 q 1.4349,-0.97834 3.09809,-1.56535 1.6958,-0.61962 3.19593,-0.61962 2.93503,0 4.23949,1.6958 1.33707,1.66319 1.33707,4.56561 l 0,10.07695 -5.12,0 0,-9.68561 q 0,-1.1414 -0.48917,-1.79363 -0.48918,-0.68485 -1.46752,-0.68485 z" />
      </g>
      <g
         style="fill:#2d4059;fill-opacity:1"
         transform="matrix(0.53601514,0,0,0.53601514,-114.91622,700.04779)"
         id="g5116">
        <g
           transform="matrix(1.2335842,0,0,1.2335842,-87.814054,-96.480306)"
           id="g5194">
          <path
             sodipodi:nodetypes="ccsssssssscssssscccssccccsscccsssscc"
             inkscape:connector-curvature="0"
             id="path5090"
             d="m 402.41233,423.00722 -0.88489,-0.7905 -0.13548,-15.39937 c -0.12055,-13.70183 -0.17822,-15.29483 -0.52314,-14.45102 -0.21321,0.5216 -1.14279,2.54942 -2.06573,4.50628 -1.54189,3.26917 -1.75446,3.58312 -2.61929,3.86854 -1.49807,0.49441 -2.79028,-0.224 -3.06827,-1.70581 -0.13042,-0.69517 0.5781,-2.45672 4.02993,-10.01936 2.30349,-5.04673 4.44854,-9.43626 4.76677,-9.7545 0.55488,-0.55488 0.81704,-0.57861 6.39057,-0.57861 l 5.81195,0 0.64869,0.6774 c 0.77455,0.80883 8.84722,18.47541 8.84722,19.36164 0,0.82218 -0.91269,1.94247 -1.75467,2.1538 -0.37368,0.0938 -1.08688,2.6e-4 -1.58491,-0.20783 -0.81674,-0.34125 -1.1025,-0.80923 -2.9151,-4.77394 l -2.0096,-4.39561 -0.13548,15.35918 -0.13548,15.35921 -0.88489,0.7905 c -1.6749,1.4962 -4.06458,0.8182 -4.65894,-1.3218 -0.16354,-0.5889 -0.2794,-4.504 -0.28029,-9.4713 l -0.002,-8.46748 -0.94836,0 -0.94836,0 0,8.67938 c 0,9.3101 -0.0903,10.0219 -1.38647,10.9298 -1.02174,0.7156 -2.52829,0.5679 -3.55427,-0.3486 z m 3.3565,-46.25112 c -2.56224,-1.27682 -3.71686,-4.42108 -2.6027,-7.08764 0.88776,-2.12471 2.7309,-3.31426 5.1353,-3.31426 3.47488,0 5.79032,2.57392 5.49703,6.11065 -0.16383,1.97553 -1.13099,3.37761 -2.95792,4.288 -1.83279,0.91332 -3.24362,0.91422 -5.07171,0.003 z"
             style="fill:#2d4059;fill-opacity:1" />
          <path
             sodipodi:nodetypes="ccccssssssscssssssssscccsssccccccscccssscc"
             inkscape:connector-curvature="0"
             id="path5090-9"
             d="m 370.99373,423.01532 -0.8849,-0.7903 -0.079,-8.2868 -0.079,-8.28686 -1.44586,0 c -2.25987,0 -2.26986,-0.049 -1.1192,-5.48096 0.54526,-2.57402 1.04788,-4.9239 1.11694,-5.22195 0.0691,-0.29806 -0.53191,0.81529 -1.33549,2.47411 -1.31524,2.71503 -1.55521,3.0471 -2.40449,3.32739 -1.57503,0.5198 -3.18917,-0.52274 -3.18917,-2.05983 0,-0.88007 8.07514,-18.51672 8.84673,-19.32186 l 0.64918,-0.6774 5.81195,0 c 5.5528,0 5.83746,0.0255 6.38403,0.57208 0.31464,0.31464 2.46291,4.70419 4.77393,9.75455 3.82607,8.36123 4.18149,9.2661 3.97403,10.11751 -0.33146,1.36031 -1.62664,2.07168 -2.96667,1.62943 -0.90255,-0.29786 -1.10992,-0.5813 -2.44491,-3.34169 -0.8023,-1.65891 -1.39598,-2.71138 -1.3193,-2.33881 0.0767,0.37257 0.56189,2.6732 1.07822,5.11252 1.12098,5.29587 1.08969,5.45491 -1.07309,5.45491 l -1.4661,0 -0.0824,8.28686 -0.0824,8.2869 -0.88489,0.7902 c -0.66249,0.5917 -1.15515,0.7903 -1.96019,0.7903 -0.80503,0 -1.29769,-0.1986 -1.96018,-0.7903 l -0.88489,-0.7902 -0.0824,-8.2869 -0.0824,-8.28686 -0.93371,0 -0.93371,0 -0.002,7.51916 c -8.1e-4,4.3172 -0.12022,7.9465 -0.28029,8.5229 -0.59433,2.1399 -2.98392,2.8179 -4.65894,1.3219 z m 3.34998,-46.25448 c -4.03921,-2.01283 -4.0461,-7.81042 -0.0117,-9.86861 2.06566,-1.05382 5.10835,-0.53342 6.67003,1.14079 2.45426,2.63111 1.63776,7.1243 -1.5866,8.73106 -1.82809,0.91098 -3.23892,0.91008 -5.07171,-0.003 z"
             style="fill:#2d4059;fill-opacity:1" />
        </g>
      </g>
    </g>
  </g>
</svg>
