<?xml version="1.0" encoding="UTF-8" standalone="no"?>
<!-- Created with Inkscape (http://www.inkscape.org/) -->

<svg
   xmlns:dc="http://purl.org/dc/elements/1.1/"
   xmlns:cc="http://creativecommons.org/ns#"
   xmlns:rdf="http://www.w3.org/1999/02/22-rdf-syntax-ns#"
   xmlns:svg="http://www.w3.org/2000/svg"
   xmlns="http://www.w3.org/2000/svg"
   xmlns:sodipodi="http://sodipodi.sourceforge.net/DTD/sodipodi-0.dtd"
   xmlns:inkscape="http://www.inkscape.org/namespaces/inkscape"
   width="200"
   height="220"
   viewBox="0 0 200 220"
   id="svg4328"
   version="1.1"
   inkscape:version="0.91 r13725"
   sodipodi:docname="dim_envir.svg">
  <defs
     id="defs4330" />
  <sodipodi:namedview
     id="base"
     pagecolor="#ffffff"
     bordercolor="#666666"
     borderopacity="1.0"
     inkscape:pageopacity="0"
     inkscape:pageshadow="2"
     inkscape:zoom="2.3201613"
     inkscape:cx="89.539259"
     inkscape:cy="116.94821"
     inkscape:document-units="px"
     inkscape:current-layer="layer1"
     showgrid="false"
     units="px"
     inkscape:window-width="1280"
     inkscape:window-height="1002"
     inkscape:window-x="-8"
     inkscape:window-y="-8"
     inkscape:window-maximized="1" />
  <metadata
     id="metadata4333">
    <rdf:RDF>
      <cc:Work
         rdf:about="">
        <dc:format>image/svg+xml</dc:format>
        <dc:type
           rdf:resource="http://purl.org/dc/dcmitype/StillImage" />
        <dc:title />
      </cc:Work>
    </rdf:RDF>
  </metadata>
  <g
     inkscape:label="Calque 1"
     inkscape:groupmode="layer"
     id="layer1"
     transform="translate(0,-832.3622)">
    <g
       id="g4202">
      <path
         inkscape:connector-curvature="0"
         id="path4311-0-7"
         d="m 41.473323,1041.6472 c -0.39322,-0.3932 -0.871194,-1.3175 -1.062144,-2.054 -0.386665,-1.4913 -0.809104,-12.9618 -0.833872,-22.6423 l -0.01601,-6.2877 -4.887154,-2.7515 c -16.820642,-9.47006 -17.97651,-10.453 -22.200915,-18.87963 l -2.093168,-4.17533 0,-42.92169 0,-42.9217 1.517901,-3.21805 c 2.573137,-5.45513 5.005863,-8.57262 8.539697,-10.94341 9.378795,-6.29204 57.232866,-33.89519 69.489762,-40.08303 4.454496,-2.24883 5.921422,-2.55946 11.112794,-2.35312 4.07177,0.16183 5.67268,0.63914 10.87052,3.24099 8.95725,4.4837 57.41528,32.44708 67.58213,38.99919 3.07499,1.98171 4.92938,4.1099 7.96247,9.1382 l 1.83686,3.04519 0.22708,37.5598 c 0.23606,39.0471 0.0894,48.72393 -0.7884,52.00878 -0.85211,3.18887 -3.68441,7.90903 -6.14595,10.24249 -3.30624,3.13425 -54.09347,33.21882 -69.78722,41.33942 -6.18133,3.1985 -6.87058,3.3833 -12.46577,3.3408 -7.736662,-0.059 -9.076695,-0.5631 -22.802105,-8.5839 -4.282559,-2.5026 -7.900536,-4.5502 -8.039901,-4.5502 -0.139393,0 -4.67833,2.5382 -10.086547,5.6404 -11.241342,6.4481 -15.236878,8.5253 -16.398555,8.5253 -0.495155,0 -1.097796,-0.2814 -1.531418,-0.715 z"
         style="fill:#a1b870;fill-opacity:1" />
      <g
         id="text5078-6-4-3"
         style="font-style:normal;font-weight:normal;font-size:33.82696915px;line-height:100%;font-family:sans-serif;letter-spacing:0px;word-spacing:0px;display:inline;fill:#2d4059;fill-opacity:1;stroke:none;stroke-width:1px;stroke-linecap:butt;stroke-linejoin:miter;stroke-opacity:1">
        <path
           id="path4170"
           style="font-style:normal;font-variant:normal;font-weight:800;font-stretch:normal;font-size:20.53698158px;line-height:100%;font-family:Mosk;-inkscape-font-specification:'Mosk Ultra-Bold';fill:#2d4059;fill-opacity:1"
           d="m 20.445508,964.80805 q 1.519737,0 2.567123,0.69825 1.047386,0.69826 1.56081,1.86887 0.533962,1.17061 0.533962,2.62873 l 0,0.96524 -6.387001,0 q 0.451813,1.74565 2.628733,1.74565 1.417052,0 2.813567,-0.78041 l 0.903627,2.23853 q -0.698257,0.51343 -1.725106,0.82148 -1.006313,0.30805 -2.217994,0.30805 -2.731419,0 -4.312767,-1.37597 -1.56081,-1.37598 -1.56081,-3.81988 0,-1.60189 0.657183,-2.79303 0.657184,-1.21168 1.827792,-1.84833 1.191145,-0.65718 2.710881,-0.65718 z m -0.08215,2.64927 q -0.67772,0 -1.150071,0.47235 -0.451813,0.45181 -0.533961,1.21168 l 3.368065,0 q -0.123222,-0.75987 -0.554499,-1.21168 -0.410739,-0.47235 -1.129534,-0.47235 z" />
        <path
           id="path4172"
           style="font-style:normal;font-variant:normal;font-weight:800;font-stretch:normal;font-size:20.53698158px;line-height:100%;font-family:Mosk;-inkscape-font-specification:'Mosk Ultra-Bold';fill:#2d4059;fill-opacity:1"
           d="m 32.18111,967.41624 q -0.862554,0 -2.341216,0.86256 l 0,6.79774 -3.224306,0 0,-9.96044 1.992087,0 0.554498,1.04739 q 0.903628,-0.61611 1.951014,-0.98578 1.067923,-0.3902 2.012624,-0.3902 1.848328,0 2.669807,1.06792 0.842017,1.04739 0.842017,2.87518 l 0,6.34593 -3.224306,0 0,-6.09949 q 0,-0.71879 -0.308055,-1.12953 -0.308055,-0.43128 -0.924164,-0.43128 z" />
        <path
           id="path4174"
           style="font-style:normal;font-variant:normal;font-weight:800;font-stretch:normal;font-size:20.53698158px;line-height:100%;font-family:Mosk;-inkscape-font-specification:'Mosk Ultra-Bold';fill:#2d4059;fill-opacity:1"
           d="m 48.423617,965.1161 -3.922564,9.96044 -2.916251,0 -3.655583,-9.44701 3.039473,-0.88309 2.135846,6.20216 2.053699,-5.8325 3.26538,0 z" />
        <path
           id="path4176"
           style="font-style:normal;font-variant:normal;font-weight:800;font-stretch:normal;font-size:20.53698158px;line-height:100%;font-family:Mosk;-inkscape-font-specification:'Mosk Ultra-Bold';fill:#2d4059;fill-opacity:1"
           d="m 53.068183,961.97394 q 0,0.7188 -0.533961,1.25276 -0.513425,0.51342 -1.252756,0.51342 -0.718795,0 -1.252756,-0.51342 -0.513425,-0.53396 -0.513425,-1.25276 0,-0.73933 0.513425,-1.25275 0.533961,-0.53396 1.252756,-0.53396 0.739331,0 1.252756,0.53396 0.533961,0.51342 0.533961,1.25275 z m -0.164296,3.14216 0,9.96044 -3.224306,0 0,-9.96044 3.224306,0 z" />
        <path
           id="path4178"
           style="font-style:normal;font-variant:normal;font-weight:800;font-stretch:normal;font-size:20.53698158px;line-height:100%;font-family:Mosk;-inkscape-font-specification:'Mosk Ultra-Bold';fill:#2d4059;fill-opacity:1"
           d="m 61.605791,967.68322 q -0.718795,0 -1.663496,0.41074 -0.924164,0.39021 -1.663495,1.02685 l 0,5.95573 -3.224307,0 0,-9.9399 1.642959,0 0.903627,1.41705 q 0.718794,-0.5545 1.663496,-0.98577 0.944701,-0.45182 1.704569,-0.45182 l 0.636647,2.56712 0,0 z" />
        <path
           id="path4180"
           style="font-style:normal;font-variant:normal;font-weight:800;font-stretch:normal;font-size:20.53698158px;line-height:100%;font-family:Mosk;-inkscape-font-specification:'Mosk Ultra-Bold';fill:#2d4059;fill-opacity:1"
           d="m 67.722922,975.30244 q -1.622421,0 -2.85464,-0.59557 -1.232219,-0.61611 -1.930477,-1.78671 -0.67772,-1.19115 -0.67772,-2.85465 0,-1.60188 0.698257,-2.79302 0.718795,-1.19115 1.951014,-1.8278 1.252756,-0.63664 2.85464,-0.63664 1.622422,0 2.854641,0.63664 1.252755,0.61611 1.930476,1.80726 0.698257,1.19114 0.698257,2.85464 0,1.60188 -0.718794,2.77249 -0.698258,1.17061 -1.951013,1.80726 -1.252756,0.6161 -2.854641,0.6161 z m 2.197457,-5.19585 q 0,-1.15007 -0.595572,-1.8894 -0.575036,-0.73934 -1.540274,-0.73934 -1.006312,0 -1.601885,0.7188 -0.595572,0.69826 -0.595572,1.86886 0,1.17061 0.575036,1.88941 0.595572,0.69825 1.581347,0.69825 0.985775,0 1.581348,-0.69825 0.595572,-0.69826 0.595572,-1.84833 z" />
        <path
           id="path4182"
           style="font-style:normal;font-variant:normal;font-weight:800;font-stretch:normal;font-size:20.53698158px;line-height:100%;font-family:Mosk;-inkscape-font-specification:'Mosk Ultra-Bold';fill:#2d4059;fill-opacity:1"
           d="m 80.31466,967.41624 q -0.862553,0 -2.341216,0.86256 l 0,6.79774 -3.224306,0 0,-9.96044 1.992088,0 0.554498,1.04739 q 0.903627,-0.61611 1.951013,-0.98578 1.067923,-0.3902 2.012624,-0.3902 1.848329,0 2.669808,1.06792 0.842016,1.04739 0.842016,2.87518 l 0,6.34593 -3.224306,0 0,-6.09949 q 0,-0.71879 -0.308054,-1.12953 -0.308055,-0.43128 -0.924165,-0.43128 z" />
        <path
           id="path4184"
           style="font-style:normal;font-variant:normal;font-weight:800;font-stretch:normal;font-size:20.53698158px;line-height:100%;font-family:Mosk;-inkscape-font-specification:'Mosk Ultra-Bold';fill:#2d4059;fill-opacity:1"
           d="m 92.388162,967.41624 q -0.862553,0 -2.341216,0.86256 l 0,6.79774 -3.224306,0 0,-9.96044 1.992087,0 0.554499,1.04739 q 0.903627,-0.61611 1.951013,-0.98578 1.067923,-0.3902 2.012624,-0.3902 1.848328,0 2.669808,1.06792 0.842016,1.04739 0.842016,2.87518 l 0,6.34593 -3.224306,0 0,-6.09949 q 0,-0.71879 -0.308055,-1.12953 -0.308055,-0.43128 -0.924164,-0.43128 z" />
        <path
           id="path4186"
           style="font-style:normal;font-variant:normal;font-weight:800;font-stretch:normal;font-size:20.53698158px;line-height:100%;font-family:Mosk;-inkscape-font-specification:'Mosk Ultra-Bold';fill:#2d4059;fill-opacity:1"
           d="m 103.47588,964.80805 q 1.51974,0 2.56712,0.69825 1.04739,0.69826 1.56081,1.86887 0.53397,1.17061 0.53397,2.62873 l 0,0.96524 -6.38701,0 q 0.45182,1.74565 2.62874,1.74565 1.41705,0 2.81356,-0.78041 l 0.90363,2.23853 q -0.69826,0.51343 -1.7251,0.82148 -1.00632,0.30805 -2.218,0.30805 -2.73142,0 -4.312765,-1.37597 -1.560811,-1.37598 -1.560811,-3.81988 0,-1.60189 0.657184,-2.79303 0.657183,-1.21168 1.827792,-1.84833 1.19114,-0.65718 2.71088,-0.65718 z m -0.0821,2.64927 q -0.67772,0 -1.15007,0.47235 -0.45181,0.45181 -0.53396,1.21168 l 3.36807,0 q -0.12323,-0.75987 -0.5545,-1.21168 -0.41074,-0.47235 -1.12954,-0.47235 z" />
        <path
           id="path4188"
           style="font-style:normal;font-variant:normal;font-weight:800;font-stretch:normal;font-size:20.53698158px;line-height:100%;font-family:Mosk;-inkscape-font-specification:'Mosk Ultra-Bold';fill:#2d4059;fill-opacity:1"
           d="m 125.8291,968.54578 0,6.53076 -3.20377,0 0,-6.09949 q 0,-0.75986 -0.24644,-1.15007 -0.22591,-0.41074 -0.86256,-0.41074 -0.43127,0 -0.96523,0.24645 -0.53397,0.2259 -1.19115,0.61611 l 0,0.26698 0,6.53076 -3.20377,0 0,-6.09949 q 0,-0.75986 -0.24644,-1.15007 -0.22591,-0.41074 -0.86256,-0.41074 -0.43127,0 -0.98577,0.24645 -0.53396,0.2259 -1.19115,0.61611 l 0,6.79774 -3.2243,0 0,-9.96044 1.99209,0 0.55449,1.04739 q 0.90363,-0.61611 1.90994,-0.98578 1.00632,-0.3902 1.88941,-0.3902 2.01262,0 2.81356,1.29383 0.88309,-0.57504 1.84833,-0.92416 0.96524,-0.36967 1.82779,-0.36967 1.78672,0 2.56712,0.98578 0.78041,0.96523 0.78041,2.77249 z" />
        <path
           id="path4190"
           style="font-style:normal;font-variant:normal;font-weight:800;font-stretch:normal;font-size:20.53698158px;line-height:100%;font-family:Mosk;-inkscape-font-specification:'Mosk Ultra-Bold';fill:#2d4059;fill-opacity:1"
           d="m 132.47635,964.80805 q 1.51973,0 2.56712,0.69825 1.04738,0.69826 1.56081,1.86887 0.53396,1.17061 0.53396,2.62873 l 0,0.96524 -6.387,0 q 0.45181,1.74565 2.62873,1.74565 1.41706,0 2.81357,-0.78041 l 0.90363,2.23853 q -0.69826,0.51343 -1.72511,0.82148 -1.00631,0.30805 -2.21799,0.30805 -2.73142,0 -4.31277,-1.37597 -1.56081,-1.37598 -1.56081,-3.81988 0,-1.60189 0.65718,-2.79303 0.65719,-1.21168 1.82779,-1.84833 1.19115,-0.65718 2.71089,-0.65718 z m -0.0821,2.64927 q -0.67772,0 -1.15007,0.47235 -0.45182,0.45181 -0.53396,1.21168 l 3.36806,0 q -0.12322,-0.75987 -0.5545,-1.21168 -0.41074,-0.47235 -1.12953,-0.47235 z" />
        <path
           id="path4192"
           style="font-style:normal;font-variant:normal;font-weight:800;font-stretch:normal;font-size:20.53698158px;line-height:100%;font-family:Mosk;-inkscape-font-specification:'Mosk Ultra-Bold';fill:#2d4059;fill-opacity:1"
           d="m 144.21195,967.41624 q -0.86256,0 -2.34122,0.86256 l 0,6.79774 -3.22431,0 0,-9.96044 1.99209,0 0.5545,1.04739 q 0.90363,-0.61611 1.95101,-0.98578 1.06793,-0.3902 2.01263,-0.3902 1.84833,0 2.6698,1.06792 0.84202,1.04739 0.84202,2.87518 l 0,6.34593 -3.22431,0 0,-6.09949 q 0,-0.71879 -0.30805,-1.12953 -0.30805,-0.43128 -0.92416,-0.43128 z" />
        <path
           id="path4194"
           style="font-style:normal;font-variant:normal;font-weight:800;font-stretch:normal;font-size:20.53698158px;line-height:100%;font-family:Mosk;-inkscape-font-specification:'Mosk Ultra-Bold';fill:#2d4059;fill-opacity:1"
           d="m 154.49872,965.34201 2.218,0 0.57503,2.50551 -2.79303,0 0,3.32699 q 0,0.69826 0.34913,1.12954 0.34913,0.43127 0.96524,0.43127 0.63665,0 1.27329,-0.32859 l 0.92417,2.23853 q -0.34913,0.28752 -1.06793,0.51343 -0.71879,0.2259 -1.3349,0.2259 -1.8894,0 -3.10108,-0.98577 -1.21169,-0.98578 -1.21169,-2.79303 l 0,-3.75827 -1.43759,0 0,-2.50551 1.43759,0 0,-2.52605 3.20377,-0.49289 0,3.01894 z" />
        <path
           id="path4196"
           style="font-style:normal;font-variant:normal;font-weight:800;font-stretch:normal;font-size:20.53698158px;line-height:100%;font-family:Mosk;-inkscape-font-specification:'Mosk Ultra-Bold';fill:#2d4059;fill-opacity:1"
           d="m 162.99943,967.56 q -0.59557,0 -1.35544,0.18484 -0.75987,0.18483 -1.3349,0.45181 l -0.86256,-2.46444 q 0.67772,-0.36966 1.86887,-0.63664 1.19114,-0.28752 2.13585,-0.28752 1.25275,0 2.21799,0.49288 0.96524,0.49289 1.47866,1.39652 0.53396,0.88309 0.53396,2.03316 l 0,6.34593 -1.78671,0 -0.75987,-1.04739 q -1.109,1.27329 -2.4439,1.27329 -1.80726,0 -2.73142,-0.88309 -0.92417,-0.90362 -0.92417,-2.4439 0,-1.51973 1.02685,-2.2796 1.02685,-0.75987 2.81357,-0.75987 l 1.56081,0 q -0.0411,-0.65718 -0.43128,-1.00631 -0.36966,-0.36967 -1.00631,-0.36967 z m -0.10268,3.30646 q -0.51343,0 -0.84202,0.30805 -0.30805,0.30806 -0.30805,0.78041 0,0.36966 0.26698,0.63664 0.26698,0.26698 0.69825,0.26698 0.90363,0 1.74565,-0.7804 l 0,-1.21168 -1.56081,0 z" />
        <path
           id="path4198"
           style="font-style:normal;font-variant:normal;font-weight:800;font-stretch:normal;font-size:20.53698158px;line-height:100%;font-family:Mosk;-inkscape-font-specification:'Mosk Ultra-Bold';fill:#2d4059;fill-opacity:1"
           d="m 173.14181,960.57743 0,14.49911 -3.20377,0 0,-14.2732 3.20377,-0.22591 z" />
        <path
           id="path4200"
           style="font-style:normal;font-variant:normal;font-weight:800;font-stretch:normal;font-size:20.53698158px;line-height:100%;font-family:Mosk;-inkscape-font-specification:'Mosk Ultra-Bold';fill:#2d4059;fill-opacity:1"
           d="m 180.08845,964.80805 q 1.51974,0 2.56713,0.69825 1.04738,0.69826 1.56081,1.86887 0.53396,1.17061 0.53396,2.62873 l 0,0.96524 -6.387,0 q 0.45181,1.74565 2.62873,1.74565 1.41705,0 2.81357,-0.78041 l 0.90362,2.23853 q -0.69825,0.51343 -1.7251,0.82148 -1.00632,0.30805 -2.218,0.30805 -2.73142,0 -4.31276,-1.37597 -1.56081,-1.37598 -1.56081,-3.81988 0,-1.60189 0.65718,-2.79303 0.65718,-1.21168 1.82779,-1.84833 1.19115,-0.65718 2.71088,-0.65718 z m -0.0821,2.64927 q -0.67772,0 -1.15007,0.47235 -0.45181,0.45181 -0.53396,1.21168 l 3.36807,0 q -0.12322,-0.75987 -0.5545,-1.21168 -0.41074,-0.47235 -1.12954,-0.47235 z" />
      </g>
      <g
         id="text5078-6-9-2-7-7"
         style="font-style:normal;font-weight:normal;font-size:53.71518707px;line-height:100%;font-family:sans-serif;letter-spacing:0px;word-spacing:0px;display:inline;fill:#ffffff;fill-opacity:1;stroke:none;stroke-width:1px;stroke-linecap:butt;stroke-linejoin:miter;stroke-opacity:1">
        <path
           id="path4151"
           style="font-style:normal;font-variant:normal;font-weight:800;font-stretch:normal;font-size:32.61149216px;line-height:100%;font-family:Mosk;-inkscape-font-specification:'Mosk Ultra-Bold';fill:#ffffff;fill-opacity:1"
           d="m 40.529122,957.0426 -2.60892,0 -0.945733,-1.27185 q -0.978345,0.75007 -2.119747,1.20663 -1.141402,0.42395 -2.348027,0.42395 -3.685099,0 -5.870069,-2.15236 -2.18497,-2.15236 -2.18497,-6.09835 0,-3.94599 2.217582,-6.16357 2.217581,-2.25019 6.033126,-2.25019 1.337071,0 2.706754,0.65223 l 0,-7.01147 5.120004,-0.35873 0,23.02371 z m -7.468032,-3.71771 q 1.076179,0 2.348028,-0.91312 l 0,-6.75058 q -1.174014,-0.81529 -2.478474,-0.81529 -1.434906,0 -2.315416,1.17402 -0.88051,1.17401 -0.88051,3.09809 0,1.95669 0.88051,3.09809 0.88051,1.10879 2.445862,1.10879 z" />
        <path
           id="path4153"
           style="font-style:normal;font-variant:normal;font-weight:800;font-stretch:normal;font-size:32.61149216px;line-height:100%;font-family:Mosk;-inkscape-font-specification:'Mosk Ultra-Bold';fill:#ffffff;fill-opacity:1"
           d="m 49.600723,936.23647 q 0,1.1414 -0.847899,1.9893 -0.815288,0.81529 -1.989301,0.81529 -1.141402,0 -1.989301,-0.81529 -0.815288,-0.8479 -0.815288,-1.9893 0,-1.17401 0.815288,-1.9893 0.847899,-0.8479 1.989301,-0.8479 1.174013,0 1.989301,0.8479 0.847899,0.81529 0.847899,1.9893 z m -0.260892,4.98956 0,15.81657 -5.120005,0 0,-15.81657 5.120005,0 z" />
        <path
           id="path4155"
           style="font-style:normal;font-variant:normal;font-weight:800;font-stretch:normal;font-size:32.61149216px;line-height:100%;font-family:Mosk;-inkscape-font-specification:'Mosk Ultra-Bold';fill:#ffffff;fill-opacity:1"
           d="m 78.45272,946.67215 0,10.37045 -5.087393,0 0,-9.68561 q 0,-1.20663 -0.391337,-1.82624 -0.358727,-0.65223 -1.369683,-0.65223 -0.684842,0 -1.53274,0.39133 -0.847899,0.35873 -1.891467,0.97835 l 0,0.42395 0,10.37045 -5.087393,0 0,-9.68561 q 0,-1.20663 -0.391338,-1.82624 -0.358726,-0.65223 -1.369682,-0.65223 -0.684842,0 -1.565352,0.39133 -0.847899,0.35873 -1.891466,0.97835 l 0,10.7944 -5.120005,0 0,-15.81657 3.163315,0 0.88051,1.66318 q 1.434906,-0.97834 3.032869,-1.56535 1.597963,-0.61962 3.000257,-0.61962 3.195927,0 4.467775,2.05453 1.402294,-0.91312 2.935034,-1.46752 1.53274,-0.58701 2.902423,-0.58701 2.8372,0 4.076436,1.56536 1.239237,1.53274 1.239237,4.40255 z" />
        <path
           id="path4157"
           style="font-style:normal;font-variant:normal;font-weight:800;font-stretch:normal;font-size:32.61149216px;line-height:100%;font-family:Mosk;-inkscape-font-specification:'Mosk Ultra-Bold';fill:#ffffff;fill-opacity:1"
           d="m 89.008142,940.73686 q 2.413251,0 4.076437,1.10879 1.663186,1.10879 2.478473,2.96764 0.847899,1.85886 0.847899,4.17427 l 0,1.53274 -10.142174,0 q 0.717453,2.77198 4.174271,2.77198 2.250193,0 4.467774,-1.23924 l 1.434906,3.55466 q -1.108791,0.81528 -2.739365,1.30446 -1.597964,0.48917 -3.522042,0.48917 -4.337328,0 -6.848413,-2.18497 -2.478473,-2.18497 -2.478473,-6.06574 0,-2.54369 1.043567,-4.43516 1.043568,-1.92408 2.902423,-2.93504 1.891467,-1.04356 4.304717,-1.04356 z m -0.130446,4.20688 q -1.076179,0 -1.826243,0.75006 -0.717453,0.71746 -0.847899,1.92408 l 5.348285,0 q -0.195669,-1.20662 -0.880511,-1.92408 -0.65223,-0.75006 -1.793632,-0.75006 z" />
        <path
           id="path4159"
           style="font-style:normal;font-variant:normal;font-weight:800;font-stretch:normal;font-size:32.61149216px;line-height:100%;font-family:Mosk;-inkscape-font-specification:'Mosk Ultra-Bold';fill:#ffffff;fill-opacity:1"
           d="m 107.64357,944.87852 q -1.36968,0 -3.71771,1.36968 l 0,10.7944 -5.120005,0 0,-15.81657 3.163315,0 0.88051,1.66318 q 1.43491,-0.97834 3.09809,-1.56535 1.6958,-0.61962 3.19593,-0.61962 2.93503,0 4.23949,1.6958 1.33707,1.66319 1.33707,4.56561 l 0,10.07695 -5.12,0 0,-9.68561 q 0,-1.1414 -0.48917,-1.79363 -0.48918,-0.68484 -1.46752,-0.68484 z" />
        <path
           id="path4161"
           style="font-style:normal;font-variant:normal;font-weight:800;font-stretch:normal;font-size:32.61149216px;line-height:100%;font-family:Mosk;-inkscape-font-specification:'Mosk Ultra-Bold';fill:#ffffff;fill-opacity:1"
           d="m 123.19569,957.40133 q -1.30446,0 -3.16331,-0.42395 -1.85886,-0.42395 -2.96765,-1.30446 l 1.50013,-3.32637 q 1.01096,0.48917 2.21758,0.81528 1.23924,0.29351 2.08714,0.29351 0.78267,0 1.36968,-0.26089 0.61962,-0.29351 0.61962,-0.78268 0,-0.42395 -0.58701,-0.81529 -0.55439,-0.39133 -1.56535,-0.71745 -2.38064,-0.81529 -3.91338,-2.02191 -1.53274,-1.20663 -1.53274,-3.06548 0,-2.34803 1.76102,-3.6851 1.76102,-1.36968 4.8265,-1.36968 1.23924,0 2.86981,0.42395 1.66319,0.39133 2.80459,1.23923 l -1.46752,3.32637 q -2.2828,-1.01095 -4.04382,-1.01095 -0.75007,0 -1.23924,0.2935 -0.48917,0.29351 -0.48917,0.75007 0,0.52178 2.05452,1.23923 5.44612,1.89147 5.44612,5.28306 0,2.44587 -1.69579,3.78294 -1.66319,1.33707 -4.89173,1.33707 z" />
        <path
           id="path4163"
           style="font-style:normal;font-variant:normal;font-weight:800;font-stretch:normal;font-size:32.61149216px;line-height:100%;font-family:Mosk;-inkscape-font-specification:'Mosk Ultra-Bold';fill:#ffffff;fill-opacity:1"
           d="m 137.62627,936.23647 q 0,1.1414 -0.8479,1.9893 -0.81528,0.81529 -1.9893,0.81529 -1.1414,0 -1.9893,-0.81529 -0.81528,-0.8479 -0.81528,-1.9893 0,-1.17401 0.81528,-1.9893 0.8479,-0.8479 1.9893,-0.8479 1.17402,0 1.9893,0.8479 0.8479,0.81529 0.8479,1.9893 z m -0.26089,4.98956 0,15.81657 -5.12,0 0,-15.81657 5.12,0 z" />
        <path
           id="path4165"
           style="font-style:normal;font-variant:normal;font-weight:800;font-stretch:normal;font-size:32.61149216px;line-height:100%;font-family:Mosk;-inkscape-font-specification:'Mosk Ultra-Bold';fill:#ffffff;fill-opacity:1"
           d="m 148.47673,957.40133 q -2.57631,0 -4.533,-0.94573 -1.95669,-0.97835 -3.06548,-2.8372 -1.07618,-1.89147 -1.07618,-4.533 0,-2.5437 1.10879,-4.43516 1.14141,-1.89147 3.0981,-2.90243 1.9893,-1.01095 4.53299,-1.01095 2.57631,0 4.533,1.01095 1.9893,0.97835 3.06548,2.86981 1.10879,1.89147 1.10879,4.533 0,2.5437 -1.1414,4.40255 -1.10879,1.85886 -3.09809,2.86981 -1.9893,0.97835 -4.533,0.97835 z m 3.48943,-8.25071 q 0,-1.82624 -0.94573,-3.00026 -0.91312,-1.17401 -2.44586,-1.17401 -1.59797,0 -2.5437,1.1414 -0.94573,1.10879 -0.94573,2.96765 0,1.85885 0.91312,3.00026 0.94573,1.10879 2.51108,1.10879 1.56535,0 2.51109,-1.10879 0.94573,-1.1088 0.94573,-2.93504 z" />
        <path
           id="path4167"
           style="font-style:normal;font-variant:normal;font-weight:800;font-stretch:normal;font-size:32.61149216px;line-height:100%;font-family:Mosk;-inkscape-font-specification:'Mosk Ultra-Bold';fill:#ffffff;fill-opacity:1"
           d="m 168.47165,944.87852 q -1.36968,0 -3.71771,1.36968 l 0,10.7944 -5.12001,0 0,-15.81657 3.16332,0 0.88051,1.66318 q 1.43491,-0.97834 3.09809,-1.56535 1.6958,-0.61962 3.19593,-0.61962 2.93503,0 4.23949,1.6958 1.33707,1.66319 1.33707,4.56561 l 0,10.07695 -5.12,0 0,-9.68561 q 0,-1.1414 -0.48917,-1.79363 -0.48918,-0.68484 -1.46752,-0.68484 z" />
      </g>
      <path
         inkscape:connector-curvature="0"
         id="path5165"
         d="m 79.390976,925.67423 c -0.594662,-0.29313 -1.664419,-1.9027 -1.664419,-2.50431 0,-0.72624 0.682523,-1.78553 1.749756,-2.71567 2.153154,-1.87658 2.799102,-2.52618 2.799102,-2.81492 0,-0.16244 -0.161026,-0.68186 -0.357839,-1.15428 -0.311248,-0.74707 -0.35883,-1.16567 -0.365439,-3.21458 -0.0081,-2.75706 0.290131,-4.07281 1.4183,-6.2413 1.710032,-3.28689 5.161555,-6.28575 9.169956,-7.96728 2.621533,-1.09975 3.675779,-1.24787 11.011087,-1.54712 5.95241,-0.24284 7.2674,-0.5957 9.39244,-2.52033 0.64999,-0.58869 1.57376,-1.25195 2.05282,-1.47389 0.75206,-0.34845 0.94581,-0.37889 1.41847,-0.22289 0.86881,0.28673 1.41929,0.86299 1.96036,2.05217 0.80771,1.77527 1.22841,4.11292 1.23696,6.87339 0.0248,8.01347 -3.84331,14.3134 -11.42359,18.60539 -4.77856,2.70566 -9.427494,3.73416 -14.222579,3.14656 -2.242101,-0.27477 -3.709856,-0.71215 -5.949691,-1.77297 -1.127857,-0.53417 -2.193448,-0.97121 -2.36795,-0.97121 -0.407253,0 -0.774999,0.41128 -1.888348,2.11196 -1.050228,1.60429 -1.170213,1.75366 -1.79731,2.23764 -0.557937,0.43061 -1.413699,0.46751 -2.172086,0.0936 z m 11.46975,-10.66594 c 2.389854,-2.32353 3.235615,-3.03314 4.879418,-4.09395 2.567044,-1.6566 5.175396,-2.45862 8.689376,-2.67184 2.09914,-0.12744 2.1168,-0.13178 2.5704,-0.63944 0.51293,-0.57407 0.56547,-0.96177 0.2207,-1.62846 -0.37151,-0.71842 -1.00655,-0.89043 -2.81889,-0.76356 -6.390197,0.44733 -11.980271,3.33703 -16.622854,8.59299 -0.904185,1.02364 -1.11704,1.36768 -1.11704,1.80552 0,0.78322 0.659261,1.39748 1.499851,1.39748 0.603089,0 0.771538,-0.12472 2.699039,-1.99874 z"
         style="fill:#2d4059;fill-opacity:1" />
    </g>
  </g>
</svg>
