<?xml version="1.0" encoding="UTF-8" standalone="no"?>
<!-- Created with Inkscape (http://www.inkscape.org/) -->

<svg
   xmlns:dc="http://purl.org/dc/elements/1.1/"
   xmlns:cc="http://creativecommons.org/ns#"
   xmlns:rdf="http://www.w3.org/1999/02/22-rdf-syntax-ns#"
   xmlns:svg="http://www.w3.org/2000/svg"
   xmlns="http://www.w3.org/2000/svg"
   xmlns:sodipodi="http://sodipodi.sourceforge.net/DTD/sodipodi-0.dtd"
   xmlns:inkscape="http://www.inkscape.org/namespaces/inkscape"
   width="100mm"
   height="100mm"
   viewBox="0 0 354.33071 354.33071"
   id="svg3379"
   version="1.1"
   inkscape:version="0.91 r13725"
   sodipodi:docname="eco_evo_emploi.svg">
  <defs
     id="defs3381">
    <clipPath
       clipPathUnits="userSpaceOnUse"
       id="clipPath4259">
      <g
         transform="matrix(1.1594988,0,0,1.1594988,4.9803622,703.0113)"
         id="g4261"
         style="fill:#3db39e;fill-opacity:1">
        <g
           id="g4263"
           style="fill:#3db39e;fill-opacity:1">
          <g
             id="g4265"
             style="fill:#3db39e;fill-opacity:1">
            <path
               d="m 45.432,35.049 c -0.008,0 -0.017,0 -0.025,0 -2.809,0 -5.451,1.095 -7.446,3.085 -2.017,2.012 -3.128,4.691 -3.128,7.543 l 0,159.365 c 0,5.844 4.773,10.61 10.641,10.625 24.738,0.059 66.184,5.215 94.776,35.136 l 0,-166.78 c 0,-1.981 -0.506,-3.842 -1.461,-5.382 C 115.322,40.849 70.226,35.107 45.432,35.049 Z"
               id="path4267"
               inkscape:connector-curvature="0"
               style="fill:#3db39e;fill-opacity:1" />
            <path
               d="m 262.167,205.042 0,-159.366 c 0,-2.852 -1.111,-5.531 -3.128,-7.543 -1.995,-1.99 -4.639,-3.085 -7.445,-3.085 -0.009,0 -0.018,0 -0.026,0 -24.793,0.059 -69.889,5.801 -93.357,43.593 -0.955,1.54 -1.46,3.401 -1.46,5.382 l 0,166.779 c 28.592,-29.921 70.038,-35.077 94.776,-35.136 5.867,-0.015 10.64,-4.781 10.64,-10.624 z"
               id="path4269"
               inkscape:connector-curvature="0"
               style="fill:#3db39e;fill-opacity:1" />
            <path
               d="m 286.373,71.801 -7.706,0 0,133.241 c 0,14.921 -12.157,27.088 -27.101,27.125 -20.983,0.05 -55.581,4.153 -80.084,27.344 42.378,-10.376 87.052,-3.631 112.512,2.171 3.179,0.724 6.464,-0.024 9.011,-2.054 2.538,-2.025 3.994,-5.052 3.994,-8.301 l 0,-168.9 C 297,76.568 292.232,71.801 286.373,71.801 Z"
               id="path4271"
               inkscape:connector-curvature="0"
               style="fill:#3db39e;fill-opacity:1" />
            <path
               d="m 18.332,205.042 0,-133.241 -7.706,0 C 4.768,71.801 0,76.568 0,82.427 l 0,168.897 c 0,3.25 1.456,6.276 3.994,8.301 2.545,2.029 5.827,2.78 9.011,2.054 25.46,-5.803 70.135,-12.547 112.511,-2.171 -24.502,-23.19 -59.1,-27.292 -80.083,-27.342 C 30.49,232.13 18.332,219.963 18.332,205.042 Z"
               id="path4273"
               inkscape:connector-curvature="0"
               style="fill:#3db39e;fill-opacity:1" />
          </g>
        </g>
      </g>
    </clipPath>
    <clipPath
       clipPathUnits="userSpaceOnUse"
       id="clipPath4341">
      <g
         transform="matrix(0.86876854,0,0,0.86876854,3.8590621,701.89024)"
         id="g4343"
         style="fill:#3db39e;fill-opacity:1">
        <g
           id="g4345"
           style="fill:#3db39e;fill-opacity:1">
          <g
             id="g4347"
             style="fill:#3db39e;fill-opacity:1">
            <path
               inkscape:connector-curvature="0"
               d="m 225.092,276.586 c -7.101,4.355 -16.195,6.754 -25.607,6.754 -9.412,0 -18.506,-2.398 -25.607,-6.754 L 57.946,205.484 c 0,0 -10.464,-6.414 -10.464,8.116 0,16.5 0,66 0,66 0,0.66 0,3.973 0,5 0,37.402 68.053,77.723 152,77.723 83.947,0 152,-40.32 152,-77.723 0,-1.027 0,-4.34 0,-5 0,0 0,-52.502 0,-70.003 0,-11.663 -7.439,-5.964 -7.439,-5.964 l -118.951,72.953 z"
               id="path4349"
               style="fill:#3db39e;fill-opacity:1" />
            <path
               inkscape:connector-curvature="0"
               d="m 392.289,148.927 c 8.908,-5.463 8.908,-14.403 0,-19.867 L 215.681,40.745 c -8.908,-5.463 -23.485,-5.463 -32.393,0 L 6.681,129.06 c -8.908,5.463 -8.908,14.403 0,19.867 l 176.607,108.315 c 8.908,5.463 23.485,5.463 32.393,0"
               id="path4351"
               style="fill:#3db39e;fill-opacity:1" />
            <path
               inkscape:connector-curvature="0"
               d="m 384.985,309.475 c 0,-29.906 0,-119.625 0,-119.625 0,0 0.083,-5.666 -3.279,-3.795 -2.697,1.501 -9.308,5.186 -11.637,7.212 -2.689,2.337 -2.083,7.583 -2.083,7.583 0,0 0,81.469 0,108.625 0,1.542 -1.325,2.278 -1.957,2.65 -6.105,3.589 -10.21,10.214 -10.21,17.809 0,11.414 9.252,20.667 20.667,20.667 11.414,0 20.666,-9.253 20.666,-20.667 0,-7.624 -4.135,-14.27 -10.279,-17.85 -0.611,-0.356 -1.888,-1.068 -1.888,-2.609 z"
               id="path4353"
               style="fill:#3db39e;fill-opacity:1" />
          </g>
        </g>
      </g>
    </clipPath>
    <pattern
       y="0"
       x="0"
       height="6"
       width="6"
       patternUnits="userSpaceOnUse"
       id="EMFhbasepattern" />
    <pattern
       y="0"
       x="0"
       height="6"
       width="6"
       patternUnits="userSpaceOnUse"
       id="EMFhbasepattern-0" />
    <pattern
       y="0"
       x="0"
       height="6"
       width="6"
       patternUnits="userSpaceOnUse"
       id="EMFhbasepattern-5" />
  </defs>
  <sodipodi:namedview
     id="base"
     pagecolor="#ffffff"
     bordercolor="#666666"
     borderopacity="1.0"
     inkscape:pageopacity="0.0"
     inkscape:pageshadow="2"
     inkscape:zoom="1.203268"
     inkscape:cx="198.19126"
     inkscape:cy="132.13471"
     inkscape:document-units="px"
     inkscape:current-layer="layer1"
     showgrid="false"
     inkscape:window-width="1280"
     inkscape:window-height="1002"
     inkscape:window-x="-8"
     inkscape:window-y="49"
     inkscape:window-maximized="1" />
  <metadata
     id="metadata3384">
    <rdf:RDF>
      <cc:Work
         rdf:about="">
        <dc:format>image/svg+xml</dc:format>
        <dc:type
           rdf:resource="http://purl.org/dc/dcmitype/StillImage" />
        <dc:title />
      </cc:Work>
    </rdf:RDF>
  </metadata>
  <g
     inkscape:label="Calque 1"
     inkscape:groupmode="layer"
     id="layer1"
     transform="translate(0,-698.0315)">
    <g
       id="g4276"
       transform="matrix(3.5423297,0,0,3.5423297,-564.81568,-2780.9427)"
       style="fill:#bcbcbc;fill-opacity:1">
      <path
         style="fill:#bcbcbc;fill-opacity:1;fill-rule:nonzero;stroke:none"
         d="m 206.14747,1012.8692 c -0.33867,-3.4713 -3.25967,-6.1383 -6.77334,-6.1383 l -11.95902,0 c -3.49247,0 -6.43464,2.667 -6.75211,6.1383 l -2.18017,23.3467 c -0.0212,0.5715 0.16933,1.143 0.5715,1.5664 0.381,0.4233 0.93133,0.6773 1.50283,0.6773 l 4.10631,0 0.0635,37.7187 c 0,1.143 1.016,2.032 2.159,2.032 l 3.4713,0 c 1.16417,0 2.03198,-0.889 2.03198,-2.032 l 0,-31.3266 c 0,-0.5292 0.48683,-0.8679 1.016,-0.8679 l 0,0 c 0.52916,0 0.9525,0.3387 0.9525,0.8679 l 0,31.3266 c 0,1.143 0.93133,2.032 2.07425,2.032 l 3.47133,0 c 1.143,0 2.11667,-0.889 2.11667,-2.032 l 0,-37.7187 4.21216,0 c 0.5715,0 1.12184,-0.254 1.524,-0.6562 0.381,-0.4233 0.59267,-0.9948 0.55034,-1.5663 l -2.159,-23.3679 z"
         id="path4241"
         inkscape:connector-curvature="0" />
      <path
         style="fill:#bcbcbc;fill-opacity:1;fill-rule:nonzero;stroke:none"
         d="m 201.9988,995.21633 c 0,4.74131 -3.85233,8.59357 -8.59358,8.59357 -4.74131,0 -8.59361,-3.85226 -8.59361,-8.59357 0,-4.7413 3.8523,-8.59361 8.59361,-8.59361 4.74125,0 8.59358,3.85231 8.59358,8.59361 z"
         id="path4243"
         inkscape:connector-curvature="0" />
      <path
         style="fill:#bcbcbc;fill-opacity:1;fill-rule:nonzero;stroke:none"
         d="m 169.76223,1040.4704 22.81749,0 c 1.22767,0 2.2225,0.9949 2.2225,2.2225 l 0,11.6203 c 0,1.2276 -0.99483,2.2225 -2.2225,2.2225 l -22.81749,0 c -1.22766,0 -2.22248,-0.9949 -2.22248,-2.2225 l 0,-11.6203 c 0,-1.2276 0.99482,-2.2225 2.22248,-2.2225 z"
         id="path4245"
         inkscape:connector-curvature="0" />
      <path
         style="fill:#bcbcbc;fill-opacity:1;fill-rule:nonzero;stroke:none"
         d="m 195.16205,1046.3968 c -0.1905,-0.1058 -0.40216,-0.085 -0.59266,0.021 -2.96331,1.8204 -8.10678,2.3919 -10.18109,2.5612 -0.27516,0.021 -0.48683,0.2117 -0.52916,0.4445 -0.21167,1.0795 -1.16417,1.8627 -2.26484,1.8627 -1.1218,0 -2.0743,-0.7832 -2.28597,-1.8627 -0.0423,-0.2328 -0.254,-0.4233 -0.508,-0.4445 -2.09547,-0.1693 -7.23894,-0.7408 -10.20226,-2.5612 -0.19049,-0.1058 -0.40216,-0.127 -0.59266,-0.021 -0.1905,0.1059 -0.29633,0.2964 -0.29633,0.4869 l 0,8.9111 c 0,1.2489 1.03716,2.2437 2.30715,2.2437 l 23.13499,0 c 1.27,0 2.30717,-0.9948 2.30717,-2.2437 l 0,-8.9111 c 0,-0.1905 -0.10584,-0.381 -0.29634,-0.4869 z"
         id="path4247"
         inkscape:connector-curvature="0" />
      <path
         style="fill:#bcbcbc;fill-opacity:1;fill-rule:nonzero;stroke:none"
         d="m 193.15122,1038.9041 -5.77844,0 0,-1.143 c 0,-1.2277 -1.03717,-2.2437 -2.30717,-2.2437 l -6.94261,0 c -1.29114,0 -2.32831,1.016 -2.32831,2.2437 l 0,1.143 -5.77846,0 c -1.26999,0 -2.30715,0.9948 -2.30715,2.2437 l 0,2.6035 c 0,0.063 0,0.1267 0.0423,0.1902 1.12183,3.0057 9.96942,3.81 10.98542,3.8947 0.254,0.021 0.52917,-0.1694 0.59267,-0.4445 0.254,-1.016 1.18533,-1.7357 2.2648,-1.7357 1.0795,0 1.98967,0.7197 2.24367,1.7568 0.0635,0.254 0.29633,0.4234 0.55033,0.4234 0.0212,0 0.0423,0 0.0635,0 0.99481,-0.085 9.84242,-0.8679 10.98542,-3.8947 0.0212,-0.063 0.0212,-0.127 0.0212,-0.1902 l 0,-2.6035 c 0,-1.2489 -1.03717,-2.2437 -2.30717,-2.2437 z m -8.08561,0 -6.94261,0 0,-1.143 6.94261,0 0,1.143 z"
         id="path4249"
         inkscape:connector-curvature="0" />
      <path
         style="fill:#bcbcbc;fill-opacity:1;fill-rule:nonzero;stroke:none"
         d="m 247.42219,1037.7823 c 0.40216,-0.4022 0.59266,-0.9737 0.5715,-1.5452 l -2.18017,-23.3679 c -0.3175,-3.4713 -3.25967,-6.1383 -6.75217,-6.1383 l -11.95916,0 c -3.51339,0 -6.43439,2.667 -6.75189,6.1383 l -2.18017,23.3467 c -0.0423,0.5715 0.16934,1.143 0.55034,1.5664 0.40216,0.4233 0.9525,0.6773 1.524,0.6773 l 2.18016,0 -2.39183,13.1231 c -0.254,1.3123 0.10583,2.6246 0.9525,3.6406 0.8255,1.016 2.07433,1.5875 3.38667,1.5875 l 0.0423,19.3675 c 0,1.143 1.01572,2.032 2.15872,2.032 l 3.47133,0 c 1.143,0 2.032,-0.8678 2.032,-2.032 l 0,-19.3675 1.9685,0 0,19.3675 c 0,1.143 0.93133,2.032 2.07433,2.032 l 3.47134,0 c 1.143,0 2.11666,-0.8678 2.11666,-2.032 l 0,-19.3675 0.21167,0 c 1.31233,0 2.56117,-0.5715 3.40783,-1.5875 0.84667,-1.016 1.18534,-2.3283 0.9525,-3.6406 l -2.413,-13.1231 2.05317,0 c 0.5715,0 1.12183,-0.254 1.50283,-0.6773 z"
         id="path4251"
         inkscape:connector-curvature="0" />
      <path
         style="fill:#bcbcbc;fill-opacity:1;fill-rule:nonzero;stroke:none"
         d="m 241.66485,995.21633 c 0,4.74131 -3.83116,8.59357 -8.59366,8.59357 -4.74134,0 -8.57222,-3.85226 -8.57222,-8.59357 0,-4.7413 3.83088,-8.59361 8.57222,-8.59361 4.7625,0 8.59366,3.85231 8.59366,8.59361 z"
         id="path4253"
         inkscape:connector-curvature="0" />
      <path
         style="fill:#bcbcbc;fill-opacity:1;fill-rule:nonzero;stroke:none"
         d="m 209.13197,1040.4704 22.79622,0 c 1.24883,0 2.24366,0.9949 2.24366,2.2225 l 0,11.6203 c 0,1.2276 -0.99483,2.2225 -2.24366,2.2225 l -22.79622,0 c -1.22767,0 -2.2225,-0.9949 -2.2225,-2.2225 l 0,-11.6203 c 0,-1.2276 0.99483,-2.2225 2.2225,-2.2225 z"
         id="path4255"
         inkscape:connector-curvature="0" />
      <path
         style="fill:#bcbcbc;fill-opacity:1;fill-rule:nonzero;stroke:none"
         d="m 234.53169,1046.3968 c -0.1905,-0.1058 -0.42334,-0.085 -0.59267,0.021 -2.96333,1.8204 -8.10683,2.3919 -10.20205,2.5612 -0.254,0.021 -0.46567,0.2117 -0.508,0.4445 -0.21167,1.0795 -1.16417,1.8627 -2.286,1.8627 -1.12184,0 -2.07434,-0.7832 -2.26484,-1.8627 -0.0423,-0.2328 -0.254,-0.4233 -0.52916,-0.4445 -2.07434,-0.1693 -7.239,-0.7408 -10.18117,-2.5612 -0.1905,-0.1058 -0.42333,-0.127 -0.59267,-0.021 -0.1905,0.1059 -0.29633,0.2964 -0.29633,0.4869 l 0,8.9111 c 0,1.2489 1.03717,2.2437 2.30717,2.2437 l 23.13488,0 c 1.27,0 2.30717,-0.9948 2.30717,-2.2437 l 0,-8.9111 c 0,-0.1905 -0.10583,-0.381 -0.29633,-0.4869 z"
         id="path4257"
         inkscape:connector-curvature="0" />
      <path
         style="fill:#bcbcbc;fill-opacity:1;fill-rule:nonzero;stroke:none"
         d="m 232.52085,1038.9041 -5.7785,0 0,-1.143 c 0,-1.2277 -1.05833,-2.2437 -2.32805,-2.2437 l -6.94267,0 c -1.27,0 -2.30716,1.016 -2.30716,2.2437 l 0,1.143 -5.7785,0 c -1.27,0 -2.30717,0.9948 -2.30717,2.2437 l 0,2.6035 c 0,0.063 0,0.1267 0.0212,0.1902 1.143,3.0057 9.99067,3.81 10.9855,3.8947 0.27517,0.021 0.55033,-0.1694 0.61383,-0.4445 0.254,-1.016 1.16417,-1.7357 2.24367,-1.7357 1.0795,0 2.01083,0.7197 2.26483,1.7568 0.0423,0.254 0.29634,0.4234 0.55034,0.4234 0.0212,0 0.0423,0 0.0423,0 1.01571,-0.085 9.86338,-0.8679 10.98521,-3.8947 0.0212,-0.063 0.0423,-0.127 0.0423,-0.1902 l 0,-2.6035 c 0,-1.2489 -1.03716,-2.2437 -2.30716,-2.2437 z m -8.10655,0 -6.94267,0 0,-1.143 6.94267,0 0,1.143 z"
         id="path4259"
         inkscape:connector-curvature="0" />
    </g>
    <g
       id="g4165"
       transform="matrix(0.68129189,0,0,0.68129189,46.939055,151.88739)">
      <ellipse
         ry="18.679234"
         rx="18.989519"
         cy="1149.9756"
         cx="208.6134"
         id="path5806-3"
         style="opacity:0.97508898;fill:#ffffff;fill-opacity:1;stroke:none;stroke-width:0.2;stroke-linecap:butt;stroke-linejoin:miter;stroke-miterlimit:4;stroke-dasharray:none;stroke-dashoffset:10;stroke-opacity:1" />
      <ellipse
         ry="18.679234"
         rx="18.989519"
         cy="1146.3556"
         cx="88.369347"
         id="path5806"
         style="opacity:0.97508898;fill:#ffffff;fill-opacity:1;stroke:none;stroke-width:0.2;stroke-linecap:butt;stroke-linejoin:miter;stroke-miterlimit:4;stroke-dasharray:none;stroke-dashoffset:10;stroke-opacity:1" />
      <ellipse
         ry="18.679234"
         rx="18.989519"
         cy="1112.0381"
         cx="322.86777"
         id="path5806-5"
         style="opacity:0.97508898;fill:#ffffff;fill-opacity:1;stroke:none;stroke-width:0.2;stroke-linecap:butt;stroke-linejoin:miter;stroke-miterlimit:4;stroke-dasharray:none;stroke-dashoffset:10;stroke-opacity:1" />
      <path
         sodipodi:nodetypes="cssssssscsssscccsscsssscsssscccsscscssscssccsssssssssssssssssssssss"
         inkscape:connector-curvature="0"
         id="path5800"
         d="m -21.492398,1206.9972 c -0.859339,-2.3997 -0.844544,-5.5266 0.03393,-7.3318 1.044076,-2.1438 13.205001,-10.0676 38.133725,-24.8471 21.994603,-13.0398 36.718206,-22.5374 36.894806,-23.799 0.16152,-1.1549 0.55447,-4.8465 0.87182,-8.2038 1.01517,-10.7233 9.812512,-21.0449 20.797352,-24.4005 8.44504,-2.5799 14.45255,-2.1124 22.68104,1.7649 8.185515,3.857 12.392975,8.2203 15.515015,16.089 l 1.75234,4.4164 22.8646,-1.7207 c 45.78403,-3.4454 43.40276,-3.0678 47.44374,-7.5225 7.48478,-8.2509 14.89986,-11.8324 25.23786,-12.1899 6.68638,-0.2307 19.29585,5.5679 23.02775,10.59 l 2.66767,3.5903 26.37471,-12.94 26.37471,-12.9402 2.93446,-7.0258 c 6.70817,-16.0616 23.93291,-23.3375 41.0086,-17.3223 l 6.78506,2.3901 30.91852,-18.3144 c 17.00518,-10.0729 31.95736,-18.2322 33.22696,-18.1317 7.24569,0.5742 12.38354,8.5907 9.41385,14.689 -0.93175,1.913 -12.26843,9.3113 -31.73991,20.713 l -30.29061,17.7369 0.48797,7.218 c 0.3977,5.8825 -0.19478,8.6002 -3.20098,14.6902 -5.52272,11.1862 -14.82961,17.0136 -27.89603,17.4654 -6.68638,0.2307 -19.29585,-5.5678 -23.02768,-10.59 l -2.66774,-3.5903 -26.3403,12.8976 -26.34024,12.8977 -4.15546,8.413 c -4.48212,9.0668 -8.58634,12.9839 -17.06151,16.2771 -8.02121,3.1168 -15.5461,2.7127 -24.05561,-1.2918 -8.18891,-3.8527 -12.39317,-8.2121 -15.51691,-16.0853 l -1.75214,-4.4164 -22.8646,1.7207 c -45.78417,3.4455 -43.40283,3.0679 -47.44387,7.5226 -11.179905,12.3242 -24.082305,15.2894 -38.120855,8.7608 l -7.75537,-3.6052 -34.368498,20.5894 c -18.902555,11.3243 -36.210289,21.1823 -38.461457,21.9069 -5.415293,1.743 -10.476723,-0.7367 -12.385704,-6.0683 z m 109.646233,-50.3578 c 2.68133,-0.929 4.89497,-2.7906 5.98852,-5.0361 1.09355,-2.2456 1.1809,-5.109 0.23686,-7.7464 -0.94431,-2.6375 -2.83687,-4.8148 -5.11968,-5.8906 -2.28286,-1.0756 -5.19384,-1.1617 -7.87516,-0.2328 -2.68124,0.9291 -4.89481,2.7905 -5.98836,5.0361 -1.09355,2.2455 -1.18103,5.109 -0.23686,7.7464 0.94445,2.6374 2.83687,4.8149 5.11973,5.8907 2.28286,1.0756 5.19391,1.1616 7.87508,0.2328 z m 125.557685,2.4837 c 8.5957,-2.9782 9.29616,-14.8134 1.10515,-18.6731 -2.28279,-1.0757 -5.19377,-1.1617 -7.87508,-0.2328 -2.68125,0.929 -4.89482,2.7906 -5.98837,5.0362 -1.09355,2.2455 -1.18103,5.109 -0.23686,7.7463 0.94452,2.6375 2.83694,4.815 5.1198,5.8906 2.28286,1.0758 5.19391,1.1617 7.87522,0.2335 z m 110.90796,-38.4273 c 8.5957,-2.9782 9.29617,-14.8134 1.10516,-18.673 -2.28273,-1.0757 -5.19378,-1.1618 -7.87502,-0.2328 -2.68132,0.9289 -4.89482,2.7905 -5.98844,5.036 -1.09348,2.2456 -1.18096,5.109 -0.23686,7.7465 0.94452,2.6374 2.83694,4.8148 5.1198,5.8905 2.2828,1.0757 5.19384,1.1617 7.87509,0.2328 z"
         style="fill:#ffd460;fill-opacity:1" />
      <path
         inkscape:connector-curvature="0"
         id="path5835"
         d="m 384.54638,1032.0028 a 13.235508,13.235508 0 0 0 -5.64686,25.3973 l 19.89634,8.8414 0.53005,16.2909 a 13.235508,13.235508 0 1 0 26.44447,-0.8616 l -0.79527,-24.5755 a 13.235508,13.235508 0 0 0 -7.84719,-11.6648 l -27.46521,-12.2215 a 13.235508,13.235508 0 0 0 -5.11654,-1.2062 z"
         style="color:#000000;font-style:normal;font-variant:normal;font-weight:normal;font-stretch:normal;font-size:medium;line-height:normal;font-family:sans-serif;text-indent:0;text-align:start;text-decoration:none;text-decoration-line:none;text-decoration-style:solid;text-decoration-color:#000000;letter-spacing:normal;word-spacing:normal;text-transform:none;direction:ltr;block-progression:tb;writing-mode:lr-tb;baseline-shift:baseline;text-anchor:start;white-space:normal;clip-rule:nonzero;display:inline;overflow:visible;visibility:visible;opacity:1;isolation:auto;mix-blend-mode:normal;color-interpolation:sRGB;color-interpolation-filters:linearRGB;solid-color:#000000;solid-opacity:1;fill:#ffd460;fill-opacity:1;fill-rule:evenodd;stroke:none;stroke-width:3.9000001;stroke-linecap:round;stroke-linejoin:round;stroke-miterlimit:4;stroke-dasharray:none;stroke-dashoffset:0;stroke-opacity:1;color-rendering:auto;image-rendering:auto;shape-rendering:auto;text-rendering:auto;enable-background:accumulate" />
      <path
         inkscape:connector-curvature="0"
         id="path5835-6"
         d="m -29.061679,1174.4983 a 13.235508,13.235508 0 0 0 -12.645651,12.4601 l -1.762963,24.5357 a 13.235508,13.235508 0 0 0 6.61444,12.4335 l 26.046849,14.9256 A 13.237716,13.237716 0 1 0 2.3536,1215.8816 l -18.822661,-10.7899 1.166475,-16.2246 a 13.235508,13.235508 0 0 0 -13.759093,-14.3688 z"
         style="color:#000000;font-style:normal;font-variant:normal;font-weight:normal;font-stretch:normal;font-size:medium;line-height:normal;font-family:sans-serif;text-indent:0;text-align:start;text-decoration:none;text-decoration-line:none;text-decoration-style:solid;text-decoration-color:#000000;letter-spacing:normal;word-spacing:normal;text-transform:none;direction:ltr;block-progression:tb;writing-mode:lr-tb;baseline-shift:baseline;text-anchor:start;white-space:normal;clip-rule:nonzero;display:inline;overflow:visible;visibility:visible;opacity:1;isolation:auto;mix-blend-mode:normal;color-interpolation:sRGB;color-interpolation-filters:linearRGB;solid-color:#000000;solid-opacity:1;fill:#ffd460;fill-opacity:1;fill-rule:evenodd;stroke:none;stroke-width:3.9000001;stroke-linecap:round;stroke-linejoin:round;stroke-miterlimit:4;stroke-dasharray:none;stroke-dashoffset:0;stroke-opacity:1;color-rendering:auto;image-rendering:auto;shape-rendering:auto;text-rendering:auto;enable-background:accumulate" />
    </g>
  </g>
</svg>
