<?xml version="1.0" encoding="UTF-8" standalone="no"?>
<!-- Created with Inkscape (http://www.inkscape.org/) -->

<svg
   xmlns:dc="http://purl.org/dc/elements/1.1/"
   xmlns:cc="http://creativecommons.org/ns#"
   xmlns:rdf="http://www.w3.org/1999/02/22-rdf-syntax-ns#"
   xmlns:svg="http://www.w3.org/2000/svg"
   xmlns="http://www.w3.org/2000/svg"
   xmlns:sodipodi="http://sodipodi.sourceforge.net/DTD/sodipodi-0.dtd"
   xmlns:inkscape="http://www.inkscape.org/namespaces/inkscape"
   width="100mm"
   height="100mm"
   viewBox="0 0 354.33071 354.33071"
   id="svg3379"
   version="1.1"
   inkscape:version="0.91 r13725"
   sodipodi:docname="eco_txemploi.svg">
  <defs
     id="defs3381">
    <clipPath
       clipPathUnits="userSpaceOnUse"
       id="clipPath4259">
      <g
         transform="matrix(1.1594988,0,0,1.1594988,4.9803622,703.0113)"
         id="g4261"
         style="fill:#3db39e;fill-opacity:1">
        <g
           id="g4263"
           style="fill:#3db39e;fill-opacity:1">
          <g
             id="g4265"
             style="fill:#3db39e;fill-opacity:1">
            <path
               d="m 45.432,35.049 c -0.008,0 -0.017,0 -0.025,0 -2.809,0 -5.451,1.095 -7.446,3.085 -2.017,2.012 -3.128,4.691 -3.128,7.543 l 0,159.365 c 0,5.844 4.773,10.61 10.641,10.625 24.738,0.059 66.184,5.215 94.776,35.136 l 0,-166.78 c 0,-1.981 -0.506,-3.842 -1.461,-5.382 C 115.322,40.849 70.226,35.107 45.432,35.049 Z"
               id="path4267"
               inkscape:connector-curvature="0"
               style="fill:#3db39e;fill-opacity:1" />
            <path
               d="m 262.167,205.042 0,-159.366 c 0,-2.852 -1.111,-5.531 -3.128,-7.543 -1.995,-1.99 -4.639,-3.085 -7.445,-3.085 -0.009,0 -0.018,0 -0.026,0 -24.793,0.059 -69.889,5.801 -93.357,43.593 -0.955,1.54 -1.46,3.401 -1.46,5.382 l 0,166.779 c 28.592,-29.921 70.038,-35.077 94.776,-35.136 5.867,-0.015 10.64,-4.781 10.64,-10.624 z"
               id="path4269"
               inkscape:connector-curvature="0"
               style="fill:#3db39e;fill-opacity:1" />
            <path
               d="m 286.373,71.801 -7.706,0 0,133.241 c 0,14.921 -12.157,27.088 -27.101,27.125 -20.983,0.05 -55.581,4.153 -80.084,27.344 42.378,-10.376 87.052,-3.631 112.512,2.171 3.179,0.724 6.464,-0.024 9.011,-2.054 2.538,-2.025 3.994,-5.052 3.994,-8.301 l 0,-168.9 C 297,76.568 292.232,71.801 286.373,71.801 Z"
               id="path4271"
               inkscape:connector-curvature="0"
               style="fill:#3db39e;fill-opacity:1" />
            <path
               d="m 18.332,205.042 0,-133.241 -7.706,0 C 4.768,71.801 0,76.568 0,82.427 l 0,168.897 c 0,3.25 1.456,6.276 3.994,8.301 2.545,2.029 5.827,2.78 9.011,2.054 25.46,-5.803 70.135,-12.547 112.511,-2.171 -24.502,-23.19 -59.1,-27.292 -80.083,-27.342 C 30.49,232.13 18.332,219.963 18.332,205.042 Z"
               id="path4273"
               inkscape:connector-curvature="0"
               style="fill:#3db39e;fill-opacity:1" />
          </g>
        </g>
      </g>
    </clipPath>
    <clipPath
       clipPathUnits="userSpaceOnUse"
       id="clipPath4341">
      <g
         transform="matrix(0.86876854,0,0,0.86876854,3.8590621,701.89024)"
         id="g4343"
         style="fill:#3db39e;fill-opacity:1">
        <g
           id="g4345"
           style="fill:#3db39e;fill-opacity:1">
          <g
             id="g4347"
             style="fill:#3db39e;fill-opacity:1">
            <path
               inkscape:connector-curvature="0"
               d="m 225.092,276.586 c -7.101,4.355 -16.195,6.754 -25.607,6.754 -9.412,0 -18.506,-2.398 -25.607,-6.754 L 57.946,205.484 c 0,0 -10.464,-6.414 -10.464,8.116 0,16.5 0,66 0,66 0,0.66 0,3.973 0,5 0,37.402 68.053,77.723 152,77.723 83.947,0 152,-40.32 152,-77.723 0,-1.027 0,-4.34 0,-5 0,0 0,-52.502 0,-70.003 0,-11.663 -7.439,-5.964 -7.439,-5.964 l -118.951,72.953 z"
               id="path4349"
               style="fill:#3db39e;fill-opacity:1" />
            <path
               inkscape:connector-curvature="0"
               d="m 392.289,148.927 c 8.908,-5.463 8.908,-14.403 0,-19.867 L 215.681,40.745 c -8.908,-5.463 -23.485,-5.463 -32.393,0 L 6.681,129.06 c -8.908,5.463 -8.908,14.403 0,19.867 l 176.607,108.315 c 8.908,5.463 23.485,5.463 32.393,0"
               id="path4351"
               style="fill:#3db39e;fill-opacity:1" />
            <path
               inkscape:connector-curvature="0"
               d="m 384.985,309.475 c 0,-29.906 0,-119.625 0,-119.625 0,0 0.083,-5.666 -3.279,-3.795 -2.697,1.501 -9.308,5.186 -11.637,7.212 -2.689,2.337 -2.083,7.583 -2.083,7.583 0,0 0,81.469 0,108.625 0,1.542 -1.325,2.278 -1.957,2.65 -6.105,3.589 -10.21,10.214 -10.21,17.809 0,11.414 9.252,20.667 20.667,20.667 11.414,0 20.666,-9.253 20.666,-20.667 0,-7.624 -4.135,-14.27 -10.279,-17.85 -0.611,-0.356 -1.888,-1.068 -1.888,-2.609 z"
               id="path4353"
               style="fill:#3db39e;fill-opacity:1" />
          </g>
        </g>
      </g>
    </clipPath>
  </defs>
  <sodipodi:namedview
     id="base"
     pagecolor="#ffffff"
     bordercolor="#666666"
     borderopacity="1.0"
     inkscape:pageopacity="0.0"
     inkscape:pageshadow="2"
     inkscape:zoom="1.203268"
     inkscape:cx="215.35464"
     inkscape:cy="98.891907"
     inkscape:document-units="px"
     inkscape:current-layer="layer1"
     showgrid="false"
     inkscape:window-width="1280"
     inkscape:window-height="1002"
     inkscape:window-x="-8"
     inkscape:window-y="-8"
     inkscape:window-maximized="1" />
  <metadata
     id="metadata3384">
    <rdf:RDF>
      <cc:Work
         rdf:about="">
        <dc:format>image/svg+xml</dc:format>
        <dc:type
           rdf:resource="http://purl.org/dc/dcmitype/StillImage" />
        <dc:title></dc:title>
      </cc:Work>
    </rdf:RDF>
  </metadata>
  <g
     inkscape:label="Calque 1"
     inkscape:groupmode="layer"
     id="layer1"
     transform="translate(0,-698.0315)">
    <path
       style="fill:#ffd460;fill-opacity:1"
       d="m 54.777253,1033.697 -5.967138,-3.1148 -1.193428,-103.75864 c -1.055123,-91.73348 -1.571066,-102.65215 -4.451809,-94.21124 -1.828407,5.35746 -3.773829,24.21227 -4.432887,42.96339 -0.645978,18.37879 -2.307974,34.81042 -3.693324,36.51473 -3.81681,4.69562 -11.992477,2.41289 -15.372608,-4.29218 -4.178009,-8.28779 -3.854427,-52.50076 0.520029,-71.05468 6.955525,-29.50127 21.068809,-48.81737 37.987412,-51.99131 4.416198,-0.82849 19.875227,-1.13976 34.353401,-0.6917 24.208759,0.74919 26.836599,1.29412 32.703969,6.78179 17.60738,16.46792 25.30497,41.5773 25.24434,82.3465 -0.0554,37.22007 1.65595,41.32531 17.61663,42.26052 l 11.99532,0.70287 0.66801,30.43241 0.66803,30.43241 -29.907,0 -29.90701,0 0,24.69203 c 0,26.2799 -1.4632,29.9326 -13.45015,33.5774 -6.15104,1.8703 -16.733278,-2.5499 -18.846449,-7.8721 -0.841576,-2.1195 -2.136909,-32.0484 -2.878534,-66.50861 -0.741625,-34.46023 -2.260338,-62.65495 -3.374902,-62.65495 -1.114577,0 -2.026496,29.40583 -2.026496,65.34627 0,51.83419 -0.663985,65.89729 -3.211063,68.01119 -5.278538,4.3808 -16.67457,5.4137 -23.044343,2.0887 z M 127.67437,904.39623 c 2.43869,-16.26247 0.2611,-71.08201 -3.04112,-76.55762 -2.31439,-3.83767 -2.89313,4.23569 -2.95148,41.17325 -0.0428,27.09225 0.84688,45.94696 2.16803,45.94696 1.23233,0 2.95339,-4.75317 3.82457,-10.56259 z m 7.06252,8.17574 c -0.81134,-1.31277 -2.48585,-2.38685 -3.72114,-2.38685 -1.2353,0 -2.24599,1.07408 -2.24599,2.38685 0,1.31277 1.6745,2.38685 3.72114,2.38685 2.04662,0 3.05733,-1.07408 2.24599,-2.38685 z m 15.51458,0 c 0,-1.31277 -0.47368,-2.38685 -1.05258,-2.38685 -0.57892,0 -1.71637,1.07408 -2.52772,2.38685 -0.81133,1.31277 -0.33769,2.38685 1.05257,2.38685 1.39024,0 2.52773,-1.07408 2.52773,-2.38685 z m 55.81426,115.67493 c -3.58725,-5.4748 -3.8584,-15.7034 -2.83156,-106.81174 1.03329,-91.6776 0.80818,-100.00433 -2.49796,-92.40312 -2.4442,5.61949 -4.07455,19.94298 -4.98076,43.75871 -1.18063,31.02803 -1.90429,35.81133 -5.85388,38.69393 -3.11848,2.27599 -5.81677,2.58807 -8.75955,1.01313 -15.85462,-8.48513 -10.05679,-81.38823 8.78075,-110.41108 10.48638,-16.15629 16.86581,-18.38587 52.63618,-18.39602 29.77621,-0.008 31.80614,0.29688 38.29962,5.76078 17.01029,14.31322 26.83474,45.45213 26.89006,85.22916 0.0192,13.94819 0.6966,28.66694 1.50489,32.70838 1.41004,7.0502 2.01472,7.37673 14.91784,8.05564 l 13.44824,0.70758 0,29.8357 0,29.83568 -29.23897,0.67019 -29.23898,0.67017 0,22.27977 c 0,18.92564 -0.74475,23.22654 -4.94696,28.56874 -6.19864,7.8803 -18.97492,8.6226 -26.08215,1.5154 -4.53354,-4.5336 -4.77372,-7.9562 -4.77372,-68.0254 0,-54.63246 -0.48787,-63.25166 -3.58028,-63.25166 -3.09505,0 -3.58028,8.83136 -3.58028,65.16115 0,47.49841 -0.7764,65.93751 -2.86423,68.02531 -1.57532,1.5754 -7.45804,2.8643 -13.07269,2.8643 -8.2945,0 -10.95223,-1.1352 -14.17561,-6.0547 z m 78.36695,-124.51254 c 3.12305,-6.42587 1.12111,-65.94415 -2.51266,-74.70232 -1.82762,-4.4049 -2.46606,6.2184 -2.43865,40.57654 0.0213,25.59902 0.56792,44.93255 1.21666,42.96339 0.64874,-1.96916 2.32935,-5.94607 3.73465,-8.83761 z m 9.0301,10.28641 c 0,-0.51594 -1.61112,-1.55632 -3.58028,-2.31194 -1.96916,-0.75565 -3.58028,-0.33351 -3.58028,0.93805 0,1.27157 1.61112,2.31194 3.58028,2.31194 1.96916,0 3.58028,-0.42212 3.58028,-0.93805 z m 11.93428,-1.4488 c 0,-1.31277 -0.47364,-2.38685 -1.05257,-2.38685 -0.5789,0 -1.71637,1.07408 -2.52771,2.38685 -0.81135,1.31277 -0.3377,2.38685 1.05255,2.38685 1.39025,0 2.52773,-1.07408 2.52773,-2.38685 z M 68.854639,773.49006 C 46.478006,758.5415 48.407252,729.7272 72.498273,719.07059 c 16.335803,-7.2261 32.523297,-0.79081 39.887457,15.85713 3.83396,8.6673 4.21761,12.10977 2.18914,19.64287 -2.74303,10.18697 -9.8712,17.96409 -19.973183,21.79163 -10.148607,3.8452 -16.802945,3.10291 -25.747048,-2.87216 z m 161.238151,2.06067 c -4.0034,-1.74376 -10.17939,-6.61751 -13.72442,-10.83055 -12.07962,-14.35579 -6.32688,-38.07847 11.25752,-46.42279 10.19084,-4.83588 16.4613,-4.83588 26.65213,0 24.59828,11.67263 22.72114,46.33353 -3.10525,57.33802 -9.34469,3.98171 -11.76661,3.97198 -21.07998,-0.0848 z"
       id="path4452"
       inkscape:connector-curvature="0" />
  </g>
</svg>
