<?xml version="1.0" encoding="UTF-8" standalone="no"?>
<!-- Created with Inkscape (http://www.inkscape.org/) -->

<svg
   xmlns:dc="http://purl.org/dc/elements/1.1/"
   xmlns:cc="http://creativecommons.org/ns#"
   xmlns:rdf="http://www.w3.org/1999/02/22-rdf-syntax-ns#"
   xmlns:svg="http://www.w3.org/2000/svg"
   xmlns="http://www.w3.org/2000/svg"
   xmlns:sodipodi="http://sodipodi.sourceforge.net/DTD/sodipodi-0.dtd"
   xmlns:inkscape="http://www.inkscape.org/namespaces/inkscape"
   width="100mm"
   height="100mm"
   viewBox="0 0 354.33071 354.33071"
   id="svg3379"
   version="1.1"
   inkscape:version="0.91 r13725"
   sodipodi:docname="eco_defm.svg">
  <defs
     id="defs3381">
    <clipPath
       clipPathUnits="userSpaceOnUse"
       id="clipPath4259">
      <g
         transform="matrix(1.1594988,0,0,1.1594988,4.9803622,703.0113)"
         id="g4261"
         style="fill:#3db39e;fill-opacity:1">
        <g
           id="g4263"
           style="fill:#3db39e;fill-opacity:1">
          <g
             id="g4265"
             style="fill:#3db39e;fill-opacity:1">
            <path
               d="m 45.432,35.049 c -0.008,0 -0.017,0 -0.025,0 -2.809,0 -5.451,1.095 -7.446,3.085 -2.017,2.012 -3.128,4.691 -3.128,7.543 l 0,159.365 c 0,5.844 4.773,10.61 10.641,10.625 24.738,0.059 66.184,5.215 94.776,35.136 l 0,-166.78 c 0,-1.981 -0.506,-3.842 -1.461,-5.382 C 115.322,40.849 70.226,35.107 45.432,35.049 Z"
               id="path4267"
               inkscape:connector-curvature="0"
               style="fill:#3db39e;fill-opacity:1" />
            <path
               d="m 262.167,205.042 0,-159.366 c 0,-2.852 -1.111,-5.531 -3.128,-7.543 -1.995,-1.99 -4.639,-3.085 -7.445,-3.085 -0.009,0 -0.018,0 -0.026,0 -24.793,0.059 -69.889,5.801 -93.357,43.593 -0.955,1.54 -1.46,3.401 -1.46,5.382 l 0,166.779 c 28.592,-29.921 70.038,-35.077 94.776,-35.136 5.867,-0.015 10.64,-4.781 10.64,-10.624 z"
               id="path4269"
               inkscape:connector-curvature="0"
               style="fill:#3db39e;fill-opacity:1" />
            <path
               d="m 286.373,71.801 -7.706,0 0,133.241 c 0,14.921 -12.157,27.088 -27.101,27.125 -20.983,0.05 -55.581,4.153 -80.084,27.344 42.378,-10.376 87.052,-3.631 112.512,2.171 3.179,0.724 6.464,-0.024 9.011,-2.054 2.538,-2.025 3.994,-5.052 3.994,-8.301 l 0,-168.9 C 297,76.568 292.232,71.801 286.373,71.801 Z"
               id="path4271"
               inkscape:connector-curvature="0"
               style="fill:#3db39e;fill-opacity:1" />
            <path
               d="m 18.332,205.042 0,-133.241 -7.706,0 C 4.768,71.801 0,76.568 0,82.427 l 0,168.897 c 0,3.25 1.456,6.276 3.994,8.301 2.545,2.029 5.827,2.78 9.011,2.054 25.46,-5.803 70.135,-12.547 112.511,-2.171 -24.502,-23.19 -59.1,-27.292 -80.083,-27.342 C 30.49,232.13 18.332,219.963 18.332,205.042 Z"
               id="path4273"
               inkscape:connector-curvature="0"
               style="fill:#3db39e;fill-opacity:1" />
          </g>
        </g>
      </g>
    </clipPath>
    <clipPath
       clipPathUnits="userSpaceOnUse"
       id="clipPath4341">
      <g
         transform="matrix(0.86876854,0,0,0.86876854,3.8590621,701.89024)"
         id="g4343"
         style="fill:#3db39e;fill-opacity:1">
        <g
           id="g4345"
           style="fill:#3db39e;fill-opacity:1">
          <g
             id="g4347"
             style="fill:#3db39e;fill-opacity:1">
            <path
               inkscape:connector-curvature="0"
               d="m 225.092,276.586 c -7.101,4.355 -16.195,6.754 -25.607,6.754 -9.412,0 -18.506,-2.398 -25.607,-6.754 L 57.946,205.484 c 0,0 -10.464,-6.414 -10.464,8.116 0,16.5 0,66 0,66 0,0.66 0,3.973 0,5 0,37.402 68.053,77.723 152,77.723 83.947,0 152,-40.32 152,-77.723 0,-1.027 0,-4.34 0,-5 0,0 0,-52.502 0,-70.003 0,-11.663 -7.439,-5.964 -7.439,-5.964 l -118.951,72.953 z"
               id="path4349"
               style="fill:#3db39e;fill-opacity:1" />
            <path
               inkscape:connector-curvature="0"
               d="m 392.289,148.927 c 8.908,-5.463 8.908,-14.403 0,-19.867 L 215.681,40.745 c -8.908,-5.463 -23.485,-5.463 -32.393,0 L 6.681,129.06 c -8.908,5.463 -8.908,14.403 0,19.867 l 176.607,108.315 c 8.908,5.463 23.485,5.463 32.393,0"
               id="path4351"
               style="fill:#3db39e;fill-opacity:1" />
            <path
               inkscape:connector-curvature="0"
               d="m 384.985,309.475 c 0,-29.906 0,-119.625 0,-119.625 0,0 0.083,-5.666 -3.279,-3.795 -2.697,1.501 -9.308,5.186 -11.637,7.212 -2.689,2.337 -2.083,7.583 -2.083,7.583 0,0 0,81.469 0,108.625 0,1.542 -1.325,2.278 -1.957,2.65 -6.105,3.589 -10.21,10.214 -10.21,17.809 0,11.414 9.252,20.667 20.667,20.667 11.414,0 20.666,-9.253 20.666,-20.667 0,-7.624 -4.135,-14.27 -10.279,-17.85 -0.611,-0.356 -1.888,-1.068 -1.888,-2.609 z"
               id="path4353"
               style="fill:#3db39e;fill-opacity:1" />
          </g>
        </g>
      </g>
    </clipPath>
  </defs>
  <sodipodi:namedview
     id="base"
     pagecolor="#ffffff"
     bordercolor="#666666"
     borderopacity="1.0"
     inkscape:pageopacity="0.0"
     inkscape:pageshadow="2"
     inkscape:zoom="1.203268"
     inkscape:cx="37.505649"
     inkscape:cy="98.891907"
     inkscape:document-units="px"
     inkscape:current-layer="layer1"
     showgrid="false"
     inkscape:window-width="1280"
     inkscape:window-height="690"
     inkscape:window-x="1440"
     inkscape:window-y="1"
     inkscape:window-maximized="1" />
  <metadata
     id="metadata3384">
    <rdf:RDF>
      <cc:Work
         rdf:about="">
        <dc:format>image/svg+xml</dc:format>
        <dc:type
           rdf:resource="http://purl.org/dc/dcmitype/StillImage" />
        <dc:title />
      </cc:Work>
    </rdf:RDF>
  </metadata>
  <g
     inkscape:label="Calque 1"
     inkscape:groupmode="layer"
     id="layer1"
     transform="translate(0,-698.0315)">
    <path
       style="fill:#ffc939;fill-opacity:1"
       d="m 48.078507,1018.4585 c -1.477595,-0.3129 -5.094305,-2.9766 -8.037129,-5.9194 -7.980376,-7.9805 -8.738796,-16.12565 -2.525361,-27.12165 1.600243,-2.832 17.407754,-19.73606 35.816688,-38.30128 18.123736,-18.27755 33.261695,-34.26965 33.639905,-35.53782 0.44437,-1.49 -0.95404,-5.67484 -3.95261,-11.82827 -12.290859,-25.22262 -16.020359,-48.78195 -11.670719,-73.72447 4.77871,-27.40323 21.473389,-54.386 44.396209,-71.75538 10.26034,-7.77459 27.80991,-16.17571 41.18847,-19.71725 9.86827,-2.6123 13.43017,-2.98206 28.72597,-2.98206 15.34368,0 18.81707,0.36297 28.64554,2.99352 41.5142,11.11108 72.5382,42.20452 83.71065,83.898 2.55918,9.55039 2.92984,13.14271 2.92984,28.39449 0,15.29576 -0.36976,18.85769 -2.98207,28.72602 -13.05576,49.31956 -55.39588,84.36447 -105.06986,86.96644 -21.0673,1.10344 -38.76639,-2.68319 -59.33647,-12.69488 -6.75833,-3.28928 -11.08181,-4.76738 -12.60562,-4.30921 -1.27558,0.38344 -17.52711,15.78278 -36.1145,34.22087 -21.359689,21.18803 -35.585289,34.42903 -38.659942,35.98403 -4.943491,2.5002 -13.227754,3.7399 -18.098991,2.7083 z M 212.58496,927.8217 c 3.66725,-3.17693 7.16167,-6.69921 7.7654,-7.82728 0.77586,-1.44974 0.223,-6.11391 -1.88582,-15.90895 -1.64093,-7.62191 -3.29228,-17.15296 -3.66965,-21.18027 l -0.68615,-7.32225 -8.27138,-0.33307 c -9.2594,-0.37287 -11.97807,0.86215 -10.94636,4.97273 0.35254,1.40468 -0.88218,9.69758 -2.74385,18.42871 -1.86167,8.73125 -3.38484,17.11884 -3.38484,18.63936 0,1.92041 2.14973,4.82446 7.04066,9.51133 3.87238,3.71081 7.73225,6.75809 8.57749,6.77155 0.84523,0.0133 4.53726,-2.57481 8.2045,-5.75186 z m 55.19866,-11.40291 c 10.39012,-7.62444 23.6958,-29.60873 28.1243,-46.46837 3.35821,-12.78488 3.35441,-33.68218 -0.008,-46.18684 -8.89316,-33.06786 -34.07887,-58.25357 -67.14668,-67.14624 -12.50468,-3.36279 -33.40199,-3.36658 -46.18684,-0.008 -26.7962,7.03854 -49.21438,25.53006 -60.92903,50.25697 -7.21774,15.23495 -8.75363,22.22327 -8.78928,39.9911 -0.0415,20.71297 3.82196,34.26148 14.46396,50.72219 6.24766,9.66369 17.0016,21.17379 18.39126,19.68452 0.57811,-0.61955 4.44136,-11.6615 8.58502,-24.53758 5.63328,-17.50515 8.35069,-24.32573 10.77154,-27.03619 l 3.23764,-3.62514 34.78193,-0.32672 c 34.68677,-0.32599 34.79258,-0.31975 38.67667,2.2672 3.65684,2.43542 4.43463,4.19289 12.73291,28.77108 4.86099,14.39744 9.06368,26.17716 9.3393,26.17716 0.27564,0 2.05546,-1.14068 3.95519,-2.53466 z m -74.50921,-65.74002 c -10.50727,-3.81787 -18.34005,-11.3844 -22.61489,-21.84596 -2.5025,-6.12425 -2.06053,-19.75674 0.84645,-26.10757 10.87893,-23.76702 41.38319,-29.08501 59.55917,-10.38331 13.3778,13.76474 12.52793,37.54024 -1.80476,50.48902 -2.6055,2.35395 -7.08052,5.3188 -9.94447,6.58866 -6.99107,3.09979 -19.33357,3.69651 -26.0415,1.25916 z"
       id="path4435"
       inkscape:connector-curvature="0" />
  </g>
</svg>
