<?xml version="1.0" encoding="UTF-8" standalone="no"?>
<!-- Generator: Adobe Illustrator 19.0.0, SVG Export Plug-In . SVG Version: 6.00 Build 0)  -->

<svg
   xmlns:dc="http://purl.org/dc/elements/1.1/"
   xmlns:cc="http://creativecommons.org/ns#"
   xmlns:rdf="http://www.w3.org/1999/02/22-rdf-syntax-ns#"
   xmlns:svg="http://www.w3.org/2000/svg"
   xmlns="http://www.w3.org/2000/svg"
   xmlns:sodipodi="http://sodipodi.sourceforge.net/DTD/sodipodi-0.dtd"
   xmlns:inkscape="http://www.inkscape.org/namespaces/inkscape"
   version="1.1"
   id="Layer_1"
   x="0px"
   y="0px"
   viewBox="0 0 393.847 393.847"
   style="enable-background:new 0 0 393.847 393.847;"
   xml:space="preserve"
   inkscape:version="0.91 r13725"
   sodipodi:docname="encours.svg"><metadata
     id="metadata55"><rdf:RDF><cc:Work
         rdf:about=""><dc:format>image/svg+xml</dc:format><dc:type
           rdf:resource="http://purl.org/dc/dcmitype/StillImage" /><dc:title></dc:title></cc:Work></rdf:RDF></metadata><defs
     id="defs53" /><sodipodi:namedview
     pagecolor="#ffffff"
     bordercolor="#666666"
     borderopacity="1"
     objecttolerance="10"
     gridtolerance="10"
     guidetolerance="10"
     inkscape:pageopacity="0"
     inkscape:pageshadow="2"
     inkscape:window-width="1280"
     inkscape:window-height="687"
     id="namedview51"
     showgrid="false"
     inkscape:zoom="0.88623144"
     inkscape:cx="196.79833"
     inkscape:cy="184.36121"
     inkscape:window-x="0"
     inkscape:window-y="1"
     inkscape:window-maximized="1"
     inkscape:current-layer="layer1" /><g
     id="g4205"><path
       id="path3"
       d="M147.692,304.641h104.763v49.231H147.692V304.641z"
       style="fill:#CCD0D2;" /><path
       id="path5"
       d="M135.483,353.871h129.182c6.695,0,12.209,5.514,12.209,12.209s-5.514,12.209-12.209,12.209H135.483  c-6.695,0-12.209-5.514-12.209-12.209S128.788,353.871,135.483,353.871z"
       style="fill:#E4E7E7;" /><path
       id="path7"
       d="M18.511,15.557h356.825c10.24,0,18.511,8.271,18.511,18.511v248.517c0,10.24-393.846,10.24-393.846,0  V34.068C0,23.828,8.271,15.557,18.511,15.557z"
       style="fill:#36434F;" /><path
       id="path9"
       d="M18.511,34.068h356.825V243.2H18.511V34.068z"
       style="fill:#ffffff" /><path
       id="path17"
       d="M147.692,304.641h104.763v18.511H147.692V304.641z"
       style="fill:#B7BBBD;" /><path
       id="path19"
       d="M0,286.523c0,10.24,8.271,18.511,18.511,18.511h356.825c10.24,0,18.511-8.271,18.511-18.511v-24.418  H0V286.523z"
       style="fill:#E4E7E7;" /></g><g
     id="g21" /><g
     id="g23" /><g
     id="g25" /><g
     id="g27" /><g
     id="g29" /><g
     id="g31" /><g
     id="g33" /><g
     id="g35" /><g
     id="g37" /><g
     id="g39" /><g
     id="g41" /><g
     id="g43" /><g
     id="g45" /><g
     id="g47" /><g
     id="g49" /><g
     inkscape:groupmode="layer"
     id="layer1"
     inkscape:label="environnement"
     style="display:inline"
     sodipodi:insensitive="true"><g
       id="g4213"
       transform="translate(-0.82421,-3.2291887e-6)"><g
         style="fill:#a1b870;fill-opacity:1"
         transform="matrix(0.16993019,0,0,0.16993019,121.61677,64.986679)"
         id="g3"><path
           style="fill:#a1b870;fill-opacity:1"
           inkscape:connector-curvature="0"
           d="M 863.24,382.771 774.481,367.964 C 768.03,341.59 758.624,316.379 746.374,292.865 l 56.821,-70.452 c 12.085,-14.889 11.536,-36.312 -1.205,-50.682 l -35.301,-39.729 c -12.796,-14.355 -34.016,-17.391 -50.202,-7.165 l -75.906,47.716 c -33.386,-23.326 -71.204,-40.551 -112,-50.546 L 513.731,32.772 C 510.615,13.877 494.264,0.013 475.07,0.013 l -53.198,0 c -19.155,0 -35.561,13.864 -38.608,32.759 l -14.931,89.263 c -33.729,8.258 -65.353,21.588 -94.213,39.144 l -72.188,-51.518 c -15.558,-11.115 -36.927,-9.377 -50.504,4.171 l -37.583,37.61 c -13.548,13.577 -15.286,34.946 -4.142,50.504 l 51.638,72.326 C 143.95,302.914 130.757,334.358 122.5,367.787 L 32.757,382.772 C 13.891,385.888 0,402.24 0,421.435 l 0,53.156 c 0,19.193 13.891,35.547 32.757,38.663 l 89.743,14.985 c 6.781,27.508 16.625,53.784 29.709,78.147 L 95.647,676.44 c -12.044,14.875 -11.538,36.312 1.203,50.669 l 35.274,39.73 c 12.797,14.382 34.028,17.363 50.216,7.163 l 77,-48.37 c 32.581,22.285 69.44,38.664 108.993,48.37 l 14.931,89.25 c 3.048,18.896 19.453,32.76 38.608,32.76 l 53.198,0 c 19.194,0 35.545,-13.863 38.661,-32.759 l 14.875,-89.25 c 33.308,-8.147 64.531,-21.245 93.134,-38.5 l 75.196,53.705 c 15.53,11.155 36.915,9.405 50.478,-4.186 l 37.598,-37.597 c 13.532,-13.536 15.365,-34.893 4.127,-50.479 l -53.536,-75.059 c 17.441,-28.738 30.704,-60.238 38.909,-93.816 l 88.758,-14.82 c 18.921,-3.116 32.756,-19.469 32.756,-38.663 l 0,-53.156 C 895.998,402.24 882.163,385.888 863.24,382.771 Z M 449.42,616.013 c -92.764,0 -168,-75.25 -168,-168 0,-92.764 75.236,-168 168,-168 92.748,0 167.998,75.236 167.998,168 0,92.75 -75.25,168 -167.998,168 z"
           id="settings_1_" /></g><ellipse
         ry="39.493069"
         rx="38.364693"
         cy="142.21971"
         cx="197.46533"
         id="path4201"
         style="opacity:0.98600003;fill:#a1b870;fill-opacity:1;fill-rule:nonzero;stroke:none;stroke-width:9.30000019;stroke-linecap:butt;stroke-linejoin:miter;stroke-miterlimit:4;stroke-dasharray:none;stroke-dashoffset:0;stroke-opacity:1" /></g><path
       style="fill:#ffffff;fill-opacity:1;stroke:#ffffff;stroke-width:1.206797;stroke-opacity:1"
       d="m 181.63774,153.16951 c -0.47644,-0.23485 -1.33353,-1.52445 -1.33353,-2.00645 0,-0.58186 0.54683,-1.43056 1.4019,-2.17579 1.7251,-1.50351 2.24264,-2.02396 2.24264,-2.25531 0,-0.13014 -0.12902,-0.5463 -0.2867,-0.9248 -0.24937,-0.59856 -0.2875,-0.93393 -0.29279,-2.57552 -0.006,-2.20895 0.23245,-3.26312 1.13634,-5.00051 1.37008,-2.63345 4.13543,-5.03613 7.34694,-6.38337 2.10037,-0.88112 2.94503,-0.99979 8.82206,-1.23955 4.76906,-0.19456 5.82263,-0.47727 7.5252,-2.01928 0.52077,-0.47167 1.2609,-1.00305 1.64471,-1.18088 0.60256,-0.27918 0.75779,-0.30357 1.13649,-0.17858 0.69608,0.22973 1.13713,0.69142 1.57063,1.6442 0.64714,1.42235 0.9842,3.29526 0.99105,5.50694 0.0199,6.42037 -3.07925,11.46787 -9.15255,14.9066 -3.82858,2.16777 -7.55329,2.9918 -11.3951,2.52101 -1.79637,-0.22014 -2.97233,-0.57057 -4.76688,-1.42049 -0.90364,-0.42798 -1.75739,-0.77814 -1.8972,-0.77814 -0.32629,0 -0.62092,0.32952 -1.51293,1.6921 -0.84144,1.28535 -0.93758,1.40503 -1.44,1.7928 -0.44702,0.345 -1.13265,0.37456 -1.74028,0.0751 z m 9.18955,-8.54553 c 1.91474,-1.86161 2.59235,-2.43014 3.90937,-3.28006 2.0567,-1.32726 4.14651,-1.96985 6.96191,-2.14068 1.68182,-0.1021 1.69597,-0.1056 2.05939,-0.51231 0.41096,-0.45995 0.45305,-0.77056 0.17683,-1.30473 -0.29766,-0.57559 -0.80644,-0.7134 -2.2585,-0.61176 -5.1198,0.35841 -9.59856,2.67363 -13.31818,6.88469 -0.72443,0.82014 -0.89498,1.09579 -0.89498,1.44658 0,0.62752 0.52821,1.11966 1.20168,1.11966 0.48319,0 0.61816,-0.0999 2.16248,-1.60139 z"
       id="path5165"
       inkscape:connector-curvature="0" /><path
       style="fill:#ffffff;fill-opacity:1;stroke:#ffffff;stroke-width:1.206797;stroke-opacity:1"
       d="m 180.84785,173.56891 4.66953,-2.70397 4.17743,2.43805 c 3.94847,2.30442 4.31037,2.44519 6.60337,2.56858 1.88579,0.1015 2.76562,-0.0199 3.95136,-0.54488 3.12442,-1.38347 26.02415,-14.84605 27.23323,-16.01021 0.69087,-0.66519 1.57772,-1.9578 1.97081,-2.87247 0.69761,-1.6233 0.71236,-2.05179 0.61705,-17.93478 l -0.0976,-16.27172 -0.9299,-1.58343 c -0.51143,-0.87088 -1.35966,-1.94479 -1.88492,-2.38642 -0.52528,-0.44165 -6.89353,-4.23145 -14.15169,-8.42176 -12.09435,-6.98236 -13.35929,-7.63351 -15.14373,-7.79546 -1.07089,-0.0971 -2.51351,-0.0202 -3.2058,0.17123 -1.6744,0.46284 -26.68978,14.88451 -28.15742,16.2331 -0.63171,0.58047 -1.51143,1.82245 -1.95495,2.75998 l -0.80639,1.70459 -0.002,16.05388 -0.002,16.05389 1.06647,2.13636 c 1.14112,2.28586 1.98585,2.97117 7.37635,5.98412 l 2.43975,1.36367 0.007,5.4717 c 0.007,5.38633 0.17884,6.28992 1.19081,6.28992 0.20106,0 2.46685,-1.21677 5.03508,-2.70397 z m 9.19123,-2.31065 -4.51428,-2.56592 -4.2537,2.4266 c -2.33955,1.33464 -4.33112,2.42662 -4.42575,2.42662 -0.0946,0 -0.17376,-2.26286 -0.17582,-5.02854 l -0.005,-5.02852 -4.07502,-2.33613 c -4.8191,-2.76269 -6.24891,-4.18008 -6.80795,-6.74874 -0.27829,-1.27867 -0.36433,-6.21001 -0.28761,-16.48392 0.10644,-14.24893 0.13005,-14.69765 0.84261,-16.02312 0.40323,-0.75003 1.09289,-1.69067 1.53259,-2.09033 0.68661,-0.6241 22.84582,-13.57766 26.14022,-15.28074 0.85057,-0.43971 1.71721,-0.56423 3.24792,-0.46667 2.00855,0.12799 2.57851,0.41574 15.01711,7.58053 7.11111,4.09609 13.28907,7.77281 13.72874,8.1705 0.43969,0.39766 1.09104,1.29221 1.44745,1.98789 0.60957,1.18989 0.64799,2.20607 0.64799,17.14469 0,14.95666 -0.0379,15.95334 -0.64996,17.14468 -0.35748,0.69567 -1.08547,1.66098 -1.61774,2.14513 -1.25914,1.14533 -26.24864,15.53691 -27.36217,15.758 -2.11084,0.41916 -3.91615,-0.16586 -8.43088,-2.73201 z"
       id="path4177"
       inkscape:connector-curvature="0"
       sodipodi:nodetypes="ccsssssscsssscsscccsscssccccssscsssssssssssssscc" /></g></svg>