<?xml version="1.0" encoding="UTF-8" standalone="no"?>
<!-- Generator: Adobe Illustrator 19.0.0, SVG Export Plug-In . SVG Version: 6.00 Build 0)  -->

<svg
   xmlns:dc="http://purl.org/dc/elements/1.1/"
   xmlns:cc="http://creativecommons.org/ns#"
   xmlns:rdf="http://www.w3.org/1999/02/22-rdf-syntax-ns#"
   xmlns:svg="http://www.w3.org/2000/svg"
   xmlns="http://www.w3.org/2000/svg"
   xmlns:sodipodi="http://sodipodi.sourceforge.net/DTD/sodipodi-0.dtd"
   xmlns:inkscape="http://www.inkscape.org/namespaces/inkscape"
   version="1.1"
   id="Layer_1"
   x="0px"
   y="0px"
   viewBox="0 0 309.267 309.267"
   style="enable-background:new 0 0 309.267 309.267;"
   xml:space="preserve"
   inkscape:version="0.91 r13725"
   sodipodi:docname="file_csv2.svg"><metadata
     id="metadata45"><rdf:RDF><cc:Work
         rdf:about=""><dc:format>image/svg+xml</dc:format><dc:type
           rdf:resource="http://purl.org/dc/dcmitype/StillImage" /><dc:title></dc:title></cc:Work></rdf:RDF></metadata><defs
     id="defs43" /><sodipodi:namedview
     pagecolor="#ffffff"
     bordercolor="#666666"
     borderopacity="1"
     objecttolerance="10"
     gridtolerance="10"
     guidetolerance="10"
     inkscape:pageopacity="0"
     inkscape:pageshadow="2"
     inkscape:window-width="1280"
     inkscape:window-height="1002"
     id="namedview41"
     showgrid="false"
     inkscape:zoom="1.5983293"
     inkscape:cx="159.38044"
     inkscape:cy="108.40866"
     inkscape:window-x="-8"
     inkscape:window-y="-8"
     inkscape:window-maximized="1"
     inkscape:current-layer="Layer_1" /><path
     inkscape:connector-curvature="0"
     id="path5"
     d="m 38.658499,-8.5449221e-7 164.230001,0 L 289.9375,86.710999 l 0,203.227001 c 0,10.679 -8.659,19.329 -19.329,19.329 l -231.950001,0 c -10.67,0 -19.329,-8.65 -19.329,-19.329 l 0,-270.609001 c 0,-10.6789999 8.66,-19.32899985449221 19.329,-19.32899985449221 z"
     style="fill:#ececec;fill-opacity:1" /><path
     inkscape:connector-curvature="0"
     id="path7"
     d="m 289.6585,86.980999 -67.372,0 c -10.67,0 -19.329,-8.659 -19.329,-19.329 l 0,-67.45899985 86.701,86.78799985 z"
     style="fill:#c6c6c6;fill-opacity:0.36864406" /><g
     id="g11" /><g
     id="g13" /><g
     id="g15" /><g
     id="g17" /><g
     id="g19" /><g
     id="g21" /><g
     id="g23" /><g
     id="g25" /><g
     id="g27" /><g
     id="g29" /><g
     id="g31" /><g
     id="g33" /><g
     id="g35" /><g
     id="g37" /><g
     id="g39" /><g
     style="font-style:normal;font-weight:normal;font-size:67.41046906px;line-height:69.99999881%;font-family:sans-serif;letter-spacing:0px;word-spacing:0px;fill:#2d4059;fill-opacity:1;stroke:none;stroke-width:1px;stroke-linecap:butt;stroke-linejoin:miter;stroke-opacity:1"
     id="text4176"><path
       d="m 89.437745,171.4187 q 0,2.62901 -1.820083,4.38168 -1.752672,1.75267 -4.31427,1.75267 -2.629008,0 -4.449091,-1.75267 -1.752672,-1.75267 -1.752672,-4.38168 0,-2.62901 1.752672,-4.38168 1.820083,-1.82008 4.449091,-1.82008 2.561598,0 4.31427,1.82008 1.820083,1.75267 1.820083,4.38168 z"
       style="font-style:normal;font-variant:normal;font-weight:900;font-stretch:normal;font-family:Mosk;-inkscape-font-specification:'Mosk Heavy';letter-spacing:3px;fill:#2d4059;fill-opacity:1"
       id="path4153" /><path
       d="m 119.95386,130.8376 q 3.50534,0 7.14551,1.01116 3.70757,1.01115 6.33658,2.76383 l -3.64017,8.29148 q -3.57275,-1.21338 -5.52765,-1.61785 -1.8875,-0.40446 -4.17945,-0.40446 -2.76383,0 -5.32543,1.75267 -2.49419,1.75267 -4.11204,4.92097 -1.55044,3.16829 -1.55044,7.21292 0,4.11203 1.61785,7.21292 1.61785,3.10088 4.24686,4.78614 2.69642,1.61785 5.59507,1.61785 4.5165,0 8.69595,-2.49419 l 4.65132,9.16783 q -2.629,1.55044 -6.40399,2.49418 -3.70758,0.87634 -7.28033,0.87634 -7.28033,0 -12.67317,-2.96606 -5.39284,-3.03347 -8.291488,-8.3589 -2.831239,-5.32542 -2.831239,-12.2687 0,-6.94328 3.033471,-12.40353 3.033466,-5.46025 8.358896,-8.49372 5.39284,-3.10088 12.13389,-3.10088 z"
       style="font-style:normal;font-variant:normal;font-weight:900;font-stretch:normal;font-family:Mosk;-inkscape-font-specification:'Mosk Heavy';letter-spacing:3px;fill:#2d4059;fill-opacity:1"
       id="path4155" /><path
       d="m 154.819,178.42939 q -3.57276,0 -8.02185,-1.07857 -4.38168,-1.07856 -7.01069,-2.629 l 4.04463,-9.23524 q 1.82008,1.07857 4.98837,2.02231 3.23571,0.87634 5.66248,0.87634 2.69642,0 4.31427,-1.07857 1.61786,-1.14597 1.61786,-2.49418 0,-0.87634 -1.21339,-1.68527 -1.14598,-0.87633 -3.77499,-2.42677 l -2.08972,-1.21339 q -4.58392,-2.69642 -7.14551,-4.44909 -2.5616,-1.82008 -4.58392,-4.65132 -2.02231,-2.83124 -2.02231,-6.404 0,-3.77499 2.08972,-6.74105 2.15714,-3.03347 5.99954,-4.71873 3.84239,-1.68526 8.96559,-1.68526 3.50534,0 7.14551,1.01116 3.70757,1.01115 6.33658,2.76383 l -3.64016,8.29148 q -3.57276,-1.21338 -5.52766,-1.61785 -1.88749,-0.40446 -4.17945,-0.40446 -2.02231,0 -3.30311,0.94375 -1.21339,0.94374 -1.21339,2.29195 0,1.01116 1.01116,1.82008 1.07856,0.74152 3.50534,2.02232 l 2.42678,1.34821 q 4.24686,2.42678 7.0781,4.5165 2.83124,2.02231 4.78614,4.85355 2.02231,2.76383 2.02231,6.26918 0,3.9098 -2.22454,6.94328 -2.22455,3.03347 -6.404,4.78614 -4.11204,1.75267 -9.63969,1.75267 z"
       style="font-style:normal;font-variant:normal;font-weight:900;font-stretch:normal;font-family:Mosk;-inkscape-font-specification:'Mosk Heavy';letter-spacing:3px;fill:#2d4059;fill-opacity:1"
       id="path4157" /><path
       d="m 178.10112,132.25322 12.06648,-1.21339 11.39237,31.81774 10.92049,-31.14363 12.2013,0 -17.18967,45.83911 -12.26871,0 -17.12226,-45.29983 z"
       style="font-style:normal;font-variant:normal;font-weight:900;font-stretch:normal;font-family:Mosk;-inkscape-font-specification:'Mosk Heavy';letter-spacing:3px;fill:#2d4059;fill-opacity:1"
       id="path4159" /></g></svg>