<?xml version="1.0" encoding="UTF-8" standalone="no"?>
<!-- Generator: Adobe Illustrator 19.0.0, SVG Export Plug-In . SVG Version: 6.00 Build 0)  -->

<svg
   xmlns:dc="http://purl.org/dc/elements/1.1/"
   xmlns:cc="http://creativecommons.org/ns#"
   xmlns:rdf="http://www.w3.org/1999/02/22-rdf-syntax-ns#"
   xmlns:svg="http://www.w3.org/2000/svg"
   xmlns="http://www.w3.org/2000/svg"
   xmlns:sodipodi="http://sodipodi.sourceforge.net/DTD/sodipodi-0.dtd"
   xmlns:inkscape="http://www.inkscape.org/namespaces/inkscape"
   version="1.1"
   id="Layer_1"
   x="0px"
   y="0px"
   viewBox="0 0 309.267 309.267"
   style="enable-background:new 0 0 309.267 309.267;"
   xml:space="preserve"
   inkscape:version="0.91 r13725"
   sodipodi:docname="file_shp.svg"><metadata
     id="metadata45"><rdf:RDF><cc:Work
         rdf:about=""><dc:format>image/svg+xml</dc:format><dc:type
           rdf:resource="http://purl.org/dc/dcmitype/StillImage" /><dc:title></dc:title></cc:Work></rdf:RDF></metadata><defs
     id="defs43" /><sodipodi:namedview
     pagecolor="#ffffff"
     bordercolor="#666666"
     borderopacity="1"
     objecttolerance="10"
     gridtolerance="10"
     guidetolerance="10"
     inkscape:pageopacity="0"
     inkscape:pageshadow="2"
     inkscape:window-width="1280"
     inkscape:window-height="1002"
     id="namedview41"
     showgrid="false"
     inkscape:zoom="0.76309468"
     inkscape:cx="-39.313601"
     inkscape:cy="102.21536"
     inkscape:window-x="-8"
     inkscape:window-y="-8"
     inkscape:window-maximized="1"
     inkscape:current-layer="Layer_1" /><g
     id="g4180"
     transform="translate(4.9914551e-4,-8.5449221e-7)"><path
       style="fill:#2d4059;fill-opacity:1"
       d="m 38.658,0 164.23,0 87.049,86.711 0,203.227 c 0,10.679 -8.659,19.329 -19.329,19.329 l -231.95,0 c -10.67,0 -19.329,-8.65 -19.329,-19.329 l 0,-270.609 C 19.329,8.65 27.989,0 38.658,0 Z"
       id="path5"
       inkscape:connector-curvature="0" /><path
       style="fill:#18222f;fill-opacity:1"
       d="m 289.658,86.981 -67.372,0 c -10.67,0 -19.329,-8.659 -19.329,-19.329 l 0,-67.459 86.701,86.788 z"
       id="path7"
       inkscape:connector-curvature="0" /></g><g
     id="g11" /><g
     id="g13" /><g
     id="g15" /><g
     id="g17" /><g
     id="g19" /><g
     id="g21" /><g
     id="g23" /><g
     id="g25" /><g
     id="g27" /><g
     id="g29" /><g
     id="g31" /><g
     id="g33" /><g
     id="g35" /><g
     id="g37" /><g
     id="g39" /><g
     style="font-style:normal;font-weight:normal;font-size:67.41046906px;line-height:69.99999881%;font-family:sans-serif;letter-spacing:0px;word-spacing:0px;fill:#ffffff;fill-opacity:1;stroke:none;stroke-width:1px;stroke-linecap:butt;stroke-linejoin:miter;stroke-opacity:1"
     id="text4176"><path
       d="m 89.437745,171.4187 q 0,2.62901 -1.820083,4.38168 -1.752672,1.75267 -4.31427,1.75267 -2.629008,0 -4.449091,-1.75267 -1.752672,-1.75267 -1.752672,-4.38168 0,-2.62901 1.752672,-4.38168 1.820083,-1.82008 4.449091,-1.82008 2.561598,0 4.31427,1.82008 1.820083,1.75267 1.820083,4.38168 z"
       style="font-style:normal;font-variant:normal;font-weight:900;font-stretch:normal;font-family:Mosk;-inkscape-font-specification:'Mosk Heavy';letter-spacing:3px;fill:#ffffff;fill-opacity:1"
       id="path4185" /><path
       d="m 111.66237,178.42939 q -3.57276,0 -8.02185,-1.07857 -4.381678,-1.07856 -7.010686,-2.629 l 4.044626,-9.23524 q 1.82008,1.07857 4.98838,2.02231 3.2357,0.87634 5.66248,0.87634 2.69642,0 4.31427,-1.07857 1.61785,-1.14597 1.61785,-2.49418 0,-0.87634 -1.21339,-1.68527 -1.14598,-0.87633 -3.77499,-2.42677 l -2.08972,-1.21339 q -4.58391,-2.69642 -7.14551,-4.44909 -2.5616,-1.82008 -4.583913,-4.65132 -2.022314,-2.83124 -2.022314,-6.404 0,-3.77499 2.089724,-6.74105 2.157133,-3.03347 5.999533,-4.71873 3.8424,-1.68526 8.96559,-1.68526 3.50535,0 7.14551,1.01116 3.70758,1.01115 6.33659,2.76383 l -3.64017,8.29148 q -3.57275,-1.21338 -5.52766,-1.61785 -1.88749,-0.40446 -4.17945,-0.40446 -2.02231,0 -3.30311,0.94375 -1.21339,0.94374 -1.21339,2.29195 0,1.01116 1.01116,1.82008 1.07857,0.74152 3.50534,2.02232 l 2.42678,1.34821 q 4.24686,2.42678 7.0781,4.5165 2.83124,2.02231 4.78614,4.85355 2.02232,2.76383 2.02232,6.26918 0,3.9098 -2.22455,6.94328 -2.22455,3.03347 -6.40399,4.78614 -4.11204,1.75267 -9.6397,1.75267 z"
       style="font-style:normal;font-variant:normal;font-weight:900;font-stretch:normal;font-family:Mosk;-inkscape-font-specification:'Mosk Heavy';letter-spacing:3px;fill:#ffffff;fill-opacity:1"
       id="path4187" /><path
       d="m 180.24433,131.71394 0,45.83911 -12.26871,0 0,-17.93118 -16.04369,0 0,17.93118 -12.2687,0 0,-45.83911 12.2687,-0.40447 0,18.6727 16.04369,0 0,-18.26823 12.26871,0 z"
       style="font-style:normal;font-variant:normal;font-weight:900;font-stretch:normal;font-family:Mosk;-inkscape-font-specification:'Mosk Heavy';letter-spacing:3px;fill:#ffffff;fill-opacity:1"
       id="path4189" /><path
       d="m 206.27975,164.20578 0,13.34727 -12.2687,0 0,-45.83911 19.27939,0 q 5.25802,0 9.50488,1.88749 4.31427,1.82008 6.80846,5.59507 2.56159,3.70757 2.56159,9.033 0,5.25802 -2.69642,8.89818 -2.69641,3.57276 -7.14551,5.32543 -4.38168,1.75267 -9.57228,1.75267 l -6.47141,0 z M 219.4922,148.2295 q 0,-3.10088 -1.82008,-4.98837 -1.75267,-1.8875 -4.78614,-1.8875 l -6.60623,0 0,13.21245 6.74105,0 q 2.83124,0 4.65132,-1.82008 1.82008,-1.82008 1.82008,-4.5165 z"
       style="font-style:normal;font-variant:normal;font-weight:900;font-stretch:normal;font-family:Mosk;-inkscape-font-specification:'Mosk Heavy';letter-spacing:3px;fill:#ffffff;fill-opacity:1"
       id="path4191" /></g></svg>