<?xml version="1.0" encoding="UTF-8" standalone="no"?>
<!-- Created with Inkscape (http://www.inkscape.org/) -->

<svg
   xmlns:dc="http://purl.org/dc/elements/1.1/"
   xmlns:cc="http://creativecommons.org/ns#"
   xmlns:rdf="http://www.w3.org/1999/02/22-rdf-syntax-ns#"
   xmlns:svg="http://www.w3.org/2000/svg"
   xmlns="http://www.w3.org/2000/svg"
   xmlns:sodipodi="http://sodipodi.sourceforge.net/DTD/sodipodi-0.dtd"
   xmlns:inkscape="http://www.inkscape.org/namespaces/inkscape"
   width="165.05382mm"
   height="87.342308mm"
   viewBox="0 0 584.83636 309.48062"
   id="svg23308"
   version="1.1"
   inkscape:version="0.91 r13725"
   sodipodi:docname="home_partenariat.svg">
  <defs
     id="defs23310" />
  <sodipodi:namedview
     id="base"
     pagecolor="#ffffff"
     bordercolor="#666666"
     borderopacity="1.0"
     inkscape:pageopacity="0.0"
     inkscape:pageshadow="2"
     inkscape:zoom="0.35"
     inkscape:cx="460.27533"
     inkscape:cy="94.740315"
     inkscape:document-units="px"
     inkscape:current-layer="layer1"
     showgrid="false"
     fit-margin-top="0"
     fit-margin-left="0"
     fit-margin-right="0"
     fit-margin-bottom="0"
     inkscape:window-width="1366"
     inkscape:window-height="706"
     inkscape:window-x="1272"
     inkscape:window-y="-8"
     inkscape:window-maximized="1" />
  <metadata
     id="metadata23313">
    <rdf:RDF>
      <cc:Work
         rdf:about="">
        <dc:format>image/svg+xml</dc:format>
        <dc:type
           rdf:resource="http://purl.org/dc/dcmitype/StillImage" />
        <dc:title></dc:title>
      </cc:Work>
    </rdf:RDF>
  </metadata>
  <g
     inkscape:label="Calque 1"
     inkscape:groupmode="layer"
     id="layer1"
     transform="translate(606.7039,-317.6219)">
    <g
       transform="translate(-697.84418,-802.40198)"
       id="g21933">
      <g
         style="fill:#f5f5f5;fill-opacity:1"
         transform="matrix(1.25,0,0,-1.25,217.93554,1153.8734)"
         id="g12804">
        <path
           inkscape:connector-curvature="0"
           id="path12806"
           style="fill:#f5f5f5;fill-opacity:1;fill-rule:evenodd;stroke:none"
           d="m 0,0 109.685,-47.487 c 1.406,-0.61 2.059,-2.26 1.45,-3.666 l -30.8,-71.14 c -0.608,-1.407 -2.259,-2.06 -3.665,-1.451 l -109.685,47.487 c -1.406,0.609 -2.059,2.259 -1.45,3.665 L -3.666,-1.451 C -3.056,-0.044 -1.407,0.608 0,0" />
      </g>
      <g
         transform="matrix(1.25,0,0,-1.25,224.16178,1156.5699)"
         id="g12808">
        <path
           inkscape:connector-curvature="0"
           id="path12810"
           style="fill:#b3b3b3;fill-opacity:1;fill-rule:evenodd;stroke:none"
           d="M 0,0 6.359,-2.753 4.787,-6.385 C 4.644,-6.713 4.259,-6.866 3.93,-6.724 l -5.164,2.236 c -0.328,0.142 -0.481,0.528 -0.339,0.856 L 0,0 Z" />
      </g>
      <g
         transform="matrix(1.25,0,0,-1.25,340.86641,1207.096)"
         id="g12812">
        <path
           inkscape:connector-curvature="0"
           id="path12814"
           style="fill:#b3b3b3;fill-opacity:1;fill-rule:evenodd;stroke:none"
           d="M 0,0 6.359,-2.753 4.786,-6.385 C 4.644,-6.714 4.259,-6.866 3.93,-6.724 l -5.164,2.236 c -0.329,0.142 -0.481,0.527 -0.339,0.856 L 0,0 Z" />
      </g>
      <g
         transform="matrix(1.25,0,0,-1.25,216.56103,1120.7069)"
         id="g12816">
        <path
           inkscape:connector-curvature="0"
           id="path12818"
           style="fill:#cccccc;fill-opacity:1;fill-rule:evenodd;stroke:none"
           d="m 0,0 130.666,-56.57 c 3.142,-1.362 3.463,-3.242 1.298,-4.706 L 113.606,-73.695 -0.894,-24.123 -3.97,-4.514 C -4.661,-0.109 -3.461,1.498 0,0" />
      </g>
      <g
         transform="matrix(1.25,0,0,-1.25,372.21478,1195.8558)"
         id="g12820">
        <path
           inkscape:connector-curvature="0"
           id="path12822"
           style="fill:#666666;fill-opacity:1;fill-rule:evenodd;stroke:none"
           d="M 0,0 -13.625,-9.662 -120.62,36.66 -122.979,53.243 0,0 Z" />
      </g>
      <g
         transform="matrix(1.25,0,0,-1.25,215.40016,1120.9156)"
         id="g12824">
        <path
           inkscape:connector-curvature="0"
           id="path12826"
           style="fill:#ffffff;fill-opacity:1;fill-rule:evenodd;stroke:none"
           d="m 0,0 132.431,-57.335 c 0.281,-0.122 0.412,-0.452 0.29,-0.733 -0.121,-0.282 -0.451,-0.412 -0.733,-0.29 L -0.443,-1.023 c -0.282,0.122 -0.412,0.452 -0.29,0.733 C -0.611,-0.009 -0.281,0.122 0,0" />
      </g>
      <g
         transform="matrix(1.25,0,0,-1.25,227.07441,1152.9383)"
         id="g12828">
        <path
           inkscape:connector-curvature="0"
           id="path12830"
           style="fill:#ffffff;fill-opacity:1;fill-rule:evenodd;stroke:none"
           d="m 0,0 4.553,-1.972 c 0.29,-0.125 0.424,-0.465 0.299,-0.755 L 2.522,-8.106 C 2.396,-8.396 2.057,-8.531 1.767,-8.405 l -4.553,1.97 c -0.29,0.126 -0.424,0.465 -0.298,0.755 l 2.329,5.381 C -0.63,-0.009 -0.29,0.125 0,0" />
      </g>
      <g
         transform="matrix(1.25,0,0,-1.25,343.77841,1203.4644)"
         id="g12832">
        <path
           inkscape:connector-curvature="0"
           id="path12834"
           style="fill:#ffffff;fill-opacity:1;fill-rule:evenodd;stroke:none"
           d="m 0,0 4.553,-1.972 c 0.29,-0.125 0.424,-0.465 0.299,-0.755 L 2.522,-8.106 C 2.397,-8.396 2.057,-8.531 1.767,-8.405 l -4.553,1.97 c -0.289,0.125 -0.423,0.465 -0.298,0.755 l 2.329,5.381 C -0.629,-0.01 -0.29,0.125 0,0" />
      </g>
      <g
         transform="matrix(1.25,0,0,-1.25,338.77478,1221.2745)"
         id="g12836">
        <path
           inkscape:connector-curvature="0"
           id="path12838"
           style="fill:#cccccc;fill-opacity:1;fill-rule:evenodd;stroke:none"
           d="m 0,0 3.542,-1.534 c 0.403,-0.175 0.59,-0.647 0.416,-1.049 L 2.818,-5.216 C 2.644,-5.618 2.172,-5.805 1.77,-5.631 l -3.543,1.534 c -0.403,0.174 -0.59,0.646 -0.415,1.049 l 1.14,2.633 C -0.874,-0.013 -0.403,0.174 0,0" />
      </g>
      <g
         transform="matrix(1.25,0,0,-1.25,336.26016,1227.6405)"
         id="g12840">
        <path
           inkscape:connector-curvature="0"
           id="path12842"
           style="fill:#cccccc;fill-opacity:1;fill-rule:evenodd;stroke:none"
           d="M 0,0 3.217,-1.394 C 3.709,-1.606 3.938,-2.183 3.725,-2.675 L 2.181,-6.24 C 1.968,-6.732 1.391,-6.961 0.899,-6.748 l -3.217,1.394 c -0.492,0.212 -0.72,0.789 -0.507,1.281 l 1.543,3.565 C -1.069,-0.016 -0.492,0.213 0,0" />
      </g>
      <g
         transform="matrix(1.25,0,0,-1.25,332.86116,1235.4908)"
         id="g12844">
        <path
           inkscape:connector-curvature="0"
           id="path12846"
           style="fill:#cccccc;fill-opacity:1;fill-rule:evenodd;stroke:none"
           d="m 0,0 3.218,-1.394 c 0.491,-0.212 0.72,-0.789 0.507,-1.281 L 2.181,-6.24 C 1.968,-6.732 1.392,-6.961 0.899,-6.748 l -3.217,1.394 c -0.492,0.212 -0.72,0.79 -0.507,1.281 l 1.544,3.565 C -1.068,-0.016 -0.492,0.213 0,0" />
      </g>
      <g
         transform="matrix(1.25,0,0,-1.25,329.46204,1243.3411)"
         id="g12848">
        <path
           inkscape:connector-curvature="0"
           id="path12850"
           style="fill:#cccccc;fill-opacity:1;fill-rule:evenodd;stroke:none"
           d="M 0,0 3.218,-1.394 C 3.71,-1.606 3.938,-2.183 3.725,-2.675 L 2.181,-6.24 C 1.969,-6.732 1.392,-6.961 0.899,-6.748 l -3.217,1.394 c -0.492,0.212 -0.72,0.789 -0.507,1.281 l 1.544,3.565 C -1.068,-0.016 -0.491,0.213 0,0" />
      </g>
      <g
         transform="matrix(1.25,0,0,-1.25,326.06366,1251.1928)"
         id="g12852">
        <path
           inkscape:connector-curvature="0"
           id="path12854"
           style="fill:#cccccc;fill-opacity:1;fill-rule:evenodd;stroke:none"
           d="m 0,0 3.218,-1.393 c 0.491,-0.212 0.72,-0.789 0.507,-1.281 L 2.181,-6.239 C 1.968,-6.731 1.392,-6.96 0.899,-6.747 l -3.217,1.393 c -0.492,0.213 -0.72,0.791 -0.507,1.282 l 1.544,3.565 C -1.068,-0.015 -0.492,0.214 0,0" />
      </g>
      <g
         transform="matrix(1.25,0,0,-1.25,322.66516,1259.0419)"
         id="g12856">
        <path
           inkscape:connector-curvature="0"
           id="path12858"
           style="fill:#cccccc;fill-opacity:1;fill-rule:evenodd;stroke:none"
           d="M 0,0 3.217,-1.394 C 3.709,-1.606 3.938,-2.183 3.725,-2.675 L 2.181,-6.24 C 1.968,-6.732 1.391,-6.961 0.899,-6.748 l -3.217,1.394 c -0.492,0.212 -0.72,0.789 -0.507,1.281 l 1.543,3.566 C -1.069,-0.016 -0.492,0.213 0,0" />
      </g>
      <g
         transform="matrix(1.25,0,0,-1.25,330.95316,1217.8883)"
         id="g12860">
        <path
           inkscape:connector-curvature="0"
           id="path12862"
           style="fill:#cccccc;fill-opacity:1;fill-rule:evenodd;stroke:none"
           d="M 0,0 3.542,-1.534 C 3.945,-1.708 4.132,-2.18 3.958,-2.583 L 2.818,-5.216 C 2.644,-5.618 2.172,-5.805 1.769,-5.631 l -3.542,1.534 c -0.403,0.175 -0.59,0.647 -0.415,1.049 l 1.139,2.633 C -0.875,-0.013 -0.403,0.174 0,0" />
      </g>
      <g
         transform="matrix(1.25,0,0,-1.25,321.29129,1221.1597)"
         id="g12864">
        <path
           inkscape:connector-curvature="0"
           id="path12866"
           style="fill:#cccccc;fill-opacity:1;fill-rule:evenodd;stroke:none"
           d="m 0,0 8.873,-3.842 c 0.526,-0.227 0.77,-0.844 0.542,-1.371 l -1.49,-3.44 C 7.698,-9.18 7.081,-9.424 6.555,-9.196 l -8.873,3.842 c -0.527,0.227 -0.77,0.843 -0.543,1.37 l 1.49,3.441 C -1.143,-0.017 -0.526,0.228 0,0" />
      </g>
      <g
         transform="matrix(1.25,0,0,-1.25,322.98378,1231.2146)"
         id="g12868">
        <path
           inkscape:connector-curvature="0"
           id="path12870"
           style="fill:#cccccc;fill-opacity:1;fill-rule:evenodd;stroke:none"
           d="M 0,0 4.8,-2.078 C 5.326,-2.306 5.57,-2.923 5.342,-3.449 L 3.852,-6.89 C 3.625,-7.416 3.008,-7.66 2.481,-7.433 l -4.799,2.079 c -0.527,0.228 -0.77,0.844 -0.542,1.371 l 1.489,3.44 C -1.143,-0.017 -0.526,0.228 0,0" />
      </g>
      <g
         transform="matrix(1.25,0,0,-1.25,313.61178,1236.4796)"
         id="g12872">
        <path
           inkscape:connector-curvature="0"
           id="path12874"
           style="fill:#cccccc;fill-opacity:1;fill-rule:evenodd;stroke:none"
           d="m 0,0 9.578,-4.146 c 0.526,-0.228 0.771,-0.845 0.543,-1.372 l -1.49,-3.44 C 8.403,-9.484 7.786,-9.729 7.26,-9.501 l -9.578,4.147 c -0.526,0.228 -0.77,0.844 -0.543,1.371 l 1.49,3.441 C -1.143,-0.016 -0.526,0.229 0,0" />
      </g>
      <g
         transform="matrix(1.25,0,0,-1.25,318.24128,1247.8052)"
         id="g12876">
        <path
           inkscape:connector-curvature="0"
           id="path12878"
           style="fill:#cccccc;fill-opacity:1;fill-rule:evenodd;stroke:none"
           d="M 0,0 3.218,-1.394 C 3.71,-1.606 3.938,-2.183 3.725,-2.675 L 2.182,-6.24 C 1.969,-6.732 1.392,-6.961 0.899,-6.747 l -3.217,1.393 c -0.492,0.212 -0.72,0.79 -0.507,1.281 l 1.544,3.566 C -1.068,-0.016 -0.492,0.213 0,0" />
      </g>
      <g
         transform="matrix(1.25,0,0,-1.25,314.84291,1255.6556)"
         id="g12880">
        <path
           inkscape:connector-curvature="0"
           id="path12882"
           style="fill:#cccccc;fill-opacity:1;fill-rule:evenodd;stroke:none"
           d="m 0,0 3.218,-1.394 c 0.491,-0.212 0.72,-0.789 0.507,-1.281 L 2.181,-6.24 C 1.968,-6.732 1.392,-6.961 0.899,-6.748 l -3.217,1.394 c -0.492,0.212 -0.72,0.79 -0.507,1.281 l 1.544,3.566 C -1.068,-0.016 -0.492,0.213 0,0" />
      </g>
      <g
         transform="matrix(1.25,0,0,-1.25,323.72841,1214.7609)"
         id="g12884">
        <path
           inkscape:connector-curvature="0"
           id="path12886"
           style="fill:#cccccc;fill-opacity:1;fill-rule:evenodd;stroke:none"
           d="M 0,0 3.065,-1.327 C 3.468,-1.501 3.654,-1.973 3.48,-2.376 L 2.34,-5.008 C 2.166,-5.411 1.694,-5.598 1.291,-5.423 l -3.064,1.327 c -0.403,0.174 -0.59,0.646 -0.415,1.048 l 1.139,2.633 C -0.875,-0.013 -0.403,0.175 0,0" />
      </g>
      <g
         transform="matrix(1.25,0,0,-1.25,316.38591,1211.5821)"
         id="g12888">
        <path
           inkscape:connector-curvature="0"
           id="path12890"
           style="fill:#cccccc;fill-opacity:1;fill-rule:evenodd;stroke:none"
           d="m 0,0 3.064,-1.326 c 0.403,-0.175 0.59,-0.647 0.415,-1.049 L 2.34,-5.008 C 2.165,-5.41 1.694,-5.598 1.291,-5.423 l -3.065,1.327 c -0.403,0.174 -0.589,0.646 -0.415,1.049 l 1.14,2.633 C -0.875,-0.012 -0.403,0.175 0,0" />
      </g>
      <g
         transform="matrix(1.25,0,0,-1.25,309.04279,1208.4021)"
         id="g12892">
        <path
           inkscape:connector-curvature="0"
           id="path12894"
           style="fill:#cccccc;fill-opacity:1;fill-rule:evenodd;stroke:none"
           d="m 0,0 3.064,-1.327 c 0.403,-0.174 0.59,-0.647 0.415,-1.049 L 2.34,-5.009 C 2.166,-5.411 1.694,-5.598 1.292,-5.424 l -3.065,1.327 c -0.403,0.175 -0.59,0.646 -0.415,1.049 l 1.139,2.633 C -0.875,-0.013 -0.403,0.174 0,0" />
      </g>
      <g
         transform="matrix(1.25,0,0,-1.25,301.69966,1205.2235)"
         id="g12896">
        <path
           inkscape:connector-curvature="0"
           id="path12898"
           style="fill:#cccccc;fill-opacity:1;fill-rule:evenodd;stroke:none"
           d="M 0,0 3.065,-1.327 C 3.468,-1.501 3.654,-1.973 3.48,-2.376 L 2.34,-5.008 C 2.166,-5.411 1.694,-5.598 1.291,-5.423 l -3.064,1.326 c -0.403,0.175 -0.59,0.647 -0.415,1.049 l 1.139,2.633 C -0.874,-0.013 -0.403,0.175 0,0" />
      </g>
      <g
         transform="matrix(1.25,0,0,-1.25,294.35703,1202.0447)"
         id="g12900">
        <path
           inkscape:connector-curvature="0"
           id="path12902"
           style="fill:#cccccc;fill-opacity:1;fill-rule:evenodd;stroke:none"
           d="m 0,0 3.064,-1.326 c 0.403,-0.175 0.59,-0.647 0.415,-1.049 L 2.34,-5.008 C 2.166,-5.411 1.694,-5.598 1.291,-5.423 l -3.065,1.327 c -0.403,0.174 -0.589,0.646 -0.415,1.048 l 1.14,2.633 C -0.875,-0.012 -0.403,0.175 0,0" />
      </g>
      <g
         transform="matrix(1.25,0,0,-1.25,287.01391,1198.8649)"
         id="g12904">
        <path
           inkscape:connector-curvature="0"
           id="path12906"
           style="fill:#cccccc;fill-opacity:1;fill-rule:evenodd;stroke:none"
           d="m 0,0 3.064,-1.327 c 0.403,-0.175 0.59,-0.647 0.415,-1.049 L 2.34,-5.009 C 2.166,-5.411 1.694,-5.599 1.292,-5.424 l -3.065,1.327 c -0.403,0.174 -0.59,0.646 -0.415,1.049 l 1.139,2.633 C -0.875,-0.013 -0.403,0.174 0,0" />
      </g>
      <g
         transform="matrix(1.25,0,0,-1.25,279.67079,1195.6861)"
         id="g12908">
        <path
           inkscape:connector-curvature="0"
           id="path12910"
           style="fill:#cccccc;fill-opacity:1;fill-rule:evenodd;stroke:none"
           d="M 0,0 3.065,-1.327 C 3.468,-1.501 3.654,-1.973 3.48,-2.376 L 2.34,-5.009 C 2.166,-5.411 1.694,-5.598 1.292,-5.424 l -3.065,1.327 c -0.403,0.175 -0.589,0.646 -0.415,1.049 l 1.14,2.633 C -0.874,-0.013 -0.403,0.174 0,0" />
      </g>
      <g
         transform="matrix(1.25,0,0,-1.25,272.32828,1192.5074)"
         id="g12912">
        <path
           inkscape:connector-curvature="0"
           id="path12914"
           style="fill:#cccccc;fill-opacity:1;fill-rule:evenodd;stroke:none"
           d="M 0,0 3.065,-1.327 C 3.468,-1.501 3.654,-1.973 3.479,-2.376 L 2.34,-5.008 C 2.166,-5.411 1.694,-5.598 1.291,-5.423 l -3.064,1.326 c -0.403,0.175 -0.59,0.647 -0.415,1.049 l 1.139,2.633 C -0.875,-0.013 -0.403,0.175 0,0" />
      </g>
      <g
         transform="matrix(1.25,0,0,-1.25,264.98516,1189.3286)"
         id="g12916">
        <path
           inkscape:connector-curvature="0"
           id="path12918"
           style="fill:#cccccc;fill-opacity:1;fill-rule:evenodd;stroke:none"
           d="M 0,0 3.065,-1.326 C 3.468,-1.501 3.654,-1.973 3.48,-2.375 L 2.34,-5.008 C 2.166,-5.411 1.694,-5.598 1.292,-5.423 l -3.065,1.326 c -0.403,0.175 -0.59,0.647 -0.415,1.05 l 1.14,2.632 C -0.875,-0.012 -0.402,0.175 0,0" />
      </g>
      <g
         transform="matrix(1.25,0,0,-1.25,257.64204,1186.1487)"
         id="g12920">
        <path
           inkscape:connector-curvature="0"
           id="path12922"
           style="fill:#cccccc;fill-opacity:1;fill-rule:evenodd;stroke:none"
           d="M 0,0 3.065,-1.327 C 3.468,-1.502 3.654,-1.974 3.48,-2.376 L 2.34,-5.009 C 2.166,-5.411 1.694,-5.598 1.292,-5.424 l -3.065,1.327 c -0.403,0.175 -0.589,0.646 -0.415,1.049 l 1.14,2.632 C -0.874,-0.013 -0.402,0.174 0,0" />
      </g>
      <g
         transform="matrix(1.25,0,0,-1.25,250.29941,1182.97)"
         id="g12924">
        <path
           inkscape:connector-curvature="0"
           id="path12926"
           style="fill:#cccccc;fill-opacity:1;fill-rule:evenodd;stroke:none"
           d="M 0,0 3.065,-1.327 C 3.468,-1.501 3.654,-1.973 3.48,-2.376 L 2.34,-5.008 C 2.166,-5.411 1.694,-5.598 1.292,-5.423 l -3.065,1.326 c -0.403,0.175 -0.59,0.647 -0.415,1.049 l 1.14,2.633 C -0.874,-0.013 -0.403,0.175 0,0" />
      </g>
      <g
         transform="matrix(1.25,0,0,-1.25,242.95691,1179.7914)"
         id="g12928">
        <path
           inkscape:connector-curvature="0"
           id="path12930"
           style="fill:#cccccc;fill-opacity:1;fill-rule:evenodd;stroke:none"
           d="m 0,0 3.064,-1.326 c 0.403,-0.175 0.59,-0.647 0.415,-1.049 L 2.34,-5.008 C 2.166,-5.411 1.694,-5.598 1.291,-5.423 l -3.065,1.326 c -0.402,0.175 -0.589,0.647 -0.415,1.049 l 1.14,2.633 C -0.875,-0.013 -0.403,0.175 0,0" />
      </g>
      <g
         transform="matrix(1.25,0,0,-1.25,235.61378,1176.6114)"
         id="g12932">
        <path
           inkscape:connector-curvature="0"
           id="path12934"
           style="fill:#cccccc;fill-opacity:1;fill-rule:evenodd;stroke:none"
           d="M 0,0 3.065,-1.327 C 3.467,-1.502 3.654,-1.974 3.48,-2.376 L 2.34,-5.009 C 2.166,-5.411 1.694,-5.599 1.291,-5.424 l -3.064,1.327 c -0.403,0.174 -0.59,0.646 -0.415,1.049 l 1.139,2.632 C -0.875,-0.013 -0.403,0.174 0,0" />
      </g>
      <g
         transform="matrix(1.25,0,0,-1.25,228.27066,1173.4328)"
         id="g12936">
        <path
           inkscape:connector-curvature="0"
           id="path12938"
           style="fill:#cccccc;fill-opacity:1;fill-rule:evenodd;stroke:none"
           d="M 0,0 3.065,-1.327 C 3.468,-1.502 3.654,-1.973 3.48,-2.376 L 2.34,-5.009 C 2.166,-5.411 1.694,-5.598 1.292,-5.424 l -3.065,1.327 c -0.403,0.175 -0.59,0.646 -0.415,1.049 l 1.14,2.633 C -0.874,-0.013 -0.402,0.174 0,0" />
      </g>
      <g
         transform="matrix(1.25,0,0,-1.25,220.02241,1169.8621)"
         id="g12940">
        <path
           inkscape:connector-curvature="0"
           id="path12942"
           style="fill:#cccccc;fill-opacity:1;fill-rule:evenodd;stroke:none"
           d="M 0,0 3.542,-1.534 C 3.945,-1.708 4.132,-2.18 3.958,-2.582 L 2.818,-5.215 C 2.644,-5.617 2.171,-5.805 1.769,-5.63 l -3.543,1.533 c -0.403,0.175 -0.589,0.647 -0.415,1.049 l 1.14,2.633 C -0.875,-0.012 -0.403,0.175 0,0" />
      </g>
      <g
         transform="matrix(1.25,0,0,-1.25,313.36829,1217.7308)"
         id="g12944">
        <path
           inkscape:connector-curvature="0"
           id="path12946"
           style="fill:#cccccc;fill-opacity:1;fill-rule:evenodd;stroke:none"
           d="m 0,0 3.158,-1.366 c 0.483,-0.209 0.707,-0.776 0.497,-1.258 l -1.558,-3.6 C 1.888,-6.706 1.322,-6.93 0.84,-6.721 l -3.158,1.367 c -0.483,0.209 -0.706,0.775 -0.497,1.257 l 1.558,3.6 C -1.048,-0.015 -0.482,0.209 0,0" />
      </g>
      <g
         transform="matrix(1.25,0,0,-1.25,305.40203,1214.2811)"
         id="g12948">
        <path
           inkscape:connector-curvature="0"
           id="path12950"
           style="fill:#cccccc;fill-opacity:1;fill-rule:evenodd;stroke:none"
           d="M 0,0 3.158,-1.367 C 3.64,-1.576 3.864,-2.143 3.655,-2.625 L 2.097,-6.224 C 1.888,-6.706 1.322,-6.931 0.839,-6.722 l -3.157,1.368 c -0.483,0.208 -0.707,0.775 -0.498,1.257 l 1.558,3.599 C -1.049,-0.015 -0.483,0.209 0,0" />
      </g>
      <g
         transform="matrix(1.25,0,0,-1.25,297.43566,1210.8326)"
         id="g12952">
        <path
           inkscape:connector-curvature="0"
           id="path12954"
           style="fill:#cccccc;fill-opacity:1;fill-rule:evenodd;stroke:none"
           d="M 0,0 3.157,-1.367 C 3.64,-1.576 3.864,-2.142 3.655,-2.624 l -1.558,-3.6 C 1.888,-6.706 1.322,-6.93 0.839,-6.721 l -3.157,1.367 c -0.483,0.208 -0.707,0.775 -0.498,1.257 l 1.558,3.6 C -1.049,-0.015 -0.483,0.209 0,0" />
      </g>
      <g
         transform="matrix(1.25,0,0,-1.25,289.46879,1207.3829)"
         id="g12956">
        <path
           inkscape:connector-curvature="0"
           id="path12958"
           style="fill:#cccccc;fill-opacity:1;fill-rule:evenodd;stroke:none"
           d="M 0,0 3.157,-1.367 C 3.64,-1.576 3.864,-2.142 3.655,-2.625 L 2.097,-6.224 C 1.888,-6.707 1.322,-6.931 0.839,-6.722 l -3.157,1.368 c -0.483,0.208 -0.707,0.775 -0.498,1.257 l 1.558,3.599 C -1.049,-0.016 -0.483,0.209 0,0" />
      </g>
      <g
         transform="matrix(1.25,0,0,-1.25,281.50178,1203.9344)"
         id="g12960">
        <path
           inkscape:connector-curvature="0"
           id="path12962"
           style="fill:#cccccc;fill-opacity:1;fill-rule:evenodd;stroke:none"
           d="M 0,0 3.158,-1.366 C 3.64,-1.575 3.864,-2.142 3.655,-2.624 l -1.558,-3.6 C 1.888,-6.706 1.322,-6.93 0.839,-6.721 l -3.157,1.367 c -0.483,0.209 -0.707,0.775 -0.497,1.257 l 1.558,3.6 C -1.048,-0.015 -0.483,0.21 0,0" />
      </g>
      <g
         transform="matrix(1.25,0,0,-1.25,273.53553,1200.4847)"
         id="g12964">
        <path
           inkscape:connector-curvature="0"
           id="path12966"
           style="fill:#cccccc;fill-opacity:1;fill-rule:evenodd;stroke:none"
           d="M 0,0 3.157,-1.367 C 3.64,-1.576 3.864,-2.142 3.655,-2.625 L 2.097,-6.224 C 1.888,-6.706 1.322,-6.931 0.839,-6.722 l -3.157,1.368 c -0.483,0.208 -0.707,0.775 -0.498,1.257 l 1.558,3.599 C -1.049,-0.015 -0.483,0.209 0,0" />
      </g>
      <g
         transform="matrix(1.25,0,0,-1.25,265.56866,1197.035)"
         id="g12968">
        <path
           inkscape:connector-curvature="0"
           id="path12970"
           style="fill:#cccccc;fill-opacity:1;fill-rule:evenodd;stroke:none"
           d="M 0,0 3.158,-1.367 C 3.64,-1.576 3.864,-2.143 3.655,-2.625 l -1.558,-3.6 C 1.888,-6.707 1.322,-6.931 0.839,-6.722 l -3.157,1.368 c -0.483,0.208 -0.707,0.774 -0.498,1.256 l 1.558,3.6 C -1.049,-0.016 -0.483,0.208 0,0" />
      </g>
      <g
         transform="matrix(1.25,0,0,-1.25,257.60166,1193.5865)"
         id="g12972">
        <path
           inkscape:connector-curvature="0"
           id="path12974"
           style="fill:#cccccc;fill-opacity:1;fill-rule:evenodd;stroke:none"
           d="M 0,0 3.158,-1.367 C 3.64,-1.576 3.864,-2.143 3.655,-2.625 L 2.097,-6.224 C 1.888,-6.706 1.322,-6.931 0.839,-6.722 l -3.157,1.368 c -0.483,0.208 -0.707,0.775 -0.498,1.257 l 1.558,3.599 C -1.049,-0.015 -0.482,0.209 0,0" />
      </g>
      <g
         transform="matrix(1.25,0,0,-1.25,249.63479,1190.138)"
         id="g12976">
        <path
           inkscape:connector-curvature="0"
           id="path12978"
           style="fill:#cccccc;fill-opacity:1;fill-rule:evenodd;stroke:none"
           d="m 0,0 3.158,-1.366 c 0.483,-0.209 0.706,-0.776 0.497,-1.258 l -1.558,-3.6 C 1.888,-6.706 1.322,-6.93 0.84,-6.721 l -3.158,1.367 c -0.483,0.209 -0.706,0.775 -0.497,1.257 l 1.558,3.6 C -1.048,-0.015 -0.482,0.21 0,0" />
      </g>
      <g
         transform="matrix(1.25,0,0,-1.25,241.66841,1186.6883)"
         id="g12980">
        <path
           inkscape:connector-curvature="0"
           id="path12982"
           style="fill:#cccccc;fill-opacity:1;fill-rule:evenodd;stroke:none"
           d="M 0,0 3.158,-1.367 C 3.64,-1.576 3.864,-2.142 3.655,-2.625 L 2.097,-6.224 C 1.888,-6.706 1.322,-6.931 0.839,-6.722 l -3.157,1.368 c -0.483,0.208 -0.706,0.775 -0.498,1.257 l 1.559,3.6 C -1.049,-0.015 -0.483,0.209 0,0" />
      </g>
      <g
         transform="matrix(1.25,0,0,-1.25,233.70216,1183.2399)"
         id="g12984">
        <path
           inkscape:connector-curvature="0"
           id="path12986"
           style="fill:#cccccc;fill-opacity:1;fill-rule:evenodd;stroke:none"
           d="M 0,0 3.157,-1.366 C 3.64,-1.575 3.864,-2.142 3.655,-2.624 l -1.558,-3.6 C 1.888,-6.706 1.322,-6.93 0.839,-6.721 l -3.157,1.367 c -0.483,0.209 -0.707,0.775 -0.498,1.257 l 1.558,3.6 C -1.049,-0.015 -0.483,0.21 0,0" />
      </g>
      <g
         transform="matrix(1.25,0,0,-1.25,225.73528,1179.7901)"
         id="g12988">
        <path
           inkscape:connector-curvature="0"
           id="path12990"
           style="fill:#cccccc;fill-opacity:1;fill-rule:evenodd;stroke:none"
           d="M 0,0 3.157,-1.367 C 3.64,-1.576 3.864,-2.142 3.655,-2.625 L 2.097,-6.224 C 1.888,-6.706 1.322,-6.931 0.839,-6.722 l -3.157,1.368 c -0.483,0.208 -0.707,0.775 -0.498,1.257 l 1.558,3.599 C -1.049,-0.015 -0.483,0.209 0,0" />
      </g>
      <g
         transform="matrix(1.25,0,0,-1.25,217.50703,1176.2281)"
         id="g12992">
        <path
           inkscape:connector-curvature="0"
           id="path12994"
           style="fill:#cccccc;fill-opacity:1;fill-rule:evenodd;stroke:none"
           d="m 0,0 3.218,-1.393 c 0.491,-0.212 0.72,-0.79 0.507,-1.282 L 2.181,-6.24 C 1.968,-6.731 1.392,-6.96 0.899,-6.747 l -3.217,1.393 c -0.492,0.212 -0.72,0.79 -0.507,1.282 l 1.544,3.565 C -1.068,-0.015 -0.492,0.213 0,0" />
      </g>
      <g
         transform="matrix(1.25,0,0,-1.25,214.18616,1184.1114)"
         id="g12996">
        <path
           inkscape:connector-curvature="0"
           id="path12998"
           style="fill:#cccccc;fill-opacity:1;fill-rule:evenodd;stroke:none"
           d="M 0,0 6.62,-2.866 C 7.146,-3.095 7.391,-3.711 7.163,-4.237 L 5.672,-7.679 C 5.445,-8.205 4.828,-8.448 4.302,-8.221 l -6.62,2.867 c -0.526,0.227 -0.77,0.843 -0.542,1.37 l 1.489,3.441 C -1.143,-0.017 -0.526,0.228 0,0" />
      </g>
      <g
         transform="matrix(1.25,0,0,-1.25,210.78778,1191.9618)"
         id="g13000">
        <path
           inkscape:connector-curvature="0"
           id="path13002"
           style="fill:#cccccc;fill-opacity:1;fill-rule:evenodd;stroke:none"
           d="M 0,0 7.871,-3.408 C 8.397,-3.637 8.642,-4.253 8.414,-4.779 L 6.924,-8.221 C 6.696,-8.747 6.08,-8.991 5.553,-8.763 l -7.871,3.408 c -0.527,0.228 -0.771,0.844 -0.543,1.371 l 1.49,3.441 C -1.143,-0.017 -0.527,0.228 0,0" />
      </g>
      <g
         transform="matrix(1.25,0,0,-1.25,207.38866,1199.8133)"
         id="g13004">
        <path
           inkscape:connector-curvature="0"
           id="path13006"
           style="fill:#cccccc;fill-opacity:1;fill-rule:evenodd;stroke:none"
           d="m 0,0 11.285,-4.885 c 0.526,-0.228 0.77,-0.844 0.542,-1.371 l -1.49,-3.441 c -0.228,-0.527 -0.844,-0.771 -1.37,-0.542 l -11.285,4.885 c -0.526,0.228 -0.77,0.844 -0.542,1.371 l 1.489,3.441 C -1.143,-0.016 -0.526,0.229 0,0" />
      </g>
      <g
         transform="matrix(1.25,0,0,-1.25,203.99028,1207.6624)"
         id="g13008">
        <path
           inkscape:connector-curvature="0"
           id="path13010"
           style="fill:#cccccc;fill-opacity:1;fill-rule:evenodd;stroke:none"
           d="m 0,0 4.686,-2.029 c 0.526,-0.228 0.77,-0.844 0.542,-1.37 L 3.738,-6.841 C 3.51,-7.367 2.894,-7.611 2.368,-7.384 l -4.686,2.03 c -0.527,0.227 -0.771,0.843 -0.543,1.37 l 1.49,3.441 C -1.143,-0.017 -0.526,0.228 0,0" />
      </g>
      <g
         transform="matrix(1.25,0,0,-1.25,225.82741,1189.1516)"
         id="g13012">
        <path
           inkscape:connector-curvature="0"
           id="path13014"
           style="fill:#cccccc;fill-opacity:1;fill-rule:evenodd;stroke:none"
           d="m 0,0 3.382,-1.464 c 0.517,-0.224 0.757,-0.83 0.533,-1.347 L 2.411,-6.285 C 2.187,-6.803 1.581,-7.042 1.063,-6.818 l -3.381,1.464 c -0.517,0.223 -0.757,0.83 -0.533,1.346 l 1.504,3.476 C -1.123,-0.016 -0.518,0.224 0,0" />
      </g>
      <g
         transform="matrix(1.25,0,0,-1.25,233.94328,1192.6661)"
         id="g13016">
        <path
           inkscape:connector-curvature="0"
           id="path13018"
           style="fill:#cccccc;fill-opacity:1;fill-rule:evenodd;stroke:none"
           d="M 0,0 3.382,-1.464 C 3.899,-1.687 4.139,-2.293 3.915,-2.811 L 2.411,-6.285 C 2.187,-6.802 1.581,-7.042 1.064,-6.818 l -3.382,1.464 c -0.517,0.224 -0.757,0.83 -0.533,1.347 l 1.504,3.475 C -1.123,-0.016 -0.517,0.225 0,0" />
      </g>
      <g
         transform="matrix(1.25,0,0,-1.25,242.05966,1196.1793)"
         id="g13020">
        <path
           inkscape:connector-curvature="0"
           id="path13022"
           style="fill:#cccccc;fill-opacity:1;fill-rule:evenodd;stroke:none"
           d="m 0,0 3.382,-1.464 c 0.517,-0.224 0.757,-0.83 0.533,-1.347 L 2.411,-6.285 C 2.187,-6.803 1.581,-7.043 1.064,-6.818 l -3.382,1.464 c -0.517,0.223 -0.757,0.83 -0.533,1.346 l 1.504,3.475 C -1.123,-0.016 -0.517,0.224 0,0" />
      </g>
      <g
         transform="matrix(1.25,0,0,-1.25,250.17616,1199.6936)"
         id="g13024">
        <path
           inkscape:connector-curvature="0"
           id="path13026"
           style="fill:#cccccc;fill-opacity:1;fill-rule:evenodd;stroke:none"
           d="M 0,0 3.382,-1.464 C 3.899,-1.687 4.139,-2.293 3.915,-2.811 L 2.411,-6.285 C 2.187,-6.803 1.581,-7.042 1.064,-6.818 l -3.382,1.464 c -0.517,0.224 -0.757,0.83 -0.533,1.347 l 1.504,3.475 C -1.123,-0.016 -0.517,0.225 0,0" />
      </g>
      <g
         transform="matrix(1.25,0,0,-1.25,258.29266,1203.2069)"
         id="g13028">
        <path
           inkscape:connector-curvature="0"
           id="path13030"
           style="fill:#cccccc;fill-opacity:1;fill-rule:evenodd;stroke:none"
           d="M 0,0 3.382,-1.465 C 3.899,-1.688 4.139,-2.294 3.915,-2.811 L 2.41,-6.285 C 2.187,-6.803 1.581,-7.043 1.064,-6.818 l -3.382,1.464 c -0.518,0.223 -0.757,0.83 -0.534,1.346 l 1.505,3.475 C -1.123,-0.016 -0.518,0.224 0,0" />
      </g>
      <g
         transform="matrix(1.25,0,0,-1.25,266.40841,1206.7212)"
         id="g13032">
        <path
           inkscape:connector-curvature="0"
           id="path13034"
           style="fill:#cccccc;fill-opacity:1;fill-rule:evenodd;stroke:none"
           d="m 0,0 3.382,-1.464 c 0.517,-0.223 0.757,-0.83 0.533,-1.347 L 2.411,-6.285 C 2.187,-6.802 1.581,-7.042 1.064,-6.818 l -3.382,1.464 c -0.517,0.224 -0.757,0.83 -0.533,1.347 l 1.504,3.475 C -1.123,-0.016 -0.518,0.225 0,0" />
      </g>
      <g
         transform="matrix(1.25,0,0,-1.25,274.52491,1210.2345)"
         id="g13036">
        <path
           inkscape:connector-curvature="0"
           id="path13038"
           style="fill:#cccccc;fill-opacity:1;fill-rule:evenodd;stroke:none"
           d="M 0,0 3.382,-1.465 C 3.899,-1.688 4.139,-2.294 3.915,-2.812 L 2.41,-6.286 C 2.187,-6.803 1.581,-7.043 1.063,-6.819 l -3.381,1.465 c -0.518,0.223 -0.757,0.83 -0.533,1.346 l 1.504,3.475 C -1.123,-0.016 -0.518,0.224 0,0" />
      </g>
      <g
         transform="matrix(1.25,0,0,-1.25,282.64078,1213.7489)"
         id="g13040">
        <path
           inkscape:connector-curvature="0"
           id="path13042"
           style="fill:#cccccc;fill-opacity:1;fill-rule:evenodd;stroke:none"
           d="m 0,0 3.382,-1.464 c 0.517,-0.224 0.757,-0.83 0.533,-1.347 L 2.411,-6.285 C 2.187,-6.803 1.581,-7.043 1.064,-6.818 l -3.382,1.464 c -0.517,0.224 -0.757,0.83 -0.533,1.346 l 1.504,3.475 C -1.123,-0.016 -0.517,0.224 0,0" />
      </g>
      <g
         transform="matrix(1.25,0,0,-1.25,290.75716,1217.262)"
         id="g13044">
        <path
           inkscape:connector-curvature="0"
           id="path13046"
           style="fill:#cccccc;fill-opacity:1;fill-rule:evenodd;stroke:none"
           d="M 0,0 3.382,-1.465 C 3.899,-1.688 4.139,-2.294 3.915,-2.812 L 2.411,-6.286 C 2.187,-6.803 1.581,-7.043 1.064,-6.819 l -3.382,1.465 c -0.517,0.223 -0.757,0.829 -0.533,1.346 l 1.504,3.475 C -1.123,-0.016 -0.517,0.224 0,0" />
      </g>
      <g
         transform="matrix(1.25,0,0,-1.25,298.87366,1220.7765)"
         id="g13048">
        <path
           inkscape:connector-curvature="0"
           id="path13050"
           style="fill:#cccccc;fill-opacity:1;fill-rule:evenodd;stroke:none"
           d="M 0,0 3.382,-1.464 C 3.899,-1.688 4.139,-2.293 3.915,-2.811 L 2.41,-6.285 C 2.187,-6.803 1.581,-7.042 1.064,-6.818 l -3.382,1.464 c -0.518,0.223 -0.757,0.83 -0.534,1.346 l 1.505,3.475 C -1.123,-0.016 -0.518,0.224 0,0" />
      </g>
      <g
         transform="matrix(1.25,0,0,-1.25,306.98953,1224.2909)"
         id="g13052">
        <path
           inkscape:connector-curvature="0"
           id="path13054"
           style="fill:#cccccc;fill-opacity:1;fill-rule:evenodd;stroke:none"
           d="M 0,0 3.382,-1.464 C 3.899,-1.687 4.139,-2.293 3.915,-2.811 L 2.411,-6.285 C 2.187,-6.802 1.581,-7.042 1.064,-6.818 l -3.382,1.464 c -0.517,0.224 -0.757,0.83 -0.533,1.347 l 1.504,3.475 C -1.123,-0.015 -0.517,0.225 0,0" />
      </g>
      <g
         transform="matrix(1.25,0,0,-1.25,315.10591,1227.804)"
         id="g13056">
        <path
           inkscape:connector-curvature="0"
           id="path13058"
           style="fill:#cccccc;fill-opacity:1;fill-rule:evenodd;stroke:none"
           d="m 0,0 3.382,-1.464 c 0.517,-0.224 0.757,-0.83 0.533,-1.347 L 2.411,-6.285 C 2.187,-6.803 1.581,-7.043 1.064,-6.818 l -3.382,1.464 c -0.517,0.223 -0.757,0.83 -0.533,1.346 l 1.504,3.475 C -1.123,-0.016 -0.518,0.224 0,0" />
      </g>
      <g
         transform="matrix(1.25,0,0,-1.25,224.68603,1197.9798)"
         id="g13060">
        <path
           inkscape:connector-curvature="0"
           id="path13062"
           style="fill:#cccccc;fill-opacity:1;fill-rule:evenodd;stroke:none"
           d="m 0,0 3.382,-1.464 c 0.517,-0.224 0.757,-0.83 0.533,-1.347 L 2.411,-6.285 C 2.187,-6.803 1.582,-7.042 1.064,-6.818 l -3.382,1.464 c -0.517,0.223 -0.757,0.83 -0.533,1.346 l 1.504,3.476 C -1.123,-0.016 -0.517,0.224 0,0" />
      </g>
      <g
         transform="matrix(1.25,0,0,-1.25,232.80253,1201.4943)"
         id="g13064">
        <path
           inkscape:connector-curvature="0"
           id="path13066"
           style="fill:#cccccc;fill-opacity:1;fill-rule:evenodd;stroke:none"
           d="M 0,0 3.382,-1.464 C 3.899,-1.687 4.139,-2.293 3.915,-2.811 L 2.411,-6.285 C 2.187,-6.802 1.581,-7.042 1.064,-6.818 l -3.382,1.464 c -0.517,0.224 -0.757,0.83 -0.533,1.347 l 1.504,3.475 C -1.123,-0.016 -0.517,0.225 0,0" />
      </g>
      <g
         transform="matrix(1.25,0,0,-1.25,240.91891,1205.0074)"
         id="g13068">
        <path
           inkscape:connector-curvature="0"
           id="path13070"
           style="fill:#cccccc;fill-opacity:1;fill-rule:evenodd;stroke:none"
           d="m 0,0 3.382,-1.464 c 0.517,-0.224 0.757,-0.83 0.533,-1.347 L 2.411,-6.285 C 2.187,-6.803 1.581,-7.043 1.064,-6.818 l -3.382,1.464 c -0.517,0.223 -0.757,0.83 -0.533,1.346 l 1.504,3.475 C -1.123,-0.016 -0.518,0.224 0,0" />
      </g>
      <g
         transform="matrix(1.25,0,0,-1.25,249.03541,1208.5217)"
         id="g13072">
        <path
           inkscape:connector-curvature="0"
           id="path13074"
           style="fill:#cccccc;fill-opacity:1;fill-rule:evenodd;stroke:none"
           d="M 0,0 3.382,-1.464 C 3.899,-1.687 4.138,-2.293 3.915,-2.811 L 2.41,-6.285 C 2.187,-6.802 1.581,-7.042 1.063,-6.818 l -3.381,1.464 c -0.518,0.224 -0.757,0.83 -0.533,1.347 l 1.504,3.475 C -1.124,-0.016 -0.518,0.225 0,0" />
      </g>
      <g
         transform="matrix(1.25,0,0,-1.25,257.15129,1212.035)"
         id="g13076">
        <path
           inkscape:connector-curvature="0"
           id="path13078"
           style="fill:#cccccc;fill-opacity:1;fill-rule:evenodd;stroke:none"
           d="M 0,0 3.382,-1.465 C 3.899,-1.688 4.139,-2.294 3.915,-2.811 L 2.411,-6.285 C 2.187,-6.803 1.581,-7.043 1.063,-6.818 l -3.381,1.464 c -0.517,0.223 -0.757,0.83 -0.533,1.346 l 1.504,3.475 C -1.123,-0.016 -0.518,0.224 0,0" />
      </g>
      <g
         transform="matrix(1.25,0,0,-1.25,265.26766,1215.5494)"
         id="g13080">
        <path
           inkscape:connector-curvature="0"
           id="path13082"
           style="fill:#cccccc;fill-opacity:1;fill-rule:evenodd;stroke:none"
           d="m 0,0 3.382,-1.464 c 0.517,-0.223 0.757,-0.83 0.533,-1.347 L 2.41,-6.285 C 2.187,-6.803 1.581,-7.042 1.063,-6.818 l -3.381,1.464 c -0.518,0.224 -0.757,0.83 -0.534,1.347 l 1.505,3.475 C -1.123,-0.016 -0.518,0.225 0,0" />
      </g>
      <g
         transform="matrix(1.25,0,0,-1.25,273.38353,1219.0626)"
         id="g13084">
        <path
           inkscape:connector-curvature="0"
           id="path13086"
           style="fill:#cccccc;fill-opacity:1;fill-rule:evenodd;stroke:none"
           d="M 0,0 3.382,-1.465 C 3.899,-1.688 4.139,-2.294 3.915,-2.812 L 2.411,-6.286 C 2.187,-6.803 1.581,-7.043 1.064,-6.819 l -3.382,1.465 c -0.517,0.223 -0.757,0.829 -0.533,1.346 l 1.504,3.475 C -1.123,-0.016 -0.517,0.224 0,0" />
      </g>
      <g
         transform="matrix(1.25,0,0,-1.25,281.50004,1222.577)"
         id="g13088">
        <path
           inkscape:connector-curvature="0"
           id="path13090"
           style="fill:#cccccc;fill-opacity:1;fill-rule:evenodd;stroke:none"
           d="M 0,0 3.382,-1.464 C 3.899,-1.687 4.139,-2.293 3.915,-2.811 L 2.411,-6.285 C 2.187,-6.803 1.581,-7.042 1.064,-6.818 l -3.382,1.464 c -0.517,0.224 -0.757,0.83 -0.533,1.347 l 1.504,3.474 C -1.123,-0.016 -0.517,0.224 0,0" />
      </g>
      <g
         transform="matrix(1.25,0,0,-1.25,289.61641,1226.0901)"
         id="g13092">
        <path
           inkscape:connector-curvature="0"
           id="path13094"
           style="fill:#cccccc;fill-opacity:1;fill-rule:evenodd;stroke:none"
           d="M 0,0 3.382,-1.465 C 3.899,-1.688 4.139,-2.294 3.915,-2.812 L 2.411,-6.286 C 2.187,-6.803 1.581,-7.043 1.064,-6.819 l -3.382,1.465 c -0.517,0.223 -0.757,0.829 -0.533,1.346 l 1.504,3.475 C -1.123,-0.016 -0.518,0.224 0,0" />
      </g>
      <g
         transform="matrix(1.25,0,0,-1.25,297.73291,1229.6046)"
         id="g13096">
        <path
           inkscape:connector-curvature="0"
           id="path13098"
           style="fill:#cccccc;fill-opacity:1;fill-rule:evenodd;stroke:none"
           d="m 0,0 3.381,-1.464 c 0.518,-0.224 0.757,-0.83 0.534,-1.347 L 2.41,-6.285 C 2.186,-6.803 1.581,-7.042 1.063,-6.818 l -3.381,1.464 c -0.518,0.223 -0.757,0.83 -0.534,1.346 l 1.505,3.476 C -1.124,-0.016 -0.518,0.224 0,0" />
      </g>
      <g
         transform="matrix(1.25,0,0,-1.25,305.84879,1233.119)"
         id="g13100">
        <path
           inkscape:connector-curvature="0"
           id="path13102"
           style="fill:#cccccc;fill-opacity:1;fill-rule:evenodd;stroke:none"
           d="M 0,0 3.382,-1.464 C 3.899,-1.687 4.139,-2.293 3.915,-2.811 L 2.411,-6.285 C 2.187,-6.802 1.581,-7.042 1.063,-6.818 l -3.381,1.464 c -0.518,0.224 -0.757,0.83 -0.533,1.347 l 1.504,3.475 C -1.123,-0.016 -0.518,0.225 0,0" />
      </g>
      <g
         transform="matrix(1.25,0,0,-1.25,225.53691,1207.6697)"
         id="g13104">
        <path
           inkscape:connector-curvature="0"
           id="path13106"
           style="fill:#cccccc;fill-opacity:1;fill-rule:evenodd;stroke:none"
           d="m 0,0 3.382,-1.464 c 0.517,-0.224 0.757,-0.83 0.533,-1.347 L 2.411,-6.285 C 2.187,-6.803 1.581,-7.042 1.064,-6.818 l -3.382,1.464 c -0.517,0.223 -0.757,0.83 -0.533,1.347 l 1.504,3.474 C -1.123,-0.016 -0.517,0.224 0,0" />
      </g>
      <g
         transform="matrix(1.25,0,0,-1.25,233.65328,1211.1841)"
         id="g13108">
        <path
           inkscape:connector-curvature="0"
           id="path13110"
           style="fill:#cccccc;fill-opacity:1;fill-rule:evenodd;stroke:none"
           d="M 0,0 3.382,-1.464 C 3.899,-1.687 4.139,-2.293 3.915,-2.811 L 2.41,-6.285 C 2.187,-6.802 1.581,-7.042 1.063,-6.818 l -3.381,1.464 c -0.518,0.224 -0.757,0.83 -0.534,1.347 l 1.505,3.475 C -1.123,-0.016 -0.518,0.225 0,0" />
      </g>
      <g
         transform="matrix(1.25,0,0,-1.25,241.76916,1214.6974)"
         id="g13112">
        <path
           inkscape:connector-curvature="0"
           id="path13114"
           style="fill:#cccccc;fill-opacity:1;fill-rule:evenodd;stroke:none"
           d="m 0,0 3.382,-1.464 c 0.517,-0.224 0.757,-0.83 0.533,-1.347 L 2.411,-6.285 C 2.187,-6.803 1.581,-7.043 1.064,-6.818 l -3.382,1.464 c -0.517,0.223 -0.757,0.83 -0.533,1.346 l 1.504,3.475 C -1.123,-0.016 -0.517,0.224 0,0" />
      </g>
      <g
         transform="matrix(1.25,0,0,-1.25,249.88566,1218.2118)"
         id="g13116">
        <path
           inkscape:connector-curvature="0"
           id="path13118"
           style="fill:#cccccc;fill-opacity:1;fill-rule:evenodd;stroke:none"
           d="M 0,0 3.382,-1.464 C 3.899,-1.687 4.139,-2.293 3.915,-2.811 L 2.411,-6.285 C 2.187,-6.803 1.581,-7.042 1.064,-6.818 l -3.382,1.464 c -0.517,0.224 -0.757,0.83 -0.533,1.347 l 1.504,3.475 C -1.123,-0.016 -0.518,0.225 0,0" />
      </g>
      <g
         transform="matrix(1.25,0,0,-1.25,258.00203,1221.7249)"
         id="g13120">
        <path
           inkscape:connector-curvature="0"
           id="path13122"
           style="fill:#cccccc;fill-opacity:1;fill-rule:evenodd;stroke:none"
           d="M 0,0 3.382,-1.465 C 3.899,-1.688 4.139,-2.294 3.915,-2.811 L 2.411,-6.285 C 2.187,-6.803 1.581,-7.043 1.063,-6.818 l -3.381,1.464 c -0.517,0.223 -0.757,0.83 -0.533,1.346 l 1.504,3.475 C -1.123,-0.016 -0.518,0.224 0,0" />
      </g>
      <g
         transform="matrix(1.25,0,0,-1.25,266.11791,1225.2394)"
         id="g13124">
        <path
           inkscape:connector-curvature="0"
           id="path13126"
           style="fill:#cccccc;fill-opacity:1;fill-rule:evenodd;stroke:none"
           d="M 0,0 3.382,-1.464 C 3.899,-1.687 4.139,-2.293 3.915,-2.811 L 2.411,-6.285 C 2.187,-6.802 1.581,-7.042 1.064,-6.818 l -3.382,1.464 c -0.517,0.224 -0.757,0.83 -0.533,1.347 l 1.504,3.475 C -1.123,-0.016 -0.518,0.225 0,0" />
      </g>
      <g
         transform="matrix(1.25,0,0,-1.25,274.23441,1228.7525)"
         id="g13128">
        <path
           inkscape:connector-curvature="0"
           id="path13130"
           style="fill:#cccccc;fill-opacity:1;fill-rule:evenodd;stroke:none"
           d="M 0,0 3.382,-1.465 C 3.899,-1.688 4.139,-2.294 3.915,-2.811 L 2.411,-6.286 C 2.187,-6.803 1.581,-7.043 1.063,-6.819 l -3.381,1.465 c -0.517,0.223 -0.757,0.83 -0.533,1.346 l 1.504,3.475 C -1.123,-0.016 -0.518,0.224 0,0" />
      </g>
      <g
         transform="matrix(1.25,0,0,-1.25,282.35028,1232.2669)"
         id="g13132">
        <path
           inkscape:connector-curvature="0"
           id="path13134"
           style="fill:#cccccc;fill-opacity:1;fill-rule:evenodd;stroke:none"
           d="m 0,0 3.382,-1.464 c 0.517,-0.224 0.757,-0.83 0.533,-1.347 L 2.411,-6.285 C 2.187,-6.803 1.582,-7.042 1.064,-6.818 l -3.382,1.464 c -0.517,0.224 -0.757,0.83 -0.533,1.346 l 1.504,3.476 C -1.123,-0.016 -0.517,0.225 0,0" />
      </g>
      <g
         transform="matrix(1.25,0,0,-1.25,290.46666,1235.7801)"
         id="g13136">
        <path
           inkscape:connector-curvature="0"
           id="path13138"
           style="fill:#cccccc;fill-opacity:1;fill-rule:evenodd;stroke:none"
           d="M 0,0 3.382,-1.465 C 3.899,-1.688 4.139,-2.294 3.915,-2.812 L 2.411,-6.286 C 2.187,-6.803 1.581,-7.043 1.064,-6.819 l -3.382,1.465 c -0.517,0.223 -0.757,0.829 -0.533,1.346 l 1.504,3.475 C -1.123,-0.016 -0.518,0.224 0,0" />
      </g>
      <g
         transform="matrix(1.25,0,0,-1.25,298.58316,1239.2945)"
         id="g13140">
        <path
           inkscape:connector-curvature="0"
           id="path13142"
           style="fill:#cccccc;fill-opacity:1;fill-rule:evenodd;stroke:none"
           d="m 0,0 3.382,-1.464 c 0.517,-0.224 0.757,-0.83 0.533,-1.347 L 2.411,-6.285 C 2.187,-6.803 1.581,-7.042 1.063,-6.818 l -3.381,1.464 c -0.517,0.223 -0.757,0.83 -0.533,1.347 l 1.504,3.474 C -1.123,-0.016 -0.518,0.224 0,0" />
      </g>
      <g
         transform="matrix(1.25,0,0,-1.25,306.71978,1242.8175)"
         id="g13144">
        <path
           inkscape:connector-curvature="0"
           id="path13146"
           style="fill:#cccccc;fill-opacity:1;fill-rule:evenodd;stroke:none"
           d="m 0,0 6.115,-2.647 c 0.527,-0.228 0.77,-0.844 0.543,-1.372 L 5.167,-7.459 C 4.94,-7.985 4.324,-8.229 3.797,-8.002 l -6.115,2.648 c -0.526,0.228 -0.77,0.844 -0.542,1.371 l 1.489,3.441 C -1.143,-0.016 -0.526,0.229 0,0" />
      </g>
      <g
         transform="matrix(1.25,0,0,-1.25,213.89016,1211.9495)"
         id="g13148">
        <path
           inkscape:connector-curvature="0"
           id="path13150"
           style="fill:#cccccc;fill-opacity:1;fill-rule:evenodd;stroke:none"
           d="M 0,0 3.382,-1.464 C 3.899,-1.687 4.139,-2.293 3.915,-2.811 L 2.41,-6.285 C 2.187,-6.802 1.581,-7.042 1.063,-6.818 l -3.381,1.464 c -0.517,0.224 -0.757,0.83 -0.533,1.347 l 1.504,3.475 C -1.123,-0.016 -0.518,0.225 0,0" />
      </g>
      <g
         transform="matrix(1.25,0,0,-1.25,222.00603,1215.4628)"
         id="g13152">
        <path
           inkscape:connector-curvature="0"
           id="path13154"
           style="fill:#cccccc;fill-opacity:1;fill-rule:evenodd;stroke:none"
           d="m 0,0 3.382,-1.464 c 0.517,-0.224 0.757,-0.83 0.533,-1.347 L 2.411,-6.285 C 2.187,-6.803 1.581,-7.043 1.064,-6.818 l -3.382,1.464 c -0.517,0.223 -0.757,0.83 -0.533,1.346 l 1.504,3.475 C -1.123,-0.016 -0.517,0.224 0,0" />
      </g>
      <g
         transform="matrix(1.25,0,0,-1.25,230.12241,1218.9771)"
         id="g13156">
        <path
           inkscape:connector-curvature="0"
           id="path13158"
           style="fill:#cccccc;fill-opacity:1;fill-rule:evenodd;stroke:none"
           d="M 0,0 3.382,-1.464 C 3.899,-1.687 4.139,-2.293 3.915,-2.811 L 2.411,-6.285 C 2.187,-6.803 1.581,-7.042 1.064,-6.818 l -3.382,1.464 c -0.517,0.224 -0.757,0.83 -0.533,1.347 l 1.504,3.475 C -1.123,-0.016 -0.518,0.225 0,0" />
      </g>
      <g
         transform="matrix(1.25,0,0,-1.25,238.23891,1222.4902)"
         id="g13160">
        <path
           inkscape:connector-curvature="0"
           id="path13162"
           style="fill:#cccccc;fill-opacity:1;fill-rule:evenodd;stroke:none"
           d="M 0,0 3.382,-1.465 C 3.899,-1.688 4.139,-2.294 3.915,-2.811 L 2.41,-6.285 C 2.186,-6.803 1.581,-7.043 1.063,-6.818 l -3.381,1.464 c -0.518,0.223 -0.757,0.83 -0.534,1.346 l 1.505,3.475 C -1.123,-0.016 -0.518,0.224 0,0" />
      </g>
      <g
         transform="matrix(1.25,0,0,-1.25,246.35478,1226.0047)"
         id="g13164">
        <path
           inkscape:connector-curvature="0"
           id="path13166"
           style="fill:#cccccc;fill-opacity:1;fill-rule:evenodd;stroke:none"
           d="M 0,0 3.382,-1.464 C 3.899,-1.687 4.139,-2.293 3.915,-2.811 L 2.411,-6.285 C 2.187,-6.802 1.581,-7.042 1.064,-6.818 l -3.382,1.464 c -0.517,0.224 -0.757,0.83 -0.533,1.347 l 1.504,3.475 C -1.123,-0.016 -0.518,0.225 0,0" />
      </g>
      <g
         transform="matrix(1.25,0,0,-1.25,254.47116,1229.5179)"
         id="g13168">
        <path
           inkscape:connector-curvature="0"
           id="path13170"
           style="fill:#cccccc;fill-opacity:1;fill-rule:evenodd;stroke:none"
           d="M 0,0 3.382,-1.465 C 3.899,-1.688 4.139,-2.294 3.915,-2.811 L 2.41,-6.286 C 2.187,-6.803 1.581,-7.043 1.063,-6.819 l -3.381,1.465 c -0.517,0.223 -0.757,0.83 -0.533,1.346 l 1.504,3.475 C -1.123,-0.016 -0.518,0.224 0,0" />
      </g>
      <g
         transform="matrix(1.25,0,0,-1.25,262.58704,1233.0323)"
         id="g13172">
        <path
           inkscape:connector-curvature="0"
           id="path13174"
           style="fill:#cccccc;fill-opacity:1;fill-rule:evenodd;stroke:none"
           d="m 0,0 3.382,-1.464 c 0.517,-0.224 0.757,-0.83 0.533,-1.347 L 2.411,-6.285 C 2.187,-6.803 1.581,-7.042 1.064,-6.818 l -3.382,1.464 c -0.517,0.224 -0.757,0.83 -0.533,1.346 l 1.504,3.476 C -1.123,-0.016 -0.517,0.225 0,0" />
      </g>
      <g
         transform="matrix(1.25,0,0,-1.25,270.70353,1236.5455)"
         id="g13176">
        <path
           inkscape:connector-curvature="0"
           id="path13178"
           style="fill:#cccccc;fill-opacity:1;fill-rule:evenodd;stroke:none"
           d="M 0,0 3.382,-1.465 C 3.899,-1.688 4.139,-2.294 3.915,-2.812 L 2.411,-6.286 C 2.187,-6.803 1.581,-7.043 1.064,-6.819 l -3.382,1.465 c -0.517,0.223 -0.757,0.829 -0.533,1.346 l 1.504,3.475 C -1.123,-0.016 -0.517,0.224 0,0" />
      </g>
      <g
         transform="matrix(1.25,0,0,-1.25,278.81991,1240.0599)"
         id="g13180">
        <path
           inkscape:connector-curvature="0"
           id="path13182"
           style="fill:#cccccc;fill-opacity:1;fill-rule:evenodd;stroke:none"
           d="m 0,0 3.382,-1.464 c 0.517,-0.224 0.757,-0.83 0.533,-1.347 L 2.41,-6.285 C 2.186,-6.803 1.581,-7.042 1.063,-6.818 l -3.381,1.464 c -0.518,0.223 -0.757,0.83 -0.534,1.347 l 1.505,3.474 C -1.123,-0.016 -0.518,0.224 0,0" />
      </g>
      <g
         transform="matrix(1.25,0,0,-1.25,286.93578,1243.5742)"
         id="g13184">
        <path
           inkscape:connector-curvature="0"
           id="path13186"
           style="fill:#cccccc;fill-opacity:1;fill-rule:evenodd;stroke:none"
           d="M 0,0 3.382,-1.464 C 3.899,-1.687 4.139,-2.293 3.915,-2.811 L 2.411,-6.285 C 2.187,-6.802 1.581,-7.042 1.064,-6.818 l -3.382,1.464 c -0.517,0.224 -0.757,0.83 -0.533,1.347 l 1.504,3.475 C -1.123,-0.016 -0.517,0.225 0,0" />
      </g>
      <g
         transform="matrix(1.25,0,0,-1.25,295.07303,1247.096)"
         id="g13188">
        <path
           inkscape:connector-curvature="0"
           id="path13190"
           style="fill:#cccccc;fill-opacity:1;fill-rule:evenodd;stroke:none"
           d="m 0,0 6.115,-2.647 c 0.526,-0.229 0.77,-0.845 0.542,-1.372 L 5.167,-7.46 C 4.939,-7.986 4.323,-8.23 3.797,-8.002 l -6.115,2.648 c -0.527,0.227 -0.77,0.843 -0.543,1.37 l 1.49,3.441 C -1.143,-0.017 -0.527,0.228 0,0" />
      </g>
      <g
         transform="matrix(1.25,0,0,-1.25,307.02066,1252.2694)"
         id="g13192">
        <path
           inkscape:connector-curvature="0"
           id="path13194"
           style="fill:#cccccc;fill-opacity:1;fill-rule:evenodd;stroke:none"
           d="m 0,0 3.218,-1.393 c 0.491,-0.212 0.72,-0.79 0.507,-1.282 L 2.181,-6.24 C 1.968,-6.732 1.392,-6.96 0.899,-6.747 l -3.217,1.393 c -0.492,0.212 -0.72,0.79 -0.507,1.282 l 1.544,3.565 C -1.068,-0.015 -0.492,0.213 0,0" />
      </g>
      <g
         transform="matrix(1.25,0,0,-1.25,238.25229,1237.1303)"
         id="g13196">
        <path
           inkscape:connector-curvature="0"
           id="path13198"
           style="fill:#cccccc;fill-opacity:1;fill-rule:evenodd;stroke:none"
           d="m 0,0 33.74,-14.607 c 0.515,-0.223 0.754,-0.826 0.531,-1.341 l -7.023,-16.223 c -0.224,-0.515 -0.827,-0.753 -1.341,-0.53 l -33.74,14.607 c -0.515,0.223 -0.754,0.825 -0.531,1.341 L -1.341,-0.53 C -1.118,-0.016 -0.515,0.223 0,0" />
      </g>
      <g
         transform="matrix(1.25,0,0,-1.25,226.87779,1260.8619)"
         id="g13200">
        <path
           inkscape:connector-curvature="0"
           id="path13202"
           style="fill:#cccccc;fill-opacity:1;fill-rule:evenodd;stroke:none"
           d="m 0,0 16.781,-7.265 c 0.107,-0.047 0.156,-0.172 0.11,-0.278 l -1.459,-3.37 c -0.046,-0.107 -0.171,-0.156 -0.278,-0.11 l -16.781,7.265 c -0.107,0.047 -0.157,0.171 -0.111,0.279 l 1.46,3.37 C -0.232,-0.003 -0.107,0.047 0,0" />
      </g>
      <g
         transform="matrix(1.25,0,0,-1.25,249.93016,1270.8424)"
         id="g13204">
        <path
           inkscape:connector-curvature="0"
           id="path13206"
           style="fill:#cccccc;fill-opacity:1;fill-rule:evenodd;stroke:none"
           d="m 0,0 16.781,-7.265 c 0.107,-0.047 0.156,-0.172 0.11,-0.278 l -1.459,-3.37 c -0.046,-0.107 -0.171,-0.156 -0.278,-0.11 l -16.781,7.265 c -0.107,0.047 -0.156,0.171 -0.11,0.279 l 1.459,3.37 C -0.232,-0.003 -0.107,0.047 0,0" />
      </g>
      <g
         transform="matrix(1.25,0,0,-1.25,371.11853,1264.109)"
         id="g13208">
        <path
           inkscape:connector-curvature="0"
           id="path13210"
           style="fill:#bec8d4;fill-opacity:1;fill-rule:nonzero;stroke:none"
           d="m 0,0 c -2.642,-0.559 -4.821,-0.281 -6.516,0.512 -2.42,1.132 -3.849,3.307 -4.227,5.614 -0.379,2.31 0.295,4.752 2.082,6.413 1.777,1.652 4.647,2.526 8.661,1.709 L 0,13.629 C -3.856,14.444 -6.584,13.643 -8.248,12.097 -9.878,10.58 -10.493,8.343 -10.145,6.224 -9.796,4.102 -8.483,2.1 -6.259,1.06 -4.646,0.306 -2.554,0.054 0,0.616 L 0,0 Z m 0,-18.701 c -1.212,-1.301 -2.417,-2.484 -3.558,-3.504 l -2.112,-2.02 0.336,1.143 1.372,1.328 c 1.267,1.135 2.615,2.471 3.962,3.947 l 0,-0.894 z M -11.745,40.044 C -7.966,39.166 -3.886,37.794 0,36.029 l 0,-0.665 c -3.922,1.803 -8.058,3.202 -11.883,4.091 l 0.138,0.589 z M 0,36.029 c 3.53,-1.602 6.901,-3.529 9.741,-5.705 3.298,-2.526 5.887,-5.391 7.195,-8.48 1.32,-3.12 1.336,-6.458 -0.534,-9.894 C 15.29,9.906 13.508,7.831 10.933,5.75 11.095,5.139 11.2,4.509 11.252,3.863 11.427,1.724 11.025,-0.576 10.22,-2.916 8.311,-8.468 4.121,-14.274 0,-18.701 l 0,0.894 c 3.926,4.307 7.833,9.82 9.647,15.09 0.779,2.266 1.169,4.483 1.002,6.531 C 10.607,4.333 10.528,4.842 10.412,5.337 9.8,4.862 9.146,4.387 8.449,3.911 5.253,1.733 2.431,0.513 0,0 L 0,0.616 C 2.324,1.128 5.031,2.314 8.106,4.411 8.87,4.932 9.58,5.452 10.239,5.971 9.865,7.175 9.247,8.297 8.341,9.309 7.016,10.788 5.072,12.036 2.378,12.963 1.542,13.25 0.75,13.47 0,13.629 l 0,0.619 c 0.812,-0.166 1.671,-0.4 2.577,-0.712 2.796,-0.962 4.822,-2.268 6.215,-3.824 0.911,-1.016 1.549,-2.136 1.953,-3.334 2.406,1.975 4.077,3.935 5.125,5.859 1.772,3.256 1.758,6.417 0.507,9.37 -1.263,2.985 -3.785,5.77 -7.005,8.236 C 6.635,31.939 3.397,33.803 0,35.364 l 0,0.665 z" />
      </g>
      <g
         transform="matrix(1.25,0,0,-1.25,363.49216,1292.5526)"
         id="g13212">
        <path
           inkscape:connector-curvature="0"
           id="path13214"
           style="fill:#bec8d4;fill-opacity:1;fill-rule:evenodd;stroke:none"
           d="m 0,0 c 5.03,-2.178 6.797,-9.279 3.947,-15.862 -2.85,-6.583 -9.238,-10.155 -14.268,-7.977 -5.03,2.178 -6.797,9.279 -3.947,15.862 C -11.418,-1.394 -5.03,2.178 0,0" />
      </g>
      <g
         transform="matrix(1.25,0,0,-1.25,363.12054,1293.412)"
         id="g13216">
        <path
           inkscape:connector-curvature="0"
           id="path13218"
           style="fill:#ffffff;fill-opacity:1;fill-rule:evenodd;stroke:none"
           d="m 0,0 c 4.165,-1.803 5.629,-7.684 3.269,-13.135 -2.36,-5.451 -7.65,-8.408 -11.815,-6.605 -4.166,1.803 -5.629,7.684 -3.269,13.136 C -9.455,-1.153 -4.165,1.804 0,0" />
      </g>
      <g
         transform="matrix(1.25,0,0,-1.25,363.49216,1292.5526)"
         id="g13220">
        <path
           inkscape:connector-curvature="0"
           id="path13222"
           style="fill:#bec8d4;fill-opacity:1;fill-rule:evenodd;stroke:none"
           d="m 0,0 c 0.064,-0.028 0.128,-0.058 0.192,-0.088 l -2.693,-6.223 -0.388,0.168 2.694,6.223 C -0.13,0.055 -0.065,0.028 0,0" />
      </g>
      <g
         transform="matrix(1.25,0,0,-1.25,361.73866,1294.1797)"
         id="g13224">
        <path
           inkscape:connector-curvature="0"
           id="path13226"
           style="fill:#bec8d4;fill-opacity:1;fill-rule:evenodd;stroke:none"
           d="m 0,0 1.414,-0.612 c 0.317,-0.137 0.464,-0.509 0.327,-0.826 l -2.782,-6.426 c -0.137,-0.318 -0.51,-0.464 -0.827,-0.327 l -1.413,0.612 c -0.318,0.138 -0.465,0.509 -0.327,0.826 l 2.782,6.426 C -0.689,-0.01 -0.317,0.138 0,0" />
      </g>
      <g
         transform="matrix(1.25,0,0,-1.25,361.89128,1294.9171)"
         id="g13228">
        <path
           inkscape:connector-curvature="0"
           id="path13230"
           style="fill:#ffffff;fill-opacity:1;fill-rule:evenodd;stroke:none"
           d="m 0,0 0.778,-0.337 c 0.175,-0.075 0.256,-0.28 0.18,-0.455 l -2.615,-6.039 c -0.075,-0.175 -0.28,-0.256 -0.455,-0.181 l -0.778,0.337 c -0.174,0.076 -0.256,0.28 -0.18,0.455 l 2.615,6.04 C -0.379,-0.005 -0.175,0.075 0,0" />
      </g>
      <g
         transform="matrix(1.25,0,0,-1.25,305.92991,1305.1075)"
         id="g13232">
        <path
           inkscape:connector-curvature="0"
           id="path13234"
           style="fill:#fed4a4;fill-opacity:1;fill-rule:evenodd;stroke:none"
           d="M 0,0 -17.793,0.948 -19.117,-23.885 -1.323,-24.833 0,0 Z" />
      </g>
      <g
         transform="matrix(1.25,0,0,-1.25,283.27978,1282.2156)"
         id="g13236">
        <path
           inkscape:connector-curvature="0"
           id="path13238"
           style="fill:#ffd7b7;fill-opacity:1;fill-rule:evenodd;stroke:none"
           d="M 0,0 C -0.075,-2.112 -0.219,-4.672 -0.362,-7.701 L -5.694,1.318 C -8.061,5.322 -12.138,4 -13.433,2.184 l 10.617,-21.852 c 1.499,-3.086 6.322,-4.853 11.054,-5.239 9.783,-0.797 16.11,5.265 17.01,18.699 l 5.211,20.175 c 1.113,4.311 -4.991,5.839 -6.079,1.476 L 20.822,1.182 C 20.659,1.417 20.398,1.657 20.15,1.863 l 2.917,19.252 c 0.675,4.45 -5.562,4.823 -6.16,1.088 L 14.064,4.444 c -0.18,0.051 -0.553,0.077 -0.688,0.09 l 1.514,20.57 c 0.304,4.138 -5.937,4.56 -6.239,0.452 L 7.03,3.53 C 6.738,3.4 6.453,3.258 6.173,3.104 l -0.579,21.37 c -0.11,4.066 -6.367,4.043 -6.252,-0.196 L 0,0 Z" />
      </g>
      <g
         transform="matrix(1.25,0,0,-1.25,307.89891,1315.6677)"
         id="g13240">
        <path
           inkscape:connector-curvature="0"
           id="path13242"
           style="fill:#ffffff;fill-opacity:1;fill-rule:evenodd;stroke:none"
           d="M 0,0 -21.833,1.163 -22.318,-7.935 -0.485,-9.099 0,0 Z" />
      </g>
      <g
         style="fill:#e94544;fill-opacity:1"
         transform="matrix(1.25,0,0,-1.25,304.56029,1429.5045)"
         id="g13244">
        <path
           inkscape:connector-curvature="0"
           id="path13246"
           style="fill:#e94544;fill-opacity:1;fill-rule:evenodd;stroke:none"
           d="M 0,0 -26.187,1.396 -21.824,83.251 4.363,81.855 0,0 Z" />
      </g>
      <g
         transform="matrix(1.25,0,0,-1.25,225.24691,1133.5425)"
         id="g13248">
        <path
           inkscape:connector-curvature="0"
           id="path13250"
           style="fill:#999999;fill-opacity:1;fill-rule:evenodd;stroke:none"
           d="m 0,0 c 6.872,-2.992 13.742,-5.987 20.614,-8.976 6.865,-2.986 13.726,-5.971 20.598,-8.962 -0.055,-0.21 -0.11,-0.419 -0.177,-0.624 -6.831,2.969 -13.673,5.949 -20.512,8.921 C 13.688,-6.67 6.849,-3.697 0.017,-0.729 0.009,-0.487 0.001,-0.245 0,0" />
      </g>
      <g
         transform="matrix(1.25,0,0,-1.25,225.35253,1137.1839)"
         id="g13252">
        <path
           inkscape:connector-curvature="0"
           id="path13254"
           style="fill:#999999;fill-opacity:1;fill-rule:evenodd;stroke:none"
           d="M 0,0 C 7.069,-3.072 14.145,-6.141 21.221,-9.209 21.193,-9.437 21.173,-9.66 21.142,-9.879 14.094,-6.828 7.053,-3.773 0.023,-0.724 0.021,-0.491 0.008,-0.241 0,0" />
      </g>
      <g
         transform="matrix(1.25,0,0,-1.25,321.80279,1179.0333)"
         id="g13256">
        <path
           inkscape:connector-curvature="0"
           id="path13258"
           style="fill:#999999;fill-opacity:1;fill-rule:evenodd;stroke:none"
           d="m 0,0 c 4.999,-2.165 9.987,-4.324 14.979,-6.493 4.992,-2.169 9.997,-4.342 15.007,-6.512 -0.164,-0.158 -0.328,-0.316 -0.49,-0.462 -4.988,2.16 -9.963,4.319 -14.933,6.475 -4.975,2.158 -9.941,4.305 -14.91,6.465 C -0.231,-0.362 -0.118,-0.177 0,0" />
      </g>
      <g
         transform="matrix(1.25,0,0,-1.25,225.46003,1140.3211)"
         id="g13260">
        <path
           inkscape:connector-curvature="0"
           id="path13262"
           style="fill:#999999;fill-opacity:1;fill-rule:evenodd;stroke:none"
           d="M 0,0 C 5.104,-2.207 10.212,-4.423 15.328,-6.635 15.308,-6.858 15.286,-7.094 15.265,-7.317 10.178,-5.123 5.097,-2.926 0.017,-0.728 0.009,-0.486 0.008,-0.241 0,0" />
      </g>
      <g
         transform="matrix(1.25,0,0,-1.25,251.54341,1151.6029)"
         id="g13264">
        <path
           inkscape:connector-curvature="0"
           id="path13266"
           style="fill:#999999;fill-opacity:1;fill-rule:evenodd;stroke:none"
           d="m 0,0 c 11.589,-5.022 23.192,-10.038 34.789,-15.057 11.607,-5.023 23.203,-10.042 34.811,-15.065 -0.142,-0.167 -0.283,-0.335 -0.424,-0.502 -11.556,4.995 -23.095,9.987 -34.634,14.973 -11.546,4.988 -23.09,9.982 -34.635,14.974 C -0.061,-0.459 -0.027,-0.228 0,0" />
      </g>
      <g
         transform="matrix(1.25,0,0,-1.25,225.55891,1143.4632)"
         id="g13268">
        <path
           inkscape:connector-curvature="0"
           id="path13270"
           style="fill:#999999;fill-opacity:1;fill-rule:evenodd;stroke:none"
           d="m 0,0 c 6.164,-2.658 12.351,-5.329 18.521,-7.992 6.174,-2.666 12.351,-5.326 18.538,-7.993 -0.055,-0.21 -0.105,-0.428 -0.16,-0.637 -6.152,2.653 -12.304,5.309 -18.446,7.956 -6.135,2.643 -12.288,5.293 -18.43,7.942 L 0,0 Z" />
      </g>
      <g
         transform="matrix(1.25,0,0,-1.25,278.68991,1166.3867)"
         id="g13272">
        <path
           inkscape:connector-curvature="0"
           id="path13274"
           style="fill:#999999;fill-opacity:1;fill-rule:evenodd;stroke:none"
           d="m 0,0 c 6.899,-2.977 13.785,-5.951 20.685,-8.926 6.904,-2.974 13.805,-5.949 20.697,-8.929 -0.13,-0.173 -0.259,-0.345 -0.4,-0.513 -6.864,2.963 -13.723,5.92 -20.587,8.88 -6.859,2.956 -13.724,5.916 -20.583,8.87 C -0.122,-0.413 -0.067,-0.204 0,0" />
      </g>
      <g
         transform="matrix(1.25,0,0,-1.25,225.65778,1146.6052)"
         id="g13276">
        <path
           inkscape:connector-curvature="0"
           id="path13278"
           style="fill:#999999;fill-opacity:1;fill-rule:evenodd;stroke:none"
           d="M 0,0 C 4.932,-2.124 9.864,-4.248 14.802,-6.368 14.782,-6.592 14.767,-6.823 14.751,-7.056 9.835,-4.944 4.927,-2.83 0.023,-0.724 L 0,0 Z" />
      </g>
      <g
         transform="matrix(1.25,0,0,-1.25,250.85428,1157.4439)"
         id="g13280">
        <path
           inkscape:connector-curvature="0"
           id="path13282"
           style="fill:#999999;fill-opacity:1;fill-rule:evenodd;stroke:none"
           d="m 0,0 c 6.275,-2.697 12.557,-5.399 18.832,-8.099 6.281,-2.703 12.555,-5.403 18.847,-8.113 -0.083,-0.19 -0.184,-0.381 -0.267,-0.572 -6.258,2.696 -12.505,5.375 -18.757,8.061 -6.241,2.683 -12.493,5.37 -18.734,8.054 0.02,0.224 0.047,0.45 0.079,0.669" />
      </g>
      <g
         transform="matrix(1.25,0,0,-1.25,225.75966,1149.7315)"
         id="g13284">
        <path
           inkscape:connector-curvature="0"
           id="path13286"
           style="fill:#999999;fill-opacity:1;fill-rule:evenodd;stroke:none"
           d="m 0,0 c 5.089,-2.182 10.189,-4.371 15.285,-6.559 5.1,-2.189 10.208,-4.38 15.298,-6.562 -0.044,-0.215 -0.09,-0.441 -0.126,-0.65 -5.073,2.167 -10.147,4.343 -15.218,6.517 C 10.166,-5.079 5.094,-2.905 0.028,-0.732 0.013,-0.495 0.008,-0.241 0,0" />
      </g>
      <g
         transform="matrix(1.25,0,0,-1.25,270.56741,1168.949)"
         id="g13288">
        <path
           inkscape:connector-curvature="0"
           id="path13290"
           style="fill:#999999;fill-opacity:1;fill-rule:evenodd;stroke:none"
           d="m 0,0 c 6.322,-2.716 12.676,-5.435 19.003,-8.149 6.324,-2.713 12.675,-5.437 19.009,-8.158 -0.118,-0.176 -0.232,-0.362 -0.35,-0.54 -6.305,2.703 -12.622,5.41 -18.917,8.109 C 12.451,-6.041 6.134,-3.334 -0.16,-0.636 -0.112,-0.431 -0.055,-0.209 0,0" />
      </g>
      <g
         transform="matrix(1.25,0,0,-1.25,258.92978,1151.753)"
         id="g13292">
        <path
           inkscape:connector-curvature="0"
           id="path13294"
           style="fill:#999999;fill-opacity:1;fill-rule:evenodd;stroke:none"
           d="m 0,0 c 7.336,-3.181 14.677,-6.37 22.025,-9.556 7.336,-3.18 14.696,-6.371 22.048,-9.565 -0.106,-0.182 -0.207,-0.372 -0.325,-0.55 -7.313,3.172 -14.63,6.355 -21.939,9.515 C 14.506,-6.999 7.194,-3.817 -0.114,-0.654 -0.07,-0.44 -0.043,-0.214 0,0" />
      </g>
      <g
         transform="matrix(1.25,0,0,-1.25,346.19603,1192.5648)"
         id="g13296">
        <path
           inkscape:connector-curvature="0"
           id="path13298"
           style="fill:#999999;fill-opacity:1;fill-rule:evenodd;stroke:none"
           d="M 0,0 C 2.922,-1.261 5.839,-2.525 8.761,-3.787 8.597,-3.945 8.432,-4.103 8.263,-4.253 5.352,-2.996 2.448,-1.736 -0.452,-0.485 -0.299,-0.322 -0.153,-0.163 0,0" />
      </g>
      <g
         transform="matrix(1.25,0,0,-1.25,337.94229,1191.9471)"
         id="g13300">
        <path
           inkscape:connector-curvature="0"
           id="path13302"
           style="fill:#999999;fill-opacity:1;fill-rule:evenodd;stroke:none"
           d="M 0,0 C 4.543,-1.96 9.087,-3.919 13.653,-5.889 13.489,-6.047 13.325,-6.205 13.156,-6.354 8.612,-4.395 4.092,-2.444 -0.436,-0.498 -0.283,-0.335 -0.141,-0.168 0,0" />
      </g>
      <g
         transform="matrix(1.25,0,0,-1.25,305.34154,1180.8851)"
         id="g13304">
        <path
           inkscape:connector-curvature="0"
           id="path13306"
           style="fill:#999999;fill-opacity:1;fill-rule:evenodd;stroke:none"
           d="m 0,0 c 6.333,-2.721 12.673,-5.447 19.006,-8.17 6.328,-2.722 12.665,-5.454 19.01,-8.18 -0.157,-0.153 -0.322,-0.311 -0.491,-0.462 -6.31,2.711 -12.621,5.423 -18.919,8.129 -6.299,2.706 -12.61,5.417 -18.901,8.127 0.106,0.183 0.2,0.369 0.295,0.556" />
      </g>
      <g
         transform="matrix(1.25,0,0,-1.25,325.34766,1192.4525)"
         id="g13308">
        <path
           inkscape:connector-curvature="0"
           id="path13310"
           style="fill:#999999;fill-opacity:1;fill-rule:evenodd;stroke:none"
           d="M 0,0 C 6.757,-2.898 13.525,-5.803 20.301,-8.702 20.137,-8.86 19.972,-9.019 19.814,-9.173 13.074,-6.287 6.34,-3.397 -0.377,-0.521 -0.259,-0.344 -0.129,-0.172 0,0" />
      </g>
      <g
         transform="matrix(1.25,0,0,-1.25,170.19078,1185.5678)"
         id="g13312">
        <path
           inkscape:connector-curvature="0"
           id="path13314"
           style="fill:#fed4a4;fill-opacity:1;fill-rule:evenodd;stroke:none"
           d="m 0,0 -26.61,-26.326 6.894,-6.93 17.39,2.848 15.59,15.432 L 0,0 Z" />
      </g>
      <g
         transform="matrix(1.25,0,0,-1.25,159.99554,1193.5462)"
         id="g13316">
        <path
           inkscape:connector-curvature="0"
           id="path13318"
           style="fill:#ffffff;fill-opacity:1;fill-rule:evenodd;stroke:none"
           d="m 0,0 -16.317,-16.477 -0.436,-4.622 6.28,-6.312 17.978,2.981 8.262,8.337 L 0,0 Z" />
      </g>
      <g
         style="fill:#e94544;fill-opacity:1"
         transform="matrix(1.25,0,0,-1.25,149.11778,1200.1429)"
         id="g13320">
        <path
           inkscape:connector-curvature="0"
           id="path13322"
           style="fill:#e94544;fill-opacity:1;fill-rule:evenodd;stroke:none"
           d="M 0,0 -46.382,-45.561 -22.854,-59.28 18.554,-18.649 0,0 Z" />
      </g>
      <g
         transform="matrix(1.25,0,0,-1.25,226.16553,1186.5491)"
         id="g13324">
        <path
           inkscape:connector-curvature="0"
           id="path13326"
           style="fill:#f2bf96;fill-opacity:1;fill-rule:evenodd;stroke:none"
           d="m 0,0 -15.141,-10.106 c -1.949,-1.301 -10.632,-4.301 -12.086,-2.462 -1.452,1.836 3.565,6.923 5.548,8.176 l 11.125,6.503 C -4.174,5.841 -1.349,2.159 0,0" />
      </g>
      <g
         transform="matrix(1.25,0,0,-1.25,235.92203,1150.6055)"
         id="g13328">
        <path
           inkscape:connector-curvature="0"
           id="path13330"
           style="fill:#ffd7b7;fill-opacity:1;fill-rule:evenodd;stroke:none"
           d="m 0,0 -15.007,-14.955 c 0.63,3.503 -4.147,5.921 -7.133,3.54 1.139,3.501 -3.17,6.146 -6.297,4.517 0.518,3.399 -4.351,5.627 -7.11,2.864 l -12.64,-12.652 c -3.548,-3.552 -6.192,-10.042 -6.487,-13.368 -0.875,-9.861 10.746,-14.673 15.928,-13.54 4.041,0.884 7.021,1.065 8.947,2.94 L 5.509,-5.689 C 10.021,-1.296 3.611,3.711 0,0" />
      </g>
      <g
         transform="matrix(1.25,0,0,-1.25,209.50778,1176.2622)"
         id="g13332">
        <path
           inkscape:connector-curvature="0"
           id="path13334"
           style="fill:#f2bf96;fill-opacity:1;fill-rule:evenodd;stroke:none"
           d="M 0,0 0,-0.07 -0.377,-0.409 0,0 Z M 0,9.713 0,9.526 C -2.545,7.332 -6.321,4.225 -6.321,4.225 c 0,0 3.02,3.088 5.468,5.572 C -0.881,9.572 -0.933,9.344 -1.008,9.11 -0.689,9.364 -0.351,9.563 0,9.713 M -11.919,9.384 c 0,0 2.457,2.558 4.649,4.822 0.005,-0.188 -0.006,-0.383 -0.036,-0.579 0.275,0.143 0.558,0.252 0.847,0.332 -2.449,-2.084 -5.46,-4.575 -5.46,-4.575 M 0,9.526 0,9.713 c 0.125,0.053 0.25,0.1 0.377,0.14 L 0,9.526 Z M 0,-0.07 0,0 C 1.067,1.157 4.158,4.502 6.158,6.579 6.191,6.288 6.187,5.983 6.14,5.671 6.105,5.584 6.095,5.542 6.124,5.57 4.571,4.051 1.141,0.956 0,-0.07" />
      </g>
      <g
         style="fill:#666666;fill-opacity:1"
         transform="matrix(1.25,0,0,-1.25,468.98416,1139.192)"
         id="g13336">
        <path
           inkscape:connector-curvature="0"
           id="path13338"
           style="fill:#666666;fill-opacity:1;fill-rule:evenodd;stroke:none"
           d="m 0,0 -57.753,-31.86 45.719,-82.875 57.754,31.86 L 0,0 Z" />
      </g>
      <g
         transform="matrix(1.25,0,0,-1.25,469.80329,1146.4869)"
         id="g13340">
        <path
           inkscape:connector-curvature="0"
           id="path13342"
           style="fill:#ffffff;fill-opacity:1;fill-rule:evenodd;stroke:none"
           d="m 0,0 -53.822,-29.692 41.993,-76.12 L 41.993,-76.12 0,0 Z" />
      </g>
      <g
         transform="matrix(1.25,0,0,-1.25,427.26179,1163.8844)"
         id="g13344">
        <path
           inkscape:connector-curvature="0"
           id="path13346"
           style="fill:#8c8e8f;fill-opacity:1;fill-rule:evenodd;stroke:none"
           d="M 0,0 -3.862,-2.131 C -4.851,-2.676 -5.214,-3.933 -4.668,-4.922 L -2.329,-9.162 0,-7.877 0,0 Z m 0,15.575 c -0.589,0.002 -1.187,-0.14 -1.737,-0.444 -1.731,-0.955 -2.367,-3.153 -1.411,-4.885 L 0,4.539 0,10.331 c -0.582,0 -1.146,0.309 -1.447,0.854 -0.441,0.799 -0.15,1.804 0.649,2.245 0.253,0.139 0.527,0.206 0.798,0.206 l 0,1.939 z M 13.998,7.722 8.216,4.532 3.148,13.72 C 2.496,14.901 1.266,15.571 0,15.575 L 0,13.636 C 0.582,13.635 1.146,13.326 1.447,12.781 1.887,11.982 1.597,10.978 0.798,10.536 0.544,10.396 0.271,10.33 0,10.331 L 0,4.539 1.92,1.06 0,0 0,-7.877 19.128,2.676 16.79,6.916 c -0.546,0.989 -1.802,1.353 -2.792,0.806" />
      </g>
      <g
         transform="matrix(1.25,0,0,-1.25,465.81516,1161.1036)"
         id="g13348">
        <path
           inkscape:connector-curvature="0"
           id="path13350"
           style="fill:none;stroke:#b3b3b3;stroke-width:0.72000003;stroke-linecap:butt;stroke-linejoin:miter;stroke-miterlimit:22.9260006;stroke-dasharray:none;stroke-opacity:1"
           d="m 0,0 -39.935,-22.031 3.858,-7.28 L 3.858,-7.279 0,0 Z" />
      </g>
      <g
         transform="matrix(1.25,0,0,-1.25,471.04591,1181.355)"
         id="g13360">
        <path
           inkscape:connector-curvature="0"
           id="path13362"
           style="fill:#b3b3b3;fill-opacity:1;fill-rule:evenodd;stroke:none"
           d="m 0,0 -30.686,-16.929 0.81,-1.468 L 0.81,-1.469 0,0 Z" />
      </g>
      <g
         transform="matrix(1.25,0,0,-1.25,473.07166,1185.0269)"
         id="g13364">
        <path
           inkscape:connector-curvature="0"
           id="path13366"
           style="fill:#b3b3b3;fill-opacity:1;fill-rule:evenodd;stroke:none"
           d="m 0,0 -30.687,-16.929 0.811,-1.468 L 0.81,-1.469 0,0 Z" />
      </g>
      <g
         transform="matrix(1.25,0,0,-1.25,475.09678,1188.6987)"
         id="g13368">
        <path
           inkscape:connector-curvature="0"
           id="path13370"
           style="fill:#b3b3b3;fill-opacity:1;fill-rule:evenodd;stroke:none"
           d="m 0,0 -30.686,-16.929 0.81,-1.468 L 0.811,-1.469 0,0 Z" />
      </g>
      <g
         transform="matrix(1.25,0,0,-1.25,477.12253,1192.3706)"
         id="g13372">
        <path
           inkscape:connector-curvature="0"
           id="path13374"
           style="fill:#b3b3b3;fill-opacity:1;fill-rule:evenodd;stroke:none"
           d="m 0,0 -30.686,-16.929 0.81,-1.468 L 0.811,-1.469 0,0 Z" />
      </g>
      <g
         transform="matrix(1.25,0,0,-1.25,479.14829,1196.0425)"
         id="g13376">
        <path
           inkscape:connector-curvature="0"
           id="path13378"
           style="fill:#b3b3b3;fill-opacity:1;fill-rule:evenodd;stroke:none"
           d="m 0,0 -30.686,-16.929 0.81,-1.467 L 0.811,-1.468 0,0 Z" />
      </g>
      <g
         transform="matrix(1.25,0,0,-1.25,428.62216,1259.0076)"
         id="g13380">
        <path
           inkscape:connector-curvature="0"
           id="path13382"
           style="fill:#fed4a4;fill-opacity:1;fill-rule:evenodd;stroke:none"
           d="M 0,0 17.305,0.954 18.697,-23.138 1.392,-24.092 0,0 Z" />
      </g>
      <g
         transform="matrix(1.25,0,0,-1.25,450.55941,1236.7543)"
         id="g13384">
        <path
           inkscape:connector-curvature="0"
           id="path13386"
           style="fill:#ffd7b7;fill-opacity:1;fill-rule:evenodd;stroke:none"
           d="M 0,0 C 0.081,-2.049 0.232,-4.533 0.385,-7.471 L 5.533,1.29 c 2.285,3.889 6.257,2.614 7.525,0.854 L 2.822,-19.078 c -1.445,-2.996 -6.129,-4.72 -10.731,-5.103 -9.513,-0.792 -15.694,5.078 -16.626,18.111 l -5.153,19.564 c -1.102,4.182 4.83,5.675 5.907,1.444 l 3.52,-13.831 c 0.158,0.23 0.411,0.462 0.652,0.664 l -2.919,18.672 c -0.675,4.318 5.39,4.691 5.987,1.069 L -13.7,4.286 c 0.175,0.049 0.538,0.076 0.669,0.088 l -1.559,19.955 c -0.314,4.015 5.756,4.436 6.067,0.45 L -6.854,3.412 c 0.285,-0.126 0.563,-0.263 0.835,-0.411 l 0.474,20.734 c 0.089,3.946 6.176,3.935 6.083,-0.177 L 0,0 Z" />
      </g>
      <g
         style="fill:#213042;fill-opacity:1"
         transform="matrix(1.25,0,0,-1.25,426.75154,1269.2579)"
         id="g13388">
        <path
           inkscape:connector-curvature="0"
           id="path13390"
           style="fill:#213042;fill-opacity:1;fill-rule:evenodd;stroke:none"
           d="M 0,0 21.233,1.17 21.743,-7.656 0.51,-8.826 0,0 Z" />
      </g>
      <g
         style="fill:#369c8b;fill-opacity:1"
         transform="matrix(1.25,0,0,-1.25,430.47766,1379.6998)"
         id="g13392">
        <path
           inkscape:connector-curvature="0"
           id="path13394"
           style="fill:#369c8b;fill-opacity:1;fill-rule:evenodd;stroke:none"
           d="M 0,0 25.468,1.403 20.879,80.814 -4.588,79.411 0,0 Z" />
      </g>
      <g
         transform="matrix(1.25,0,0,-1.25,473.93166,1178.0824)"
         id="g13396">
        <path
           inkscape:connector-curvature="0"
           id="path13398"
           style="fill:#3a6381;fill-opacity:1;fill-rule:nonzero;stroke:none"
           d="m 0,0 -0.628,0.979 0.007,0.012 0.008,0.011 0.008,0.009 0.009,0.008 0.01,0.005 0.011,0.005 0.011,0.004 0.011,0.002 0.012,0.001 0.013,0 0.013,-0.002 0.014,-0.003 0.013,-0.004 0.014,-0.006 0.015,-0.005 0.015,-0.008 0.015,-0.009 0.016,-0.011 0.016,-0.01 L -0.381,0.965 -0.365,0.951 -0.349,0.937 -0.333,0.921 -0.316,0.904 -0.3,0.886 -0.283,0.867 -0.266,0.848 -0.25,0.826 -0.233,0.804 -0.216,0.781 -0.2,0.758 -0.184,0.732 -0.167,0.707 -0.152,0.681 -0.137,0.655 -0.123,0.629 -0.109,0.603 -0.096,0.576 -0.083,0.549 -0.072,0.522 -0.061,0.496 -0.05,0.47 -0.04,0.443 -0.031,0.417 -0.022,0.392 -0.014,0.365 -0.006,0.34 0,0.314 0.006,0.29 0.011,0.266 0.016,0.242 0.019,0.219 0.022,0.196 0.024,0.175 0.025,0.153 0.026,0.133 0.025,0.112 0.024,0.094 0.022,0.075 0.02,0.059 0.016,0.042 0.011,0.027 0.006,0.013 0,0 Z M -0.628,0.979 0,0 -0.093,-0.184 -0.176,-0.367 -0.248,-0.55 -0.311,-0.73 -0.365,-0.909 -0.412,-1.086 -0.451,-1.26 -0.484,-1.431 -0.511,-1.597 -0.533,-1.76 l -0.019,-0.158 -0.014,-0.154 -0.013,-0.149 -0.009,-0.142 -0.008,-0.138 -0.008,-0.133 -0.008,-0.125 -0.008,-0.12 -0.01,-0.114 -0.014,-0.109 -0.017,-0.101 -0.023,-0.094 -0.031,-0.085 -0.042,-0.073 -0.054,-0.057 -0.066,-0.036 -0.08,-0.013 -0.09,0.012 -0.099,0.035 -0.105,0.057 -0.112,0.073 -0.117,0.091 -0.132,0.948 0.069,-0.052 0.054,-0.037 0.04,-0.021 0.027,-0.01 0.018,-0.003 0.013,0.003 0.013,0.007 0.012,0.013 0.013,0.023 0.013,0.037 0.012,0.051 0.012,0.066 0.01,0.081 0.008,0.096 0.007,0.109 0.008,0.121 0.008,0.132 0.008,0.141 0.011,0.151 0.012,0.16 0.016,0.166 0.02,0.173 0.024,0.178 0.031,0.184 0.036,0.187 0.043,0.191 0.051,0.193 0.059,0.195 0.068,0.198 0.079,0.197 0.088,0.197 0.101,0.197 z m -0.984,-3.324 0.132,-0.948 -0.1,0.081 -0.094,0.079 -0.091,0.075 -0.086,0.074 -0.083,0.071 -0.078,0.069 -0.075,0.066 -0.073,0.065 -0.07,0.063 -0.066,0.06 -0.065,0.059 -0.063,0.056 -0.061,0.056 -0.059,0.055 -0.058,0.052 -0.057,0.052 -0.056,0.051 -0.056,0.05 -0.056,0.049 -0.056,0.049 -0.057,0.05 -0.058,0.048 -0.061,0.051 -0.061,0.05 -0.064,0.051 -0.066,0.052 -0.07,0.054 -0.073,0.056 -0.077,0.056 -0.08,0.059 -0.085,0.059 -0.09,0.064 -0.194,0.995 0.096,-0.066 0.091,-0.066 0.088,-0.063 0.084,-0.063 0.081,-0.06 0.077,-0.061 0.075,-0.059 0.072,-0.057 0.07,-0.058 0.067,-0.055 0.067,-0.056 0.064,-0.056 0.063,-0.054 0.062,-0.056 0.06,-0.054 0.06,-0.054 0.06,-0.054 0.06,-0.055 0.059,-0.055 0.06,-0.053 0.061,-0.056 0.063,-0.057 0.064,-0.058 0.065,-0.059 0.068,-0.059 0.071,-0.063 0.074,-0.065 0.077,-0.066 0.08,-0.068 0.085,-0.071 0.088,-0.075 0.095,-0.077 z m -2.307,1.929 0.194,-0.995 -0.017,0.012 -0.016,0.013 -0.017,0.015 -0.017,0.016 -0.017,0.015 -0.017,0.018 -0.017,0.018 -0.016,0.02 -0.016,0.019 -0.017,0.022 -0.016,0.021 -0.016,0.022 -0.015,0.022 -0.015,0.024 -0.015,0.024 -0.015,0.025 -0.014,0.024 -0.014,0.025 -0.013,0.026 -0.013,0.025 -0.012,0.026 -0.012,0.027 -0.012,0.026 -0.01,0.027 -0.011,0.027 -0.009,0.026 -0.009,0.027 -0.009,0.026 -0.007,0.027 -0.007,0.026 -0.007,0.026 -0.005,0.027 -0.004,0.025 -0.004,0.024 -0.003,0.024 -0.002,0.022 -0.001,0.022 0,0.02 0,0.02 0.002,0.018 0.002,0.018 0.003,0.016 0.004,0.015 0.005,0.015 0.004,0.013 0.007,0.012 0.007,0.011 0.007,0.01 0.008,0.008 0.009,0.008 0.009,0.006 0.011,0.005 0.01,0.004 0.011,0.003 0.012,0.001 0.012,0 0.014,-0.001 0.013,-0.003 0.014,-0.004 0.015,-0.006 0.015,-0.007 0.016,-0.008 0.016,-0.009 0.017,-0.011 z" />
      </g>
      <g
         transform="matrix(1.25,0,0,-1.25,495.72666,1170.8595)"
         id="g13400">
        <path
           inkscape:connector-curvature="0"
           id="path13402"
           style="fill:#f2bf96;fill-opacity:1;fill-rule:evenodd;stroke:none"
           d="m 0,0 0,0 c -1.626,0.926 -2.249,3.047 -1.274,4.64 l 9.303,15.195 c 0.974,1.592 3.012,2.2 4.638,1.274 1.627,-0.924 2.197,-3.009 1.274,-4.637 L 4.639,1.275 C 3.662,-0.321 1.626,-0.925 0,0" />
      </g>
      <g
         transform="matrix(1.25,0,0,-1.25,505.06329,1172.3109)"
         id="g13404">
        <path
           inkscape:connector-curvature="0"
           id="path13406"
           style="fill:#f2bf96;fill-opacity:1;fill-rule:evenodd;stroke:none"
           d="m 0,0 0,0 c -1.753,0.655 -2.706,2.65 -1.997,4.377 l 6.768,16.482 c 0.708,1.727 2.624,2.652 4.376,1.997 1.753,-0.655 2.647,-2.622 1.996,-4.377 L 4.376,1.997 C 3.666,0.265 1.753,-0.654 0,0" />
      </g>
      <g
         transform="matrix(1.25,0,0,-1.25,540.60591,1157.3024)"
         id="g13408">
        <path
           inkscape:connector-curvature="0"
           id="path13410"
           style="fill:#f2bf96;fill-opacity:1;fill-rule:evenodd;stroke:none"
           d="M 0,0 -15.401,15.755 -31.811,9.174 -36.417,-1.32 -8.644,-7.939 0,0 Z" />
      </g>
      <g
         transform="matrix(1.25,0,0,-1.25,515.03328,1173.18)"
         id="g13412">
        <path
           inkscape:connector-curvature="0"
           id="path13414"
           style="fill:#f2bf96;fill-opacity:1;fill-rule:evenodd;stroke:none"
           d="m 0,0 0,0 c -1.865,0.153 -3.323,1.815 -3.11,3.67 l 2.037,17.701 c 0.214,1.855 1.806,3.264 3.671,3.109 1.865,-0.154 3.259,-1.804 3.109,-3.669 L 3.67,3.109 C 3.456,1.25 1.865,-0.154 0,0" />
      </g>
      <g
         transform="matrix(1.25,0,0,-1.25,534.94479,1153.6011)"
         id="g13416">
        <path
           inkscape:connector-curvature="0"
           id="path13418"
           style="fill:#ffd7b7;fill-opacity:1;fill-rule:evenodd;stroke:none"
           d="m 0,0 c 6.946,1.408 12.504,-8.16 11.279,-13.104 -1.225,-4.945 -7.536,-7.278 -14.549,-5.948 -7.011,1.331 -10.403,7.623 -9.69,10.205 C -12.248,-6.265 -6.946,-1.41 0,0" />
      </g>
      <g
         transform="matrix(1.25,0,0,-1.25,544.25203,1160.066)"
         id="g13420">
        <path
           inkscape:connector-curvature="0"
           id="path13422"
           style="fill:#ffd7b7;fill-opacity:1;fill-rule:evenodd;stroke:none"
           d="m 0,0 0,0 c -1.09,-1.521 -3.486,-2.157 -4.747,-0.783 l -15.386,16.776 c -1.26,1.375 -1.873,3.227 -0.783,4.747 1.091,1.521 3.224,1.869 4.747,0.782 L -0.782,4.746 C 0.483,3.366 1.091,1.521 0,0" />
      </g>
      <g
         transform="matrix(1.25,0,0,-1.25,499.60116,1143.3106)"
         id="g13424">
        <path
           inkscape:connector-curvature="0"
           id="path13426"
           style="fill:#fed4a4;fill-opacity:1;fill-rule:evenodd;stroke:none"
           d="M 0,0 0,0 C -0.492,1.806 0.6,3.646 2.388,4.177 L 16.386,8.539 C 18.167,9.094 20.07,7.957 20.562,6.151 21.054,4.346 19.979,2.472 18.175,1.976 L 4.177,-2.387 C 2.39,-2.943 0.492,-1.806 0,0" />
      </g>
      <g
         transform="matrix(1.25,0,0,-1.25,486.92666,1163.722)"
         id="g13428">
        <path
           inkscape:connector-curvature="0"
           id="path13430"
           style="fill:#fed4a4;fill-opacity:1;fill-rule:evenodd;stroke:none"
           d="m 0,0 0,0 c -1.518,1.095 -1.909,3.271 -0.769,4.749 l 10.882,14.108 c 1.14,1.479 3.231,1.865 4.749,0.769 1.517,-1.095 1.86,-3.228 0.768,-4.748 L 4.748,0.769 C 3.605,-0.713 1.518,-1.095 0,0" />
      </g>
      <g
         transform="matrix(1.25,0,0,-1.25,515.07178,1143.401)"
         id="g13432">
        <path
           inkscape:connector-curvature="0"
           id="path13434"
           style="fill:#ffd7b7;fill-opacity:1;fill-rule:evenodd;stroke:none"
           d="m 0,0 c 2.49,-2.02 12.309,-10.342 4.884,-13.595 -7.426,-3.253 13.423,-5.552 13.423,-5.552 l -0.5,13.277 C 17.807,-5.87 10.576,4.3 0,0" />
      </g>
      <g
         transform="matrix(1.25,0,0,-1.25,537.94716,1151.117)"
         id="g13436">
        <path
           inkscape:connector-curvature="0"
           id="path13438"
           style="fill:#ffd7b7;fill-opacity:1;fill-rule:evenodd;stroke:none"
           d="M 0,0 -5.284,-16.455 4.281,-21.196 11.347,-5.361 0,0 Z" />
      </g>
      <g
         style="fill:#213042;fill-opacity:1"
         transform="matrix(1.25,0,0,-1.25,551.01778,1154.9439)"
         id="g13440">
        <path
           inkscape:connector-curvature="0"
           id="path13442"
           style="fill:#213042;fill-opacity:1;fill-rule:evenodd;stroke:none"
           d="M 0,0 -9.173,-20.083 -2.968,-22.917 6.205,-2.834 0,0 Z" />
      </g>
      <g
         style="fill:#369c8b;fill-opacity:1"
         transform="matrix(1.25,0,0,-1.25,672.49666,1231.7689)"
         id="g13444">
        <path
           inkscape:connector-curvature="0"
           id="path13446"
           style="fill:#369c8b;fill-opacity:1;fill-rule:evenodd;stroke:none"
           d="M 0,0 -101.066,36.54 -90.064,60.629 2.784,27.843 0,0 Z" />
      </g>
      <g
         transform="matrix(1.25,0,0,-1.25,542.85128,1127.782)"
         id="g13448">
        <path
           inkscape:connector-curvature="0"
           id="path13450"
           style="fill:#f3a50d;fill-opacity:1;fill-rule:evenodd;stroke:none"
           d="M 0,0 -1.159,1.576 C -1.264,1.719 -1.467,1.75 -1.61,1.645 l -9.292,-6.832 c -0.142,-0.105 -0.173,-0.308 -0.068,-0.45 l 1.158,-1.577 c 0.105,-0.142 0.308,-0.174 0.451,-0.068 l 9.292,6.832 C 0.074,-0.346 0.104,-0.144 0,0" />
      </g>
      <g
         transform="matrix(1.25,0,0,-1.25,534.94303,1129.5619)"
         id="g13452">
        <path
           inkscape:connector-curvature="0"
           id="path13454"
           style="fill:#f3a50d;fill-opacity:1;fill-rule:nonzero;stroke:none"
           d="m 0,0 c 0.173,-0.235 0.494,-0.297 0.739,-0.151 l 0,1.047 L 0.738,0.897 0.739,0.896 0.738,0.897 C 0.065,1.85 -0.728,2.97 -2.705,2.165 c -0.816,-0.332 -4.141,-2.666 -7.636,-5.229 -4.278,-3.139 -8.846,-6.647 -9.375,-7.246 -0.349,-0.395 -0.551,-0.68 -0.65,-0.918 -0.165,-0.394 -0.107,-0.671 0.082,-0.945 0.331,-0.48 1.024,-0.443 1.678,-0.189 0.198,0.077 0.397,0.173 0.577,0.277 0.182,0.106 0.351,0.223 0.482,0.339 0.342,0.302 0.476,0.652 0.279,0.997 -0.154,0.27 -0.498,0.362 -0.766,0.208 -0.148,-0.084 -0.242,-0.226 -0.273,-0.38 -0.069,-0.058 -0.168,-0.125 -0.284,-0.192 -0.13,-0.075 -0.277,-0.146 -0.424,-0.203 -0.057,-0.022 -0.106,-0.051 -0.147,-0.081 0.072,0.093 0.166,0.207 0.287,0.342 0.491,0.555 4.975,3.99 9.197,7.087 3.43,2.517 6.665,4.795 7.399,5.094 1.151,0.468 1.667,-0.259 2.104,-0.877 L -0.174,0.247 0,0 Z m 0.739,-0.151 c 0.016,0.009 0.032,0.019 0.048,0.031 0.25,0.183 0.304,0.536 0.119,0.786 C 0.792,0.821 0.764,0.861 0.742,0.894 L 0.739,0.896 0.741,0.895 0.739,0.896 l 0,-1.047 z" />
      </g>
      <g
         style="fill:#ffd460;fill-opacity:1"
         transform="matrix(1.25,0,0,-1.25,538.78091,1131.9544)"
         id="g13456">
        <path
           inkscape:connector-curvature="0"
           id="path13458"
           style="fill:#ffd460;fill-opacity:1;fill-rule:evenodd;stroke:none"
           d="m 0,0 -2.06,2.803 c -0.187,0.254 -0.548,0.308 -0.801,0.122 l -36.61,-27.031 c -0.997,-0.737 -11.457,-9.367 -11.033,-9.943 l 0.992,-1.35 c 0.365,-0.496 11.784,6.83 12.781,7.566 L -0.122,-0.802 C 0.132,-0.614 0.187,-0.255 0,0" />
      </g>
      <g
         transform="matrix(1.25,0,0,-1.25,503.35116,1151.8714)"
         id="g13460">
        <path
           inkscape:connector-curvature="0"
           id="path13462"
           style="fill:#f3a50d;fill-opacity:1;fill-rule:evenodd;stroke:none"
           d="M 0,0 -0.948,-0.697 1.792,-4.424 2.74,-3.727 0,0 Z" />
      </g>
      <g
         transform="matrix(1.25,0,0,-1.25,505.42516,1150.3468)"
         id="g13464">
        <path
           inkscape:connector-curvature="0"
           id="path13466"
           style="fill:#f3a50d;fill-opacity:1;fill-rule:evenodd;stroke:none"
           d="M 0,0 -0.948,-0.697 1.792,-4.424 2.74,-3.727 0,0 Z" />
      </g>
      <g
         transform="matrix(1.25,0,0,-1.25,527.01091,1165.7228)"
         id="g13468">
        <path
           inkscape:connector-curvature="0"
           id="path13470"
           style="fill:#ffd7b7;fill-opacity:1;fill-rule:evenodd;stroke:none"
           d="m 0,0 0,0 c -0.195,-2.188 -2.169,-3.972 -4.333,-3.623 l -19.556,3.144 c -2.164,0.347 -3.819,2.144 -3.623,4.333 0.195,2.188 2.144,3.813 4.333,3.623 L -3.623,4.333 C -1.453,3.984 0.196,2.189 0,0" />
      </g>
      <g
         transform="matrix(1.25,0,0,-1.25,475.65041,1174.5155)"
         id="g13472">
        <path
           inkscape:connector-curvature="0"
           id="path13474"
           style="fill:#3a6381;fill-opacity:1;fill-rule:evenodd;stroke:none"
           d="M 0,0 -1.577,-2.439 0.993,-1.351 0,0 Z" />
      </g>
      <g
         style="fill:#3db39e;fill-opacity:1"
         transform="matrix(1.25,0,0,-1.25,672.49666,1231.7689)"
         id="g13476">
        <path
           inkscape:connector-curvature="0"
           id="path13478"
           style="fill:#3db39e;fill-opacity:1;fill-rule:evenodd;stroke:none"
           d="M 0,0 -101.066,36.54 -95.564,48.585 -2.717,15.798 0,0 Z" />
      </g>
      <g
         style="fill:#3db39e;fill-opacity:1"
         transform="matrix(1.25,0,0,-1.25,446.39503,1378.8234)"
         id="g13480">
        <path
           inkscape:connector-curvature="0"
           id="path13482"
           style="fill:#3db39e;fill-opacity:1;fill-rule:evenodd;stroke:none"
           d="M 0,0 12.734,0.702 8.146,80.113 -4.588,79.411 0,0 Z" />
      </g>
      <g
         style="fill:#ec605f;fill-opacity:1"
         transform="matrix(1.25,0,0,-1.25,304.56029,1429.5045)"
         id="g13484">
        <path
           inkscape:connector-curvature="0"
           id="path13486"
           style="fill:#ec605f;fill-opacity:1;fill-rule:evenodd;stroke:none"
           d="M 0,0 -13.093,0.697 -8.73,82.553 4.363,81.855 0,0 Z" />
      </g>
      <g
         style="fill:#ec605f;fill-opacity:1"
         transform="matrix(1.25,0,0,-1.25,149.11778,1200.1429)"
         id="g13488">
        <path
           inkscape:connector-curvature="0"
           id="path13490"
           style="fill:#ec605f;fill-opacity:1;fill-rule:evenodd;stroke:none"
           d="M 0,0 -46.382,-45.561 -32.131,-49.955 9.277,-9.324 0,0 Z" />
      </g>
    </g>
  </g>
</svg>
