<?xml version="1.0" encoding="UTF-8" standalone="no"?>
<svg
   xmlns:dc="http://purl.org/dc/elements/1.1/"
   xmlns:cc="http://creativecommons.org/ns#"
   xmlns:rdf="http://www.w3.org/1999/02/22-rdf-syntax-ns#"
   xmlns:svg="http://www.w3.org/2000/svg"
   xmlns="http://www.w3.org/2000/svg"
   version="1.1"
   id="svg4644"
   viewBox="0 0 83.302417 34.369"
   height="9.6996956mm"
   width="23.509794mm">
  <defs
     id="defs4646" />
  <metadata
     id="metadata4649">
    <rdf:RDF>
      <cc:Work
         rdf:about="">
        <dc:format>image/svg+xml</dc:format>
        <dc:type
           rdf:resource="http://purl.org/dc/dcmitype/StillImage" />
        <dc:title></dc:title>
      </cc:Work>
    </rdf:RDF>
  </metadata>
  <g
     transform="translate(-33.965719,-138.68478)"
     id="layer1">
    <g
       id="text5662-49-8-5"
       style="font-style:normal;font-weight:normal;font-size:20.33613396px;line-height:80.00000119%;font-family:sans-serif;letter-spacing:0px;word-spacing:0px;display:inline;fill:#ffd460;fill-opacity:1;stroke:none;stroke-width:1px;stroke-linecap:butt;stroke-linejoin:miter;stroke-opacity:1">
      <g
         id="text5662-49-8-5-1"
         style="font-style:normal;font-weight:normal;font-size:20.33613396px;line-height:80.00000119%;font-family:sans-serif;letter-spacing:0px;word-spacing:0px;display:inline;fill:#aaaaaa;fill-opacity:1;stroke:none;stroke-width:1px;stroke-linecap:butt;stroke-linejoin:miter;stroke-opacity:1">
        <g
           id="g5616">
          <path
             id="path6982-2"
             d="m 79.800398,169.31841 c -1.14199,-0.40771 -2.08389,-1.38791 -2.45279,-2.55253 -0.59319,-1.87271 0.33259,-3.89001 2.17926,-4.74865 0.51618,-0.24001 0.77099,-0.28728 1.54409,-0.28646 1.20348,0.001 2.02727,0.35167 2.83523,1.20596 0.82703,0.87447 1.03156,1.40089 1.03166,2.65532 7e-5,0.89396 -0.0395,1.11929 -0.29078,1.65533 -0.37298,0.79572 -1.13321,1.55337 -1.92077,1.91428 -0.82793,0.3794 -2.10989,0.44808 -2.9259,0.15675 z m 23.580612,-0.009 c -1.68919,-0.67823 -2.61279,-1.97044 -2.61775,-3.66252 -0.005,-1.79699 1.0297,-3.22083 2.73126,-3.75754 0.8739,-0.27564 1.44514,-0.27564 2.31902,0 1.70156,0.5367 2.73102,1.93052 2.73507,3.70308 0.003,1.56314 -0.77622,2.81655 -2.18346,3.50962 -0.92061,0.45339 -2.15733,0.53933 -2.98414,0.20736 z m -30.347362,-4.61638 c -0.53887,-0.17268 -1.32966,-0.92915 -1.61753,-1.54735 -0.21768,-0.46745 -0.25571,-0.72148 -0.25662,-1.71385 -0.001,-1.57955 0.17458,-3.60399 0.49539,-5.69746 1.2414,-8.10077 4.49125,-12.68658 9.37165,-13.22417 1.33838,-0.14742 5.18635,-0.28317 7.99622,-0.2821 2.7194,9.6e-4 3.81207,0.15861 5.70518,0.82269 3.24136,1.13703 6.139912,3.66824 8.833002,7.71358 l 0.73063,1.0975 1.59731,0.50073 c 2.35507,0.73828 3.33673,1.10775 4.42945,1.6671 2.27059,1.16227 3.49288,3.07532 3.86596,6.05072 0.27885,2.22388 0.0601,3.20616 -0.90273,4.05367 -0.60075,0.52881 -1.10664,0.69583 -2.10754,0.69583 l -0.75297,0 -0.192,-0.74532 c -0.90773,-3.52371 -5.01324,-5.29992 -8.28809,-3.58576 -1.35564,0.70958 -2.582742,2.28627 -2.906992,3.73517 l -0.13336,0.59591 -6.02613,0 -6.02615,0 -0.0663,-0.29955 c -0.26167,-1.18187 -0.77592,-2.15124 -1.56803,-2.95574 -1.03256,-1.04872 -2.23452,-1.60567 -3.70731,-1.71785 -1.09308,-0.0833 -1.94649,0.0901 -2.99554,0.60838 -1.64655,0.81354 -2.67356,2.18209 -3.17331,4.2286 -0.0415,0.17001 -1.77304,0.16946 -2.30417,-9.6e-4 z m 11.95874,-15.2392 0,-3.06715 -1.94554,0.0675 c -1.60734,0.0557 -2.05359,0.10788 -2.56713,0.30002 -1.12753,0.42186 -2.44257,1.89638 -3.19616,3.58377 -0.22849,0.5116 -0.78761,2.03622 -0.78761,2.14765 0,0.0194 1.9117,0.0354 4.24822,0.0354 l 4.24822,0 0,-3.06714 z m 14.81432,3.00624 c 0,-0.13066 -1.37909,-1.86323 -2.05972,-2.58765 -2.48351,-2.64331 -4.92977,-3.66931 -8.74861,-3.66931 l -1.28277,0 0,3.15893 0,3.15893 6.04555,0 c 3.32505,0 6.04555,-0.0274 6.04555,-0.0609 z"
             style="font-style:normal;font-weight:normal;font-size:20.33613396px;line-height:80.00000119%;font-family:sans-serif;letter-spacing:0px;word-spacing:0px;display:inline;fill:#aaaaaa;fill-opacity:1;stroke:none;stroke-width:1px;stroke-linecap:butt;stroke-linejoin:miter;stroke-opacity:1" />
          <path
             d="m 42.58053,148.34269 2.928992,0 0,2.48234 -2.928992,0 0,3.35846 -2.705667,0 0,-3.35846 -2.937581,0 0,-2.48234 2.937581,0 0,-3.26398 2.705667,0 0,3.26398 z"
             style="font-style:normal;font-variant:normal;font-weight:900;font-stretch:normal;font-size:17.59113121px;line-height:80.00000119%;font-family:Roboto;-inkscape-font-specification:'Roboto Heavy';text-align:end;text-anchor:end;fill:#aaaaaa;fill-opacity:1"
             id="path5603" />
          <path
             d="m 49.374761,147.97334 1.365717,0 q 1.623401,0 1.623401,-1.58904 0,-0.61844 -0.386524,-1.00496 -0.386524,-0.39512 -1.090857,-0.39512 -0.575491,0 -1.004962,0.33499 -0.420881,0.33499 -0.420881,0.83317 l -2.894635,0 q 0,-0.98778 0.549723,-1.76083 0.549723,-0.77305 1.520328,-1.20252 0.979193,-0.43806 2.147354,-0.43806 2.087229,0 3.281159,0.95343 1.193929,0.95342 1.193929,2.61977 0,0.80741 -0.498186,1.52892 -0.489597,0.71292 -1.434433,1.15957 0.996372,0.36076 1.563274,1.09945 0.566902,0.7301 0.566902,1.81236 0,1.67494 -1.288413,2.6799 -1.288413,1.00496 -3.384232,1.00496 -1.228287,0 -2.284785,-0.46382 -1.047909,-0.47242 -1.589043,-1.29701 -0.541133,-0.83317 -0.541133,-1.88967 l 2.911813,0 q 0,0.57549 0.463829,0.99637 0.463828,0.42089 1.142392,0.42089 0.764459,0 1.219698,-0.42089 0.455239,-0.42947 0.455239,-1.09085 0,-0.94484 -0.472418,-1.33995 -0.472418,-0.39512 -1.305592,-0.39512 l -1.408664,0 0,-2.15594 z"
             style="font-style:normal;font-variant:normal;font-weight:900;font-stretch:normal;font-size:17.59113121px;line-height:80.00000119%;font-family:Roboto;-inkscape-font-specification:'Roboto Heavy';text-align:end;text-anchor:end;fill:#aaaaaa;fill-opacity:1"
             id="path5605" />
          <path
             d="m 65.617352,150.32684 q 0,2.53388 -1.142393,3.90819 -1.133803,1.3743 -3.203853,1.3743 -2.087229,0 -3.229622,-1.38289 -1.142393,-1.3829 -1.142393,-3.8996 l 0,-2.28478 q 0,-2.53388 1.133803,-3.90819 1.142393,-1.37431 3.221033,-1.37431 2.078639,0 3.221032,1.3829 1.142393,1.3829 1.142393,3.90818 l 0,2.2762 z m -2.894634,-2.65413 q 0,-1.34854 -0.352167,-2.00992 -0.352166,-0.66998 -1.116624,-0.66998 -0.74728,0 -1.090856,0.61844 -0.334988,0.61844 -0.360756,1.87249 l 0,3.19527 q 0,1.40007 0.352166,2.05287 0.352166,0.64421 1.116625,0.64421 0.73869,0 1.090856,-0.62703 0.352166,-0.63562 0.360756,-1.98416 l 0,-3.09219 z"
             style="font-style:normal;font-variant:normal;font-weight:900;font-stretch:normal;font-size:17.59113121px;line-height:80.00000119%;font-family:Roboto;-inkscape-font-specification:'Roboto Heavy';text-align:end;text-anchor:end;fill:#aaaaaa;fill-opacity:1"
             id="path5607" />
          <path
             d="m 39.995115,160.2167 0.09448,1.09086 q 0.987783,-1.26265 2.65413,-1.26265 1.760831,0 2.379269,1.40008 0.944837,-1.40008 2.731436,-1.40008 2.825919,0 2.903224,3.41859 l 0,6.04695 -2.903224,0 0,-5.86657 q 0,-0.71292 -0.240504,-1.03932 -0.240504,-0.3264 -0.876121,-0.3264 -0.858942,0 -1.279823,0.76446 l 0.0086,0.12025 0,6.34758 -2.903224,0 0,-5.84939 q 0,-0.7301 -0.231914,-1.0565 -0.231914,-0.3264 -0.88471,-0.3264 -0.833174,0 -1.271234,0.76446 l 0,6.46783 -2.894635,0 0,-9.29375 2.714257,0 z"
             style="font-style:normal;font-variant:normal;font-weight:900;font-stretch:normal;font-size:17.59113121px;line-height:80.00000119%;font-family:Roboto;-inkscape-font-specification:'Roboto Heavy';text-align:end;text-anchor:end;fill:#aaaaaa;fill-opacity:1"
             id="path5609" />
          <path
             d="m 55.46466,169.51045 -2.903224,0 0,-9.29375 2.903224,0 0,9.29375 z m -3.075012,-11.6902 q 0,-0.61844 0.446649,-1.01355 0.44665,-0.39511 1.159572,-0.39511 0.712922,0 1.159572,0.39511 0.446649,0.39511 0.446649,1.01355 0,0.61844 -0.446649,1.01355 -0.44665,0.39512 -1.159572,0.39512 -0.712922,0 -1.159572,-0.39512 -0.446649,-0.39511 -0.446649,-1.01355 z"
             style="font-style:normal;font-variant:normal;font-weight:900;font-stretch:normal;font-size:17.59113121px;line-height:80.00000119%;font-family:Roboto;-inkscape-font-specification:'Roboto Heavy';text-align:end;text-anchor:end;fill:#aaaaaa;fill-opacity:1"
             id="path5611" />
          <path
             d="m 59.91398,160.2167 0.09448,1.09086 q 0.962015,-1.26265 2.65413,-1.26265 1.451612,0 2.164534,0.86753 0.721511,0.86753 0.74728,2.61119 l 0,5.98682 -2.903224,0 0,-5.86657 q 0,-0.70433 -0.283451,-1.03073 -0.283451,-0.33499 -1.03073,-0.33499 -0.850353,0 -1.262645,0.66997 l 0,6.56232 -2.894634,0 0,-9.29375 2.714256,0 z"
             style="font-style:normal;font-variant:normal;font-weight:900;font-stretch:normal;font-size:17.59113121px;line-height:80.00000119%;font-family:Roboto;-inkscape-font-specification:'Roboto Heavy';text-align:end;text-anchor:end;fill:#aaaaaa;fill-opacity:1"
             id="path5613" />
        </g>
      </g>
    </g>
  </g>
</svg>
