<?xml version="1.0" encoding="UTF-8" standalone="no"?>
<svg
   xmlns:dc="http://purl.org/dc/elements/1.1/"
   xmlns:cc="http://creativecommons.org/ns#"
   xmlns:rdf="http://www.w3.org/1999/02/22-rdf-syntax-ns#"
   xmlns:svg="http://www.w3.org/2000/svg"
   xmlns="http://www.w3.org/2000/svg"
   version="1.1"
   id="svg4644"
   viewBox="0 0 54.963659 78.937396"
   height="22.277887mm"
   width="15.511967mm">
  <defs
     id="defs4646" />
  <metadata
     id="metadata4649">
    <rdf:RDF>
      <cc:Work
         rdf:about="">
        <dc:format>image/svg+xml</dc:format>
        <dc:type
           rdf:resource="http://purl.org/dc/dcmitype/StillImage" />
        <dc:title></dc:title>
      </cc:Work>
    </rdf:RDF>
  </metadata>
  <g
     transform="translate(-50.332684,-117.07525)"
     id="layer1">
    <g
       id="text5662-49-8-5"
       style="font-style:normal;font-weight:normal;font-size:20.33613396px;line-height:80.00000119%;font-family:sans-serif;letter-spacing:0px;word-spacing:0px;display:inline;fill:#ffd460;fill-opacity:1;stroke:none;stroke-width:1px;stroke-linecap:butt;stroke-linejoin:miter;stroke-opacity:1">
      <g
         id="text5662-49-8-5-1"
         style="font-style:normal;font-weight:normal;font-size:20.33613396px;line-height:80.00000119%;font-family:sans-serif;letter-spacing:0px;word-spacing:0px;display:inline;fill:#aaaaaa;fill-opacity:1;stroke:none;stroke-width:1px;stroke-linecap:butt;stroke-linejoin:miter;stroke-opacity:1">
        <g
           transform="translate(-564.92405,-945.38774)"
           id="g7064"
           style="display:inline">
          <path
             style="fill:#aaaaaa;fill-opacity:1"
             d="m 661.71675,1131.5908 c -0.5286,1.2813 -1.5611,1.8746 -3.285,1.8877 l -1.6433,0.013 -0.042,-3.2834 c -0.048,-3.7576 -0.096,-3.8303 -2.5369,-3.8375 -1.4678,0 -1.6478,-0.082 -1.8256,-0.7908 -0.3141,-1.2515 -1.99679,-2.9272 -3.52569,-3.5111 -2.7685,-1.0572 -5.8007,0.1597 -7.1035,2.851 -0.6983,1.4423 -0.70431,1.446 -2.3503,1.446 -0.9077,0 -1.82131,0.171 -2.0303,0.3801 -0.2464,0.2464 -0.3801,1.5272 -0.3801,3.642 l 0,3.2621 -1.06121,0 c -1.58649,0 -2.9444,-0.5781 -3.58919,-1.528 -0.5294,-0.7799 -0.5752,-1.7546 -0.5752,-12.2486 l 0,-11.4013 4.4753,-0.088 4.4754,-0.088 0.7502,1.4966 c 0.4127,0.8232 1.298,1.9315 1.9673,2.463 1.0844,0.8609 1.4494,0.9662 3.3486,0.9662 2.7839,0 4.3971,-0.9804 5.4701,-3.3244 l 0.7322,-1.5996 4.4338,0.087 4.4339,0.087 0.061,11.2429 c 0.034,6.1836 -0.056,11.528 -0.2002,11.8764 z m -4.2906,-25.1779 -4.588,0 -0.4944,-1.1833 c -1.0054,-2.4063 -2.7776,-3.6116 -5.3445,-3.6346 -2.5983,-0.023 -5.2766,1.8073 -5.7416,3.9245 l -0.1963,0.8934 -4.7393,0 -4.7393,0 0.093,-12.2722 c 0.085,-11.2003 0.1429,-12.3455 0.6628,-13.1112 0.7076,-1.0419 2.0329,-1.6137 3.4307,-1.48 l 1.0669,0.102 0.1583,3.3254 0.1584,3.3254 1.9596,0.094 c 1.903,0.091 1.9696,0.1238 2.3021,1.1313 0.3609,1.0936 1.87131,2.7079 3.14911,3.3656 1.252,0.6445 3.6237,0.4799 5.1549,-0.3578 1.0336,-0.5655 1.5633,-1.1532 2.1609,-2.3975 l 0.7918,-1.6483 1.9794,-0.014 1.9794,-0.014 0.069,-1.821 c 0.038,-1.0016 0.086,-2.5337 0.10761,-3.4046 0.039,-1.5807 0.041,-1.5837 1.17869,-1.6807 0.6271,-0.053 1.5738,0.1272 2.10391,0.4013 1.90259,0.9838 1.9246,1.1489 1.9246,14.4068 l 0,12.0505 -4.5879,0 z m -2.5785,27.0132 c -0.1228,0.1228 -3.7624,0.2233 -8.0881,0.2233 l -7.8648,0 0,-2.6975 0,-2.6974 7.9968,0.085 7.9967,0.085 0.091,2.3895 c 0.05,1.3143 -0.01,2.49 -0.132,2.6128 z m 3e-4,-49.0894 c -0.1229,0.1231 -3.7627,0.2237 -8.0884,0.2237 l -7.8648,0 0,-2.539 0,-2.5391 7.9968,0.085 7.9967,0.085 0.092,2.2308 c 0.051,1.2269 -0.01,2.3314 -0.1319,2.4544 z m -7.8772,42.0285 c -4.132,0 -4.4128,-0.2079 -2.5226,-1.8674 1.262,-1.1081 2.748,-1.2921 4.2331,-0.5241 0.7745,0.4006 1.9315,1.7315 1.9315,2.222 0,0.093 -1.6389,0.1695 -3.642,0.1695 z m 2.7711,-16.1373 c -1.0313,1.1541 -3.001,1.5618 -4.5153,0.9346 -0.949,-0.3931 -2.2146,-1.8231 -2.2146,-2.5024 0,-0.2322 1.2568,-0.347 3.8004,-0.347 4.2595,0 4.5,0.1572 2.9295,1.9148 z m -2.9295,-3.815 c -2.0902,0 -3.8004,-0.1233 -3.8004,-0.274 0,-0.5986 1.4328,-2.0446 2.4451,-2.4676 1.4445,-0.6035 2.9683,-0.272 4.1759,0.9086 1.7017,1.6639 1.4414,1.833 -2.8206,1.833 z m 2.9983,-18.4142 c -1.6058,1.9085 -4.3992,1.9745 -5.8437,0.1382 -1.2127,-1.5418 -0.9718,-1.6763 3.0038,-1.6763 2.0151,0 3.642,0.1306 3.642,0.2924 0,0.1609 -0.3609,0.7214 -0.8021,1.2457 z"
             id="path6717" />
          <g
             id="g7032"
             transform="translate(-139.73282,-95.399919)">
            <path
               id="path7027"
               d="m 789.47842,1232.2309 -1.02615,-5.4728 1.02615,-3.5915 2.39435,-3.4205 3.76255,-3.0785 4.10461,-1.3682 4.44665,0.171 1.53922,1.5392 0.6841,3.7626 -0.85512,5.4728 -2.73641,3.4205 -2.73639,2.0523 -4.44666,1.5392 -4.27562,-0.171 z"
               style="fill:#ffffff;fill-rule:evenodd;stroke:none;stroke-width:1px;stroke-linecap:butt;stroke-linejoin:miter;stroke-opacity:1" />
            <path
               id="path6980-2"
               d="m 792.87932,1232.2072 c -0.81084,-0.085 -1.53661,-0.2733 -1.70887,-0.4446 -0.0758,-0.075 -0.1568,-0.2781 -0.1799,-0.4504 -0.0396,-0.2957 -0.056,-0.3132 -0.29225,-0.3132 -0.56593,0 -0.78806,-0.4743 -0.93879,-2.0048 -0.10834,-1.0998 -0.0208,-2.6031 0.15142,-2.6031 0.0634,0 5.61496,5.5615 5.64967,5.6598 0.0122,0.035 -0.0256,0.081 -0.0839,0.1032 -0.20852,0.08 -1.98918,0.1165 -2.59735,0.053 z m 1.01794,-4.2109 -3.60468,-3.6069 0.24921,-0.6045 c 0.60875,-1.476 1.39924,-2.6072 2.80087,-4.0082 1.16302,-1.1624 2.07737,-1.8371 3.35061,-2.4721 l 0.92813,-0.463 3.66087,3.6603 c 2.36622,2.3658 3.66146,3.7138 3.66256,3.8116 0.003,0.2648 -0.97126,2.0897 -1.49215,2.7952 -0.94589,1.281 -2.65795,2.8583 -3.92538,3.6163 -0.61988,0.3708 -1.70923,0.8782 -1.88512,0.8782 -0.0844,0 -1.57697,-1.4376 -3.74492,-3.6069 z m 2.77667,0.3326 c 0.17423,-0.2488 0.13809,-0.5458 -0.088,-0.7237 -0.10948,-0.086 -0.23641,-0.1566 -0.2821,-0.1566 -0.11847,0 -1.78503,-1.677 -1.78503,-1.7962 0,-0.054 -0.0835,-0.1825 -0.18542,-0.2846 -0.34837,-0.3483 -0.87453,-0.1678 -0.86974,0.2985 0.003,0.2846 0.12501,0.4577 0.3756,0.5325 0.23014,0.069 1.88722,1.6928 1.89057,1.8529 0.005,0.2727 0.40962,0.5464 0.69583,0.4716 0.0755,-0.02 0.18727,-0.1073 0.24832,-0.1944 z m 1.26296,-1.2409 c 0.26049,-0.2287 0.0598,-0.848 -0.2748,-0.848 -0.14657,0 -1.8352,-1.6924 -1.89974,-1.9041 -0.12743,-0.4178 -0.50357,-0.562 -0.84391,-0.3236 -0.32657,0.2286 -0.20485,0.8229 0.18712,0.9135 0.23756,0.054 1.90463,1.6638 1.90837,1.8418 0.005,0.2617 0.39213,0.5521 0.63969,0.4803 0.0831,-0.025 0.21057,-0.096 0.28327,-0.1599 z m 1.28416,-1.3162 c 0.25804,-0.2984 0.0936,-0.759 -0.29945,-0.8385 -0.27336,-0.055 -1.91006,-1.7016 -1.91006,-1.9212 0,-0.1694 -0.29497,-0.3993 -0.50724,-0.3956 -0.17141,0.01 -0.34946,0.1394 -0.46473,0.3558 -0.12121,0.2275 0.068,0.6026 0.33821,0.6705 0.2469,0.062 1.81718,1.6468 1.95717,1.9752 0.17259,0.4051 0.60412,0.4799 0.8861,0.1538 z m 1.23095,-1.228 c 0.10198,-0.102 0.18541,-0.2363 0.18541,-0.2986 0,-0.2339 -0.18312,-0.503 -0.37175,-0.5464 -0.26425,-0.061 -1.87282,-1.6591 -1.97191,-1.9593 -0.10091,-0.3057 -0.38432,-0.4622 -0.6609,-0.365 -0.44545,0.1567 -0.46955,0.7701 -0.0374,0.9517 0.25286,0.1063 1.9844,1.7931 1.9844,1.9332 0,0.1552 0.35399,0.4699 0.5288,0.4699 0.0869,0 0.24138,-0.084 0.34336,-0.1855 z m 1.28416,-1.2842 c 0.10198,-0.102 0.18541,-0.2503 0.18541,-0.3297 0,-0.1949 -0.28258,-0.5424 -0.44105,-0.5424 -0.16585,0 -1.79408,-1.6368 -1.89349,-1.9034 -0.0418,-0.1121 -0.1651,-0.2622 -0.27403,-0.3335 -0.24922,-0.1634 -0.54877,-0.075 -0.70738,0.207 -0.15463,0.2754 0.004,0.6611 0.29488,0.7194 0.26278,0.053 1.92773,1.7227 1.99083,1.997 0.0849,0.369 0.55758,0.4729 0.84483,0.1856 z m 0.71625,-3.9284 c -1.89291,-1.894 -2.80553,-2.8574 -2.75484,-2.9081 0.22796,-0.228 2.53693,-0.154 3.75243,0.1202 0.64584,0.1458 0.82515,0.2895 0.88212,0.707 0.0376,0.2754 0.0736,0.3297 0.23332,0.3515 0.40101,0.055 0.53069,0.1106 0.63802,0.2744 0.20399,0.3113 0.36137,1.532 0.35763,2.774 -0.004,1.315 -0.0211,1.4644 -0.17187,1.4932 -0.0584,0.011 -1.37995,-1.2543 -2.93681,-2.8122 z"
               style="display:inline;fill:#3db39e;fill-opacity:1" />
          </g>
          <path
             style="display:inline;fill:#3db39e;fill-opacity:1"
             d="m 621.25582,1092.3366 c -2.11467,-0.7762 -3.08265,-3.2722 -2.02359,-5.2181 0.1816,-0.3336 0.88101,-1.1478 1.55422,-1.8092 1.20496,-1.1839 1.2335,-1.2027 1.82961,-1.2027 l 0.60558,0 1.92518,1.9109 c 2.62479,2.6051 2.63789,2.7038 0.6231,4.6992 -1.04414,1.034 -1.41975,1.3228 -2.00631,1.5422 -0.82352,0.3081 -1.79784,0.3384 -2.50779,0.078 z m 7.28323,-5.3173 c -0.11441,-0.1264 -0.20803,-0.2908 -0.20803,-0.3653 0,-0.074 0.87678,-0.52 1.94843,-0.9902 2.15856,-0.947 2.35119,-1.146 1.36481,-1.4098 l -0.58364,-0.1561 -1.59897,1.01 c -0.87941,0.5554 -1.65449,1.0099 -1.7224,1.0099 -0.0679,0 -0.23053,-0.1182 -0.36129,-0.2628 -0.2851,-0.3149 -0.40133,-0.2083 1.67372,-1.5362 1.30204,-0.8332 1.41223,-0.9343 1.41422,-1.2961 0,-0.3642 -0.0358,-0.3986 -0.52473,-0.4768 l -0.52685,-0.084 -1.35359,1.3494 c -1.33636,1.3322 -1.35686,1.3464 -1.61015,1.1172 -0.14112,-0.1277 -0.25656,-0.2932 -0.25656,-0.3678 0,-0.075 0.58719,-0.7305 1.30491,-1.4575 1.25217,-1.2686 1.30248,-1.3406 1.24476,-1.781 -0.0513,-0.3913 -0.11345,-0.4667 -0.42207,-0.512 -0.19903,-0.029 -0.41092,-0.021 -0.47091,0.019 -0.0599,0.04 -0.55165,0.7674 -1.09262,1.6171 -1.0021,1.574 -1.18641,1.7223 -1.51653,1.2205 -0.14864,-0.2259 -0.0593,-0.417 0.88125,-1.8856 0.87846,-1.3715 1.02889,-1.6809 0.93606,-1.9252 -0.0608,-0.16 -0.11063,-0.4287 -0.11063,-0.5971 0,-0.2126 -0.0701,-0.306 -0.22964,-0.306 -0.17567,0 -0.43231,0.4598 -1.09115,1.955 -0.47382,1.0752 -0.91357,1.9872 -0.97722,2.0265 -0.0636,0.039 -0.2355,-0.048 -0.38183,-0.1945 -0.31117,-0.3112 -0.30484,-0.3334 0.77174,-2.7185 0.34329,-0.7606 0.88033,-2.2313 1.19341,-3.2684 0.31304,-1.0371 1.02833,-3.4129 1.58945,-5.2797 1.0882,-3.6202 1.81571,-5.4651 2.15586,-5.467 0.27658,0 1.00214,1.8594 1.08617,2.7858 0.0631,0.6955 0.0726,0.7109 0.37057,0.5977 0.16822,-0.064 0.72229,-0.1163 1.2313,-0.1163 l 0.92548,0 0.37362,0.9742 c 0.46889,1.2226 0.64874,1.8755 0.64961,2.3582 0,0.3751 0.007,0.3785 0.72353,0.3922 0.91134,0.017 2.1811,0.3505 2.38165,0.6247 0.21436,0.2932 0.46307,1.4971 0.47127,2.2813 0.007,0.6533 0.0108,0.6596 0.39939,0.66 0.45937,4e-4 2.09989,0.5165 2.83656,0.8923 l 0.51235,0.2614 -0.0611,1.1689 -0.0611,1.1689 0.51602,0.061 c 0.76648,0.091 2.76949,0.8762 2.81272,1.1029 0.0851,0.4464 -1.93959,1.1662 -10.7819,3.833 -0.86425,0.2606 -2.43885,0.8615 -3.49915,1.3354 -1.0603,0.4738 -1.97072,0.8615 -2.02322,0.8615 -0.0525,0 -0.18905,-0.1035 -0.30349,-0.2299 z"
             id="path6980-0" />
        </g>
      </g>
    </g>
  </g>
</svg>
