<?xml version="1.0" encoding="UTF-8" standalone="no"?>
<svg
   xmlns:dc="http://purl.org/dc/elements/1.1/"
   xmlns:cc="http://creativecommons.org/ns#"
   xmlns:rdf="http://www.w3.org/1999/02/22-rdf-syntax-ns#"
   xmlns:svg="http://www.w3.org/2000/svg"
   xmlns="http://www.w3.org/2000/svg"
   version="1.1"
   id="svg4644"
   viewBox="0 0 99.71617 100.64279"
   height="28.403633mm"
   width="28.14212mm">
  <defs
     id="defs4646" />
  <metadata
     id="metadata4649">
    <rdf:RDF>
      <cc:Work
         rdf:about="">
        <dc:format>image/svg+xml</dc:format>
        <dc:type
           rdf:resource="http://purl.org/dc/dcmitype/StillImage" />
        <dc:title></dc:title>
      </cc:Work>
    </rdf:RDF>
  </metadata>
  <g
     transform="translate(-12.119174,-109.31122)"
     id="layer1">
    <g
       id="text5662-49-8-5"
       style="font-style:normal;font-weight:normal;font-size:20.33613396px;line-height:80.00000119%;font-family:sans-serif;letter-spacing:0px;word-spacing:0px;display:inline;fill:#ffd460;fill-opacity:1;stroke:none;stroke-width:1px;stroke-linecap:butt;stroke-linejoin:miter;stroke-opacity:1">
      <g
         id="text5662-49-8-5-1"
         style="font-style:normal;font-weight:normal;font-size:20.33613396px;line-height:80.00000119%;font-family:sans-serif;letter-spacing:0px;word-spacing:0px;display:inline;fill:#aaaaaa;fill-opacity:1;stroke:none;stroke-width:1px;stroke-linecap:butt;stroke-linejoin:miter;stroke-opacity:1">
        <g
           transform="translate(-90.763119,-1207.0521)"
           id="text5997-0"
           style="font-style:normal;font-weight:normal;font-size:10.51865005px;line-height:125%;font-family:sans-serif;letter-spacing:0px;word-spacing:0px;display:inline;fill:#ffffff;fill-opacity:1;stroke:none;stroke-width:1px;stroke-linecap:butt;stroke-linejoin:miter;stroke-opacity:1">
          <g
             id="g6173">
            <path
               transform="translate(90.763119,1207.0521)"
               style="font-style:normal;font-weight:normal;font-size:20.33613396px;line-height:80.00000119%;font-family:sans-serif;letter-spacing:0px;word-spacing:0px;display:inline;fill:#aaaaaa;fill-opacity:1;stroke:none;stroke-width:1px;stroke-linecap:butt;stroke-linejoin:miter;stroke-opacity:1"
               d="m 19.271961,205.9652 c -0.40848,-0.238 -0.71947,-0.9041 -0.71631,-1.5344 0.003,-0.6127 1.4654,-4.8632 3.24964,-9.4456 l 3.24406,-8.3317 -1.20106,-0.2638 c -0.66058,-0.1451 -1.45101,-0.6653 -1.75652,-1.1561 -0.50036,-0.8038 -6.42929,-30.1223 -6.42929,-31.7928 0,-1.0322 1.87956,-2.7193 3.02939,-2.7193 0.55238,0 1.4233,0.3393 1.93538,0.7539 0.81079,0.6566 1.28601,2.5614 3.67919,14.7473 l 2.74815,13.9935 3.67219,0.1204 3.67219,0.1205 -1.38546,-0.9455 c -2.82772,-1.9297 -2.91327,-2.3997 -2.91155,-15.9958 0.002,-11.4217 0.0523,-12.2588 0.82126,-13.5199 1.58308,-2.5965 2.87426,-3.0354 8.53326,-2.9005 4.29236,0.1023 5.18808,0.2419 6.14584,0.9581 1.06104,0.7933 2.80562,3.4736 2.4757,3.8035 -0.0844,0.084 -1.77849,-0.2325 -3.76466,-0.7042 -1.98617,-0.4718 -3.66943,-0.7995 -3.74056,-0.7283 -0.0711,0.071 2.47687,1.42 5.66223,2.9976 l 5.79156,2.8683 5.4343,-2.7917 c 2.98886,-1.5355 5.83771,-2.7885 6.33079,-2.7845 0.49308,0 1.46764,0.4879 2.16569,1.0753 1.53715,1.2934 1.75843,3.614 0.47589,4.9906 -1.28666,1.3811 -12.86889,7.2953 -14.26341,7.2833 -0.69117,-0.01 -3.85936,-1.3181 -7.17604,-2.9722 -3.26617,-1.6289 -5.99989,-2.9002 -6.07492,-2.8252 -0.075,0.075 1.94759,1.9935 4.49471,4.2632 l 4.63112,4.1266 -0.13824,2.5217 -0.13824,2.5216 6.25766,0.1334 6.25767,0.1334 1.20267,1.3472 c 0.7911,0.8861 1.20268,1.7936 1.20268,2.6519 0,0.7175 -2.34085,7.2581 -5.2019,14.5345 -4.37715,11.1323 -5.43095,13.4501 -6.64662,14.6187 -1.29209,1.242 -1.62503,1.3645 -3.15148,1.1598 -3.48507,-0.4673 -4.83617,-3.5664 -3.20939,-7.3615 l 0.76618,-1.7874 -1.94439,-5.1564 -1.94439,-5.1563 -5.94061,-0.1136 -5.94061,-0.1136 -3.67557,9.5207 c -3.9488,10.2285 -4.48853,11.0433 -6.52818,9.8553 z m 32.27802,-25.0271 c 8.2e-4,-0.057 -0.74795,-0.1032 -1.66346,-0.1032 -1.51788,0 -1.62694,0.07 -1.23754,0.798 0.78457,1.4659 0.50618,3.205 -0.65989,4.1222 -0.5978,0.4703 -1.35283,0.855 -1.67785,0.855 -0.63693,0 -0.53286,0.5708 0.59515,3.2642 l 0.61972,1.4797 2.01138,-5.1564 c 1.10626,-2.836 2.01188,-5.2028 2.01249,-5.2595 z m 36.48972,24.4601 c -1.00223,-1.0022 -1.01253,-1.0903 -1.01253,-8.6628 l 0,-7.6502 1.82417,0 1.82416,0 0.17358,7.7346 c 0.0955,4.254 0.31722,8.1523 0.49277,8.6628 0.28685,0.8341 0.18706,0.9281 -0.98521,0.9281 -0.83491,0 -1.66885,-0.3644 -2.31694,-1.0125 z m 6.53883,0.018 -1.15741,-0.9946 -0.12864,-7.6681 -0.12864,-7.6681 3.53187,0 3.531869,0 0,7.5713 c 0,7.4649 -0.0142,7.5865 -1.011589,8.6627 -1.29463,1.397 -3.08127,1.4343 -4.63746,0.097 z m -10.6007,-19.8702 c -0.13752,-0.3584 -0.15738,-1.3793 -0.0441,-2.2688 0.11324,-0.8895 0.30352,-2.3762 0.42284,-3.3038 l 0.21695,-1.6864 -2.2266,1.2739 c -2.76096,1.5797 -4.13818,1.6369 -5.07264,0.2107 -1.1704,-1.7862 -0.39589,-2.9607 3.5721,-5.4167 1.92472,-1.1913 3.64686,-2.2189 3.82697,-2.2836 0.18011,-0.065 0.56052,-2.8768 0.84535,-6.2492 0.49744,-5.8898 0.56274,-6.1703 1.65496,-7.1098 1.05758,-0.9098 1.47771,-0.9782 6.00861,-0.9782 4.28132,0 5.00134,0.1022 5.94309,0.8429 1.137389,0.8947 1.665029,2.6808 1.443399,4.8861 l -0.13489,1.3421 -1.847229,-1.5761 -1.84723,-1.5761 2.31188,3.3001 c 4.303439,6.1429 4.501269,6.4882 4.234119,7.3892 -0.96468,3.2536 -4.445599,11.3495 -4.965639,11.5491 -1.97412,0.7575 -3.86734,-0.2388 -3.86734,-2.0351 0,-0.5402 0.74892,-2.9211 1.66425,-5.2909 l 1.66425,-4.3086 -2.75823,-3.8581 c -1.51702,-2.122 -2.66418,-3.5797 -2.54923,-3.2393 0.11494,0.3403 0.73434,2.1112 1.37644,3.9353 l 1.16746,3.3165 -1.52001,3.9229 c -1.84889,4.7718 -1.95594,6.8069 -0.45205,8.5942 l 1.06795,1.2692 -4.94269,0 c -4.12348,0 -4.98413,-0.108 -5.19271,-0.6515 z m 16.568139,-0.2796 c 0.4811,-0.5121 1.14501,-1.5739 1.47536,-2.3595 l 0.60064,-1.4285 0.4804,1.784 c 0.66001,2.4511 0.3803,2.9352 -1.69622,2.9352 l -1.734899,0 0.874719,-0.9312 z m -32.906899,-22.7545 -2.68133,-0.9329 1.27944,-0.6638 c 3.05637,-1.5857 4.69759,-4.7952 4.09492,-8.0077 -0.38266,-2.0398 -2.80867,-4.4383 -5.11808,-5.0602 -1.58704,-0.4273 -1.74997,-0.5835 -1.52867,-1.4652 0.4133,-1.6468 0.99393,-2.9926 1.39912,-3.243 0.21113,-0.1305 2.26452,0.3961 4.56308,1.1701 2.29857,0.7741 4.17922,1.3066 4.17922,1.1832 0,-0.1233 -0.92816,-1.2397 -2.06257,-2.481 -2.11506,-2.3142 -2.64763,-3.8403 -1.34016,-3.8403 0.6142,0 6.25119,5.9607 6.62266,7.0029 0.0694,0.1946 -1.10736,4.1746 -2.61491,8.8446 -2.1378,6.6222 -2.89179,8.4836 -3.4262,8.4585 -0.37685,-0.018 -1.89178,-0.452 -3.36652,-0.9652 z m 38.569939,-6.4745 c -0.90753,-0.1751 -2.60188,-0.329 -3.76523,-0.3421 -1.28174,-0.014 -2.3036,-0.2508 -2.593369,-0.5999 -0.26301,-0.3169 -0.84037,-0.4815 -1.28304,-0.3657 -0.49261,0.1288 -0.89908,-0.035 -1.04774,-0.4225 -0.21016,-0.5477 -0.43876,-0.5175 -1.6957,0.2242 -4.33994,2.5606 -9.91315,-0.9147 -9.49841,-5.9229 0.42185,-5.0941 6.42347,-7.7991 10.21857,-4.6057 1.42444,1.1985 2.44595,2.9807 2.44595,4.2672 0,0.6237 0.1861,0.8182 0.62247,0.6508 0.35542,-0.1364 0.822199,0.081 1.088009,0.5066 0.28381,0.4544 0.80636,0.6803 1.3386,0.5785 0.52456,-0.1003 1.56961,0.3377 2.61808,1.0972 1.88063,1.3623 4.10859,4.4771 3.54635,4.9579 -0.18947,0.162 -1.08701,0.1513 -1.99454,-0.024 z M 41.444521,143.6235 c -4.5824,-1.6018 -6.81929,-6.8604 -4.78926,-11.2589 2.74794,-5.954 11.2185,-6.3573 14.39275,-0.6853 1.96518,3.5116 1.50364,7.0123 -1.29323,9.8091 -2.38015,2.3802 -5.39397,3.1545 -8.31026,2.1351 z"
               id="path5974" />
            <rect
               transform="translate(90.763119,1207.0521)"
               style="font-style:normal;font-weight:normal;font-size:20.33613396px;line-height:80.00000119%;font-family:sans-serif;letter-spacing:0px;word-spacing:0px;display:inline;opacity:1;fill:#3db39e;fill-opacity:1;stroke:none;stroke-width:0.5;stroke-linecap:round;stroke-linejoin:round;stroke-miterlimit:4;stroke-dasharray:0.5, 1;stroke-dashoffset:0;stroke-opacity:1"
               id="rect5978-1"
               width="34.692837"
               height="17.357286"
               x="54.232136"
               y="112.85452"
               ry="1.6569172" />
            <path
               transform="translate(90.763119,1207.0521)"
               style="font-style:normal;font-weight:normal;font-size:20.33613396px;line-height:80.00000119%;font-family:sans-serif;letter-spacing:0px;word-spacing:0px;display:inline;fill:#3db39e;fill-opacity:1;fill-rule:evenodd;stroke:#3db39e;stroke-width:1px;stroke-linecap:round;stroke-linejoin:round;stroke-opacity:1"
               d="m 60.613481,129.0195 -1.78678,5.1051 6.1261,-4.5945"
               id="path5980-1" />
            <path
               d="m 151.7389,1332.4982 0,-7.4781 2.61939,0 q 1.36106,0 2.0647,0.5238 0.70364,0.5188 0.70364,1.5255 0,0.5495 -0.28249,0.9707 -0.28248,0.416 -0.78581,0.6112 0.57524,0.1438 0.90394,0.5803 0.33385,0.4366 0.33385,1.0683 0,1.0786 -0.68823,1.6333 -0.68824,0.5547 -1.96198,0.565 l -2.90701,0 z m 1.54082,-3.2563 0,2.0185 1.31997,0 q 0.54442,0 0.84745,-0.2568 0.30816,-0.262 0.30816,-0.7191 0,-1.0272 -1.06317,-1.0426 l -1.41241,0 z m 0,-1.0888 1.1402,0 q 1.16589,-0.021 1.16589,-0.9297 0,-0.5084 -0.29789,-0.7293 -0.29276,-0.226 -0.92963,-0.226 l -1.07857,0 0,1.885 z"
               style="font-style:normal;font-variant:normal;font-weight:bold;font-stretch:normal;font-family:Roboto;-inkscape-font-specification:'Roboto Bold';letter-spacing:1px;fill:#ffffff"
               id="path6071" />
            <path
               d="m 161.09013,1331.2604 3.76987,0 0,1.2378 -5.69589,0 0,-0.904 3.69796,-5.3261 -3.69282,0 0,-1.248 5.60857,0 0,0.8834 -3.68769,5.3569 z"
               style="font-style:normal;font-variant:normal;font-weight:bold;font-stretch:normal;font-family:Roboto;-inkscape-font-specification:'Roboto Bold';letter-spacing:1px;fill:#ffffff"
               id="path6073" />
            <path
               d="m 172.91181,1332.4982 -1.54082,0 0,-3.2049 -3.00459,0 0,3.2049 -1.54082,0 0,-7.4781 1.54082,0 0,3.0302 3.00459,0 0,-3.0302 1.54082,0 0,7.4781 z"
               style="font-style:normal;font-variant:normal;font-weight:bold;font-stretch:normal;font-family:Roboto;-inkscape-font-specification:'Roboto Bold';letter-spacing:1px;fill:#ffffff"
               id="path6075" />
          </g>
        </g>
      </g>
    </g>
  </g>
</svg>
