<?xml version="1.0" encoding="UTF-8" standalone="no"?>
<svg
   xmlns:dc="http://purl.org/dc/elements/1.1/"
   xmlns:cc="http://creativecommons.org/ns#"
   xmlns:rdf="http://www.w3.org/1999/02/22-rdf-syntax-ns#"
   xmlns:svg="http://www.w3.org/2000/svg"
   xmlns="http://www.w3.org/2000/svg"
   version="1.1"
   id="svg4644"
   viewBox="0 0 83.527185 112.80905"
   height="31.837223mm"
   width="23.573229mm">
  <defs
     id="defs4646" />
  <metadata
     id="metadata4649">
    <rdf:RDF>
      <cc:Work
         rdf:about="">
        <dc:format>image/svg+xml</dc:format>
        <dc:type
           rdf:resource="http://purl.org/dc/dcmitype/StillImage" />
        <dc:title></dc:title>
      </cc:Work>
    </rdf:RDF>
  </metadata>
  <g
     transform="translate(-7.6597873,-97.848678)"
     id="layer1">
    <g
       id="text5662-49-8-5"
       style="font-style:normal;font-weight:normal;font-size:20.33613396px;line-height:80.00000119%;font-family:sans-serif;letter-spacing:0px;word-spacing:0px;display:inline;fill:#ffd460;fill-opacity:1;stroke:none;stroke-width:1px;stroke-linecap:butt;stroke-linejoin:miter;stroke-opacity:1">
      <g
         id="text5662-49-8-5-1"
         style="font-style:normal;font-weight:normal;font-size:20.33613396px;line-height:80.00000119%;font-family:sans-serif;letter-spacing:0px;word-spacing:0px;display:inline;fill:#aaaaaa;fill-opacity:1;stroke:none;stroke-width:1px;stroke-linecap:butt;stroke-linejoin:miter;stroke-opacity:1">
        <g
           transform="translate(-90.763119,-1207.0521)"
           id="text5997-0"
           style="font-style:normal;font-weight:normal;font-size:10.51865005px;line-height:125%;font-family:sans-serif;letter-spacing:0px;word-spacing:0px;display:inline;fill:#ffffff;fill-opacity:1;stroke:none;stroke-width:1px;stroke-linecap:butt;stroke-linejoin:miter;stroke-opacity:1">
          <g
             transform="translate(-12.553873,-181.79737)"
             id="g6086"
             style="display:inline">
            <path
               style="fill:#aaaaaa;fill-opacity:1"
               d="m 124.41453,1595.7633 c -1.32646,-0.4918 -2.08752,-1.3668 -2.38163,-2.7382 -0.12183,-0.568 -0.17678,-8.8459 -0.17678,-26.6283 0,-24.9976 -0.01,-25.8092 -0.30618,-25.9679 -0.21349,-0.1143 -0.38184,-0.1036 -0.55614,0.035 -0.21764,0.1734 -0.26361,1.716 -0.35552,11.9301 -0.0991,11.015 -0.12433,11.7678 -0.41304,12.3334 -0.95914,1.8793 -3.40641,2.2454 -4.83661,0.7235 -0.93603,-0.996 -0.91999,-0.7369 -0.82677,-13.3589 0.0471,-6.3764 0.15301,-11.9926 0.23538,-12.4804 0.41984,-2.4867 2.35474,-4.6922 4.88325,-5.5663 0.67319,-0.2327 1.97014,-0.277 9.64017,-0.3292 5.43592,-0.037 9.27224,0 9.92258,0.1047 3.20823,0.4994 5.6589,2.9756 6.1208,6.1845 0.0985,0.6839 0.16702,5.809 0.16895,12.6277 0.003,10.9408 -0.0113,11.5051 -0.30813,12.0868 -0.38463,0.7536 -0.75819,1.0996 -1.53936,1.426 -1.12955,0.472 -2.27875,0.2748 -3.1384,-0.5386 -1.06659,-1.0092 -1.00499,-0.2676 -1.09533,-13.1863 -0.0452,-6.4668 -0.14209,-11.8503 -0.21526,-11.9634 -0.1688,-0.2608 -0.64603,-0.2651 -0.90297,-0.01 -0.15181,0.1518 -0.19754,6.2116 -0.19825,26.2701 -6.6e-4,18.017 -0.0553,26.2687 -0.17693,26.7067 -0.0968,0.3487 -0.47208,0.9551 -0.83393,1.3477 -1.60295,1.739 -4.32314,1.5224 -5.66117,-0.4508 l -0.48042,-0.7085 -0.0822,-15.2934 -0.0822,-15.2935 -0.77698,-0.05 -0.77698,-0.05 -0.0453,15.179 c -0.0431,14.4547 -0.0599,15.2063 -0.35226,15.7544 -0.16886,0.3166 -0.46486,0.7493 -0.65778,0.9616 -0.86017,0.9466 -2.60882,1.3799 -3.79461,0.9403 z m 41.18299,0.082 c -1.1249,-0.3422 -1.84727,-0.9381 -2.40527,-1.9842 -0.29014,-0.5439 -0.30956,-1.2192 -0.35335,-12.2922 l -0.0463,-11.7168 -1.3185,0 c -1.91382,0 -2.65248,-0.4755 -2.64928,-1.7055 6.6e-4,-0.283 0.55985,-3.4005 1.24248,-6.9279 0.68263,-3.5273 1.61372,-8.4113 2.06909,-10.8534 0.45537,-2.442 0.87168,-4.6248 0.92512,-4.8508 0.25849,-1.0927 -0.31464,0.4113 -3.1301,8.2138 -1.7458,4.8382 -3.21893,8.6697 -3.44954,8.972 -0.53642,0.7033 -1.35396,1.0673 -2.39688,1.0673 -1.08531,0 -1.93271,-0.4586 -2.51952,-1.3636 -0.83691,-1.2907 -0.85927,-1.2052 3.52239,-13.4599 2.17824,-6.0921 4.15257,-11.4096 4.38741,-11.8166 1.15511,-2.002 3.4137,-3.5814 5.63002,-3.9371 1.38772,-0.2227 10.6168,-0.2227 12.00452,0 2.43492,0.3907 4.83438,2.2109 5.88663,4.4655 0.26539,0.5686 2.17366,5.8438 4.24062,11.7228 4.00713,11.3972 4.04478,11.5375 3.43896,12.8078 -0.95486,2.0022 -4.2004,2.1282 -5.27924,0.2049 -0.19421,-0.3462 -1.66959,-4.3037 -3.27863,-8.7944 -2.58527,-7.2154 -3.35437,-9.2296 -3.11098,-8.1476 0.0385,0.1713 0.22306,1.1625 0.41008,2.2026 0.18701,1.0401 1.15748,6.1091 2.1566,11.2645 l 1.81659,9.3734 -0.30364,0.5716 c -0.42065,0.792 -0.90658,0.9854 -2.48253,0.9882 l -1.35667,0 0,11.451 c 0,8.1044 -0.0549,11.6341 -0.18771,12.0775 -0.44917,1.4992 -1.87299,2.5213 -3.51232,2.5213 -1.58327,0 -2.68593,-0.7243 -3.35731,-2.2052 -0.32736,-0.7221 -0.33557,-1.0198 -0.3391,-12.2923 l -0.004,-11.5523 -0.82222,0 -0.82223,0 -0.004,11.6345 c -0.003,10.9469 -0.0215,11.674 -0.30655,12.3015 -0.70922,1.5614 -2.73526,2.5318 -4.29537,2.0572 z m -11.90212,-64.894 c -0.21947,-0.572 1.50425,-3.1899 2.94695,-4.4757 1.67769,-1.4953 3.25711,-2.073 4.46432,-1.6327 0.32322,0.1178 0.35773,0.078 0.34428,-0.3946 -0.0228,-0.8012 0.9489,-1.3072 1.48362,-0.7724 0.15349,0.1534 0.19734,-0.063 0.19734,-0.9721 0,-5.2818 5.40174,-9.0173 10.50209,-7.2625 3.10589,1.0686 5.28466,4.1029 5.28466,7.36 0,0.8337 0.0439,1.028 0.19734,0.8746 0.53373,-0.5338 1.44712,-0.021 1.44712,0.8121 0,0.4411 0.0387,0.4786 0.37,0.3583 0.72523,-0.2635 1.68366,-0.134 2.65831,0.3591 2.18745,1.1068 5.44776,5.3564 4.53988,5.9175 -0.0884,0.055 -0.7143,-0.015 -1.39086,-0.1547 -0.77458,-0.16 -2.10139,-0.2541 -3.58295,-0.2541 -2.68815,0 -3.20578,-0.1613 -3.90232,-1.2162 l -0.40349,-0.611 -0.2705,0.3586 c -0.5516,0.7313 -1.63587,0.3075 -1.63587,-0.6393 0,-0.3841 -0.03,-0.373 -0.72517,0.2678 -1.8402,1.6962 -4.63675,2.3889 -7.07772,1.7531 -1.29229,-0.3366 -1.9555,-0.6671 -3.1457,-1.5676 -0.82927,-0.6274 -0.9888,-0.698 -0.93596,-0.4142 0.15912,0.8547 -1.04605,1.3137 -1.61249,0.6142 -0.27813,-0.3435 -0.28043,-0.3425 -0.69415,0.2826 -0.6692,1.0113 -1.20453,1.1716 -3.92265,1.1749 -1.44696,0 -2.80482,0.097 -3.51067,0.2466 -1.43147,0.3033 -1.50452,0.3027 -1.62541,-0.012 z m -25.83703,-0.3956 c -3.2304,-0.9747 -5.67336,-4.0297 -5.67336,-7.0945 l 0,-0.8049 7.89338,0 7.89337,0 0,0.7924 c 0,2.315 -1.73905,5.1474 -3.90293,6.3568 -1.88491,1.0535 -4.25603,1.3399 -6.21046,0.7502 z m -5.65509,-10.8183 c 0.20154,-1.5575 0.55446,-2.4395 1.51471,-3.7856 0.93235,-1.307 3.03711,-2.6625 4.52061,-2.9112 0.53961,-0.091 0.74519,-0.2138 0.86003,-0.5159 0.33299,-0.8758 1.69615,-0.8702 2.09657,0.01 0.11328,0.2486 0.37156,0.4165 0.74981,0.4875 0.31736,0.06 1.09326,0.3665 1.72422,0.6822 1.32604,0.6634 2.87869,2.2012 3.45043,3.4176 l 0.36045,0.7668 2.78556,0 c 2.69357,0 2.80053,0.013 3.23873,0.3898 0.63503,0.5462 0.63503,1.4697 0,2.0159 l -0.45317,0.3899 -10.48515,0 -10.48516,0 0.12236,-0.9456 z"
               id="path5976" />
            <rect
               style="opacity:1;fill:#3db39e;fill-opacity:1;stroke:none;stroke-width:0.5;stroke-linecap:round;stroke-linejoin:round;stroke-miterlimit:4;stroke-dasharray:0.5, 1;stroke-dashoffset:0;stroke-opacity:1"
               id="rect5978"
               width="34.692837"
               height="17.357286"
               x="136.30574"
               y="1490.2415"
               ry="1.6569172" />
            <path
               style="fill:#3db39e;fill-opacity:1;fill-rule:evenodd;stroke:#3db39e;stroke-width:1px;stroke-linecap:round;stroke-linejoin:round;stroke-opacity:1"
               d="m 142.68709,1506.4064 -1.78678,5.1051 6.1261,-4.5945"
               id="path5980" />
            <path
               style="display:inline;fill:#3db39e;fill-opacity:1;fill-rule:evenodd;stroke:#3db39e;stroke-width:1px;stroke-linecap:round;stroke-linejoin:round;stroke-opacity:1"
               d="m 160.62934,1505.896 1.71232,10.2102 -5.87084,-9.189"
               id="path5980-7" />
            <g
               style="font-style:normal;font-weight:normal;font-size:10.51865005px;line-height:125%;font-family:sans-serif;letter-spacing:0px;word-spacing:0px;fill:#ffffff;fill-opacity:1;stroke:none;stroke-width:1px;stroke-linecap:butt;stroke-linejoin:miter;stroke-opacity:1"
               id="text5997">
              <path
                 d="m 143.04939,1502.833 0,-7.4781 2.61939,0 q 1.36105,0 2.06469,0.5239 0.70364,0.5187 0.70364,1.5254 0,0.5496 -0.28248,0.9707 -0.28248,0.416 -0.78582,0.6112 0.57524,0.1438 0.90395,0.5804 0.33384,0.4365 0.33384,1.0683 0,1.0785 -0.68823,1.6332 -0.68823,0.5547 -1.96197,0.565 l -2.90701,0 z m 1.54081,-3.2563 0,2.0185 1.31997,0 q 0.54442,0 0.84745,-0.2568 0.30816,-0.2619 0.30816,-0.719 0,-1.0272 -1.06316,-1.0427 l -1.41242,0 z m 0,-1.0888 1.14021,0 q 1.16588,-0.021 1.16588,-0.9296 0,-0.5085 -0.29789,-0.7293 -0.29275,-0.226 -0.92962,-0.226 l -1.07858,0 0,1.8849 z"
                 style="font-style:normal;font-variant:normal;font-weight:bold;font-stretch:normal;font-family:Roboto;-inkscape-font-specification:'Roboto Bold';letter-spacing:1px;fill:#ffffff"
                 id="path6060" />
              <path
                 d="m 152.40062,1501.5952 3.76987,0 0,1.2378 -5.69589,0 0,-0.9039 3.69796,-5.3261 -3.69283,0 0,-1.2481 5.60858,0 0,0.8834 -3.68769,5.3569 z"
                 style="font-style:normal;font-variant:normal;font-weight:bold;font-stretch:normal;font-family:Roboto;-inkscape-font-specification:'Roboto Bold';letter-spacing:1px;fill:#ffffff"
                 id="path6062" />
              <path
                 d="m 164.2223,1502.833 -1.54082,0 0,-3.2049 -3.0046,0 0,3.2049 -1.54081,0 0,-7.4781 1.54081,0 0,3.0303 3.0046,0 0,-3.0303 1.54082,0 0,7.4781 z"
                 style="font-style:normal;font-variant:normal;font-weight:bold;font-stretch:normal;font-family:Roboto;-inkscape-font-specification:'Roboto Bold';letter-spacing:1px;fill:#ffffff"
                 id="path6064" />
            </g>
          </g>
        </g>
      </g>
    </g>
  </g>
</svg>
