<?xml version="1.0" encoding="UTF-8" standalone="no"?>
<!-- Created with Inkscape (http://www.inkscape.org/) -->

<svg
   xmlns:dc="http://purl.org/dc/elements/1.1/"
   xmlns:cc="http://creativecommons.org/ns#"
   xmlns:rdf="http://www.w3.org/1999/02/22-rdf-syntax-ns#"
   xmlns:svg="http://www.w3.org/2000/svg"
   xmlns="http://www.w3.org/2000/svg"
   xmlns:sodipodi="http://sodipodi.sourceforge.net/DTD/sodipodi-0.dtd"
   xmlns:inkscape="http://www.inkscape.org/namespaces/inkscape"
   width="41.07534mm"
   height="38.399021mm"
   viewBox="0 0 145.54254 136.05952"
   id="svg4908"
   version="1.1"
   inkscape:version="0.91 r13725"
   sodipodi:docname="icon-eco9.svg">
  <defs
     id="defs4910" />
  <sodipodi:namedview
     id="base"
     pagecolor="#ffffff"
     bordercolor="#666666"
     borderopacity="1.0"
     inkscape:pageopacity="0.0"
     inkscape:pageshadow="2"
     inkscape:zoom="1.979899"
     inkscape:cx="135.14803"
     inkscape:cy="90.857067"
     inkscape:document-units="px"
     inkscape:current-layer="layer1"
     showgrid="false"
     fit-margin-top="1"
     fit-margin-left="1"
     fit-margin-right="1"
     fit-margin-bottom="1"
     inkscape:window-width="1280"
     inkscape:window-height="692"
     inkscape:window-x="0"
     inkscape:window-y="1"
     inkscape:window-maximized="1" />
  <metadata
     id="metadata4913">
    <rdf:RDF>
      <cc:Work
         rdf:about="">
        <dc:format>image/svg+xml</dc:format>
        <dc:type
           rdf:resource="http://purl.org/dc/dcmitype/StillImage" />
        <dc:title></dc:title>
      </cc:Work>
    </rdf:RDF>
  </metadata>
  <g
     inkscape:label="Calque 1"
     inkscape:groupmode="layer"
     id="layer1"
     transform="translate(-23.626445,-25.325073)">
    <path
       style="fill:#aaaaaa;fill-opacity:1"
       d="m 71.907489,108.36656 c -0.265575,-0.15565 -0.711239,-0.28607 -0.990365,-0.28983 -0.279125,-0.004 -0.6157,-0.13722 -0.747944,-0.29657 -0.132244,-0.15934 -0.439505,-0.28971 -0.6828,-0.28971 -0.37902,0 -1.070745,-0.38394 -2.866725,-1.59115 -0.513349,-0.34505 -1.830172,-1.67608 -2.66271,-2.69142 -0.626242,-0.76374 -1.391126,-2.13039 -2.197371,-3.926114 -0.96322,-2.145343 -1.17464,-5.963387 -0.46656,-8.425778 0.22531,-0.783557 0.45916,-1.59848 0.51966,-1.810939 0.0605,-0.212459 0.25647,-0.603581 0.435485,-0.869156 0.179014,-0.265576 0.375119,-0.613235 0.435786,-0.772583 0.06066,-0.159343 0.531566,-0.811212 1.046449,-1.44859 0.514883,-0.637382 1.085127,-1.390753 1.26721,-1.67417 0.740415,-1.152451 3.699397,-3.025128 5.847584,-3.70081 2.498563,-0.78589 7.300019,-0.802625 8.792856,-0.03065 0.305536,0.158004 0.733987,0.287274 0.952103,0.287274 0.48057,0 1.217531,0.387122 3.01205,1.582204 2.039051,1.357928 4.08599,3.859967 5.065523,6.191732 1.041295,2.478793 1.202307,3.240981 1.202307,5.691335 0,1.933309 -0.07717,2.52484 -0.499213,3.826618 -1.249914,3.855317 -3.55109,6.944297 -6.27685,8.425747 -0.459006,0.24948 -0.953603,0.56223 -1.099102,0.69502 -0.145499,0.13279 -0.458238,0.24143 -0.69498,0.24143 -0.236742,0 -0.535065,0.10463 -0.662939,0.23251 -0.522503,0.5225 -2.121897,0.78827 -5.156262,0.8568 -2.461507,0.0556 -3.188581,0.0122 -3.573192,-0.21319 z m 5.881355,-9.109549 c 2.012306,-1.124701 3.061759,-2.791368 3.085677,-4.900457 0.02237,-1.971661 -0.758169,-3.372934 -2.544523,-4.568151 -1.096405,-0.733588 -1.135113,-0.743289 -2.945887,-0.73856 -1.795534,0.0047 -1.858325,0.02037 -2.928055,0.731512 -1.248177,0.829773 -2.046389,1.779318 -2.218303,2.638874 -0.06516,0.325787 -0.194159,0.63912 -0.286667,0.696294 -0.22441,0.138693 -0.215758,2.122044 0.0111,2.546382 0.09862,0.184462 0.35795,0.729293 0.576295,1.210739 0.370841,0.817713 1.971587,2.311548 2.476978,2.311548 0.108208,0 0.304942,0.130371 0.437185,0.289714 0.178182,0.214701 0.653156,0.289719 1.834207,0.289719 1.361586,0 1.726064,-0.07394 2.501993,-0.507614 z m 41.729026,2.315159 c -0.63738,-0.16185 -1.59345,-0.42603 -2.1246,-0.58706 -1.24078,-0.37617 -4.97431,-2.1915 -5.17624,-2.516814 -0.085,-0.13686 -0.22812,-0.248831 -0.31814,-0.248831 -0.4457,0 -3.9348,-3.45022 -4.39475,-4.345778 -0.16368,-0.318687 -0.41157,-0.710113 -0.55087,-0.869837 -0.5124,-0.587492 -1.98452,-3.813202 -2.4243,-5.312112 -0.40458,-1.37896 -0.45233,-1.925554 -0.44701,-5.117065 l 0.006,-3.573196 0.70339,-2.028644 c 0.80178,-2.312388 1.29007,-3.290616 2.62842,-5.265757 1.01654,-1.50022 3.21232,-3.811469 3.62103,-3.811469 0.13706,0 0.31872,-0.122291 0.40367,-0.271756 0.22502,-0.395907 2.09182,-1.610291 3.4349,-2.234453 1.15324,-0.535945 2.09841,-0.862499 4.17264,-1.44165 1.49449,-0.417277 6.84534,-0.425218 7.83521,-0.01162 0.38138,0.159343 0.90867,0.289719 1.17177,0.289719 0.50348,0 0.98089,0.187193 3.33737,1.308591 2.39505,1.139756 5.71585,3.771491 6.60376,5.233514 0.23412,0.385469 0.48091,0.744312 0.54842,0.797423 0.39996,0.314604 2.06328,3.405401 2.49301,4.632554 0.27957,0.798343 0.56353,1.540618 0.63102,1.649494 0.0675,0.108876 0.227,1.279311 0.35447,2.600963 0.33579,3.481559 -0.009,6.178742 -1.21113,9.485673 -0.28838,0.792985 -1.97181,3.699957 -2.55841,4.417863 -0.97971,1.198988 -2.91662,3.11862 -3.64509,3.61255 -0.44095,0.298995 -0.8452,0.598965 -0.89831,0.666602 -0.0884,0.112556 -1.06794,0.624135 -3.24113,1.692736 -0.45475,0.2236 -0.98059,0.40655 -1.16853,0.40655 -0.18794,0 -0.43795,0.0962 -0.55557,0.21386 -0.7202,0.7202 -7.14625,1.15734 -9.23097,0.62795 z m 5.59157,-10.707283 c 0.10092,-0.09796 0.30186,-0.178099 0.44654,-0.178099 0.6239,0 2.531,-1.111906 3.35119,-1.953867 3.44158,-3.532946 3.45699,-8.489063 0.037,-11.891711 -1.03541,-1.030143 -2.0778,-1.799214 -2.43863,-1.799214 -0.13099,0 -0.43648,-0.13891 -0.67887,-0.308687 -0.32931,-0.23066 -0.96334,-0.316099 -2.50827,-0.338006 -2.00995,-0.02852 -2.93385,0.16575 -4.09022,0.859971 -0.15934,0.09566 -0.46482,0.250712 -0.67884,0.344556 -0.84459,0.370338 -2.3662,2.076154 -2.94816,3.305077 -1.34683,2.844103 -1.2588,5.360156 0.28234,8.070021 0.46627,0.819877 1.04018,1.67645 1.27535,1.903491 0.76792,0.741404 3.42676,2.015752 4.64994,2.228663 0.66954,0.116543 3.11602,-0.06297 3.30066,-0.242195 z m -33.004439,1.063549 c -0.166938,-0.166933 -0.303516,-0.552923 -0.303516,-0.857756 0,-0.304834 -0.08692,-0.607959 -0.193149,-0.673611 -0.106227,-0.06566 -0.193144,-0.280647 -0.193144,-0.477761 0,-0.674482 -1.197926,-3.496184 -1.993906,-4.696615 -1.654227,-2.494775 -4.478898,-4.874047 -7.373655,-6.210961 -0.424918,-0.196248 -0.946411,-0.445451 -1.158871,-0.55379 -1.480046,-0.754715 -7.070962,-1.170383 -8.429696,-0.626723 -0.413896,0.165607 -1.004482,0.301105 -1.312415,0.301105 -0.307928,0 -0.805937,0.119743 -1.106678,0.2661 -0.300742,0.146353 -0.894462,0.423523 -1.319385,0.615931 -2.827627,1.280365 -5.630838,3.593998 -7.084112,5.846873 -0.86475,1.340555 -1.25116,1.752999 -1.65204,1.763358 -0.25727,0.0066 -0.25568,0.01274 -0.69893,-2.697893 -0.77316,-4.72814 -1.04983,-7.049896 -0.9356,-7.851282 0.0626,-0.438898 3.01963,-3.569811 3.987803,-4.222252 0.313702,-0.211397 0.846669,-0.623377 1.184376,-0.91551 0.337703,-0.292133 0.67694,-0.531151 0.753861,-0.531151 0.07692,0 0.456908,-0.239017 0.844419,-0.531146 0.894987,-0.674707 1.353901,-0.963 1.958488,-1.230335 0.265576,-0.117432 0.713563,-0.334088 0.995527,-0.481459 0.281964,-0.147371 0.640716,-0.267951 0.79722,-0.267951 0.156504,0 0.392756,-0.130371 0.525,-0.289718 0.132243,-0.159344 0.39299,-0.289719 0.579433,-0.289719 0.186448,0 0.447194,-0.130371 0.579438,-0.289719 0.132244,-0.159344 0.468819,-0.29248 0.747944,-0.295857 0.27913,-0.0035 0.676216,-0.133756 0.882425,-0.289719 0.206205,-0.155966 0.520418,-0.283576 0.698249,-0.283576 0.646437,0 1.302519,-0.729072 1.302519,-1.44742 l 0,-0.677182 -1.212482,0 c -0.85441,0 -1.285146,-0.08755 -1.458529,-0.296473 -0.13533,-0.163058 -0.316524,-1.097402 -0.40266,-2.076314 -0.08614,-0.978913 -0.246803,-2.083476 -0.35704,-2.45458 -0.110232,-0.371105 -0.200426,-1.081135 -0.200426,-1.577847 0,-0.496717 -0.122586,-1.409904 -0.272415,-2.029307 -0.731127,-3.022531 -0.505572,-3.893617 1.062379,-4.102851 l 0.851775,-0.113661 0.06302,-0.869157 c 0.101906,-1.405556 -0.22949,-2.164948 -1.12341,-2.574289 -0.424126,-0.19421 -1.080233,-0.438455 -1.458018,-0.542767 -1.00586,-0.277729 -1.167141,-0.868849 -0.652636,-2.392032 0.225524,-0.667673 0.5791,-1.491932 0.785716,-1.831689 0.344998,-0.567296 0.434065,-0.607218 1.090784,-0.488901 0.393311,0.07086 1.106232,0.30541 1.584267,0.521228 1.083817,0.489309 1.775074,0.796288 2.945471,1.308046 0.504592,0.220639 0.921223,0.465902 0.925853,0.54503 0.0046,0.07913 0.09761,0.534991 0.206616,1.013025 0.109015,0.478035 0.300789,1.694851 0.426167,2.704036 l 0.22796,1.834883 1.255445,0.05849 c 0.690494,0.03216 1.328995,0.131789 1.41889,0.221389 0.252649,0.251809 0.764112,3.056597 0.804177,4.409995 0.01977,0.667283 0.128364,1.406068 0.241353,1.641735 0.234007,0.488086 0.626525,3.314764 0.626156,4.509187 -3.08e-4,0.978704 -0.323104,1.279927 -1.519044,1.417507 -0.79709,0.09169 -0.902104,0.159998 -0.955406,0.621409 l -0.05989,0.518394 1.122188,-0.101104 c 2.53845,-0.22871 3.998778,-0.472486 7.495989,-1.251345 2.097407,-0.467112 3.115834,-0.690095 3.790173,-0.829855 0.693723,-0.143774 0.941236,-0.843496 1.032895,-2.919984 0.04196,-0.950876 0.163981,-2.293815 0.271128,-2.984309 0.10715,-0.690494 0.287296,-2.211515 0.40032,-3.380047 0.331682,-3.429068 0.859338,-7.430685 1.069739,-8.112644 0.09706,-0.314582 -0.03585,-0.458859 -0.711564,-0.772582 l -0.830909,-0.38576 -0.125325,-1.403264 c -0.06893,-0.771793 -0.18269,-1.552728 -0.252793,-1.735417 -0.0701,-0.18269 -0.259013,-1.289533 -0.419795,-2.459657 -0.160787,-1.170119 -0.337373,-2.39589 -0.392414,-2.723935 -0.137731,-0.820856 0.319723,-1.238437 1.356688,-1.238437 0.448131,0 1.315319,-0.130371 1.927084,-0.289718 0.61177,-0.159344 1.450047,-0.289719 1.862837,-0.289719 0.412791,0 1.38635,-0.134281 2.163466,-0.298401 0.777112,-0.164125 2.064794,-0.375804 2.861514,-0.470402 2.61321,-0.310264 5.86595,-0.797748 7.25488,-1.087277 0.75016,-0.156374 1.49568,-0.233755 1.65671,-0.171961 0.16104,0.06179 0.54679,0.01417 0.85725,-0.105863 0.50526,-0.195334 2.45078,-0.430446 7.90398,-0.955198 0.95608,-0.092 2.08598,-0.258215 2.5109,-0.369363 0.42492,-0.111147 1.12862,-0.204158 1.56378,-0.20669 0.43515,-0.0026 1.06213,-0.139777 1.39329,-0.304976 0.33116,-0.165204 1.19194,-0.349445 1.91285,-0.409431 1.83445,-0.152634 2.08077,0.08176 2.47113,2.351534 0.16442,0.956069 0.3856,2.650924 0.49149,3.766341 0.1059,1.115412 0.24207,2.342917 0.30261,2.72778 0.0888,0.564444 0.0256,0.778438 -0.3267,1.106665 -0.40972,0.381716 -0.42127,0.457983 -0.18658,1.231701 0.31745,1.046606 1.01155,2.889664 1.18347,3.142539 0.0722,0.106232 0.19485,0.497349 0.2725,0.869156 0.0776,0.371803 0.2039,0.762925 0.28056,0.869153 0.0767,0.106231 0.34153,0.7581 0.5886,1.448594 0.24706,0.690494 0.51293,1.342362 0.59081,1.44859 0.0779,0.106232 0.23082,0.497349 0.33987,0.869156 0.24137,0.822955 1.13183,3.219911 1.29319,3.480987 0.0642,0.103831 0.67426,0.18878 1.35576,0.18878 1.70413,0 1.61614,-0.203045 2.42723,5.601224 0.11133,0.796725 0.2827,2.274287 0.38081,3.283472 0.0981,1.009186 0.20032,2.052172 0.22712,2.317747 0.0747,0.740415 -0.62215,0.720845 -1.72343,-0.04841 -2.0166,-1.408616 -4.65,-2.724486 -6.05024,-3.023212 -0.3718,-0.07932 -0.86586,-0.246355 -1.09789,-0.371183 -0.23203,-0.124831 -0.67741,-0.226962 -0.98973,-0.226962 -0.31232,0 -0.93736,-0.130372 -1.389,-0.289719 -0.93472,-0.329788 -7.42628,-0.424971 -7.61988,-0.111728 -0.0605,0.0979 -0.69577,0.23919 -1.41171,0.313992 -0.71593,0.0748 -1.5364,0.25545 -1.82325,0.401443 -0.28686,0.145997 -0.71331,0.265449 -0.94766,0.265449 -0.46946,0 -4.10301,1.778291 -4.55299,2.228272 -0.15544,0.155443 -0.36236,0.282619 -0.45981,0.282619 -0.60839,0 -4.30424,3.316655 -5.81116,5.214931 -1.25634,1.582624 -3.64134,5.834363 -3.64134,6.49142 0,0.130554 -0.12205,0.483432 -0.27124,0.784173 -0.788193,1.588957 -1.150559,4.842105 -0.996777,8.948637 0.07108,1.897977 0.223877,3.347235 0.417457,3.959485 0.67049,2.120528 0.69307,2.235212 0.48861,2.481568 -0.27869,0.335795 -1.905634,0.725929 -3.767521,0.903425 -0.862577,0.08224 -1.915979,0.243062 -2.340898,0.357395 -1.102122,0.29655 -1.952896,0.264639 -2.30395,-0.08642 z m 9.630549,-30.027901 c 0.84273,-0.113575 1.60682,-0.252589 1.69797,-0.308925 0.23262,-0.14377 1.16972,-2.260721 1.6121,-3.641821 0.20395,-0.636737 0.63608,-1.505889 0.96029,-1.931458 l 0.58946,-0.773757 1.92233,-0.13738 c 1.05728,-0.07556 2.31345,-0.222858 2.79148,-0.327338 0.47804,-0.104477 1.39065,-0.245767 2.02803,-0.31398 0.63738,-0.06821 1.68037,-0.245554 2.31775,-0.3941 0.63738,-0.148546 1.60952,-0.27137 2.16032,-0.272939 0.55079,-0.0017 1.24611,-0.09733 1.54516,-0.212785 0.29905,-0.115456 1.2825,-0.26756 2.18546,-0.338002 l 1.64174,-0.128078 -0.0552,-0.851029 c -0.0303,-0.468069 -0.17237,-1.076479 -0.31559,-1.35202 -0.14322,-0.275545 -0.48131,-1.196313 -0.75131,-2.046155 -0.85724,-2.698227 -1.51518,-4.624669 -1.69944,-4.975961 -0.0982,-0.187254 -0.30754,-0.953499 -0.46516,-1.702765 -0.30917,-1.46976 -0.57528,-2.109396 -0.87757,-2.109396 -0.10515,0 -0.68576,0.173829 -1.29024,0.386288 -0.60449,0.21246 -1.58888,0.386294 -2.18753,0.386294 -0.59865,0 -1.34485,0.08937 -1.6582,0.19861 -0.55332,0.192884 -1.96471,0.377126 -5.95828,0.777784 -1.0623,0.106574 -2.23566,0.315223 -2.60747,0.463665 -0.3718,0.148442 -1.40565,0.31798 -2.29743,0.376753 -2.56876,0.1693 -2.71814,0.390732 -2.72223,4.035431 -0.002,1.339251 -0.0909,2.064356 -0.305556,2.479548 -0.233983,0.452465 -0.318248,1.37622 -0.36813,4.035518 -0.03559,1.896803 -0.121216,3.540197 -0.190305,3.65199 -0.161684,0.261605 -0.480263,5.077633 -0.350143,5.293187 0.05413,0.08968 0.327252,0.112708 0.606932,0.05118 0.279676,-0.06153 1.198012,-0.204791 2.040742,-0.318357 z"
       id="path5521-8"
       inkscape:connector-curvature="0"
       sodipodi:nodetypes="cccscssssscssscssssscsscsccssssssscssssscscsccsccsssssscssccscscscccsccccsssssssssscscccscsssssscsscscssssssssssccsscscscssscssssssssccsccccsssccssscsscccscssssssssccssccssscsccccccscssscssssscssssssscssscsccssscscsscssccssccssscsssccsccscc" />
    <path
       style="fill:#ffd460;fill-opacity:1"
       d="m 137.69147,157.71939 c -4.03938,-0.0704 -3.91676,0.007 -4.14739,-2.60356 -0.087,-0.98501 -0.24554,-2.26894 -0.35224,-2.85322 -0.10669,-0.58426 -0.23526,-1.88799 -0.2857,-2.89718 -0.0504,-1.00919 -0.18073,-2.09563 -0.28951,-2.41432 -0.10879,-0.31869 -0.28848,-1.40514 -0.39934,-2.41432 -0.35483,-3.23045 -1.19501,-9.42318 -1.7426,-12.84418 -0.22105,-1.38099 -0.47489,-3.07585 -0.5641,-3.76634 -0.0892,-0.69049 -0.25297,-1.60311 -0.36391,-2.02803 -0.11094,-0.42492 -0.34056,-1.59828 -0.51026,-2.60746 -0.5747,-3.41751 -0.67015,-3.89458 -1.539,-7.69157 -0.1537,-0.67165 -0.33579,-1.36698 -0.40465,-1.54517 -0.0689,-0.17818 -0.20556,-0.71509 -0.30375,-1.19312 -0.0982,-0.47804 -0.39006,-1.63908 -0.64857,-2.5801 -0.25851,-0.94102 -0.42565,-1.82658 -0.37141,-1.96793 0.0542,-0.14135 0.50922,-0.4717 1.01106,-0.7341 1.13254,-0.59219 2.06734,-1.11404 3.72449,-2.07918 0.70902,-0.41295 1.33992,-0.75081 1.40197,-0.75081 0.0621,0 0.47279,-0.26075 0.91273,-0.57944 0.43994,-0.31869 0.98752,-0.57943 1.21686,-0.57943 0.76389,0 6.71725,6.51132 8.21165,8.98127 0.25709,0.42492 0.52619,0.81604 0.598,0.86915 0.0718,0.0531 0.33792,0.40078 0.59137,0.77259 0.25345,0.3718 0.81364,1.15404 1.24485,1.7383 0.43122,0.58427 0.84176,1.19268 0.91231,1.35202 0.0705,0.15935 0.66015,1.11542 1.31021,2.1246 0.65007,1.00919 1.44614,2.31292 1.76906,2.89719 0.32291,0.58426 0.734,1.27959 0.91352,1.54516 0.66725,0.98709 5.59623,10.84159 5.60319,11.20244 0.003,0.15935 0.14255,0.55047 0.30994,0.86916 0.16739,0.31869 0.51892,1.10093 0.78119,1.73831 0.26227,0.63738 0.59637,1.41962 0.74246,1.73831 0.60751,1.32533 0.87954,2.03664 1.55119,4.05606 0.38864,1.16853 0.78631,2.20717 0.8837,2.30809 0.0974,0.10092 0.17708,0.42119 0.17708,0.71172 0,0.29053 0.0953,0.77291 0.21183,1.07196 0.60261,1.54679 1.89754,6.72526 2.22459,8.89622 0.225,1.49354 0.91047,1.40668 -10.71704,1.35794 -5.69686,-0.0239 -11.84556,-0.0693 -13.66378,-0.10103 z m -41.4466,-1.0898 c -0.232203,-0.322 -0.30912,-0.73309 -0.261501,-1.39757 0.0371,-0.51776 0.121759,-2.11473 0.188121,-3.54885 0.06636,-1.43409 0.24613,-3.3897 0.399492,-4.34577 0.153362,-0.95607 0.367733,-2.34672 0.476379,-3.09033 0.108646,-0.74361 0.32788,-2.04734 0.487189,-2.89718 0.159304,-0.84984 0.378773,-2.09841 0.487701,-2.7746 0.108932,-0.6762 0.244305,-1.30427 0.300828,-1.39572 0.05652,-0.0915 0.224184,-0.8854 0.372587,-1.76432 0.30014,-1.77763 0.903192,-4.50288 1.657174,-7.48898 0.12071,-0.47803 0.29565,-1.17336 0.38877,-1.54516 0.0931,-0.37181 0.30673,-1.1975 0.4747,-1.83489 0.16797,-0.63738 0.37821,-1.60406 0.46721,-2.14819 0.089,-0.54413 0.25772,-1.16855 0.37496,-1.38761 0.11723,-0.21906 0.21315,-0.57479 0.21315,-0.79053 0,-0.21573 0.14183,-0.80812 0.31518,-1.31643 0.17336,-0.5083 0.38809,-1.40222 0.4772,-1.98649 0.34193,-2.242 0.60321,-3.58485 0.7555,-3.88281 0.087,-0.17029 0.21946,-0.71782 0.29428,-1.21673 0.16845,-1.12327 0.49421,-1.46501 1.40683,-1.47582 0.39077,-0.005 1.10162,-0.0959 1.57965,-0.20281 0.47804,-0.10692 1.86868,-0.27518 3.09033,-0.37392 1.22165,-0.0987 2.56884,-0.26326 2.99376,-0.36561 0.42492,-0.10234 1.25714,-0.23347 1.84938,-0.29139 1.43907,-0.14074 1.73756,0.0937 1.84134,1.44617 0.0444,0.57828 0.16659,1.52945 0.27161,2.11372 0.10501,0.58426 0.28311,2.14874 0.39578,3.47662 0.11267,1.32788 0.28017,3.10964 0.37223,3.95948 0.0921,0.84985 0.17875,2.32741 0.19264,3.28348 0.0139,0.95607 0.10402,2.17289 0.20029,2.70404 0.0963,0.53115 0.22754,2.70404 0.29171,4.82863 0.0642,2.12461 0.20461,4.99282 0.31208,6.37381 0.10748,1.38099 0.23959,6.2048 0.29359,10.71958 0.0852,7.12277 0.0596,8.25978 -0.19327,8.59497 -0.28478,0.37746 -0.54478,0.38735 -11.36467,0.43185 l -11.073232,0.0455 -0.328968,-0.45617 z m -47.345799,-0.24653 c -0.352613,-0.35263 0.179925,-1.62748 1.80188,-4.31359 0.09622,-0.15934 0.371,-0.68084 0.610627,-1.15888 0.654371,-1.30541 2.235677,-3.95614 3.202522,-5.36836 0.471624,-0.68888 1.163432,-1.81911 1.537351,-2.51164 0.373916,-0.69252 0.76135,-1.35398 0.860963,-1.46992 0.180629,-0.21022 0.535484,-0.7126 3.639773,-5.15297 0.902953,-1.29159 2.141502,-2.94131 2.752322,-3.66607 0.610825,-0.72475 1.110589,-1.36516 1.110589,-1.42313 0,-0.16977 1.379631,-1.93742 1.567236,-2.00802 0.09409,-0.0354 0.171072,-0.17236 0.171072,-0.30434 0,-0.13197 0.227904,-0.45066 0.506452,-0.7082 0.278553,-0.25753 1.15175,-1.31682 1.940448,-2.35396 0.788698,-1.03715 1.712427,-2.17499 2.052726,-2.52854 0.594526,-0.61765 1.279732,-1.44198 2.012046,-2.42057 0.189746,-0.25356 0.823032,-0.99337 1.407299,-1.644 0.584266,-0.65064 1.40996,-1.60768 1.834883,-2.12675 0.424919,-0.51907 0.861827,-1.03954 0.970911,-1.1566 0.109079,-0.11707 0.755924,-0.86471 1.437433,-1.66144 0.681512,-0.79673 1.417957,-1.63144 1.636558,-1.85493 0.614327,-0.62807 1.920136,-1.04225 3.285966,-1.04225 0.681426,0 1.480995,-0.092 1.776813,-0.20449 0.295817,-0.11248 1.540019,-0.27696 2.764897,-0.36554 1.224878,-0.0886 2.471724,-0.2573 2.770775,-0.37495 0.299047,-0.11764 1.192659,-0.2139 1.9858,-0.2139 1.144082,0 1.4666,0.0639 1.560739,0.30921 0.06526,0.17007 0.0378,0.36563 -0.06103,0.43458 -0.463973,0.32372 -1.948375,2.91122 -3.314981,5.77843 -0.138308,0.29018 -0.328665,0.65797 -0.423016,0.81731 -0.454506,0.76759 -3.440441,6.74596 -3.665778,7.33954 -0.141147,0.3718 -0.678162,1.57509 -1.19337,2.67396 -0.515208,1.09887 -0.936742,2.04181 -0.936742,2.09541 0,0.1055 -0.177228,0.51033 -1.238432,2.82881 -0.381165,0.83275 -0.693025,1.63377 -0.693025,1.78004 0,0.14627 -0.12243,0.55138 -0.272064,0.90023 -0.543127,1.26622 -1.612273,3.97454 -3.490896,8.84296 -0.143475,0.3718 -0.452573,1.28442 -0.686892,2.02803 -0.234319,0.74361 -0.53868,1.65622 -0.676363,2.02803 -0.687382,1.85626 -1.14631,3.0126 -1.264813,3.18689 -0.07222,0.10624 -0.195862,0.49451 -0.274751,0.86283 -0.07889,0.36832 -0.215338,0.8029 -0.303221,0.96572 -0.340672,0.63122 -0.949966,2.19252 -0.949966,2.43426 0,0.13982 -0.193171,0.38952 -0.429271,0.55488 -0.37768,0.26455 -1.917258,0.30067 -12.811989,0.30067 -6.810496,0 -12.440666,-0.0579 -12.511481,-0.12875 z m -21.556478,-7.38253 c -0.150744,-0.28167 -0.197955,-3.80489 -0.160729,-11.99459 l 0.05271,-11.59577 0.579437,-0.47332 c 0.31869,-0.26032 0.702942,-0.47643 0.853892,-0.48025 0.15095,-0.004 0.802816,-0.26292 1.448592,-0.57576 0.645775,-0.31284 1.391425,-0.6603 1.657,-0.77212 0.265575,-0.11182 0.613237,-0.28404 0.772582,-0.3827 0.416841,-0.25811 4.942094,-2.41753 6.084086,-2.90329 0.531151,-0.22593 1.196428,-0.53757 1.478392,-0.69254 0.281966,-0.15497 0.651356,-0.28176 0.820869,-0.28176 0.169512,0 0.308205,-0.0853 0.308205,-0.18947 0,-0.1042 0.238454,-0.24931 0.529897,-0.32246 0.291442,-0.0731 0.947133,-0.379 1.45709,-0.67969 0.509958,-0.30068 1.043102,-0.54669 1.184764,-0.54669 0.141662,0 0.36577,-0.13038 0.498015,-0.28972 0.132244,-0.15935 0.339733,-0.28972 0.461086,-0.28972 0.121354,0 0.544975,-0.17383 0.941378,-0.38629 0.396407,-0.21246 0.814176,-0.38629 0.928378,-0.38629 0.114203,0 0.338017,-0.13038 0.497362,-0.28972 0.159345,-0.15935 0.443671,-0.28972 0.631833,-0.28972 0.188164,0 0.725178,-0.21583 1.193365,-0.47963 0.468185,-0.2638 1.068535,-0.57263 1.334111,-0.68629 0.400685,-0.17149 2.724202,-1.29205 5.940808,-2.86507 0.580294,-0.28379 0.702648,-0.2817 1.571086,0.0267 0.52215,0.18545 1.497465,0.33449 2.188895,0.33449 0.685913,0 1.673776,0.12944 2.195252,0.28763 0.521475,0.15819 1.426748,0.28857 2.011716,0.28972 0.584965,0.001 1.367204,0.0908 1.738309,0.19934 0.371105,0.10848 1.230569,0.27754 1.909923,0.37569 1.408114,0.20343 1.750043,0.42047 1.374772,0.87264 -0.238787,0.28772 -1.866842,1.4516 -2.030524,1.4516 -0.04248,0 -0.463561,0.26075 -0.93577,0.57944 -0.472209,0.31869 -0.914991,0.57943 -0.983962,0.57943 -0.129596,0 -2.4925,1.71733 -3.00548,2.18434 -0.159343,0.14507 -0.441823,0.31862 -0.627725,0.38567 -0.185901,0.0671 -0.338001,0.21155 -0.338001,0.32112 0,0.10956 -0.11589,0.1992 -0.257526,0.1992 -0.141646,0 -0.511034,0.25833 -0.82087,0.57407 -0.30984,0.31574 -0.641305,0.57649 -0.736596,0.57944 -0.143436,0.004 -1.717558,1.19122 -2.047921,1.54398 -0.250669,0.26767 -2.688847,2.29688 -3.335022,2.77562 -0.400156,0.29647 -1.138937,0.93338 -1.641737,1.41535 -0.502801,0.48197 -1.644006,1.49607 -2.536009,2.25355 -0.892007,0.75748 -2.153629,1.90035 -2.803607,2.53971 -1.51939,1.49456 -2.55751,2.41791 -2.718448,2.41791 -0.07004,0 -0.446915,0.36386 -0.837505,0.80857 -0.390591,0.44472 -1.050919,1.11831 -1.467396,1.49688 -0.416479,0.37857 -1.850585,1.74381 -3.186902,3.03388 -1.336319,1.29006 -2.719605,2.58607 -3.073972,2.88001 -0.354367,0.29395 -1.313724,1.19404 -2.131905,2.00021 -5.784936,5.69998 -6.522133,6.27638 -6.966198,5.44663 z M 164.62578,137.81837 c -0.25637,-0.30469 -0.75571,-1.24267 -1.10965,-2.08442 -0.70567,-1.67823 -2.32247,-5.01562 -3.45496,-7.13167 -0.39797,-0.74361 -1.05604,-2.04734 -1.46238,-2.89718 -0.40633,-0.84984 -0.88387,-1.80591 -1.0612,-2.1246 -0.43016,-0.77307 -1.58738,-2.7167 -1.99608,-3.35257 -0.18042,-0.28069 -0.69889,-1.18763 -1.15216,-2.01542 -0.45328,-0.8278 -0.961,-1.65349 -1.12828,-1.83489 -0.16728,-0.18139 -1.07442,-1.37279 -2.01586,-2.64755 -0.94143,-1.27476 -1.80712,-2.40466 -1.92374,-2.51089 -0.11662,-0.10623 -0.47131,-0.54081 -0.78821,-0.96573 -0.3169,-0.42492 -0.68355,-0.90295 -0.81479,-1.0623 -0.13124,-0.15934 -0.67776,-0.84099 -1.2145,-1.51475 -0.53674,-0.67377 -1.08269,-1.33448 -1.21324,-1.46825 -0.13054,-0.13376 -0.62847,-0.71108 -1.10651,-1.28293 -0.47803,-0.57185 -1.10173,-1.26546 -1.386,-1.54136 -0.45294,-0.43961 -0.48857,-0.55835 -0.28816,-0.96033 0.1567,-0.3143 0.4714,-0.50578 0.99971,-0.60827 0.75388,-0.14625 2.02041,-0.49779 3.76478,-1.04495 0.47804,-0.14994 1.03132,-0.27219 1.22953,-0.27167 0.1982,4.4e-4 0.80661,-0.13871 1.35202,-0.30942 2.52108,-0.789072 2.65421,-0.798842 3.50254,-0.257067 0.31869,0.203527 0.70981,0.427667 0.86916,0.498107 0.15934,0.0704 0.42502,0.24349 0.5904,0.38459 0.16539,0.14109 1.38221,0.81141 2.70404,1.4896 1.32184,0.6782 2.86348,1.50562 3.42586,1.83871 0.56238,0.3331 1.06633,0.60564 1.11987,0.60564 0.0535,0 0.57289,0.30421 1.15412,0.67601 0.58123,0.37181 1.12027,0.67914 1.19788,0.68295 0.0776,0.004 0.38065,0.20307 0.67341,0.44276 l 0.5323,0.4358 -0.0494,15.62053 c -0.036,11.36656 -0.10866,15.64028 -0.26689,15.69301 -0.1196,0.0399 -0.4272,-0.17681 -0.68358,-0.48149 z M 27.655979,113.21832 c -0.223621,-0.35135 -0.275338,-0.95362 -0.22878,-2.66424 0.07465,-2.74258 0.122182,-2.79866 2.221695,-2.62066 0.796725,0.0675 1.970085,0.19977 2.607465,0.29383 0.637381,0.0941 2.172432,0.21826 3.411228,0.27599 1.238792,0.0577 2.795129,0.2316 3.458523,0.38636 0.731578,0.17066 1.669277,0.24131 2.383142,0.17954 1.322569,-0.11445 2.653656,0.10972 2.772731,0.46695 0.117466,0.3524 -1.848026,1.19614 -2.791522,1.19834 -0.445209,8.7e-4 -0.863188,0.0888 -0.928842,0.19503 -0.06565,0.10623 -0.440176,0.19696 -0.832269,0.20162 -0.392093,0.005 -1.060558,0.13651 -1.485478,0.29299 -0.42492,0.15648 -1.337533,0.33862 -2.028029,0.40474 -0.690495,0.0661 -1.472735,0.22634 -1.73831,0.35601 -0.265575,0.12967 -0.932533,0.2865 -1.482131,0.34851 -0.549596,0.062 -1.158005,0.19484 -1.352019,0.29518 -0.307512,0.15903 -1.418291,0.42004 -3.184484,0.74827 -0.390747,0.0726 -0.583262,-0.0134 -0.80292,-0.35846 z"
       id="path5521"
       inkscape:connector-curvature="0"
       sodipodi:nodetypes="ccccccscsscccscssssssccscssscsscscscssccsssssscsccsscscscsccccsccsccccsscscccccssscssscscscssscssscccsccsssssssscsscscscsccscscsscssssccscssscsscccssccsssssccssscssssssssscscccsssscscssscssssssccssccscsccscsccccscccssscccscscccc" />
  </g>
</svg>
