<?xml version="1.0" encoding="UTF-8" standalone="no"?>
<svg
   xmlns:dc="http://purl.org/dc/elements/1.1/"
   xmlns:cc="http://creativecommons.org/ns#"
   xmlns:rdf="http://www.w3.org/1999/02/22-rdf-syntax-ns#"
   xmlns:svg="http://www.w3.org/2000/svg"
   xmlns="http://www.w3.org/2000/svg"
   version="1.1"
   id="svg4644"
   viewBox="0 0 138.56381 76.700575"
   height="21.646608mm"
   width="39.105789mm">
  <defs
     id="defs4646" />
  <metadata
     id="metadata4649">
    <rdf:RDF>
      <cc:Work
         rdf:about="">
        <dc:format>image/svg+xml</dc:format>
        <dc:type
           rdf:resource="http://purl.org/dc/dcmitype/StillImage" />
        <dc:title></dc:title>
      </cc:Work>
    </rdf:RDF>
  </metadata>
  <g
     transform="translate(28.150534,-106.64177)"
     id="layer1">
    <g
       id="text5662-49-8-5"
       style="font-style:normal;font-weight:normal;font-size:20.33613396px;line-height:80.00000119%;font-family:sans-serif;letter-spacing:0px;word-spacing:0px;display:inline;fill:#ffd460;fill-opacity:1;stroke:none;stroke-width:1px;stroke-linecap:butt;stroke-linejoin:miter;stroke-opacity:1">
      <g
         id="text5662-49-8-5-1"
         style="font-style:normal;font-weight:normal;font-size:20.33613396px;line-height:80.00000119%;font-family:sans-serif;letter-spacing:0px;word-spacing:0px;display:inline;fill:#aaaaaa;fill-opacity:1;stroke:none;stroke-width:1px;stroke-linecap:butt;stroke-linejoin:miter;stroke-opacity:1">
        <g
           transform="translate(-90.763119,-1207.0521)"
           id="text5997-0"
           style="font-style:normal;font-weight:normal;font-size:10.51865005px;line-height:125%;font-family:sans-serif;letter-spacing:0px;word-spacing:0px;display:inline;fill:#ffffff;fill-opacity:1;stroke:none;stroke-width:1px;stroke-linecap:butt;stroke-linejoin:miter;stroke-opacity:1">
          <g
             id="g6416">
            <g
               id="g7293"
               transform="matrix(0.46030493,0,0,0.46030493,59.882101,1271.6149)">
              <path
                 id="path7274"
                 d="m 130.1898,185.2415 c -4.68036,-0.37563 -8.37248,-2.47701 -10.77512,-6.13268 -0.70146,-1.06728 -1.36266,-2.48252 -1.58354,-3.38943 -0.24703,-1.01426 -0.61619,-2.97837 -0.83077,-4.42005 -0.45574,-3.062 -0.6167,-5.24851 -0.61705,-8.38203 -2.3e-4,-2.14039 0.0329,-2.98593 0.18261,-4.64906 0.93849,-10.43127 5.01786,-20.15346 11.83669,-28.20986 1.34032,-1.58358 3.21581,-3.48863 4.37424,-4.44321 l 0.22817,-0.188 23.43581,0 23.4358,0 0.58896,0.51159 c 0.73447,0.63801 2.41317,2.31806 3.19593,3.19848 3.06737,3.45007 5.62263,7.23259 7.6273,11.29055 4.63069,9.37367 6.19779,19.72929 4.62667,30.57382 -0.23346,1.61141 -0.68981,4.04877 -0.91472,4.88543 -0.19402,0.7218 -0.72732,1.90067 -1.2595,2.78421 -2.06336,3.42563 -5.38706,5.66946 -9.4347,6.36935 -1.40103,0.24226 0.72123,0.22438 -27.57367,0.23225 -14.3342,0.005 -26.2786,-0.01 -26.54311,-0.0314 z m 0.22903,-71.76956 c -3.08603,-2.8713 -5.62997,-5.24923 -5.65324,-5.28432 -0.0298,-0.0451 0.004,-0.12234 0.11285,-0.26365 0.84976,-1.09409 2.29998,-2.581 3.51363,-3.60246 3.11611,-2.62272 6.48527,-4.27639 10.04232,-4.929063 1.16137,-0.2131 1.89408,-0.27467 3.29784,-0.27711 2.01847,-0.004 3.26225,0.18464 5.02885,0.76064 1.3855,0.451773 2.51141,0.978093 4.58988,2.145593 2.71773,1.52663 3.84788,1.9525 5.15289,1.9418 0.50503,-0.005 0.67542,-0.0259 1.12219,-0.14293 1.01934,-0.26714 1.93995,-0.69169 3.89329,-1.79555 3.22703,-1.82359 5.17935,-2.536453 7.80949,-2.851463 0.75699,-0.0906 2.93946,-0.0764 3.80168,0.0249 2.73513,0.32121 5.25721,1.161633 7.72512,2.574183 1.80267,1.03181 3.43225,2.27824 5.02434,3.84302 1.09834,1.07947 2.28498,2.42295 2.24394,2.54043 -0.009,0.0247 -2.55089,2.40506 -5.64948,5.2898 l -5.63385,5.245 -20.40543,8.7e-4 -20.40544,8.9e-4 z"
                 style="fill:#aaaaaa;fill-opacity:1" />
              <path
                 style="display:inline;fill:#ffffff"
                 d="m 154.44189,167.01658 c -5.11069,-1.25671 -9.31644,-4.89145 -11.19231,-9.67275 l -0.56134,-1.43074 -1.29767,0 c -1.40808,0 -1.72369,-0.23967 -1.72369,-1.30919 0,-0.77354 0.51893,-1.15992 1.55788,-1.15992 l 0.91121,0 0,-1.42956 0,-1.42956 -1.07623,-0.0621 c -0.96433,-0.0558 -1.09684,-0.12102 -1.27428,-0.62802 -0.12678,-0.36261 -0.12678,-0.76911 1.6e-4,-1.13169 0.18335,-0.52364 0.29217,-0.57037 1.45887,-0.62656 1.25052,-0.0602 1.26173,-0.0662 1.38969,-0.7483 0.4102,-2.18651 2.15455,-5.24606 4.11029,-7.20932 3.28539,-3.29807 6.99063,-4.8416 11.62215,-4.8416 2.4079,0 3.99271,0.26642 5.78558,0.97263 2.09755,0.82623 5.34973,3.10524 5.34973,3.7489 0,0.3022 -3.63411,4.18557 -4.13446,4.41802 -0.30576,0.14197 -0.54565,0.0765 -0.96538,-0.26367 -0.30721,-0.2491 -1.25296,-0.797 -2.10172,-1.21783 -1.48857,-0.73804 -1.61962,-0.76495 -3.70366,-0.76018 -2.67332,0.005 -3.99832,0.46837 -5.63784,1.96682 -1.10638,1.01114 -2.21645,2.54529 -2.48148,3.42941 l -0.13883,0.46295 4.82402,0 c 5.42604,0 5.35474,-0.0209 5.24706,1.47655 l -0.0639,0.88968 -5.20322,0.055 c -5.8863,0.0623 -5.53121,-0.0584 -5.29898,1.80018 l 0.14093,1.12833 4.06848,0 c 3.68017,0 4.10099,0.0359 4.40901,0.3763 0.38796,0.42866 0.43938,1.11214 0.12757,1.69482 -0.19855,0.37088 -0.46563,0.398 -3.92223,0.398 l -3.70921,0 0.68151,0.9506 c 2.56947,3.584 8.22457,4.43588 12.1063,1.82367 0.58574,-0.39417 1.23324,-0.71667 1.43888,-0.71667 0.35001,0 4.3172,4.11506 4.3172,4.47814 0,0.65451 -2.10743,2.35265 -4.24952,3.42419 -3.07037,1.53588 -7.36681,1.99037 -10.81053,1.14355 z"
                 id="path6181-1-9" />
            </g>
            <rect
               ry="5.5815787"
               y="1361.424"
               x="66.155891"
               height="25.427191"
               width="131.47719"
               id="rect7291"
               style="font-style:normal;font-weight:normal;font-size:medium;line-height:125%;font-family:sans-serif;letter-spacing:0px;word-spacing:0px;display:inline;opacity:1;fill:#3db39e;fill-opacity:1;stroke:none;stroke-width:3.20000005;stroke-linecap:round;stroke-linejoin:round;stroke-miterlimit:4;stroke-dasharray:none;stroke-dashoffset:0;stroke-opacity:1" />
            <path
               id="path7310"
               style="font-style:normal;font-variant:normal;font-weight:bold;font-stretch:normal;font-size:medium;line-height:125%;font-family:Roboto;-inkscape-font-specification:'Roboto Bold';letter-spacing:0px;word-spacing:0px;fill:#ffffff;fill-opacity:1;stroke:none;stroke-width:1px;stroke-linecap:butt;stroke-linejoin:miter;stroke-opacity:1"
               d="m 81.0873,1377.8637 -1.94031,0 0,-7.4792 -2.31628,0.7184 0,-1.5778 4.04846,-1.4502 0.20813,0 0,9.7888 z" />
            <path
               id="path7312"
               style="font-style:normal;font-variant:normal;font-weight:bold;font-stretch:normal;font-size:medium;line-height:125%;font-family:Roboto;-inkscape-font-specification:'Roboto Bold';letter-spacing:0px;word-spacing:0px;fill:#ffffff;fill-opacity:1;stroke:none;stroke-width:1px;stroke-linecap:butt;stroke-linejoin:miter;stroke-opacity:1"
               d="m 90.84926,1373.822 q 0,2.0276 -0.83923,3.1018 -0.83924,1.0742 -2.45728,1.0742 -1.5979,0 -2.44385,-1.0541 -0.84594,-1.054 -0.86609,-3.0212 l 0,-1.7993 q 0,-2.0477 0.84595,-3.1085 0.85266,-1.0608 2.45056,-1.0608 1.5979,0 2.44385,1.054 0.84595,1.0474 0.86609,3.0146 l 0,1.7993 z m -1.94031,-1.9739 q 0,-1.2152 -0.33569,-1.7657 -0.32898,-0.5573 -1.03394,-0.5573 -0.68481,0 -1.01379,0.5304 -0.32227,0.5237 -0.34241,1.6449 l 0,2.3767 q 0,1.1951 0.32227,1.7792 0.32898,0.5774 1.04736,0.5774 0.71167,0 1.02722,-0.5573 0.31555,-0.5572 0.32898,-1.7053 l 0,-2.323 z" />
            <path
               id="path7314"
               style="font-style:normal;font-variant:normal;font-weight:bold;font-stretch:normal;font-size:medium;line-height:125%;font-family:Roboto;-inkscape-font-specification:'Roboto Bold';letter-spacing:0px;word-spacing:0px;fill:#ffffff;fill-opacity:1;stroke:none;stroke-width:1px;stroke-linecap:butt;stroke-linejoin:miter;stroke-opacity:1"
               d="m 92.13832,1369.9682 q 0,-0.8996 0.58411,-1.4569 0.58411,-0.5639 1.53076,-0.5639 0.96008,0 1.54419,0.5572 0.58411,0.5506 0.58411,1.4972 l 0,0.4834 q 0,0.9064 -0.58411,1.4569 -0.58411,0.5506 -1.53076,0.5506 -0.95337,0 -1.54419,-0.5506 -0.58411,-0.5572 -0.58411,-1.4972 l 0,-0.4767 z m 1.28907,0.517 q 0,0.4028 0.22827,0.6513 0.23498,0.2416 0.61096,0.2416 0.37598,0 0.59753,-0.2484 0.22156,-0.2484 0.22156,-0.6646 l 0,-0.4969 q 0,-0.4028 -0.22156,-0.6512 -0.22155,-0.2484 -0.61096,-0.2484 -0.36926,0 -0.59753,0.2484 -0.22827,0.2417 -0.22827,0.6781 l 0,0.4901 z m 3.38378,4.9817 q 0,-0.9064 0.59082,-1.4569 0.59082,-0.5573 1.53077,-0.5573 0.95337,0 1.53747,0.5506 0.59082,0.5438 0.59082,1.5039 l 0,0.4834 q 0,0.8996 -0.57739,1.4569 -0.57739,0.5505 -1.53748,0.5505 -0.96679,0 -1.5509,-0.5572 -0.58411,-0.5573 -0.58411,-1.4771 l 0,-0.4968 z m 1.28907,0.5237 q 0,0.3692 0.2417,0.6311 0.2417,0.2618 0.60424,0.2618 0.8191,0 0.8191,-0.9064 l 0,-0.5102 q 0,-0.4028 -0.22828,-0.6445 -0.22827,-0.2484 -0.60424,-0.2484 -0.37598,0 -0.60425,0.2484 -0.22827,0.2417 -0.22827,0.6646 l 0,0.5036 z m -3.45093,1.1413 -0.94666,-0.5102 4.77356,-7.6404 0.94666,0.5103 -4.77356,7.6403 z" />
            <path
               id="path7316"
               style="font-style:normal;font-variant:normal;font-weight:bold;font-stretch:normal;font-size:medium;line-height:125%;font-family:Roboto;-inkscape-font-specification:'Roboto Bold';letter-spacing:0px;word-spacing:0px;fill:#ffffff;fill-opacity:1;stroke:none;stroke-width:1px;stroke-linecap:butt;stroke-linejoin:miter;stroke-opacity:1"
               d="m 105.53249,1374.1778 q 0,-1.6986 0.75866,-2.7057 0.76539,-1.007 2.08802,-1.007 1.06079,0 1.75232,0.7922 l 0,-3.7061 1.94702,0 0,10.3125 -1.75232,0 -0.094,-0.7721 q -0.72509,0.9064 -1.86645,0.9064 -1.28235,0 -2.06116,-1.0071 -0.77209,-1.0138 -0.77209,-2.8131 z m 1.94031,0.141 q 0,1.0205 0.35583,1.5643 0.35584,0.5439 1.03394,0.5439 0.89965,0 1.26892,-0.7587 l 0,-2.8668 q -0.36255,-0.7587 -1.2555,-0.7587 -1.40319,0 -1.40319,2.276 z" />
            <path
               id="path7318"
               style="font-style:normal;font-variant:normal;font-weight:bold;font-stretch:normal;font-size:medium;line-height:125%;font-family:Roboto;-inkscape-font-specification:'Roboto Bold';letter-spacing:0px;word-spacing:0px;fill:#ffffff;fill-opacity:1;stroke:none;stroke-width:1px;stroke-linecap:butt;stroke-linejoin:miter;stroke-opacity:1"
               d="m 116.91249,1377.998 q -1.5979,0 -2.60498,-0.9802 -1.00036,-0.9802 -1.00036,-2.6117 l 0,-0.188 q 0,-1.0943 0.42297,-1.9537 0.42297,-0.8661 1.19507,-1.3294 0.77881,-0.4699 1.77246,-0.4699 1.49048,0 2.34314,0.9399 0.85937,0.9399 0.85937,2.6654 l 0,0.7922 -4.62585,0 q 0.094,0.7117 0.56396,1.1414 0.47669,0.4297 1.20179,0.4297 1.12121,0 1.75232,-0.8124 l 0.95336,1.0675 q -0.4364,0.6177 -1.18164,0.9668 -0.74524,0.3424 -1.65161,0.3424 z m -0.22156,-5.9619 q -0.57739,0 -0.93994,0.3894 -0.35583,0.3894 -0.45654,1.1145 l 2.69898,0 0,-0.1544 q -0.0134,-0.6445 -0.34913,-0.9937 -0.33569,-0.3558 -0.95337,-0.3558 z" />
            <path
               id="path7320"
               style="font-style:normal;font-variant:normal;font-weight:bold;font-stretch:normal;font-size:medium;line-height:125%;font-family:Roboto;-inkscape-font-specification:'Roboto Bold';letter-spacing:0px;word-spacing:0px;fill:#ffffff;fill-opacity:1;stroke:none;stroke-width:1px;stroke-linecap:butt;stroke-linejoin:miter;stroke-opacity:1"
               d="m 124.91542,1375.8563 q 0,-0.3558 -0.35583,-0.5573 -0.34912,-0.2081 -1.12793,-0.3692 -2.59156,-0.5438 -2.59156,-2.2022 0,-0.9668 0.79896,-1.6113 0.80566,-0.6512 2.10144,-0.6512 1.38305,0 2.20886,0.6512 0.83252,0.6513 0.83252,1.6919 l -1.94031,0 q 0,-0.4163 -0.26856,-0.6848 -0.26855,-0.2753 -0.83923,-0.2753 -0.49011,0 -0.75867,0.2216 -0.26855,0.2215 -0.26855,0.5639 0,0.3223 0.30212,0.5237 0.30884,0.1947 1.03394,0.3424 0.7251,0.141 1.22192,0.3223 1.53748,0.564 1.53748,1.9537 0,0.9937 -0.85266,1.6114 -0.85266,0.6109 -2.20215,0.6109 -0.91309,0 -1.62476,-0.3223 -0.70495,-0.3289 -1.10778,-0.8929 -0.40284,-0.5707 -0.40284,-1.2286 l 1.8396,0 q 0.0269,0.5169 0.38269,0.7922 0.35584,0.2753 0.95337,0.2753 0.55725,0 0.83924,-0.2082 0.28869,-0.2148 0.28869,-0.5572 z" />
            <path
               id="path7322"
               style="font-style:normal;font-variant:normal;font-weight:bold;font-stretch:normal;font-size:medium;line-height:125%;font-family:Roboto;-inkscape-font-specification:'Roboto Bold';letter-spacing:0px;word-spacing:0px;fill:#ffffff;fill-opacity:1;stroke:none;stroke-width:1px;stroke-linecap:butt;stroke-linejoin:miter;stroke-opacity:1"
               d="m 133.30104,1370.5993 0.0604,0.8124 q 0.77209,-0.9466 2.08801,-0.9466 1.4032,0 1.92688,1.1077 0.76538,-1.1077 2.18201,-1.1077 1.18164,0 1.75903,0.6915 0.57739,0.6848 0.57739,2.0679 l 0,4.6392 -1.94702,0 0,-4.6325 q 0,-0.6177 -0.2417,-0.8997 -0.2417,-0.2887 -0.85266,-0.2887 -0.8728,0 -1.2085,0.8325 l 0.007,4.9884 -1.94031,0 0,-4.6258 q 0,-0.6311 -0.24841,-0.9131 -0.24842,-0.282 -0.84595,-0.282 -0.82581,0 -1.19507,0.6848 l 0,5.1361 -1.94031,0 0,-7.2644 1.81946,0 z" />
            <path
               id="path7324"
               style="font-style:normal;font-variant:normal;font-weight:bold;font-stretch:normal;font-size:medium;line-height:125%;font-family:Roboto;-inkscape-font-specification:'Roboto Bold';letter-spacing:0px;word-spacing:0px;fill:#ffffff;fill-opacity:1;stroke:none;stroke-width:1px;stroke-linecap:butt;stroke-linejoin:miter;stroke-opacity:1"
               d="m 146.74892,1377.998 q -1.5979,0 -2.60498,-0.9802 -1.00037,-0.9802 -1.00037,-2.6117 l 0,-0.188 q 0,-1.0943 0.42298,-1.9537 0.42297,-0.8661 1.19506,-1.3294 0.77881,-0.4699 1.77246,-0.4699 1.49048,0 2.34314,0.9399 0.85938,0.9399 0.85938,2.6654 l 0,0.7922 -4.62586,0 q 0.094,0.7117 0.56397,1.1414 0.47668,0.4297 1.20178,0.4297 1.12122,0 1.75232,-0.8124 l 0.95337,1.0675 q -0.4364,0.6177 -1.18164,0.9668 -0.74524,0.3424 -1.65161,0.3424 z m -0.22156,-5.9619 q -0.57739,0 -0.93994,0.3894 -0.35584,0.3894 -0.45654,1.1145 l 2.69897,0 0,-0.1544 q -0.0134,-0.6445 -0.34912,-0.9937 -0.33569,-0.3558 -0.95337,-0.3558 z m 0.17456,-4.4849 2.11487,0 -1.85974,2.0813 -1.57776,0 1.32263,-2.0813 z" />
            <path
               id="path7326"
               style="font-style:normal;font-variant:normal;font-weight:bold;font-stretch:normal;font-size:medium;line-height:125%;font-family:Roboto;-inkscape-font-specification:'Roboto Bold';letter-spacing:0px;word-spacing:0px;fill:#ffffff;fill-opacity:1;stroke:none;stroke-width:1px;stroke-linecap:butt;stroke-linejoin:miter;stroke-opacity:1"
               d="m 152.60341,1370.5993 0.0604,0.8393 q 0.7788,-0.9735 2.08801,-0.9735 1.15478,0 1.71875,0.6781 0.56396,0.6781 0.57739,2.0275 l 0,4.693 -1.94031,0 0,-4.646 q 0,-0.6176 -0.26855,-0.8929 -0.26856,-0.282 -0.89295,-0.282 -0.81909,0 -1.22863,0.6983 l 0,5.1226 -1.94031,0 0,-7.2644 1.82617,0 z" />
            <path
               id="path7328"
               style="font-style:normal;font-variant:normal;font-weight:bold;font-stretch:normal;font-size:medium;line-height:125%;font-family:Roboto;-inkscape-font-specification:'Roboto Bold';letter-spacing:0px;word-spacing:0px;fill:#ffffff;fill-opacity:1;stroke:none;stroke-width:1px;stroke-linecap:butt;stroke-linejoin:miter;stroke-opacity:1"
               d="m 162.70778,1377.8637 q -0.13428,-0.2618 -0.1947,-0.6512 -0.70496,0.7855 -1.83289,0.7855 -1.0675,0 -1.77246,-0.6177 -0.69824,-0.6176 -0.69824,-1.5576 0,-1.1548 0.85266,-1.7724 0.85938,-0.6177 2.47742,-0.6244 l 0.89294,0 0,-0.4163 q 0,-0.5035 -0.26184,-0.8057 -0.25513,-0.3021 -0.81238,-0.3021 -0.49011,0 -0.77209,0.235 -0.27527,0.235 -0.27527,0.6445 l -1.94031,0 q 0,-0.6311 0.38941,-1.1682 0.3894,-0.5371 1.10107,-0.8392 0.71167,-0.3088 1.5979,-0.3088 1.34277,0 2.1283,0.6781 0.79223,0.6714 0.79223,1.8933 l 0,3.1488 q 0.007,1.0339 0.2887,1.5643 l 0,0.1141 -1.96045,0 z m -1.60461,-1.3494 q 0.42968,0 0.79223,-0.188 0.36255,-0.1947 0.53711,-0.517 l 0,-1.2488 -0.7251,0 q -1.4569,0 -1.5509,1.0071 l -0.007,0.1141 q 0,0.3626 0.25512,0.5976 0.25513,0.235 0.69825,0.235 z" />
            <path
               id="path7330"
               style="font-style:normal;font-variant:normal;font-weight:bold;font-stretch:normal;font-size:medium;line-height:125%;font-family:Roboto;-inkscape-font-specification:'Roboto Bold';letter-spacing:0px;word-spacing:0px;fill:#ffffff;fill-opacity:1;stroke:none;stroke-width:1px;stroke-linecap:butt;stroke-linejoin:miter;stroke-opacity:1"
               d="m 165.60146,1374.1778 q 0,-1.6717 0.79223,-2.6922 0.79895,-1.0205 2.14844,-1.0205 1.19507,0 1.85974,0.8191 l 0.0806,-0.6849 1.75903,0 0,7.0227 q 0,0.9534 -0.4364,1.6584 -0.42969,0.7049 -1.21521,1.0742 -0.78552,0.3692 -1.8396,0.3692 -0.79895,0 -1.55762,-0.3222 -0.75866,-0.3156 -1.14807,-0.8191 l 0.85938,-1.1816 q 0.7251,0.8123 1.75903,0.8123 0.7721,0 1.20178,-0.4162 0.42969,-0.4096 0.42969,-1.1683 l 0,-0.3894 q -0.67139,0.7587 -1.76575,0.7587 -1.3092,0 -2.12158,-1.0205 -0.80566,-1.0272 -0.80566,-2.7191 l 0,-0.081 z m 1.9403,0.141 q 0,0.987 0.39612,1.5509 0.39612,0.5573 1.08765,0.5573 0.88623,0 1.26892,-0.6647 l 0,-3.0548 q -0.3894,-0.6647 -1.25549,-0.6647 -0.69824,0 -1.10108,0.5707 -0.39612,0.5707 -0.39612,1.7053 z" />
            <path
               id="path7332"
               style="font-style:normal;font-variant:normal;font-weight:bold;font-stretch:normal;font-size:medium;line-height:125%;font-family:Roboto;-inkscape-font-specification:'Roboto Bold';letter-spacing:0px;word-spacing:0px;fill:#ffffff;fill-opacity:1;stroke:none;stroke-width:1px;stroke-linecap:butt;stroke-linejoin:miter;stroke-opacity:1"
               d="m 177.06874,1377.998 q -1.5979,0 -2.60498,-0.9802 -1.00036,-0.9802 -1.00036,-2.6117 l 0,-0.188 q 0,-1.0943 0.42297,-1.9537 0.42297,-0.8661 1.19507,-1.3294 0.77881,-0.4699 1.77246,-0.4699 1.49048,0 2.34314,0.9399 0.85937,0.9399 0.85937,2.6654 l 0,0.7922 -4.62585,0 q 0.094,0.7117 0.56396,1.1414 0.47669,0.4297 1.20179,0.4297 1.12121,0 1.75232,-0.8124 l 0.95336,1.0675 q -0.4364,0.6177 -1.18164,0.9668 -0.74524,0.3424 -1.65161,0.3424 z m -0.22156,-5.9619 q -0.57739,0 -0.93994,0.3894 -0.35583,0.3894 -0.45654,1.1145 l 2.69898,0 0,-0.1544 q -0.0134,-0.6445 -0.34913,-0.9937 -0.33569,-0.3558 -0.95337,-0.3558 z" />
            <path
               id="path7334"
               style="font-style:normal;font-variant:normal;font-weight:bold;font-stretch:normal;font-size:medium;line-height:125%;font-family:Roboto;-inkscape-font-specification:'Roboto Bold';letter-spacing:0px;word-spacing:0px;fill:#ffffff;fill-opacity:1;stroke:none;stroke-width:1px;stroke-linecap:butt;stroke-linejoin:miter;stroke-opacity:1"
               d="m 185.07167,1375.8563 q 0,-0.3558 -0.35583,-0.5573 -0.34912,-0.2081 -1.12793,-0.3692 -2.59156,-0.5438 -2.59156,-2.2022 0,-0.9668 0.79896,-1.6113 0.80566,-0.6512 2.10144,-0.6512 1.38305,0 2.20886,0.6512 0.83252,0.6513 0.83252,1.6919 l -1.94031,0 q 0,-0.4163 -0.26856,-0.6848 -0.26855,-0.2753 -0.83923,-0.2753 -0.49011,0 -0.75867,0.2216 -0.26855,0.2215 -0.26855,0.5639 0,0.3223 0.30212,0.5237 0.30884,0.1947 1.03394,0.3424 0.7251,0.141 1.22192,0.3223 1.53748,0.564 1.53748,1.9537 0,0.9937 -0.85266,1.6114 -0.85266,0.6109 -2.20215,0.6109 -0.91309,0 -1.62476,-0.3223 -0.70495,-0.3289 -1.10778,-0.8929 -0.40284,-0.5707 -0.40284,-1.2286 l 1.8396,0 q 0.0269,0.5169 0.38269,0.7922 0.35584,0.2753 0.95337,0.2753 0.55725,0 0.83924,-0.2082 0.28869,-0.2148 0.28869,-0.5572 z" />
          </g>
        </g>
      </g>
    </g>
  </g>
</svg>
