<?xml version="1.0" encoding="UTF-8" standalone="no"?>
<svg
   xmlns:dc="http://purl.org/dc/elements/1.1/"
   xmlns:cc="http://creativecommons.org/ns#"
   xmlns:rdf="http://www.w3.org/1999/02/22-rdf-syntax-ns#"
   xmlns:svg="http://www.w3.org/2000/svg"
   xmlns="http://www.w3.org/2000/svg"
   version="1.1"
   id="svg4644"
   viewBox="0 0 114.39807 106.2079"
   height="29.97423mm"
   width="32.285679mm">
  <defs
     id="defs4646" />
  <metadata
     id="metadata4649">
    <rdf:RDF>
      <cc:Work
         rdf:about="">
        <dc:format>image/svg+xml</dc:format>
        <dc:type
           rdf:resource="http://purl.org/dc/dcmitype/StillImage" />
        <dc:title></dc:title>
      </cc:Work>
    </rdf:RDF>
  </metadata>
  <g
     transform="translate(-48.515251,-127.82968)"
     id="layer1">
    <g
       id="g5276">
      <rect
         ry="1.85243"
         y="209.96201"
         x="117.43307"
         height="20.532265"
         width="38.586494"
         id="rect5864"
         style="opacity:1;fill:#fdd872;fill-opacity:1;stroke:none;stroke-width:2.4000001;stroke-linecap:round;stroke-linejoin:round;stroke-miterlimit:4;stroke-dasharray:none;stroke-dashoffset:0;stroke-opacity:1" />
      <g
         transform="translate(-42.222977,-294.02906)"
         id="g5855">
        <path
           style="display:inline;fill:#aaaaaa;fill-opacity:1"
           d="m 152.12342,499.44141 c 1.7898,-0.2319 3.42464,-1.04301 4.71251,-2.33807 1.20037,-1.20707 1.95586,-2.6688 2.24284,-4.3395 0.0971,-0.56506 0.10694,-2.79739 0.10694,-24.17664 0,-21.37925 -0.01,-23.61158 -0.10694,-24.17664 -0.28385,-1.65247 -1.03231,-3.11244 -2.20465,-4.3005 -1.15063,-1.16605 -2.48215,-1.90522 -4.09011,-2.27053 l -0.65166,-0.14805 -18.4116,0 c -19.99811,0 -18.76659,-0.0227 -20.00109,0.36932 -1.23248,0.39141 -2.27243,1.03539 -3.24847,2.01157 -1.2057,1.20586 -1.96756,2.69254 -2.24594,4.38265 -0.0961,0.5833 -0.10562,1.51414 -0.0883,8.60153 l 0.0195,7.94745 0.21147,0.44643 c 0.2738,0.57799 0.75118,1.05531 1.32896,1.3288 0.40965,0.19389 0.50127,0.21132 1.11192,0.21147 0.63614,1.3e-4 0.68776,-0.0108 1.17037,-0.24924 0.58274,-0.28787 1.00347,-0.70984 1.29045,-1.29424 l 0.18513,-0.37698 0.0337,-7.91434 c 0.0373,-8.7532 0.006,-8.16301 0.46546,-8.87848 0.26279,-0.40952 0.64584,-0.72991 1.16118,-0.97126 l 0.39275,-0.18392 18.04733,-0.0175 18.04735,-0.0175 0.40342,0.14192 c 0.75556,0.2658 1.31259,0.80567 1.63216,1.58187 l 0.14996,0.36426 0,23.41187 0,23.41187 -0.15382,0.38095 c -0.29927,0.74115 -0.89972,1.32019 -1.63814,1.57973 -0.34722,0.12203 -0.85763,0.12552 -18.34158,0.12552 -17.48395,0 -17.99436,-0.004 -18.34158,-0.12552 -0.73937,-0.25987 -1.34121,-0.8408 -1.63661,-1.57973 -0.14965,-0.37435 -0.15288,-0.43655 -0.18694,-3.59305 l -0.0346,-3.21209 -0.21147,-0.44643 c -0.3878,-0.81864 -1.12054,-1.36916 -2.02962,-1.52488 -1.14928,-0.19687 -2.32979,0.43571 -2.84574,1.52488 l -0.21147,0.44643 -0.0204,3.21209 c -0.0133,2.09334 0.005,3.39664 0.0528,3.74193 0.24089,1.74444 1.04397,3.34093 2.31539,4.6029 1.17642,1.16769 2.41529,1.83684 4.1426,2.23756 0.4212,0.0977 2.13533,0.10862 18.74274,0.11926 10.36546,0.007 18.47598,-0.0138 18.73381,-0.0472 z m -5.97717,-14.78317 c 0.60436,-0.22253 0.9196,-0.67054 0.9196,-1.30691 0,-0.40584 -0.03,-0.47099 -0.91339,-1.98198 -1.74652,-2.98744 -3.34531,-5.23768 -4.74557,-6.67923 -1.14884,-1.18271 -1.91246,-1.66355 -2.72699,-1.71712 -0.63683,-0.0419 -1.04752,0.0992 -1.50437,0.5167 -0.74333,0.67936 -1.00869,1.78267 -1.23165,5.12091 -0.0337,0.50433 -0.0741,0.92979 -0.0898,0.94546 -0.0157,0.0157 -0.50079,-0.48636 -1.07803,-1.11564 -1.75084,-1.9087 -2.37887,-2.47031 -3.18362,-2.8469 -0.36814,-0.17227 -0.52269,-0.20685 -0.92455,-0.20685 -0.90738,0 -1.6017,0.48989 -2.04943,1.446 -0.31911,0.68148 -0.42922,1.16264 -0.47363,2.06965 -0.0219,0.44621 -0.0512,0.8113 -0.0652,0.8113 -0.014,0 -0.21084,-0.0796 -0.4374,-0.17683 -0.55099,-0.23652 -0.99058,-0.23533 -1.39859,0.004 -0.78488,0.45998 -0.8868,1.57765 -0.19652,2.15509 0.43963,0.36776 2.26014,1.11389 3.09066,1.26668 1.03368,0.19017 1.92659,-0.45054 2.01232,-1.44396 0.0227,-0.26376 -0.0199,-0.63293 -0.13874,-1.2008 -0.16729,-0.79934 -0.21398,-1.56455 -0.11145,-1.82676 0.045,-0.1151 0.104,-0.0761 0.51393,0.33954 0.25471,0.25827 1.05917,1.12146 1.78769,1.91821 1.34918,1.47552 1.77579,1.8633 2.38579,2.16866 0.99432,0.49775 2.05055,0.14833 2.53526,-0.83871 0.27442,-0.55881 0.37256,-1.13895 0.4953,-2.92784 0.12334,-1.79769 0.23275,-2.87574 0.30582,-3.01325 0.0414,-0.0778 0.12587,-0.0208 0.39217,0.26491 1.18195,1.26772 2.81882,3.5862 4.37178,6.19223 0.41242,0.69209 0.81901,1.36846 0.90352,1.50304 0.29814,0.47476 1.05104,0.7462 1.55504,0.56062 z m -25.83699,-1.84841 c -7e-5,-0.0456 -0.29474,-1.76326 -0.65478,-3.81717 l -0.6546,-3.73439 -9.51131,-9.5113 -9.511305,-9.51131 -2.84787,2.84787 -2.84786,2.84786 9.387915,9.38563 9.38792,9.38563 3.59245,1.09498 c 1.97584,0.60224 3.60755,1.09498 3.62602,1.09498 0.0185,0 0.0335,-0.0372 0.0334,-0.0828 z m 28.14739,-16.9049 0,-1.35769 -12.11986,0 -12.11987,0 0,1.35769 0,1.3577 12.11987,0 12.11986,0 0,-1.3577 z m 0,-5.36453 0,-1.35769 -14.80213,0 -14.80212,0 0,1.35769 0,1.35769 14.80212,0 14.80213,0 0,-1.35769 z m -0.0443,-4.05084 c 0.0244,-0.0244 0.0443,-0.63539 0.0443,-1.35784 l 0,-1.31353 -14.8035,0 -14.8035,0 0.0179,1.34113 0.0179,1.34113 14.74127,0.0167 c 8.1077,0.009 14.7612,-0.003 14.78557,-0.0276 z"
           id="path5836-4" />
        <rect
           style="opacity:1;fill:#ffffff;fill-opacity:1;stroke:none;stroke-width:2.4000001;stroke-linecap:round;stroke-linejoin:round;stroke-miterlimit:4;stroke-dasharray:none;stroke-dashoffset:0;stroke-opacity:1"
           id="rect5853"
           width="28.320364"
           height="50.268646"
           x="133.81372"
           y="452.3064"
           ry="1.85243" />
        <path
           style="fill:#ffd460;fill-opacity:1"
           d="m 143.75111,516.04855 c -1.7898,-0.2319 -3.42464,-1.04301 -4.71251,-2.33807 -1.20037,-1.20707 -1.95586,-2.6688 -2.24284,-4.3395 -0.0971,-0.56506 -0.10694,-2.79739 -0.10694,-24.17664 0,-21.37925 0.01,-23.61158 0.10694,-24.17664 0.28385,-1.65247 1.03231,-3.11244 2.20465,-4.3005 1.15063,-1.16605 2.48215,-1.90522 4.09011,-2.27053 l 0.65166,-0.14805 18.4116,0 c 19.99811,0 18.76659,-0.0227 20.00109,0.36932 1.23248,0.39141 2.27243,1.03539 3.24847,2.01157 1.2057,1.20586 1.96756,2.69254 2.24594,4.38265 0.0961,0.5833 0.10562,1.51414 0.0883,8.60153 l -0.0195,7.94745 -0.21147,0.44643 c -0.2738,0.57799 -0.75118,1.05531 -1.32896,1.3288 -0.40965,0.19389 -0.50127,0.21132 -1.11192,0.21147 -0.63614,1.3e-4 -0.68776,-0.0108 -1.17037,-0.24924 -0.58274,-0.28787 -1.00347,-0.70984 -1.29045,-1.29424 l -0.18513,-0.37698 -0.0337,-7.91434 c -0.0373,-8.7532 -0.006,-8.16301 -0.46546,-8.87848 -0.26279,-0.40952 -0.64584,-0.72991 -1.16118,-0.97126 l -0.39275,-0.18392 -18.04733,-0.0175 -18.04735,-0.0175 -0.40342,0.14192 c -0.75556,0.2658 -1.31259,0.80567 -1.63216,1.58187 l -0.14996,0.36426 0,23.41187 0,23.41187 0.15382,0.38095 c 0.29927,0.74115 0.89972,1.32019 1.63814,1.57973 0.34722,0.12203 0.85763,0.12552 18.34158,0.12552 17.48395,0 17.99436,-0.004 18.34158,-0.12552 0.73937,-0.25987 1.34121,-0.8408 1.63661,-1.57973 0.14965,-0.37435 0.15288,-0.43655 0.18694,-3.59305 l 0.0346,-3.21209 0.21147,-0.44643 c 0.3878,-0.81864 1.12054,-1.36916 2.02962,-1.52488 1.14928,-0.19687 2.32979,0.43571 2.84574,1.52488 l 0.21147,0.44643 0.0204,3.21209 c 0.0133,2.09334 -0.005,3.39664 -0.0528,3.74193 -0.24089,1.74444 -1.04397,3.34093 -2.31539,4.6029 -1.17642,1.16769 -2.41529,1.83684 -4.1426,2.23756 -0.4212,0.0977 -2.13533,0.10862 -18.74274,0.11926 -10.36546,0.007 -18.47598,-0.0138 -18.73381,-0.0472 z m 5.97717,-14.78317 c -0.60436,-0.22253 -0.9196,-0.67054 -0.9196,-1.30691 0,-0.40584 0.03,-0.47099 0.91339,-1.98198 1.74652,-2.98744 3.34531,-5.23768 4.74557,-6.67923 1.14884,-1.18271 1.91246,-1.66355 2.72699,-1.71712 0.63683,-0.0419 1.04752,0.0992 1.50437,0.5167 0.74333,0.67936 1.00869,1.78267 1.23165,5.12091 0.0337,0.50433 0.0741,0.92979 0.0898,0.94546 0.0157,0.0157 0.50079,-0.48636 1.07803,-1.11564 1.75084,-1.9087 2.37887,-2.47031 3.18362,-2.8469 0.36814,-0.17227 0.52269,-0.20685 0.92455,-0.20685 0.90738,0 1.6017,0.48989 2.04943,1.446 0.31911,0.68148 0.42922,1.16264 0.47363,2.06965 0.0219,0.44621 0.0512,0.8113 0.0652,0.8113 0.014,0 0.21084,-0.0796 0.4374,-0.17683 0.55099,-0.23652 0.99058,-0.23533 1.39859,0.004 0.78488,0.45998 0.8868,1.57765 0.19652,2.15509 -0.43963,0.36776 -2.26014,1.11389 -3.09066,1.26668 -1.03368,0.19017 -1.92659,-0.45054 -2.01232,-1.44396 -0.0227,-0.26376 0.0199,-0.63293 0.13874,-1.2008 0.16729,-0.79934 0.21398,-1.56455 0.11145,-1.82676 -0.045,-0.1151 -0.104,-0.0761 -0.51393,0.33954 -0.25471,0.25827 -1.05917,1.12146 -1.78769,1.91821 -1.34918,1.47552 -1.77579,1.8633 -2.38579,2.16866 -0.99432,0.49775 -2.05055,0.14833 -2.53526,-0.83871 -0.27442,-0.55881 -0.37256,-1.13895 -0.4953,-2.92784 -0.12334,-1.79769 -0.23275,-2.87574 -0.30582,-3.01325 -0.0414,-0.0778 -0.12587,-0.0208 -0.39217,0.26491 -1.18195,1.26772 -2.81882,3.5862 -4.37178,6.19223 -0.41242,0.69209 -0.81901,1.36846 -0.90352,1.50304 -0.29814,0.47476 -1.05104,0.7462 -1.55504,0.56062 z m 25.83699,-1.84841 c 7e-5,-0.0456 0.29474,-1.76326 0.65478,-3.81717 l 0.6546,-3.73439 9.51131,-9.5113 9.51131,-9.51131 2.84787,2.84787 2.84786,2.84786 -9.38792,9.38563 -9.38792,9.38563 -3.59245,1.09498 c -1.97584,0.60224 -3.60755,1.09498 -3.62602,1.09498 -0.0185,0 -0.0335,-0.0372 -0.0334,-0.0828 z m -28.14739,-16.9049 0,-1.35769 12.11986,0 12.11987,0 0,1.35769 0,1.3577 -12.11987,0 -12.11986,0 0,-1.3577 z m 0,-5.36453 0,-1.35769 14.80213,0 14.80212,0 0,1.35769 0,1.35769 -14.80212,0 -14.80213,0 0,-1.35769 z m 0.0443,-4.05084 c -0.0244,-0.0244 -0.0443,-0.63539 -0.0443,-1.35784 l 0,-1.31353 14.8035,0 14.8035,0 -0.0179,1.34113 -0.0179,1.34113 -14.74127,0.0167 c -8.1077,0.009 -14.7612,-0.003 -14.78557,-0.0276 z"
           id="path5836" />
      </g>
      <g
         style="font-style:normal;font-weight:normal;font-size:15.45767117px;line-height:125%;font-family:sans-serif;letter-spacing:0px;word-spacing:0px;fill:#ffffff;fill-opacity:1;stroke:none;stroke-width:1px;stroke-linecap:butt;stroke-linejoin:miter;stroke-opacity:1"
         id="text5860">
        <path
           d="m 131.26557,222.06224 q -0.12831,1.77371 -1.3133,2.79265 -1.17744,1.01893 -3.10965,1.01893 -2.11335,0 -3.32853,-1.41896 -1.20763,-1.42652 -1.20763,-3.90971 l 0,-0.67174 q 0,-1.58502 0.55853,-2.79265 0.55853,-1.20763 1.59256,-1.84918 1.04158,-0.6491 2.41526,-0.6491 1.90202,0 3.06436,1.01894 1.16235,1.01893 1.34349,2.86057 l -2.26431,0 q -0.083,-1.06422 -0.59626,-1.53973 -0.5057,-0.48305 -1.54728,-0.48305 -1.13215,0 -1.69823,0.81515 -0.55853,0.8076 -0.57362,2.51338 l 0,0.83025 q 0,1.78125 0.53588,2.60395 0.54344,0.8227 1.70578,0.8227 1.04913,0 1.56237,-0.47551 0.52079,-0.48305 0.59627,-1.48689 l 2.26431,0 z"
           style="font-style:normal;font-variant:normal;font-weight:bold;font-stretch:normal;font-family:Roboto;-inkscape-font-specification:'Roboto Bold';fill:#ffffff;fill-opacity:1"
           id="path5255" />
        <path
           d="m 132.72227,225.72287 0,-10.98944 3.38137,0 q 1.44915,0 2.58886,0.65665 1.14724,0.6491 1.7888,1.85673 0.64155,1.20009 0.64155,2.73227 l 0,0.50569 q 0,1.53218 -0.634,2.72472 -0.62646,1.19253 -1.77371,1.84918 -1.14725,0.65665 -2.58886,0.6642 l -3.40401,0 z m 2.26431,-9.15535 0,7.33636 1.09441,0 q 1.3284,0 2.03033,-0.86799 0.70194,-0.86798 0.71703,-2.48319 l 0,-0.58117 q 0,-1.67559 -0.69438,-2.53602 -0.69439,-0.86799 -2.03033,-0.86799 l -1.11706,0 z"
           style="font-style:normal;font-variant:normal;font-weight:bold;font-stretch:normal;font-family:Roboto;-inkscape-font-specification:'Roboto Bold';fill:#ffffff;fill-opacity:1"
           id="path5257" />
        <path
           d="m 142.7456,225.72287 0,-10.98944 3.38137,0 q 1.44916,0 2.58886,0.65665 1.14725,0.6491 1.7888,1.85673 0.64155,1.20009 0.64155,2.73227 l 0,0.50569 q 0,1.53218 -0.634,2.72472 -0.62646,1.19253 -1.77371,1.84918 -1.14725,0.65665 -2.58886,0.6642 l -3.40401,0 z m 2.26431,-9.15535 0,7.33636 1.09442,0 q 1.32839,0 2.03033,-0.86799 0.70193,-0.86798 0.71703,-2.48319 l 0,-0.58117 q 0,-1.67559 -0.69439,-2.53602 -0.69439,-0.86799 -2.03033,-0.86799 l -1.11706,0 z"
           style="font-style:normal;font-variant:normal;font-weight:bold;font-stretch:normal;font-family:Roboto;-inkscape-font-specification:'Roboto Bold';fill:#ffffff;fill-opacity:1"
           id="path5259" />
      </g>
      <rect
         ry="1.85243"
         y="131.37299"
         x="79.377586"
         height="20.532265"
         width="58.410748"
         id="rect5864-7"
         style="display:inline;opacity:1;fill:#aaaaaa;fill-opacity:1;stroke:none;stroke-width:2.4000001;stroke-linecap:round;stroke-linejoin:round;stroke-miterlimit:4;stroke-dasharray:none;stroke-dashoffset:0;stroke-opacity:1" />
      <g
         style="font-style:normal;font-weight:normal;font-size:15.45767117px;line-height:125%;font-family:sans-serif;letter-spacing:0px;word-spacing:0px;display:inline;fill:#ffffff;fill-opacity:1;stroke:none;stroke-width:1px;stroke-linecap:butt;stroke-linejoin:miter;stroke-opacity:1"
         id="text5860-1">
        <path
           d="m 86.741715,147.13385 -2.188831,0 0,-8.1666 2.188831,0 0,8.1666 z m -2.317141,-10.27996 q 0,-0.49059 0.32455,-0.8076 0.332099,-0.317 0.898176,-0.317 0.558529,0 0.890627,0.317 0.332099,0.31701 0.332099,0.8076 0,0.49815 -0.339647,0.81516 -0.332098,0.317 -0.883079,0.317 -0.550982,0 -0.890628,-0.317 -0.332098,-0.31701 -0.332098,-0.81516 z"
           style="font-style:normal;font-variant:normal;font-weight:bold;font-stretch:normal;font-family:Roboto;-inkscape-font-specification:'Roboto Bold';fill:#ffffff;fill-opacity:1"
           id="path5262" />
        <path
           d="m 90.553298,138.96725 0.06793,0.94346 q 0.875532,-1.09442 2.347332,-1.09442 1.298202,0 1.932209,0.76232 0.634006,0.76232 0.649101,2.2794 l 0,5.27584 -2.181283,0 0,-5.223 q 0,-0.69439 -0.301907,-1.00384 -0.301908,-0.31701 -1.003843,-0.31701 -0.920819,0 -1.381228,0.78496 l 0,5.75889 -2.181282,0 0,-8.1666 2.052971,0 z"
           style="font-style:normal;font-variant:normal;font-weight:bold;font-stretch:normal;font-family:Roboto;-inkscape-font-specification:'Roboto Bold';fill:#ffffff;fill-opacity:1"
           id="path5264" />
        <path
           d="m 99.791672,136.95956 0,2.00769 1.396328,0 0,1.60011 -1.396328,0 0,4.07575 q 0,0.45286 0.173597,0.6491 0.173601,0.19624 0.664201,0.19624 0.36229,0 0.64155,-0.0528 l 0,1.65294 q -0.64155,0.19624 -1.320846,0.19624 -2.294498,0 -2.339784,-2.31714 l 0,-4.4003 -1.192535,0 0,-1.60011 1.192535,0 0,-2.00769 2.181282,0 z"
           style="font-style:normal;font-variant:normal;font-weight:bold;font-stretch:normal;font-family:Roboto;-inkscape-font-specification:'Roboto Bold';fill:#ffffff;fill-opacity:1"
           id="path5266" />
        <path
           d="m 106.16192,147.2848 q -1.79635,0 -2.9285,-1.10196 -1.12461,-1.10196 -1.12461,-2.93605 l 0,-0.21134 q 0,-1.23027 0.47551,-2.19637 0.4755,-0.97366 1.34349,-1.49445 0.87553,-0.52834 1.99259,-0.52834 1.67559,0 2.63414,1.05668 0.96611,1.05668 0.96611,2.99643 l 0,0.89063 -5.20036,0 q 0.10566,0.80006 0.634,1.28311 0.53589,0.48305 1.35104,0.48305 1.26046,0 1.96995,-0.91327 l 1.07177,1.20008 q -0.4906,0.69439 -1.32839,1.08687 -0.8378,0.38493 -1.85674,0.38493 z m -0.24907,-6.70235 q -0.6491,0 -1.05668,0.43777 -0.40002,0.43777 -0.51324,1.25292 l 3.03417,0 0,-0.1736 q -0.0151,-0.72458 -0.39248,-1.11706 -0.37738,-0.40003 -1.07177,-0.40003 z m 0.19624,-5.04185 2.37752,0 -2.09071,2.33978 -1.77371,0 1.4869,-2.33978 z"
           style="font-style:normal;font-variant:normal;font-weight:bold;font-stretch:normal;font-family:Roboto;-inkscape-font-specification:'Roboto Bold';fill:#ffffff;fill-opacity:1"
           id="path5268" />
        <path
           d="m 115.32482,141.01267 q -0.44531,-0.0604 -0.78496,-0.0604 -1.23782,0 -1.62275,0.83779 l 0,5.34377 -2.18129,0 0,-8.1666 2.06052,0 0.0604,0.97365 q 0.65665,-1.12461 1.81899,-1.12461 0.36229,0 0.67929,0.0981 l -0.0302,2.09826 z"
           style="font-style:normal;font-variant:normal;font-weight:bold;font-stretch:normal;font-family:Roboto;-inkscape-font-specification:'Roboto Bold';fill:#ffffff;fill-opacity:1"
           id="path5270" />
        <path
           d="m 118.68354,147.13385 -2.18883,0 0,-8.1666 2.18883,0 0,8.1666 z m -2.31714,-10.27996 q 0,-0.49059 0.32455,-0.8076 0.3321,-0.317 0.89818,-0.317 0.55853,0 0.89062,0.317 0.3321,0.31701 0.3321,0.8076 0,0.49815 -0.33964,0.81516 -0.3321,0.317 -0.88308,0.317 -0.55098,0 -0.89063,-0.317 -0.3321,-0.31701 -0.3321,-0.81516 z"
           style="font-style:normal;font-variant:normal;font-weight:bold;font-stretch:normal;font-family:Roboto;-inkscape-font-specification:'Roboto Bold';fill:#ffffff;fill-opacity:1"
           id="path5272" />
        <path
           d="m 122.53286,138.96725 0.0679,0.91327 q 0.86799,-1.06423 2.34734,-1.06423 1.57746,0 2.16618,1.24537 0.86044,-1.24537 2.453,-1.24537 1.3284,0 1.9775,0.77742 0.6491,0.76986 0.6491,2.32469 l 0,5.21545 -2.18883,0 0,-5.20791 q 0,-0.69438 -0.27172,-1.01139 -0.27171,-0.32455 -0.95855,-0.32455 -0.9812,0 -1.35859,0.93592 l 0.008,5.60793 -2.18128,0 0,-5.20036 q 0,-0.70948 -0.27927,-1.02648 -0.27926,-0.31701 -0.95101,-0.31701 -0.92836,0 -1.34349,0.76987 l 0,5.77398 -2.18128,0 0,-8.1666 2.04542,0 z"
           style="font-style:normal;font-variant:normal;font-weight:bold;font-stretch:normal;font-family:Roboto;-inkscape-font-specification:'Roboto Bold';fill:#ffffff;fill-opacity:1"
           id="path5274" />
      </g>
    </g>
  </g>
</svg>
