<?xml version="1.0" encoding="UTF-8" standalone="no"?>
<svg
   xmlns:dc="http://purl.org/dc/elements/1.1/"
   xmlns:cc="http://creativecommons.org/ns#"
   xmlns:rdf="http://www.w3.org/1999/02/22-rdf-syntax-ns#"
   xmlns:svg="http://www.w3.org/2000/svg"
   xmlns="http://www.w3.org/2000/svg"
   version="1.1"
   id="svg4644"
   viewBox="0 0 136.91277 98.781316"
   height="27.878283mm"
   width="38.639828mm">
  <defs
     id="defs4646" />
  <metadata
     id="metadata4649">
    <rdf:RDF>
      <cc:Work
         rdf:about="">
        <dc:format>image/svg+xml</dc:format>
        <dc:type
           rdf:resource="http://purl.org/dc/dcmitype/StillImage" />
        <dc:title></dc:title>
      </cc:Work>
    </rdf:RDF>
  </metadata>
  <g
     transform="translate(22.089222,-118.3181)"
     id="layer1">
    <g
       id="text5662-49-8-5"
       style="font-style:normal;font-weight:normal;font-size:20.33613396px;line-height:80.00000119%;font-family:sans-serif;letter-spacing:0px;word-spacing:0px;display:inline;fill:#ffd460;fill-opacity:1;stroke:none;stroke-width:1px;stroke-linecap:butt;stroke-linejoin:miter;stroke-opacity:1">
      <g
         id="text5662-49-8-5-1"
         style="font-style:normal;font-weight:normal;font-size:20.33613396px;line-height:80.00000119%;font-family:sans-serif;letter-spacing:0px;word-spacing:0px;display:inline;fill:#aaaaaa;fill-opacity:1;stroke:none;stroke-width:1px;stroke-linecap:butt;stroke-linejoin:miter;stroke-opacity:1">
        <g
           transform="matrix(1.0778728,0,0,1.0778728,-698.88052,-846.71705)"
           id="g6606"
           style="display:inline">
          <path
             style="fill:#aaaaaa;fill-opacity:1"
             d="m 657.84295,968.18001 0,-1.6275 35.19607,0 35.19607,0 0,1.6275 0,1.6276 -35.19607,0 -35.19607,0 0,-1.6276 z m 8.16735,-6.36163 c -0.81948,-1.04183 -0.84332,-1.50812 -0.84332,-16.49758 l 0,-15.42547 1.03771,-1.03779 c 0.80749,-0.80739 1.2814,-0.97794 2.13618,-0.7684 2.39092,0.58584 2.31914,0.049 2.31914,17.35549 l 0,15.89017 -0.96058,0.77785 c -1.33871,1.084 -2.68973,0.97623 -3.68913,-0.29427 z m 9.6792,0.29427 -0.96057,-0.77785 0,-15.89017 c 0,-17.30681 -0.0718,-16.76965 2.31914,-17.35549 0.85478,-0.20954 1.32869,-0.0392 2.13618,0.7684 l 1.0377,1.03779 0,15.42547 c 0,14.98946 -0.0238,15.45575 -0.84331,16.49758 -0.99939,1.2705 -2.35043,1.37827 -3.68914,0.29427 z m 9.41514,-0.0356 c -0.78591,-0.78594 -0.81378,-1.35633 -0.81378,-16.65355 0,-13.56484 0.088,-15.92768 0.61275,-16.45233 1.09154,-1.09161 2.2581,-1.21496 3.40333,-0.36011 l 1.07006,0.79881 0.10642,15.92192 c 0.10349,15.48371 0.0839,15.94448 -0.71206,16.74048 -1.04472,1.04477 -2.6247,1.04673 -3.66674,0 z m 9.42942,-0.12801 c -0.8765,-0.93295 -0.8847,-1.08597 -0.8847,-16.49758 l 0,-15.55581 1.03769,-1.03778 c 0.80751,-0.80739 1.2814,-0.97794 2.13618,-0.7684 2.39094,0.58583 2.31916,0.049 2.31916,17.35549 l 0,15.89017 -0.96059,0.77784 c -1.28323,1.03913 -2.57197,0.98114 -3.64774,-0.16393 z m 9.45868,-0.0711 -1.01258,-1.01253 0.11562,-15.65585 c 0.12565,-17.02261 0.0567,-16.53756 2.43471,-17.12033 0.85478,-0.20954 1.32868,-0.0392 2.13617,0.76841 l 1.03771,1.03778 0,15.42547 c 0,14.98946 -0.0239,15.45575 -0.84332,16.49758 -1.07075,1.36123 -2.54387,1.38391 -3.86826,0.0589 z m 9.59428,0.19887 c -0.78591,-0.78593 -0.81378,-1.35632 -0.81378,-16.65354 0,-13.56485 0.088,-15.92769 0.61273,-16.45234 1.09154,-1.09161 2.25811,-1.21495 3.40335,-0.36011 l 1.07005,0.79881 0.10643,15.92193 c 0.10348,15.48371 0.0839,15.94448 -0.71206,16.74047 -1.04472,1.04477 -2.62471,1.04673 -3.66673,0 z m -55.69968,-36.87909 c -0.80801,-0.56585 -0.91753,-0.91124 -0.73067,-2.30435 0.1209,-0.90119 0.56626,-2.11223 0.98972,-2.69107 1.2425,-1.69854 30.58124,-21.60048 31.84252,-21.60048 0.61714,0 2.27362,0.8262 3.89316,1.94185 1.55044,1.06795 7.03029,4.658 12.17745,7.97783 9.29299,5.99372 18.8499,12.61031 19.42282,13.44689 0.52036,0.75982 0.33578,2.592 -0.328,3.25569 -0.5707,0.57076 -4.16724,0.63942 -33.47797,0.63942 -29.74571,0 -32.92808,-0.0625 -33.78903,-0.66578 z"
             id="path6510" />
          <g
             id="g6594"
             transform="translate(4.3771106,60.654248)">
            <g
               transform="translate(-15.537918,-6.8783168)"
               id="g6535">
              <circle
                 style="display:inline;opacity:1;fill:#3db39e;fill-opacity:1;stroke:none;stroke-width:0.5;stroke-linecap:round;stroke-linejoin:round;stroke-miterlimit:4;stroke-dasharray:0.5, 1;stroke-dashoffset:0;stroke-opacity:1"
                 id="path6518-6"
                 cx="702.56677"
                 cy="913.62128"
                 r="16.274668" />
              <path
                 style="fill:#ffffff"
                 d="m 693.97571,922.42251 c -0.62168,-0.37898 -0.65847,-0.69346 -0.61691,-5.27379 0.036,-3.96588 0.047,-4.13542 0.29016,-4.46293 0.47528,-0.63997 0.6327,-0.65299 7.45863,-0.61578 7.75148,0.042 7.18016,-0.11925 7.30067,2.06418 l 0.0654,1.18547 1.32682,-1.2141 c 1.38574,-1.26819 1.69693,-1.44521 2.21825,-1.26198 l 0.31476,0.11076 0.0317,4.29935 0.0317,4.29934 -0.31933,0.25117 c -0.64531,0.50755 -1.0018,0.33431 -2.40402,-1.16834 -0.57144,-0.61243 -1.08875,-1.11351 -1.14956,-1.11351 -0.0609,0 -0.11057,0.52107 -0.11057,1.15802 0,1.156 -6.6e-4,1.15852 -0.41011,1.56806 l -0.41011,0.41005 -6.61601,0 c -6.34491,0 -6.63179,-0.0101 -7.00144,-0.23547 z m 1.19623,-11.03136 c -1.4406,-0.46916 -2.43813,-1.83224 -2.43532,-3.32767 0.003,-1.33503 0.70188,-2.43225 1.9864,-3.11631 0.53744,-0.28627 0.73443,-0.3212 1.8093,-0.3212 1.07445,0 1.27291,0.0353 1.81695,0.32221 0.64977,0.34287 1.34711,1.03508 1.70331,1.69084 0.32891,0.60537 0.30387,2.28663 -0.0437,2.93223 -0.33328,0.61906 -1.03812,1.287 -1.72762,1.63717 -0.67878,0.34464 -2.31644,0.44087 -3.10936,0.18273 z m 2.72797,-1.60593 c 1.34642,-0.83925 1.31585,-2.68208 -0.0579,-3.48714 -1.5891,-0.93128 -3.70822,0.0772 -3.70822,1.7654 0,1.73786 2.15766,2.72431 3.76607,1.72174 z m 5.55386,1.60971 c -2.12829,-0.76056 -3.08616,-2.88126 -2.14872,-4.75726 0.71544,-1.43177 1.97418,-2.13254 3.67565,-2.04647 1.14242,0.058 1.84053,0.34808 2.59324,1.07858 0.69065,0.6702 1.0044,1.418 1.0044,2.3937 0,2.0206 -1.62387,3.50604 -3.81823,3.49268 -0.47848,-0.008 -1.06634,-0.0756 -1.30634,-0.16123 z m 2.10278,-1.30656 c 0.65536,-0.19634 1.34615,-0.87653 1.53585,-1.51231 0.47686,-1.59804 -1.2615,-3.03712 -3.04307,-2.51924 -1.00338,0.29173 -1.66695,1.08974 -1.66695,2.00473 0,0.58371 0.20415,1.01836 0.69936,1.48904 0.6486,0.61646 1.55484,0.81338 2.47481,0.53778 z"
                 id="path6514" />
            </g>
            <g
               transform="translate(0.62530153,-24.937174)"
               id="g6562">
              <g
                 id="g6558"
                 transform="translate(10.004824,-13.756634)">
                <circle
                   r="16.274668"
                   cy="945.43677"
                   cx="632.45007"
                   id="path6518"
                   style="opacity:1;fill:#3db39e;fill-opacity:1;stroke:none;stroke-width:0.5;stroke-linecap:round;stroke-linejoin:round;stroke-miterlimit:4;stroke-dasharray:0.5, 1;stroke-dashoffset:0;stroke-opacity:1" />
                <path
                   id="path6512"
                   d="m 633.53502,957.43956 c -0.81225,-0.072 -1.2197,-0.2498 -1.76965,-0.7702 -0.9044,-0.8557 -1.52265,-2.055 -1.82338,-3.537 -0.0947,-0.4666 -0.10763,-0.6783 -0.10764,-1.7597 -2e-5,-1.2831 0.0305,-1.6115 0.24846,-2.6755 0.39836,-1.9443 0.89917,-3.3121 2.40469,-6.5671 0.17514,-0.3786 0.36327,-0.5428 0.62236,-0.5431 0.1755,-2e-4 2.80895,0.7364 3.7204,1.0406 1.75433,0.5857 2.95766,1.1864 4.53909,2.2659 1.00038,0.6829 2.94901,2.141 3.03342,2.2698 0.1155,0.1763 0.0982,0.4992 -0.0412,0.7709 -0.33881,0.66 -1.07413,2.026 -1.31897,2.4502 -2.26386,3.9232 -4.85649,6.2729 -7.63843,6.9231 -0.48416,0.1131 -1.37616,0.1762 -1.8691,0.1321 z m 1.66469,-2.7627 c 0.68335,-0.1438 1.48661,-0.5308 2.20303,-1.0616 0.5354,-0.3965 0.53486,-0.401 -0.0388,-0.3246 -0.33062,0.044 -0.75172,0.057 -1.28684,0.04 -1.11255,-0.036 -1.56236,-0.1474 -2.17922,-0.5416 -0.58598,-0.3745 -1.32406,-1.2188 -1.88111,-2.1519 -0.0988,-0.1655 -0.2006,-0.3335 -0.22614,-0.3733 -0.0739,-0.115 -0.0603,0.8214 0.0201,1.3871 0.10233,0.7198 0.19391,1.0368 0.45578,1.5776 0.57731,1.1922 1.64485,1.7193 2.93327,1.4482 z m 5.12131,-3.642 c 0.14079,-0.027 0.26532,-0.058 0.27672,-0.069 0.0636,-0.063 -0.43766,-0.8115 -0.76058,-1.135 -0.58729,-0.5884 -1.19024,-0.8075 -2.07288,-0.7535 -0.57488,0.035 -0.75233,0.083 -0.73195,0.1957 0.0325,0.1806 0.43253,0.7749 0.71198,1.0579 0.31976,0.3238 0.72819,0.5674 1.13414,0.6766 0.30502,0.082 1.07772,0.097 1.44257,0.028 z m -4.87186,-2.3649 c 0.17166,-0.028 0.32035,-0.059 0.33042,-0.069 0.01,-0.01 -0.0653,-0.1764 -0.16751,-0.3696 -0.24538,-0.4641 -0.84618,-1.0756 -1.24273,-1.2649 -0.44728,-0.2136 -1.0094,-0.2937 -1.59271,-0.227 -0.2642,0.03 -0.49999,0.075 -0.52398,0.099 -0.053,0.053 0.19034,0.4954 0.48655,0.8843 0.21341,0.2802 0.56638,0.576 0.87934,0.7371 0.46582,0.2397 1.15916,0.3194 1.83062,0.2105 z m -7.34995,-0.049 c -1.96268,-0.6643 -3.88107,-2.4283 -5.37946,-4.9464 -0.6826,-1.1472 -1.37673,-2.6225 -1.92345,-4.0881 -0.13847,-0.3711 -0.34711,-0.917 -0.46365,-1.213 -0.2693,-0.6838 -0.28026,-0.9109 -0.0552,-1.1443 0.21421,-0.2221 2.66968,-1.692 3.67574,-2.2004 1.87787,-0.9489 3.05603,-1.2582 6.6917,-1.7569 l 1.63004,-0.2236 0.1777,0.092 c 0.22448,0.1165 0.32528,0.2899 0.49089,0.8449 0.0727,0.2437 0.2536,0.8335 0.402,1.3107 0.31486,1.0127 0.60601,2.1818 0.78029,3.1335 0.12713,0.6942 0.29098,1.9897 0.25606,2.0246 -0.0108,0.011 -0.1647,-0.033 -0.34199,-0.097 -0.89982,-0.3266 -1.61811,-0.2282 -2.20839,0.3025 -0.33979,0.3055 -0.48575,0.5372 -0.83704,1.3287 -0.1692,0.3812 -0.374,0.8246 -0.45511,0.9852 l -0.14748,0.2922 -0.47616,-0.026 c -0.5599,-0.031 -0.85274,0.025 -1.3347,0.2547 -0.81401,0.388 -1.41072,1.2118 -1.76221,2.4331 -0.0787,0.2733 -0.15575,0.618 -0.17134,0.766 l -0.0283,0.2692 0.20488,-0.2411 c 0.84723,-0.9966 1.95511,-1.8201 2.71383,-2.0171 0.26176,-0.068 0.28013,-0.067 0.25671,0.01 -0.0139,0.045 -0.14773,0.4282 -0.29746,0.8524 -0.34087,0.9657 -0.52339,1.5926 -0.72215,2.4803 -0.0858,0.3831 -0.17537,0.7027 -0.19906,0.71 -0.0237,0.01 -0.23817,-0.053 -0.47663,-0.1335 z m -3.08551,-6.3351 c 0.76845,-0.1614 1.31731,-0.577 1.6801,-1.2723 0.13535,-0.2595 0.36867,-0.9433 0.36867,-1.0806 0,-0.053 -0.98365,-0.038 -1.26305,0.019 -0.1405,0.029 -0.41366,0.1296 -0.60703,0.2237 -0.43258,0.2106 -0.79576,0.5916 -1.03873,1.0897 -0.19249,0.3946 -0.34621,0.9092 -0.30428,1.0185 0.038,0.099 0.69664,0.1 1.16432,0 z m 6.04674,-2.3407 c 0.1706,-0.028 0.42007,-0.096 0.55437,-0.1523 0.30914,-0.1291 0.82845,-0.4676 1.01085,-0.6588 l 0.13999,-0.1468 -0.11588,-0.097 c -0.48009,-0.4031 -1.15456,-0.7114 -1.6596,-0.7585 -0.4036,-0.038 -0.92713,0.084 -1.33404,0.3111 -0.36494,0.2033 -0.87326,0.6227 -0.83324,0.6874 0.057,0.092 0.8329,0.575 1.08075,0.6725 0.14418,0.057 0.3828,0.1208 0.53027,0.1426 0.14748,0.022 0.27898,0.042 0.29224,0.045 0.0132,0 0.16369,-0.017 0.33429,-0.045 z"
                   style="fill:#ffffff" />
              </g>
              <g
                 id="g6554"
                 transform="translate(25.637363,-67.315899)">
                <circle
                   r="16.274668"
                   cy="998.99603"
                   cx="704.71484"
                   id="path6518-4"
                   style="display:inline;opacity:1;fill:#3db39e;fill-opacity:1;stroke:none;stroke-width:0.5;stroke-linecap:round;stroke-linejoin:round;stroke-miterlimit:4;stroke-dasharray:0.5, 1;stroke-dashoffset:0;stroke-opacity:1" />
                <path
                   id="path6516"
                   d="m 698.63739,1008.4581 c -3.20167,-1.0125 -5.50142,-4.2709 -5.82258,-8.2495 -0.39273,-4.8651 3.0785,-9.497 7.98365,-10.6531 3.31046,-0.7803 6.69404,0.2514 9.29561,2.8344 1.29384,1.2846 1.35683,1.3226 1.35683,0.8202 0,-0.8258 0.68579,-1.4989 2.32329,-2.2802 0.83127,-0.3967 1.6564,-0.8263 1.83361,-0.9547 0.47563,-0.3446 0.69974,-0.015 0.93119,1.37 0.14734,0.8817 0.14201,1.4026 -0.0204,1.9915 -0.232,0.8412 -1.1969,2.1019 -1.60872,2.1019 -0.33642,0 -1.96252,2.8233 -1.96252,3.4074 0,1.1563 -1.06099,2.7228 -2.25754,3.3333 -0.4037,0.2059 -1.28284,1.0452 -2.02283,1.9312 -1.44047,1.7246 -2.49762,2.6486 -3.24475,2.8362 -0.39486,0.099 -0.55043,0.028 -0.81392,-0.3746 -0.30994,-0.4731 -0.30958,-0.5487 0.007,-1.5597 0.18325,-0.5844 0.53349,-1.4597 0.77829,-1.9449 0.2448,-0.4853 0.44509,-0.9693 0.44509,-1.0756 0,-0.3701 -0.95543,-0.1901 -1.41143,0.2658 -0.40099,0.401 -0.45915,0.6269 -0.45915,1.7831 0,1.5544 -0.27105,2.2991 -1.2185,3.3478 -0.48794,0.5402 -0.97499,0.8514 -1.64213,1.0495 -1.12033,0.3327 -1.47274,0.3356 -2.47054,0.02 z m 10.65588,-7.1271 c 1.46407,-1.9436 3.56587,-5.0707 3.77566,-5.6174 0.056,-0.146 -0.13278,-0.3679 -0.45445,-0.5342 l -0.55026,-0.2846 -1.2962,1.8152 c -2.20578,3.0888 -3.86383,5.867 -4.65568,7.801 l -0.30637,0.7482 0.96869,-0.9353 c 0.53277,-0.5144 1.66615,-1.8613 2.51861,-2.9929 z m -11.27854,1.4674 c 0.54566,-0.4938 0.45761,-1.63 -0.16424,-2.1191 -0.62085,-0.4884 -1.27494,-0.3809 -1.89235,0.3109 -0.47648,0.5339 -0.43846,1.1886 0.104,1.7904 0.37686,0.4183 1.49884,0.4285 1.95259,0.018 z m 0.25705,-5.3872 c 0.25253,-0.2525 0.45914,-0.6772 0.45914,-0.9438 0,-0.6236 -0.77926,-1.4029 -1.40294,-1.4029 -0.62367,0 -1.40294,0.7793 -1.40294,1.4029 0,0.6237 0.77927,1.4029 1.40294,1.4029 0.26656,0 0.69127,-0.2066 0.9438,-0.4591 z m 9.67177,-1.9939 c 0.71738,-0.864 0.0598,-2.2234 -1.07558,-2.2234 -0.45516,0 -0.73406,0.1354 -1.01525,0.4929 -0.51972,0.6607 -0.48853,1.2938 0.0924,1.8748 0.38722,0.3872 0.59521,0.4577 1.07559,0.365 0.32754,-0.063 0.74285,-0.2924 0.92289,-0.5093 z m -5.29798,-1.2198 c 0.53131,-0.6754 0.48692,-1.1202 -0.17819,-1.7853 -0.45801,-0.4581 -0.66304,-0.5417 -1.07558,-0.4387 -0.77417,0.1932 -1.16441,0.6433 -1.16441,1.3429 0,1.3126 1.61568,1.9013 2.41818,0.8811 z"
                   style="fill:#ffffff" />
              </g>
            </g>
          </g>
        </g>
      </g>
    </g>
  </g>
</svg>
