<?xml version="1.0" encoding="UTF-8" standalone="no"?>
<svg
   xmlns:dc="http://purl.org/dc/elements/1.1/"
   xmlns:cc="http://creativecommons.org/ns#"
   xmlns:rdf="http://www.w3.org/1999/02/22-rdf-syntax-ns#"
   xmlns:svg="http://www.w3.org/2000/svg"
   xmlns="http://www.w3.org/2000/svg"
   version="1.1"
   id="svg4644"
   viewBox="0 0 54.486218 56.279915"
   height="15.883443mm"
   width="15.377222mm">
  <defs
     id="defs4646" />
  <metadata
     id="metadata4649">
    <rdf:RDF>
      <cc:Work
         rdf:about="">
        <dc:format>image/svg+xml</dc:format>
        <dc:type
           rdf:resource="http://purl.org/dc/dcmitype/StillImage" />
        <dc:title></dc:title>
      </cc:Work>
    </rdf:RDF>
  </metadata>
  <g
     transform="translate(-53.329927,-126.06512)"
     id="layer1">
    <g
       id="text5662-49-8-5"
       style="font-style:normal;font-weight:normal;font-size:20.33613396px;line-height:80.00000119%;font-family:sans-serif;letter-spacing:0px;word-spacing:0px;display:inline;fill:#ffd460;fill-opacity:1;stroke:none;stroke-width:1px;stroke-linecap:butt;stroke-linejoin:miter;stroke-opacity:1">
      <g
         id="text5662-49-8-5-1"
         style="font-style:normal;font-weight:normal;font-size:20.33613396px;line-height:80.00000119%;font-family:sans-serif;letter-spacing:0px;word-spacing:0px;display:inline;fill:#aaaaaa;fill-opacity:1;stroke:none;stroke-width:1px;stroke-linecap:butt;stroke-linejoin:miter;stroke-opacity:1">
        <path
           id="path5652"
           d="m 57.348835,178.32883 c -0.46578,-0.46579 -0.47289,-0.52319 -0.47289,-3.81961 0,-4.41661 -0.25019,-4.15564 4.05298,-4.22772 l 3.17176,-0.0531 0.0963,-13.77517 0.0963,-13.77517 0.63727,-1.82624 c 0.76282,-2.18608 1.45031,-3.42845 2.9221,-5.28054 1.99497,-2.51045 4.90232,-4.43996 8.19288,-5.43731 1.5454,-0.4684 2.03768,-0.52554 4.5275,-0.52554 2.49092,0 2.98064,0.0569 4.52033,0.52523 5.33158,1.62172 9.28826,5.4328 11.12343,10.71414 l 0.63599,1.83026 0.0963,13.77517 0.0963,13.77517 3.171755,0.0531 c 4.30317,0.0721 4.05298,-0.18889 4.05298,4.22772 0,3.29642 -0.007,3.35382 -0.47289,3.81961 l -0.47289,0.4729 -22.751365,0 -22.75136,0 -0.47289,-0.4729 z m 36.85312,-21.34582 c -0.0608,-12.08037 -0.0995,-13.45097 -0.4084,-14.49765 -1.37479,-4.65764 -4.90538,-8.25663 -9.4636,-9.64691 -1.78686,-0.545 -5.90714,-0.51104 -7.70639,0.0635 -2.20955,0.70558 -4.07285,1.85664 -5.68346,3.511 -2.20812,2.26809 -3.35556,4.51396 -3.84067,7.51735 -0.12628,0.7818 -0.20282,5.97528 -0.20373,13.82334 l -0.002,12.57105 13.68745,0 13.68745,0 -0.0672,-13.34169 z m -22.5963,10.55688 c -0.56725,-0.56726 -0.60538,-1.2474 -0.10459,-1.86585 l 0.36829,-0.45483 8.70373,0 8.70373,0 0.3683,0.45483 c 0.50079,0.61845 0.46266,1.29859 -0.10459,1.86585 l -0.4729,0.47289 -8.49454,0 -8.49454,0 -0.47289,-0.47289 z m 0.58696,-4.74164 c -1.10417,-0.32921 -1.42295,-1.5056 -0.61395,-2.26562 0.44403,-0.41714 0.48189,-0.4189 9.02142,-0.4189 l 8.57553,0 0.41889,0.4459 c 0.5117,0.54468 0.54071,1.3589 0.0653,1.83425 -0.32131,0.32132 -0.88632,0.36523 -6.19649,0.48165 -7.39762,0.16218 -10.53987,0.14063 -11.27075,-0.0773 z m -0.58696,-5.46933 c -0.56725,-0.56725 -0.60538,-1.2474 -0.10459,-1.86585 l 0.36829,-0.45483 8.70373,0 8.70373,0 0.3683,0.45483 c 0.50079,0.61845 0.46266,1.2986 -0.10459,1.86585 l -0.4729,0.4729 -8.49454,0 -8.49454,0 -0.47289,-0.4729 z m 7.93767,-6.62253 c -0.27383,-0.30257 -0.31885,-0.88467 -0.31885,-4.12241 l 0,-3.77009 -1.65465,-0.068 c -1.46255,-0.06 -1.6974,-0.12075 -2.02293,-0.52276 -0.46854,-0.57862 -0.46854,-1.20893 0,-1.78755 0.32553,-0.40201 0.56038,-0.46269 2.02293,-0.52276 l 1.65465,-0.068 0,-1.89285 c 0,-1.8154 0.0208,-1.90918 0.50763,-2.29215 0.64038,-0.50373 1.04158,-0.50373 1.68197,0 0.48686,0.38297 0.50763,0.47675 0.50763,2.29215 l 0,1.89285 1.65464,0.068 c 1.46256,0.0601 1.6974,0.12075 2.02293,0.52276 0.20256,0.25015 0.36828,0.65234 0.36828,0.89378 0,0.24142 -0.16572,0.64362 -0.36828,0.89377 -0.32553,0.40201 -0.56037,0.4627 -2.02293,0.52276 l -1.65464,0.068 0,3.80357 c 0,3.44015 -0.0337,3.83403 -0.35233,4.12241 -0.47614,0.4309 -1.62295,0.41195 -2.02605,-0.0335 z"
           style="display:inline;fill:#3db39e;fill-opacity:1" />
      </g>
    </g>
  </g>
</svg>
