<?xml version="1.0" encoding="UTF-8" standalone="no"?>
<svg
   xmlns:dc="http://purl.org/dc/elements/1.1/"
   xmlns:cc="http://creativecommons.org/ns#"
   xmlns:rdf="http://www.w3.org/1999/02/22-rdf-syntax-ns#"
   xmlns:svg="http://www.w3.org/2000/svg"
   xmlns="http://www.w3.org/2000/svg"
   version="1.1"
   id="svg4644"
   viewBox="0 0 92.551214 65.676575"
   height="18.535389mm"
   width="26.12001mm">
  <defs
     id="defs4646" />
  <metadata
     id="metadata4649">
    <rdf:RDF>
      <cc:Work
         rdf:about="">
        <dc:format>image/svg+xml</dc:format>
        <dc:type
           rdf:resource="http://purl.org/dc/dcmitype/StillImage" />
        <dc:title></dc:title>
      </cc:Work>
    </rdf:RDF>
  </metadata>
  <g
     transform="translate(-37.348934,-123.02004)"
     id="layer1">
    <g
       id="text5662-49-8-5"
       style="font-style:normal;font-weight:normal;font-size:20.33613396px;line-height:80.00000119%;font-family:sans-serif;letter-spacing:0px;word-spacing:0px;display:inline;fill:#ffd460;fill-opacity:1;stroke:none;stroke-width:1px;stroke-linecap:butt;stroke-linejoin:miter;stroke-opacity:1">
      <g
         id="text5662-49-8-5-1"
         style="font-style:normal;font-weight:normal;font-size:20.33613396px;line-height:80.00000119%;font-family:sans-serif;letter-spacing:0px;word-spacing:0px;display:inline;fill:#aaaaaa;fill-opacity:1;stroke:none;stroke-width:1px;stroke-linecap:butt;stroke-linejoin:miter;stroke-opacity:1">
        <path
           id="path5768"
           d="m 40.892239,181.98179 0,-3.17154 2.50385,0 2.50384,0 0,-18.55413 0,-18.55414 0.97586,-0.97585 0.97585,-0.97586 8.70568,0 8.70568,0 0,19.00191 c 0,10.45106 0.0912,19.23956 0.20264,19.53 0.12016,0.31314 0.59573,0.52807 1.16846,0.52807 l 0.96582,0 0,-25.18676 0,-25.18675 0.80571,-0.9367 0.80571,-0.93669 14.41319,0 14.413192,0 0.80571,0.93669 0.80571,0.9367 0,25.18675 0,25.18676 0.965819,0 c 0.57273,0 1.04829,-0.21493 1.16846,-0.52807 0.11145,-0.29044 0.20264,-9.07894 0.20264,-19.53 l 0,-19.00191 8.93036,0.0106 c 9.3727,0.0111 9.57281,0.0411 10.37818,1.55321 0.28173,0.52899 0.38839,5.77668 0.38839,19.11268 l 0,18.38348 2.33692,0 2.33693,0 0,3.17154 0,3.17153 -42.732311,0 -42.73229,0 0,-3.17153 z m 49.409212,-11.35077 0,-7.84538 -6.343082,0 -6.34307,0 0,7.84538 0,7.84538 6.34307,0 6.343082,0 0,-7.84538 z m -35.387682,-6.34307 0,-2.17 -2.17,0 -2.17,0 0,2.17 0,2.17 2.17,0 2.17,0 0,-2.17 z m 6.67692,0 0,-2.17 -2.17,0 -2.17,0 0,2.17 0,2.17 2.17,0 2.17,0 0,-2.17 z m 49.409191,0 0,-2.17 -2.16998,0 -2.17,0 0,2.17 0,2.17 2.17,0 2.16998,0 0,-2.17 z m 6.67693,0 0,-2.17 -2.17,0 -2.17,0 0,2.17 0,2.17 2.17,0 2.17,0 0,-2.17 z m -62.763041,-7.67846 0,-2.17 -2.17,0 -2.17,0 0,2.17 0,2.17 2.17,0 2.17,0 0,-2.17 z m 6.67692,-0.0159 0,-2.18593 -2.08654,0.0994 -2.08653,0.0994 -0.0994,2.08654 -0.0994,2.08654 2.18593,0 2.18593,0 0,-2.18593 z m 49.409191,0.0159 0,-2.17 -2.16998,0 -2.17,0 0,2.17 0,2.17 2.17,0 2.16998,0 0,-2.17 z m 6.67693,-0.0159 0,-2.18593 -2.08654,0.0994 -2.08654,0.0994 -0.0994,2.08654 -0.0994,2.08654 2.18592,0 2.18593,0 0,-2.18593 z m -62.763041,-7.32869 0,-2.17 -2.17,0 -2.17,0 0,2.17 0,2.17 2.17,0 2.17,0 0,-2.17 z m 6.67692,-0.0159 0,-2.18593 -2.08654,0.0994 -2.08653,0.0994 -0.0994,2.08654 -0.0994,2.08653 2.18593,0 2.18593,0 0,-2.18593 z m 49.409191,0.0159 0,-2.17 -2.16998,0 -2.17,0 0,2.17 0,2.17 2.17,0 2.16998,0 0,-2.17 z m 6.67693,-0.0159 0,-2.18593 -2.08654,0.0994 -2.08654,0.0994 -0.0994,2.08654 -0.0994,2.08653 2.18592,0 2.18593,0 0,-2.18593 z m -30.161851,-0.86651 c 5.167052,-1.93324 8.071322,-8.25882 6.140112,-13.37332 -2.8578,-7.56842 -12.541852,-9.46725 -17.898392,-3.50949 -3.88477,4.3208 -3.66236,10.42035 0.53347,14.63051 2.84017,2.84986 7.25827,3.73637 11.22481,2.2523 z m -6.5612,-5.29371 0,-2.00307 -2.00308,0 -2.00307,0 0,-2.67077 0,-2.67077 2.00307,0 2.00308,0 0,-2.00307 0,-2.00308 2.67077,0 2.67077,0 0,2.00308 0,2.00307 2.00307,0 2.003082,0 0,2.67077 0,2.67077 -2.003082,0 -2.00307,0 0,2.00307 0,2.00308 -2.67077,0 -2.67077,0 0,-2.00308 z"
           style="display:inline;fill:#3db39e;fill-opacity:1" />
      </g>
    </g>
  </g>
</svg>
