<?xml version="1.0" encoding="UTF-8" standalone="no"?>
<svg
   xmlns:dc="http://purl.org/dc/elements/1.1/"
   xmlns:cc="http://creativecommons.org/ns#"
   xmlns:rdf="http://www.w3.org/1999/02/22-rdf-syntax-ns#"
   xmlns:svg="http://www.w3.org/2000/svg"
   xmlns="http://www.w3.org/2000/svg"
   version="1.1"
   id="svg4644"
   viewBox="0 0 54.389496 56.384132"
   height="15.912855mm"
   width="15.349925mm">
  <defs
     id="defs4646" />
  <metadata
     id="metadata4649">
    <rdf:RDF>
      <cc:Work
         rdf:about="">
        <dc:format>image/svg+xml</dc:format>
        <dc:type
           rdf:resource="http://purl.org/dc/dcmitype/StillImage" />
        <dc:title></dc:title>
      </cc:Work>
    </rdf:RDF>
  </metadata>
  <g
     transform="translate(-51.17499,-124.64176)"
     id="layer1">
    <g
       id="text5662-49-8-5"
       style="font-style:normal;font-weight:normal;font-size:20.33613396px;line-height:80.00000119%;font-family:sans-serif;letter-spacing:0px;word-spacing:0px;display:inline;fill:#ffd460;fill-opacity:1;stroke:none;stroke-width:1px;stroke-linecap:butt;stroke-linejoin:miter;stroke-opacity:1">
      <g
         id="text5662-49-8-5-1"
         style="font-style:normal;font-weight:normal;font-size:20.33613396px;line-height:80.00000119%;font-family:sans-serif;letter-spacing:0px;word-spacing:0px;display:inline;fill:#aaaaaa;fill-opacity:1;stroke:none;stroke-width:1px;stroke-linecap:butt;stroke-linejoin:miter;stroke-opacity:1">
        <path
           id="path5654"
           d="m 81.843951,177.20395 c -0.34229,-0.1488 -0.79712,-0.55722 -1.01074,-0.90759 -0.36993,-0.60675 -0.38843,-0.95897 -0.38911,-7.4074 l -7.3e-4,-6.77038 -0.47815,-0.12 c -0.26298,-0.066 -0.60391,-0.36322 -0.75762,-0.66048 -0.25235,-0.48798 -0.20598,-1.0817 0.47753,-6.11415 0.49316,-3.631 0.75723,-6.30675 0.75763,-7.67689 3.9e-4,-1.15676 -0.044,-2.05866 -0.0984,-2.00422 -0.0545,0.0544 -0.57874,2.30133 -1.16512,4.99309 -0.58638,2.69177 -1.16348,5.14279 -1.28245,5.44672 -0.28047,0.71651 -1.21303,1.27604 -2.12828,1.27695 -0.55379,5.7e-4 -0.8828,-0.14734 -1.39139,-0.62542 -0.66163,-0.62195 -0.67399,-0.66496 -1.84029,-6.40594 -0.6458,-3.17889 -1.23344,-5.90984 -1.30584,-6.06878 -0.0724,-0.15895 -0.175,6.82015 -0.22798,15.5091 -0.0921,15.11124 -0.11223,15.82157 -0.46209,16.33776 -0.7479,1.10347 -2.20216,1.41027 -3.35453,0.70769 -1.17513,-0.71646 -1.19253,-0.85968 -1.19253,-9.81865 l 0,-8.10202 -0.47594,-0.21686 c -1.04855,-0.47775 -1.04485,-0.50641 -1.10583,8.57487 -0.0524,7.79698 -0.0786,8.34895 -0.4216,8.85497 -0.7479,1.10347 -2.20216,1.41027 -3.35453,0.70769 -1.22545,-0.74713 -1.1899,-0.28515 -1.21847,-15.83513 l -0.026,-14.11852 -0.3455,4.52751 c -0.19003,2.49012 -0.35174,4.90463 -0.35938,5.36557 -0.0114,0.68636 -0.13245,0.95664 -0.66891,1.49311 -0.73224,0.73223 -1.49101,0.85035 -2.40995,0.37514 -1.09686,-0.56721 -1.10024,-0.64573 -0.43969,-10.23497 0.64188,-9.31801 0.65734,-9.40859 1.68618,-9.87736 0.2684,-0.1223 1.05589,-0.22236 1.74997,-0.22236 l 1.26196,0 0.87567,0.97396 c 0.48161,0.53567 1.31847,1.20406 1.85969,1.4853 0.84056,0.43679 1.22279,0.51105 2.62164,0.50937 2.0513,-0.002 3.06111,-0.44661 4.43611,-1.95108 l 0.96803,-1.05917 1.43944,0.0726 c 2.17626,0.1099 2.26364,0.23735 3.0658,4.47218 0.35643,1.88165 0.68636,3.45948 0.73318,3.5063 0.0468,0.0468 0.37437,-1.22384 0.72789,-2.82369 0.37791,-1.71021 0.79108,-3.09736 1.00269,-3.36638 0.42561,-0.54107 1.42415,-0.85361 2.73204,-0.85509 0.87137,-7.8e-4 1.0246,0.0745 1.97461,0.97299 1.40542,1.32918 2.45596,1.76598 4.24736,1.76598 1.21181,0 1.61339,-0.0917 2.66114,-0.60747 0.69725,-0.34326 1.51786,-0.93915 1.88668,-1.37003 0.50686,-0.59217 0.78987,-0.76254 1.26656,-0.76254 0.85126,0 1.86633,0.4593 2.19974,0.99536 0.15378,0.24727 0.99139,3.31903 1.86135,6.82614 l 1.58175,6.37657 0.9838,0.22709 c 2.092039,0.4829 3.029839,1.79073 3.029839,4.22529 0,1.67687 -0.26467,2.15679 -1.18943,2.15679 -0.79004,0 -1.122489,-0.55313 -1.122489,-1.86762 0,-0.88482 -0.0955,-1.28438 -0.3993,-1.6706 -0.48813,-0.62055 -1.28134,-0.66908 -1.87629,-0.11481 l -0.42165,0.39283 0,9.92323 0,9.92322 -0.47289,0.47289 c -0.59808,0.59809 -0.96242,0.59638 -1.56618,-0.007 l -0.48027,-0.48028 7.8e-4,-10.35683 7.8e-4,-10.35683 -1.22986,-4.72016 -1.22985,-4.72017 -0.0169,2.11926 c -0.0114,1.43038 0.20779,3.79743 0.67433,7.28201 0.6424,4.79805 0.6695,5.19591 0.38361,5.63223 -0.16919,0.25822 -0.52326,0.52362 -0.78683,0.58977 l -0.47929,0.12026 0,6.93414 0,6.93413 -0.63985,0.63985 c -1.17163,1.17162 -2.96634,1.01538 -3.78639,-0.32964 -0.36962,-0.60625 -0.38885,-0.95807 -0.38953,-7.12624 -5.8e-4,-5.64112 -0.0402,-6.52805 -0.30347,-6.79125 -0.38428,-0.38429 -0.74416,-0.38429 -1.12844,0 -0.26345,0.26345 -0.30275,1.16026 -0.30275,6.90976 0,6.48587 -0.008,6.61676 -0.41767,7.138 -0.43178,0.54892 -1.43193,1.06791 -2.03255,1.05472 -0.18885,-0.004 -0.6234,-0.12929 -0.96569,-0.2781 z m 3.15097,-37.18073 c -1.64115,-0.58498 -2.80915,-2.30971 -2.80915,-4.14813 0,-1.39031 0.50448,-2.46266 1.58245,-3.36372 0.8538,-0.7137 0.86072,-0.72907 0.58045,-1.29087 -0.56229,-1.12716 0.25039,-2.6376 1.60162,-2.97673 0.78116,-0.19606 1.83963,0.11343 2.43948,0.71327 0.50197,0.50197 0.55806,0.67239 0.48683,1.47895 -0.0443,0.50138 -0.13876,1.04164 -0.20995,1.20058 -0.0884,0.19732 0.0805,0.42466 0.5323,0.71671 0.83015,0.53656 1.61078,1.84749 1.76346,2.96142 0.44273,3.23008 -2.84269,5.82236 -5.96749,4.70852 z m -21.60194,-0.65438 c -2.27603,-1.03658 -3.21681,-3.7234 -2.09322,-5.97815 1.62269,-3.25632 6.22429,-3.25632 7.84699,0 0.84163,1.68894 0.61506,3.47801 -0.61294,4.84006 -0.91494,1.01481 -1.96932,1.48907 -3.31056,1.48907 -0.61461,0 -1.38327,-0.1474 -1.83027,-0.35098 z"
           style="display:inline;fill:#3db39e;fill-opacity:1" />
      </g>
    </g>
  </g>
</svg>
