<?xml version="1.0" encoding="UTF-8" standalone="no"?>
<svg
   xmlns:dc="http://purl.org/dc/elements/1.1/"
   xmlns:cc="http://creativecommons.org/ns#"
   xmlns:rdf="http://www.w3.org/1999/02/22-rdf-syntax-ns#"
   xmlns:svg="http://www.w3.org/2000/svg"
   xmlns="http://www.w3.org/2000/svg"
   version="1.1"
   id="svg4644"
   viewBox="0 0 87.090422 56.527253"
   height="15.953247mm"
   width="24.578854mm">
  <defs
     id="defs4646" />
  <metadata
     id="metadata4649">
    <rdf:RDF>
      <cc:Work
         rdf:about="">
        <dc:format>image/svg+xml</dc:format>
        <dc:type
           rdf:resource="http://purl.org/dc/dcmitype/StillImage" />
        <dc:title></dc:title>
      </cc:Work>
    </rdf:RDF>
  </metadata>
  <g
     transform="translate(-23.906526,-126.35665)"
     id="layer1">
    <g
       id="text5662-49-8-5"
       style="font-style:normal;font-weight:normal;font-size:20.33613396px;line-height:80.00000119%;font-family:sans-serif;letter-spacing:0px;word-spacing:0px;display:inline;fill:#ffd460;fill-opacity:1;stroke:none;stroke-width:1px;stroke-linecap:butt;stroke-linejoin:miter;stroke-opacity:1">
      <g
         id="text5662-49-8-5-1"
         style="font-style:normal;font-weight:normal;font-size:20.33613396px;line-height:80.00000119%;font-family:sans-serif;letter-spacing:0px;word-spacing:0px;display:inline;fill:#aaaaaa;fill-opacity:1;stroke:none;stroke-width:1px;stroke-linecap:butt;stroke-linejoin:miter;stroke-opacity:1">
        <g
           style="display:inline;fill:#3db39e;fill-opacity:1"
           transform="matrix(1.2024213,0,0,1.2024213,-924.98799,-1174.5211)"
           id="g7057">
          <path
             style="fill:#3db39e;fill-opacity:1"
             d="m 832.86158,1125.4824 c -0.64231,-0.4498 -0.66204,-0.623 -0.66204,-5.8087 l 0,-5.3449 -0.85717,0 c -1.44686,0 -1.66125,-0.5805 -1.11227,-3.0114 0.63126,-2.7953 0.60165,-3.0301 -0.20247,-1.6058 -0.53198,0.9423 -0.86982,1.2108 -1.61511,1.2836 -0.73681,0.072 -1.05006,-0.072 -1.43583,-0.6611 -0.4822,-0.736 -0.43135,-0.8905 2.2368,-6.7941 1.50161,-3.3226 2.9426,-6.2758 3.20217,-6.5626 0.70034,-0.7738 7.47896,-0.774 8.34224,-2e-4 0.74232,0.6654 5.73995,11.6638 5.73995,12.6321 0,0.9439 -0.51968,1.4428 -1.50281,1.4428 -0.8978,0 -1.51262,-0.5853 -2.19031,-2.0852 -0.25909,-0.5734 -0.4077,-0.7745 -0.33024,-0.4468 0.0775,0.3276 0.27941,1.333 0.44878,2.2341 0.16937,0.9011 0.37726,1.8588 0.46197,2.1282 0.20593,0.6551 -0.62885,1.4464 -1.52583,1.4464 l -0.72343,0 0,5.2129 c 0,4.8157 -0.0454,5.2583 -0.59576,5.8087 -0.32767,0.3276 -0.93088,0.5958 -1.34047,0.5958 -0.40958,0 -1.01279,-0.2682 -1.34047,-0.5958 -0.55036,-0.5504 -0.59576,-0.993 -0.59576,-5.8087 0,-5.0143 -0.0227,-5.2129 -0.59576,-5.2129 -0.57307,0 -0.59576,0.1986 -0.59576,5.2129 0,4.8157 -0.0454,5.2583 -0.59577,5.8087 -0.71417,0.7141 -1.71163,0.7645 -2.61465,0.132 z m -19.82923,-3.3576 c -0.43257,-0.478 -0.49617,-1.5644 -0.51893,-8.862 l -0.0259,-8.3173 -1.02953,2.1719 c -1.19277,2.5163 -2.1,3.1913 -3.08774,2.2975 -0.32833,-0.2972 -0.59697,-0.7701 -0.59697,-1.0509 0,-0.7758 4.7154,-10.8124 5.27978,-11.2379 0.59215,-0.4465 6.10697,-0.5167 6.90805,-0.088 0.53355,0.2855 5.38719,10.5446 5.38719,11.3868 0,0.2473 -0.26864,0.6928 -0.59698,0.99 -0.98774,0.8938 -1.89496,0.2188 -3.08774,-2.2975 l -1.02952,-2.1719 -0.0259,8.369 c -0.0239,7.7103 -0.0688,8.4078 -0.57069,8.8619 -0.71943,0.6512 -1.923,0.6266 -2.53684,-0.052 -0.41844,-0.4624 -0.49299,-1.3182 -0.49299,-5.6598 0,-4.348 -0.067,-5.1149 -0.44682,-5.1149 -0.38,0 -0.44682,0.7726 -0.44682,5.1667 0,4.6272 -0.0569,5.2183 -0.54475,5.6597 -0.71943,0.6512 -1.92301,0.6266 -2.53684,-0.052 z m 9.10455,-4.6858 c -0.62575,-0.4383 -0.6611,-0.672 -0.6611,-4.3706 l 0,-3.9074 0.74228,0.6973 c 0.43871,0.4121 1.10875,0.6973 1.63835,0.6973 l 0.89607,0 0,3.0212 c 0,1.9657 -0.13009,3.1867 -0.37236,3.4948 -0.57227,0.728 -1.50926,0.8815 -2.24324,0.3674 z m 4.2404,-0.2668 c -0.67416,-0.6741 -0.73116,-0.9529 -0.73116,-3.5746 0,-1.5639 0.11328,-2.8434 0.25172,-2.8434 0.13844,0 0.49433,0.2681 0.79087,0.5958 0.31772,0.3511 0.91781,0.5958 1.4611,0.5961 l 0.92195,0 0.0876,2.5056 c 0.081,2.3169 0.0367,2.5412 -0.58757,2.9785 -0.92178,0.6456 -1.33972,0.5964 -2.19446,-0.2584 z m -19.89835,-1.0051 c -0.43008,-0.4753 -0.49486,-1.492 -0.50764,-7.9683 l -0.0147,-7.4237 -1.01311,1.9732 c -0.55721,1.0852 -1.23055,2.0565 -1.49633,2.1586 -0.73475,0.2819 -1.6316,-0.3411 -1.6316,-1.1335 0,-0.9361 4.04056,-9.7435 4.69408,-10.2321 0.34956,-0.2613 1.34882,-0.3557 3.15257,-0.2979 l 2.6408,0.085 0.42844,1.2696 c 0.41597,1.2327 0.40665,1.289 -0.32066,1.9363 -0.82444,0.7337 -5.53125,10.9243 -5.53125,11.9756 0,0.7488 0.90659,1.8161 1.77722,2.0924 0.54492,0.173 0.60584,0.4403 0.60584,2.6581 0,2.0104 -0.10059,2.5568 -0.54475,2.9587 -0.71466,0.6468 -1.62587,0.6257 -2.23896,-0.052 z m 4.14545,0.077 c -0.35424,-0.3542 -0.4681,-1.1023 -0.4681,-3.0758 0,-2.3964 0.0603,-2.6644 0.7447,-3.3073 l 0.74471,-0.6996 0,3.7754 c 0,2.1247 -0.12093,3.7754 -0.2766,3.7754 -0.15214,0 -0.48725,-0.2106 -0.74471,-0.4681 z m 13.12588,-13.9047 c -2.38159,-5.2484 -2.93773,-6.181 -3.68593,-6.181 -0.23402,0 -0.3765,-0.1005 -0.31663,-0.2234 0.35072,-0.7198 0.8244,-1.8321 1.12529,-2.6423 0.18985,-0.5112 0.63772,-1.0489 0.99528,-1.195 0.35755,-0.1461 2.12461,-0.197 3.9268,-0.1131 l 3.27669,0.1524 1.11049,2.315 1.11048,2.3149 -0.73136,1.6538 c -0.40882,0.9244 -0.86573,1.5707 -1.03602,1.4654 -0.18023,-0.1114 -0.30324,0.1534 -0.3012,0.6485 0.003,0.821 -2.60834,6.9433 -2.96198,6.9433 -0.0991,0 -1.22948,-2.3123 -2.51191,-5.1385 z m -8.38105,-6.1673 c -0.85771,-0.3548 -1.82722,-1.5216 -2.05112,-2.4687 -0.243,-1.0278 0.42176,-2.6707 1.34123,-3.3147 1.64013,-1.1488 4.46145,-0.1701 4.98599,1.7296 0.7559,2.7376 -1.73929,5.1031 -4.2761,4.0538 z m 18.95822,-1.066 c -2.29815,-1.9338 -1.64073,-5.2824 1.25229,-6.3786 1.2083,-0.4578 2.95105,0.081 3.89615,1.2039 0.60074,0.7139 0.76645,1.2344 0.76645,2.4072 0,1.3045 -0.12982,1.6261 -1.0128,2.5092 -0.88298,0.8829 -1.20459,1.0127 -2.50914,1.0127 -1.16665,0 -1.69388,-0.1662 -2.39295,-0.7544 z m -26.6172,-3.0875 c -0.79945,-0.7144 -0.96605,-1.0792 -0.96605,-2.1157 0,-1.0365 0.1666,-1.4014 0.96605,-2.1156 1.3224,-1.1817 2.77201,-1.1789 3.95837,0.01 1.22614,1.2261 1.22614,2.99 0,4.2161 -1.18636,1.1864 -2.63597,1.1892 -3.95837,0.01 z m 15.37411,-1.6391 c -0.83028,-0.8303 -1.0128,-1.2383 -1.0128,-2.2639 0,-1.0256 0.18252,-1.4336 1.0128,-2.2639 1.07176,-1.0718 2.11362,-1.2817 3.58484,-0.7223 0.88661,0.337 1.95303,1.9337 1.95464,2.9266 0.002,1.0627 -0.8136,2.3865 -1.77642,2.8844 -1.45716,0.7536 -2.62228,0.5798 -3.76306,-0.5609 z"
             id="path6792" />
          <g
             style="fill:#3db39e;fill-opacity:1"
             id="g7038"
             transform="matrix(0.33076925,0,0,0.33076925,490.28219,707.13694)">
            <circle
               r="18.23822"
               cy="1224.5588"
               cx="930.71039"
               id="path7036"
               style="opacity:1;fill:#3db39e;fill-opacity:1;stroke:none;stroke-width:0.5;stroke-linecap:round;stroke-linejoin:round;stroke-miterlimit:4;stroke-dasharray:0.5, 1;stroke-dashoffset:0;stroke-opacity:1" />
            <path
               id="path6980-09"
               d="m 927.9271,1240.079 c -1.48644,-0.269 -2.80004,-0.7138 -4.23659,-1.4347 -1.15761,-0.5807 -2.93526,-1.7529 -3.12552,-2.0607 -0.0521,-0.084 0.67263,-0.9023 1.61054,-1.8177 3.00074,-2.9291 4.76263,-5.8116 5.22498,-8.5483 l 0.10453,-0.6188 1.10117,0 1.10124,0 0,7.3541 0,7.354 -0.3343,-0.013 c -0.18388,-0.012 -0.83462,-0.1035 -1.4461,-0.2145 z m 3.77791,0.038 c -0.0401,-0.1047 -0.0545,-3.3971 -0.0322,-7.3169 l 0.0402,-7.1267 1.12407,-0.043 1.12415,-0.043 0.16306,0.8771 c 0.5003,2.6901 2.38786,5.6777 5.40538,8.5556 0.80778,0.7703 1.46871,1.4286 1.46871,1.4628 0,0.1929 -1.8984,1.48 -3.04558,2.0649 -1.66679,0.8501 -2.8261,1.2479 -4.47323,1.535 -1.56273,0.2726 -1.68222,0.2749 -1.77466,0.034 z m -13.08076,-5.4932 c -1.68063,-1.9397 -2.91827,-4.6412 -3.41235,-7.4487 -0.11669,-0.663 -0.21222,-1.2889 -0.21232,-1.391 -1.8e-4,-0.145 1.13372,-0.1858 5.17484,-0.1858 2.8463,0 5.21179,0.036 5.25671,0.082 0.37493,0.3749 -1.27242,3.8727 -2.58661,5.4917 -0.9124,1.1243 -3.60331,3.7864 -3.82716,3.7864 -0.0569,0 -0.23382,-0.1505 -0.39311,-0.3343 z m 23.01121,-0.3387 c -2.04682,-1.7905 -3.84244,-3.9793 -4.7169,-5.7497 -0.59218,-1.1989 -1.02539,-2.6452 -0.84603,-2.8246 0.0639,-0.064 2.41737,-0.099 5.2297,-0.077 l 5.11328,0.039 -0.0438,0.6686 c -0.0865,1.3264 -0.75754,3.6122 -1.50216,5.1172 -0.69869,1.4122 -2.1005,3.4995 -2.35019,3.4995 -0.0632,0 -0.46091,-0.3028 -0.88407,-0.6729 z m -26.56033,-10.7643 c -0.15628,-0.2529 0.38428,-2.9956 0.83751,-4.2492 0.48854,-1.3515 1.45476,-3.1204 2.35745,-4.316 0.53495,-0.7085 0.63945,-0.782 0.90835,-0.638 0.57172,0.306 3.35845,3.2131 4.13471,4.3133 1.22255,1.7329 2.08591,3.6424 2.08591,4.6136 l 0,0.4225 -5.11682,0 c -3.1955,0 -5.1507,-0.055 -5.20711,-0.1462 z m 12.48809,0.012 c -0.0251,-0.045 -0.13077,-0.4493 -0.23548,-0.8987 -0.26354,-1.1311 -0.81675,-2.5661 -1.25978,-3.2678 -0.20448,-0.324 -0.37177,-0.6301 -0.37177,-0.6804 0,-0.1762 -1.77516,-2.5215 -2.38215,-3.1471 -0.3376,-0.3479 -0.67435,-0.5951 -0.74836,-0.5494 -0.074,0.046 -0.10744,-0.012 -0.0742,-0.1107 0.0333,-0.1071 -0.3984,-0.5945 -0.959,-1.0849 -0.56061,-0.4903 -1.02306,-0.9638 -1.02768,-1.0523 -0.0122,-0.2355 1.65288,-1.4266 2.95197,-2.1115 1.38654,-0.7312 3.00021,-1.2743 4.46791,-1.5037 0.61286,-0.096 1.26467,-0.2059 1.44855,-0.2446 l 0.3343,-0.071 0,7.3501 0,7.3501 -0.48286,0.079 c -0.57331,0.094 -1.59747,0.058 -1.66141,-0.058 z m 4.18393,0.036 c -0.11657,-0.2094 -0.11487,-14.3744 0,-14.5512 0.0846,-0.1283 0.44799,-0.1181 1.44998,0.04 2.31179,0.3658 4.18636,1.0937 6.08978,2.3649 1.97857,1.3212 1.95014,1.2674 1.04792,1.9847 -1.01512,0.807 -3.07162,3.063 -3.90596,4.2845 -1.33357,1.9526 -1.78406,2.922 -2.26191,4.8678 l -0.25543,1.04 -1.05029,0.043 c -0.57761,0.024 -1.07971,-0.012 -1.11574,-0.074 z m 4.27435,-0.043 c -0.14626,-0.2366 0.3361,-1.7191 0.96905,-2.9777 0.78653,-1.5643 2.10632,-3.2709 3.70996,-4.7969 1.79382,-1.707 1.78686,-1.7041 2.342,-1.0132 1.78551,2.2217 3.13609,5.5703 3.33489,8.2679 l 0.0438,0.5943 -5.15276,0.039 c -3.40364,0.026 -5.1847,-0.013 -5.24693,-0.1131 z"
               style="display:inline;fill:#3db39e;fill-opacity:1" />
          </g>
          <path
             style="display:inline;fill:#3db39e;fill-opacity:1"
             d="m 844.03681,1110.8966 c -0.27573,-0.2937 -0.51237,-0.5658 -0.52588,-0.6048 -0.0403,-0.1164 2.58234,-2.7162 2.74024,-2.7162 0.1229,0 1.1873,1.0137 1.1873,1.1308 0,0.1021 -2.69182,2.7357 -2.79051,2.7302 -0.0605,-0.01 -0.33543,-0.2465 -0.61115,-0.54 z m 3.54605,-3.4388 c -0.23696,-0.2194 -0.43085,-0.4528 -0.43085,-0.5189 0,-0.066 0.11007,-0.3283 0.24458,-0.583 0.43131,-0.8167 0.89277,-2.5155 1.18604,-4.3662 0.23655,-1.4925 0.44645,-2.0978 1.05257,-3.0347 1.06581,-1.6475 2.72768,-2.6241 4.46195,-2.6219 1.20059,0 2.16513,0.3901 3.04666,1.2274 0.64706,0.6147 1.04201,1.2139 1.29071,1.9585 0.25084,0.7511 0.26902,1.8803 0.0426,2.6376 -0.6058,2.0249 -2.59427,3.7247 -4.80377,4.1063 -1.85691,0.3207 -2.70094,0.4952 -3.4418,0.7116 -0.85595,0.2499 -1.67665,0.5625 -1.86192,0.7091 -0.2576,0.204 -0.35157,0.1769 -0.78661,-0.2258 z m 2.03983,-1.1571 c 0.52343,-0.1759 0.79485,-0.3032 0.80885,-0.3795 0.0286,-0.1564 -1.24747,-1.4406 -1.40205,-1.4109 -0.0808,0.015 -0.19413,0.2602 -0.35869,0.7742 -0.2652,0.8286 -0.291,1.021 -0.1583,1.1809 0.12407,0.1496 0.21578,0.1359 1.11019,-0.1647 z m 3.98018,-1.0894 c 0.55254,-0.1048 0.57525,-0.1631 0.20895,-0.5364 -0.17381,-0.177 -0.33874,-0.3219 -0.36657,-0.3219 -0.0684,0 -0.85057,0.8048 -0.85057,0.8752 0,0.079 0.55349,0.069 1.00819,-0.017 z m -1.05847,-0.547 c 0.30334,-0.3014 0.55159,-0.5843 0.55159,-0.6287 0,-0.044 -0.20963,-0.2884 -0.46591,-0.5423 l -0.46581,-0.4617 -0.71578,0.7131 c -0.39369,0.3922 -0.71574,0.7459 -0.71565,0.786 1.8e-4,0.1296 0.91644,0.6375 1.22072,0.6766 0.0217,0.01 0.28742,-0.2416 0.59084,-0.543 z m 2.63656,-0.074 c 0.31059,-0.1848 0.56473,-0.3709 0.56473,-0.4136 0,-0.043 -0.2361,-0.3122 -0.52465,-0.5988 l -0.52466,-0.5212 -0.47796,0.4687 c -0.26285,0.2577 -0.47791,0.4921 -0.47791,0.5209 0,0.053 0.79602,0.8799 0.84739,0.8799 0.0154,0 0.28248,-0.1512 0.59306,-0.3359 z m -3.98313,-1.096 0.71311,-0.7157 -0.46173,-0.4659 c -0.25396,-0.2562 -0.49409,-0.4659 -0.53372,-0.4659 -0.13891,0 -1.11377,1.0333 -1.11305,1.1798 0,0.2819 0.48766,1.1834 0.63835,1.1834 0.024,0 0.36485,-0.322 0.75704,-0.7157 z m 5.18753,0.1732 c 0.12368,-0.1408 0.30968,-0.3843 0.41341,-0.541 l 0.18859,-0.2849 -0.4936,-0.4974 c -0.27147,-0.2736 -0.51822,-0.4974 -0.54832,-0.4974 -0.0299,0 -0.26543,0.216 -0.52298,0.4799 l -0.46826,0.4799 0.55521,0.5585 c 0.30533,0.3072 0.57675,0.5585 0.60318,0.5585 0.0263,0 0.1491,-0.1152 0.27277,-0.2561 z m -2.3422,-0.4846 c 0.188,-0.1909 0.34187,-0.3672 0.34187,-0.392 0,-0.078 -0.88715,-0.9441 -0.96681,-0.9441 -0.0417,0 -0.28316,0.2093 -0.53662,0.465 l -0.46092,0.4651 0.31372,0.3195 c 0.17254,0.1759 0.34862,0.2998 0.39133,0.2755 0.0426,-0.025 0.0532,-0.018 0.0231,0.015 -0.0299,0.033 0.0158,0.1348 0.10191,0.2263 0.18043,0.192 0.17558,0.1947 0.79221,-0.431 z m -1.357,-1.1768 0.48155,-0.4853 -0.50131,-0.4974 -0.50126,-0.4975 -0.46559,0.4614 c -0.25605,0.2539 -0.46554,0.4938 -0.46554,0.5332 0,0.074 0.85986,0.9708 0.93085,0.9708 0.0217,0 0.25646,-0.2183 0.5213,-0.4852 z m 2.52781,0.01 0.46749,-0.4791 -0.50426,-0.5042 -0.50425,-0.5043 -0.46622,0.4621 c -0.25642,0.2541 -0.46622,0.4943 -0.46622,0.5338 0,0.085 0.86529,0.9708 0.94853,0.9708 0.0317,0 0.26784,-0.2156 0.52493,-0.4791 z m 2.14504,0.1031 c 0.14507,-0.3533 0.243,-1.7724 0.12227,-1.7724 -0.0819,0 -1.23427,1.1192 -1.23427,1.1987 0,0.086 0.81434,0.8781 0.90306,0.8781 0.0462,0 0.14021,-0.137 0.20894,-0.3044 z m -7.10713,-0.1814 0.40983,-0.4142 -0.35674,-0.3514 c -0.19616,-0.1932 -0.37854,-0.3295 -0.40524,-0.3028 -0.0649,0.065 -0.23529,0.9574 -0.2386,1.2498 -0.004,0.333 0.1191,0.2952 0.59075,-0.1814 z m 1.1977,-1.1979 0.46213,-0.4663 -0.5577,-0.5542 -0.55766,-0.5543 -0.16497,0.2034 c -0.0907,0.1119 -0.25628,0.3945 -0.36798,0.6281 l -0.20305,0.4249 0.38747,0.3923 c 0.21307,0.2158 0.42166,0.3924 0.46355,0.3924 0.0417,0 0.28406,-0.2099 0.53821,-0.4663 z m 2.50585,0 0.46142,-0.4656 -0.49805,-0.5018 -0.49804,-0.5019 -0.50122,0.5012 -0.50121,0.5012 0.46209,0.4663 c 0.25415,0.2564 0.49614,0.4662 0.5378,0.4662 0.0417,0 0.28339,-0.2095 0.53721,-0.4656 z m 2.75961,-0.2267 c 0.37278,-0.3807 0.67774,-0.7064 0.67774,-0.7239 0,-0.062 -0.43584,-0.8423 -0.56377,-1.0093 -0.174,-0.227 -0.23579,-0.1875 -1.15326,0.7373 l -0.75025,0.7564 0.46173,0.4659 c 0.25397,0.2563 0.50412,0.4659 0.55589,0.4659 0.0519,0 0.39917,-0.3115 0.77192,-0.6923 z m -4.06859,-0.9707 c 0.24725,-0.2451 0.44954,-0.4796 0.44954,-0.5211 0,-0.042 -0.22368,-0.2975 -0.49705,-0.5689 l -0.49705,-0.4932 -0.27282,0.2018 c -0.38684,0.2862 -0.73827,0.6248 -0.73827,0.7114 0,0.072 1.00085,1.1155 1.07048,1.1155 0.0195,0 0.23796,-0.2004 0.48517,-0.4455 z m 2.9063,-0.4 0.84331,-0.8454 -0.3789,-0.2608 c -0.2084,-0.1435 -0.49415,-0.3089 -0.63509,-0.3678 l -0.25615,-0.1069 -0.69275,0.6953 c -0.38095,0.3824 -0.69266,0.7299 -0.69266,0.7722 0,0.067 0.87763,0.9589 0.94382,0.9589 0.0141,0 0.40465,-0.3804 0.86842,-0.8454 z m -1.5095,-0.9968 c 0.30615,-0.3043 0.55662,-0.5988 0.55662,-0.6544 0,-0.2254 -1.89394,0.039 -2.0464,0.2855 -0.0453,0.073 0.74901,0.9209 0.86317,0.9217 0.0385,0 0.32051,-0.2485 0.62661,-0.5528 z"
             id="path6980-090" />
        </g>
      </g>
    </g>
  </g>
</svg>
