<?xml version="1.0" encoding="UTF-8" standalone="no"?>
<svg
   xmlns:dc="http://purl.org/dc/elements/1.1/"
   xmlns:cc="http://creativecommons.org/ns#"
   xmlns:rdf="http://www.w3.org/1999/02/22-rdf-syntax-ns#"
   xmlns:svg="http://www.w3.org/2000/svg"
   xmlns="http://www.w3.org/2000/svg"
   xmlns:sodipodi="http://sodipodi.sourceforge.net/DTD/sodipodi-0.dtd"
   xmlns:inkscape="http://www.inkscape.org/namespaces/inkscape"
   version="1.1"
   id="svg4644"
   viewBox="0 0 50.151062 50.153676"
   height="14.154482mm"
   width="14.153745mm"
   inkscape:version="0.91 r13725"
   sodipodi:docname="icon-eco6a.svg">
  <sodipodi:namedview
     pagecolor="#ffffff"
     bordercolor="#666666"
     borderopacity="1"
     objecttolerance="10"
     gridtolerance="10"
     guidetolerance="10"
     inkscape:pageopacity="0"
     inkscape:pageshadow="2"
     inkscape:window-width="1160"
     inkscape:window-height="624"
     id="namedview10"
     showgrid="false"
     inkscape:zoom="4.7055374"
     inkscape:cx="-9.1394758"
     inkscape:cy="8.0755919"
     inkscape:window-x="0"
     inkscape:window-y="0"
     inkscape:window-maximized="0"
     inkscape:current-layer="svg4644" />
  <defs
     id="defs4646" />
  <metadata
     id="metadata4649">
    <rdf:RDF>
      <cc:Work
         rdf:about="">
        <dc:format>image/svg+xml</dc:format>
        <dc:type
           rdf:resource="http://purl.org/dc/dcmitype/StillImage" />
        <dc:title />
      </cc:Work>
    </rdf:RDF>
  </metadata>
  <path
     id="path6077"
     d="M 6.0678945,46.379958 5.4840895,46.169141 6.2361487,45.73518 C 8.6277573,44.355146 24.924102,35.5116 25.075532,35.5116 c 0.151431,0 16.447775,8.843546 18.839384,10.22358 l 0.752059,0.433961 -0.583805,0.210817 c -0.850754,0.307214 -37.1645218,0.307214 -38.0152755,0 z M 3.6450461,43.713991 c -0.1431944,-0.534325 -0.1315983,-19.81193 0.011912,-19.81193 0.1856769,0 18.7265035,9.996696 18.7265035,10.096808 0,0.112148 -18.2813215,10.093694 -18.4867228,10.093694 -0.082633,0 -0.1958984,-0.170357 -0.2516965,-0.378572 z M 36.895388,39.080878 c -5.020284,-2.745871 -9.127789,-5.03278 -9.127789,-5.08202 0,-0.100104 18.540838,-10.096797 18.726504,-10.096797 0.143514,0 0.15511,19.277605 0.01191,19.81193 -0.0558,0.208215 -0.187265,0.374255 -0.292147,0.368976 -0.104877,-0.0053 -4.298196,-2.256217 -9.31848,-5.002089 z m -16.404782,-8.973505 -4.332545,-2.361769 0,-7.533178 c 0,-7.76382 0.05155,-8.428574 0.679652,-8.764726 0.415198,-0.222206 16.060441,-0.222206 16.475638,0 0.628106,0.336154 0.679653,1.000901 0.679653,8.76489 l 0,7.533346 -4.362496,2.368544 c -2.399374,1.3027 -4.462591,2.36542 -4.584927,2.361602 -0.122337,-0.0038 -2.172075,-1.069736 -4.554975,-2.368709 z m 5.426197,-0.316415 c 0.259673,-0.259674 0.336508,-0.560847 0.336508,-1.319026 0,-0.859095 0.04813,-1.004447 0.383132,-1.157085 2.389911,-1.088916 2.885765,-4.488376 0.907977,-6.224897 -0.596759,-0.523962 -1.247899,-0.777859 -2.487852,-0.970083 -1.437057,-0.22278 -1.689319,-1.953648 -0.358475,-2.459634 0.45244,-0.172018 1.330054,0.130746 1.711219,0.590344 0.451861,0.544844 1.113486,0.781293 1.656502,0.591995 0.4779,-0.166595 0.879564,-0.742776 0.879564,-1.261719 0,-0.40004 -1.280395,-1.674286 -2.015412,-2.005733 l -0.676655,-0.305129 0,-0.983971 c 0,-1.149319 -0.360849,-1.656989 -1.177779,-1.656989 -0.809908,0 -1.176877,0.508836 -1.183098,1.640479 -0.0053,0.961285 -0.01004,0.970328 -0.745796,1.416622 -1.057998,0.641762 -1.652098,1.614901 -1.741641,2.852814 -0.166111,2.296474 1.093288,3.695205 3.689499,4.097684 0.334319,0.05183 0.744439,0.245158 0.911377,0.429622 0.693849,0.766694 0.118717,2.069673 -0.913547,2.069673 -0.278666,0 -0.798015,-0.201905 -1.154108,-0.448677 -1.144741,-0.793307 -2.283854,-0.427889 -2.283854,0.732643 0,0.610236 0.493249,1.17061 1.500925,1.705182 l 0.742464,0.393876 0,0.967749 c 0,1.132117 0.36512,1.640768 1.177779,1.640768 0.280424,0 0.654322,-0.149559 0.841271,-0.336508 z M 9.0661234,23.940173 C 6.124899,22.373671 4.4541047,21.392608 4.5232605,21.272679 c 0.1778851,-0.308482 9.1235025,-8.0142 9.2069095,-7.930793 0.04198,0.04198 0.0565,3.001276 0.03227,6.576207 l -0.04406,6.499878 -4.6522516,-2.477798 z M 36.348562,19.866382 c 0,-3.610383 0.04354,-6.564334 0.09676,-6.564334 0.122886,0 8.833415,7.527189 9.112236,7.874323 0.178938,0.22278 -0.305953,0.533475 -3.533338,2.263989 -2.057405,1.103176 -4.176095,2.227305 -4.708199,2.498067 l -0.967462,0.492291 0,-6.564334 z M 18.942667,8.613011 c 4.491088,-4.1070963 5.655563,-5.0697054 6.132865,-5.0697054 0.477302,0 1.641777,0.9626091 6.132865,5.0697054 0.09073,0.082973 -2.560903,0.1461742 -6.132865,0.1461742 -3.571962,0 -6.223596,-0.063201 -6.132865,-0.1461742 z"
     style="fill:#aaaaaa;fill-opacity:1"
     inkscape:connector-curvature="0" />
  <path
     id="path6077-2"
     d="m 20.393818,30.418561 -4.435857,-2.418102 0,-7.712805 c 0,-7.948952 0.05278,-8.629557 0.695859,-8.973724 0.425099,-0.227505 16.44341,-0.227505 16.868508,0 0.643084,0.344169 0.695859,1.024767 0.695859,8.973894 l 0,7.712978 -4.466521,2.425028 c -2.456589,1.333754 -4.569003,2.421823 -4.694256,2.417913 -0.125256,-0.004 -2.223871,-1.095235 -4.663592,-2.425182 z"
     style="display:inline;fill:#ffc939;fill-opacity:1"
     inkscape:connector-curvature="0" />
  <path
     id="path6181"
     d="m 25.033667,27.960224 c -1.951109,-0.479776 -3.556723,-1.867401 -4.272875,-3.692757 l -0.214297,-0.546205 -0.495416,0 c -0.537557,0 -0.658049,-0.09152 -0.658049,-0.499814 0,-0.295311 0.198116,-0.442815 0.594753,-0.442815 l 0.347874,0 0,-0.545759 0,-0.545763 -0.410877,-0.02374 c -0.368145,-0.02127 -0.41874,-0.04621 -0.486478,-0.23976 -0.04844,-0.138426 -0.04843,-0.293612 5.9e-5,-0.432038 0.07002,-0.199913 0.111542,-0.217748 0.556952,-0.239196 0.477411,-0.02299 0.481689,-0.02529 0.53054,-0.285687 0.156596,-0.834732 0.822538,-2.002773 1.569176,-2.752286 1.254267,-1.259099 2.668801,-1.848372 4.436972,-1.848372 0.91926,0 1.524289,0.101716 2.208757,0.371327 0.800777,0.315426 2.04236,1.185479 2.04236,1.431204 0,0.115372 -1.387397,1.597916 -1.578413,1.68666 -0.11673,0.05423 -0.208314,0.02922 -0.368552,-0.100661 -0.117275,-0.09505 -0.478338,-0.304271 -0.802367,-0.464925 -0.568296,-0.281765 -0.618326,-0.292034 -1.413941,-0.29021 -1.020595,0.0023 -1.526431,0.178802 -2.152356,0.750865 -0.422377,0.386027 -0.846169,0.971716 -0.947346,1.309243 l -0.05298,0.176742 1.841656,0 c 2.07149,0 2.044268,-0.0077 2.003159,0.5637 l -0.02444,0.339652 -1.986431,0.021 c -2.247193,0.02375 -2.111632,-0.02231 -2.022979,0.687247 l 0.05382,0.430766 1.55322,0 c 1.404971,0 1.565627,0.01371 1.683222,0.143652 0.148107,0.163658 0.167741,0.424583 0.04869,0.647035 -0.07578,0.141595 -0.177753,0.151942 -1.497376,0.151942 l -1.416059,0 0.260178,0.362908 c 0.98094,1.368264 3.139877,1.693485 4.621801,0.69622 0.22362,-0.150481 0.470811,-0.273605 0.549318,-0.273605 0.133622,0 1.648176,1.57101 1.648176,1.709613 0,0.249874 -0.804555,0.898171 -1.622337,1.307252 -1.172163,0.586351 -2.812418,0.759861 -4.127114,0.436574 z"
     style="fill:#ffffff"
     inkscape:connector-curvature="0" />
</svg>
