<?xml version="1.0" encoding="UTF-8" standalone="no"?>
<svg
   xmlns:dc="http://purl.org/dc/elements/1.1/"
   xmlns:cc="http://creativecommons.org/ns#"
   xmlns:rdf="http://www.w3.org/1999/02/22-rdf-syntax-ns#"
   xmlns:svg="http://www.w3.org/2000/svg"
   xmlns="http://www.w3.org/2000/svg"
   version="1.1"
   id="svg4644"
   viewBox="0 0 50.151062 50.153676"
   height="14.154482mm"
   width="14.153745mm">
  <defs
     id="defs4646" />
  <metadata
     id="metadata4649">
    <rdf:RDF>
      <cc:Work
         rdf:about="">
        <dc:format>image/svg+xml</dc:format>
        <dc:type
           rdf:resource="http://purl.org/dc/dcmitype/StillImage" />
        <dc:title></dc:title>
      </cc:Work>
    </rdf:RDF>
  </metadata>
  <g
     transform="translate(-47.894274,-127.1783)"
     id="layer1">
    <g
       id="g5401"
       style="display:inline"
       transform="translate(-786.39055,-259.81519)">
      <path
         id="path6077-0"
         d="m 840.35272,433.37345 -0.5838,-0.21082 0.75206,-0.43396 c 2.3916,-1.38003 18.68795,-10.22358 18.83938,-10.22358 0.15143,0 16.44777,8.84355 18.83938,10.22358 l 0.75206,0.43396 -0.5838,0.21082 c -0.85076,0.30721 -37.16452,0.30721 -38.01528,0 z m -2.42285,-2.66597 c -0.14319,-0.53432 -0.1316,-19.81193 0.0119,-19.81193 0.18567,0 18.7265,9.9967 18.7265,10.09681 0,0.11215 -18.28132,10.09369 -18.48672,10.09369 -0.0826,0 -0.1959,-0.17035 -0.2517,-0.37857 z m 33.25035,-4.63311 c -5.02029,-2.74587 -9.12779,-5.03278 -9.12779,-5.08202 0,-0.10011 18.54083,-10.0968 18.7265,-10.0968 0.14351,0 0.15511,19.27761 0.0119,19.81193 -0.0558,0.20822 -0.18726,0.37426 -0.29214,0.36898 -0.10488,-0.005 -4.2982,-2.25622 -9.31848,-5.00209 z m -16.40479,-8.97351 -4.33254,-2.36177 0,-7.53317 c 0,-7.76382 0.0516,-8.42858 0.67965,-8.76473 0.4152,-0.22221 16.06044,-0.22221 16.47564,0 0.6281,0.33615 0.67965,1.0009 0.67965,8.76489 l 0,7.53335 -4.3625,2.36854 c -2.39937,1.3027 -4.46259,2.36542 -4.58492,2.3616 -0.12234,-0.004 -2.17208,-1.06973 -4.55498,-2.36871 z m 5.4262,-0.31641 c 0.25967,-0.25968 0.33651,-0.56085 0.33651,-1.31903 0,-0.85909 0.0481,-1.00444 0.38313,-1.15708 2.38991,-1.08892 2.88576,-4.48838 0.90798,-6.2249 -0.59676,-0.52396 -1.2479,-0.77786 -2.48785,-0.97008 -1.43706,-0.22278 -1.68932,-1.95365 -0.35848,-2.45964 0.45244,-0.17201 1.33005,0.13075 1.71122,0.59035 0.45186,0.54484 1.11348,0.78129 1.6565,0.59199 0.4779,-0.16659 0.87957,-0.74277 0.87957,-1.26172 0,-0.40004 -1.2804,-1.67428 -2.01542,-2.00573 l -0.67665,-0.30513 0,-0.98397 c 0,-1.14932 -0.36085,-1.65699 -1.17778,-1.65699 -0.80991,0 -1.17688,0.50884 -1.1831,1.64048 -0.005,0.96128 -0.01,0.97033 -0.7458,1.41662 -1.05799,0.64176 -1.65209,1.6149 -1.74164,2.85282 -0.16611,2.29647 1.09329,3.6952 3.6895,4.09768 0.33432,0.0518 0.74444,0.24516 0.91138,0.42962 0.69385,0.7667 0.11872,2.06967 -0.91355,2.06967 -0.27866,0 -0.79801,-0.2019 -1.1541,-0.44867 -1.14475,-0.79331 -2.28386,-0.42789 -2.28386,0.73264 0,0.61024 0.49325,1.17061 1.50093,1.70518 l 0.74246,0.39388 0,0.96775 c 0,1.13212 0.36512,1.64077 1.17778,1.64077 0.28042,0 0.65432,-0.14956 0.84127,-0.33651 z m -16.85068,-5.85079 c -2.94122,-1.5665 -4.61202,-2.54756 -4.54286,-2.66749 0.17788,-0.30848 9.1235,-8.0142 9.20691,-7.93079 0.042,0.042 0.0565,3.00127 0.0323,6.5762 l -0.0441,6.49988 -4.65225,-2.4778 z m 27.28244,-4.07379 c 0,-3.61038 0.0435,-6.56433 0.0968,-6.56433 0.12289,0 8.83342,7.52719 9.11224,7.87432 0.17894,0.22278 -0.30596,0.53348 -3.53334,2.26399 -2.05741,1.10318 -4.1761,2.22731 -4.7082,2.49807 l -0.96746,0.49229 0,-6.56434 z m -17.4059,-11.25337 c 4.49109,-4.1071 5.65557,-5.0697 6.13287,-5.0697 0.4773,0 1.64178,0.9626 6.13286,5.0697 0.0907,0.083 -2.5609,0.14618 -6.13286,0.14618 -3.57196,0 -6.2236,-0.0632 -6.13287,-0.14618 z"
         style="fill:#aaaaaa;fill-opacity:1" />
      <path
         id="path6077-2-1"
         d="m 854.67864,417.41205 -4.43585,-2.4181 0,-7.71281 c 0,-7.94895 0.0528,-8.62955 0.69586,-8.97372 0.4251,-0.22751 16.44341,-0.22751 16.8685,0 0.64309,0.34417 0.69586,1.02477 0.69586,8.97389 l 0,7.71298 -4.46652,2.42503 c -2.45659,1.33375 -4.569,2.42182 -4.69425,2.41791 -0.12526,-0.004 -2.22387,-1.09523 -4.6636,-2.42518 z"
         style="display:inline;fill:#213042;fill-opacity:1" />
      <path
         id="path6181-1"
         d="m 859.31849,414.95371 c -1.9511,-0.47977 -3.55672,-1.8674 -4.27287,-3.69275 l -0.2143,-0.54621 -0.49541,0 c -0.53756,0 -0.65805,-0.0915 -0.65805,-0.49981 0,-0.29531 0.19811,-0.44282 0.59475,-0.44282 l 0.34787,0 0,-0.54576 0,-0.54576 -0.41087,-0.0237 c -0.36815,-0.0213 -0.41874,-0.0462 -0.48648,-0.23976 -0.0484,-0.13843 -0.0484,-0.29362 6e-5,-0.43204 0.07,-0.19991 0.11154,-0.21775 0.55695,-0.2392 0.47741,-0.023 0.48169,-0.0253 0.53054,-0.28568 0.1566,-0.83474 0.82254,-2.00278 1.56918,-2.75229 1.25426,-1.2591 2.6688,-1.84837 4.43697,-1.84837 0.91926,0 1.52429,0.10171 2.20875,0.37132 0.80078,0.31543 2.04236,1.18548 2.04236,1.43121 0,0.11537 -1.38739,1.59792 -1.57841,1.68666 -0.11673,0.0542 -0.20831,0.0292 -0.36855,-0.10066 -0.11728,-0.0951 -0.47834,-0.30427 -0.80237,-0.46493 -0.56829,-0.28176 -0.61832,-0.29203 -1.41394,-0.29021 -1.02059,0.002 -1.52643,0.17881 -2.15235,0.75087 -0.42238,0.38602 -0.84617,0.97171 -0.94735,1.30924 l -0.053,0.17674 1.84166,0 c 2.07149,0 2.04427,-0.008 2.00316,0.5637 l -0.0244,0.33965 -1.98643,0.021 c -2.2472,0.0238 -2.11164,-0.0223 -2.02298,0.68725 l 0.0538,0.43076 1.55322,0 c 1.40497,0 1.56563,0.0137 1.68322,0.14366 0.14811,0.16365 0.16774,0.42458 0.0487,0.64703 -0.0758,0.14159 -0.17776,0.15194 -1.49738,0.15194 l -1.41606,0 0.26018,0.36291 c 0.98094,1.36826 3.13988,1.69348 4.6218,0.69622 0.22362,-0.15048 0.47081,-0.2736 0.54932,-0.2736 0.13362,0 1.64817,1.571 1.64817,1.70961 0,0.24987 -0.80455,0.89817 -1.62233,1.30725 -1.17217,0.58635 -2.81242,0.75986 -4.12712,0.43657 z"
         style="fill:#ffffff" />
    </g>
  </g>
</svg>
