<?xml version="1.0" encoding="UTF-8" standalone="no"?>
<svg
   xmlns:dc="http://purl.org/dc/elements/1.1/"
   xmlns:cc="http://creativecommons.org/ns#"
   xmlns:rdf="http://www.w3.org/1999/02/22-rdf-syntax-ns#"
   xmlns:svg="http://www.w3.org/2000/svg"
   xmlns="http://www.w3.org/2000/svg"
   version="1.1"
   id="svg4644"
   viewBox="0 0 50.151062 50.153676"
   height="14.154482mm"
   width="14.153745mm">
  <defs
     id="defs4646" />
  <metadata
     id="metadata4649">
    <rdf:RDF>
      <cc:Work
         rdf:about="">
        <dc:format>image/svg+xml</dc:format>
        <dc:type
           rdf:resource="http://purl.org/dc/dcmitype/StillImage" />
        <dc:title></dc:title>
      </cc:Work>
    </rdf:RDF>
  </metadata>
  <g
     transform="translate(-47.894274,-127.1783)"
     id="layer1">
    <g
       id="g6183"
       transform="matrix(0.16825418,0,0,0.16825418,12.289377,64.93197)"
       style="display:inline">
      <path
         id="path6077"
         d="m 247.6776,645.60826 -3.46978,-1.25297 4.46978,-2.5792 c 14.21426,-8.20208 111.06977,-60.76271 111.96978,-60.76271 0.90001,0 97.75552,52.56063 111.96978,60.76271 l 4.46978,2.5792 -3.46978,1.25297 c -5.05636,1.82589 -220.8832,1.82589 -225.93956,0 z m -14.39993,-15.84488 c -0.85106,-3.1757 -0.78214,-117.75 0.0708,-117.75 1.10355,0 111.29889,59.41425 111.29889,60.00925 0,0.66654 -108.653,59.99075 -109.87378,59.99075 -0.49112,0 -1.1643,-1.0125 -1.49593,-2.25 z m 197.61971,-27.53639 c -29.8375,-16.31978 -54.25,-29.91177 -54.25,-30.20442 0,-0.59496 110.19541,-60.00919 111.29889,-60.00919 0.85296,0 0.92188,114.5743 0.0708,117.75 -0.33163,1.2375 -1.11299,2.22434 -1.73634,2.19297 -0.62333,-0.0314 -25.54585,-13.40958 -55.38335,-29.72936 z m -97.5,-53.33303 -25.75,-14.03691 0,-44.77261 c 0,-46.1434 0.30637,-50.09429 4.03944,-52.09217 2.46768,-1.32066 95.45344,-1.32066 97.92112,0 3.73308,1.99789 4.03944,5.94874 4.03944,52.09315 l 0,44.7736 -25.92801,14.07718 c -14.26041,7.74245 -26.52291,14.05861 -27.25,14.03592 -0.7271,-0.0227 -12.90949,-6.35786 -27.07199,-14.07816 z m 32.25,-1.88058 c 1.54334,-1.54334 2,-3.33333 2,-7.83948 0,-5.10594 0.28605,-5.96982 2.2771,-6.87701 14.20417,-6.47185 17.15122,-26.67616 5.39646,-36.99698 -3.54677,-3.11411 -7.41675,-4.62312 -14.78627,-5.76558 -8.54099,-1.32407 -10.04028,-11.61129 -2.13056,-14.61856 2.68903,-1.02237 7.90503,0.77707 10.17044,3.50864 2.68559,3.23822 6.61788,4.64353 9.84524,3.51846 2.84034,-0.99014 5.22759,-4.41461 5.22759,-7.49889 0,-2.37759 -7.60989,-9.95093 -11.97838,-11.92085 l -4.02162,-1.8135 0,-5.84812 c 0,-6.83085 -2.14467,-9.84813 -7,-9.84813 -4.8136,0 -6.99464,3.02421 -7.03161,9.75 -0.0314,5.71329 -0.0597,5.76704 -4.43256,8.41954 -6.28809,3.81424 -9.81906,9.59798 -10.35125,16.95538 -0.98726,13.64884 6.49784,21.96204 21.92813,24.35413 1.98699,0.30804 4.42449,1.45707 5.41667,2.55341 4.12381,4.55676 0.70558,12.30087 -5.42957,12.30087 -1.65622,0 -4.74291,-1.2 -6.85931,-2.66666 -6.80364,-4.71493 -13.57383,-2.54311 -13.57383,4.35438 0,3.62687 2.93157,6.95739 8.92058,10.13456 l 4.41275,2.34096 0,5.75171 c 0,6.72861 2.17005,9.75172 7,9.75172 1.66667,0 3.88889,-0.88889 5,-2 z M 265.49724,512.23989 c -17.48084,-9.31033 -27.41102,-15.14117 -27,-15.85395 1.05724,-1.83343 54.22452,-47.63151 54.72024,-47.13579 0.24952,0.24952 0.33582,17.83775 0.19179,39.08496 l -0.26189,38.6313 -27.65014,-14.72652 z m 162.15014,-24.21212 c 0,-21.45791 0.2588,-39.01439 0.5751,-39.01439 0.73036,0 52.50042,44.73701 54.15756,46.80016 1.0635,1.32407 -1.8184,3.17065 -21,13.45577 -12.22796,6.5566 -24.82016,13.23774 -27.98266,14.84698 l -5.75,2.92588 0,-39.01439 z m -103.45,-66.88316 c 26.69228,-24.41007 33.61321,-30.13123 36.45,-30.13123 2.83679,0 9.75772,5.72116 36.45,30.13123 0.53925,0.49314 -15.22044,0.86877 -36.45,0.86877 -21.22956,0 -36.98925,-0.37563 -36.45,-0.86877 z"
         style="fill:#aaaaaa;fill-opacity:1" />
      <path
         id="path6077-2"
         d="m 332.82213,550.74347 -26.36402,-14.37172 0,-45.8402 c 0,-47.24371 0.31368,-51.28881 4.13576,-53.33433 2.52653,-1.35215 97.72958,-1.35215 100.2561,0 3.8221,2.04553 4.13576,6.09059 4.13576,53.33534 l 0,45.84123 -26.54627,14.41288 c -14.60046,7.92702 -27.15536,14.39384 -27.89979,14.3706 -0.74444,-0.0236 -13.21733,-6.50941 -27.71754,-14.4138 z"
         style="display:inline;fill:#ffd460;fill-opacity:1" />
      <path
         id="path6181"
         d="m 360.39856,536.13262 c -11.5962,-2.8515 -21.13899,-11.09869 -25.39536,-21.94749 l -1.27365,-3.24631 -2.94445,0 c -3.19491,0 -3.91104,-0.54393 -3.91104,-2.97059 0,-1.75515 1.17748,-2.63182 3.53485,-2.63182 l 2.06755,0 0,-3.24366 0,-3.24368 -2.442,-0.14112 c -2.18803,-0.12643 -2.48874,-0.27463 -2.89133,-1.42499 -0.28792,-0.82272 -0.28781,-1.74505 3.5e-4,-2.56777 0.41613,-1.18816 0.66294,-1.29416 3.31018,-1.42163 2.83744,-0.13665 2.86287,-0.15034 3.15321,-1.69795 0.93071,-4.96114 4.88866,-11.90326 9.32622,-16.35791 7.4546,-7.48331 15.86172,-10.98559 26.37065,-10.98559 5.46352,0 9.05944,0.60454 13.1275,2.20694 4.75933,1.8747 12.13854,7.04576 12.13854,8.5062 0,0.6857 -8.24584,9.49704 -9.38112,10.02448 -0.69377,0.32234 -1.23809,0.17367 -2.19045,-0.59827 -0.69701,-0.56494 -2.84295,-1.8084 -4.76878,-2.76323 -3.3776,-1.67464 -3.67495,-1.73567 -8.4036,-1.72483 -6.06579,0.0139 -9.07217,1.06269 -12.79229,4.46268 -2.51035,2.29431 -5.02911,5.77529 -5.63044,7.78134 l -0.31488,1.05045 10.94568,0 c 12.31167,0 12.14988,-0.0456 11.90555,3.35029 l -0.14525,2.01868 -11.80613,0.12478 c -13.35594,0.14114 -12.55025,-0.13257 -12.02335,4.08458 l 0.31988,2.56021 9.23139,0 c 8.35029,0 9.30513,0.0815 10.00404,0.85378 0.88026,0.97268 0.99695,2.52346 0.28937,3.84558 -0.45038,0.84155 -1.05646,0.90305 -8.89949,0.90305 l -8.41619,0 1.54634,2.1569 c 5.83011,8.13213 18.66151,10.06504 27.46916,4.13791 1.32906,-0.89437 2.79821,-1.62614 3.26481,-1.62614 0.79417,0 9.79575,9.33712 9.79575,10.16089 0,1.4851 -4.78178,5.33818 -9.64218,7.76951 -6.96662,3.48491 -16.71529,4.51615 -24.52904,2.59473 z"
         style="fill:#ffffff" />
    </g>
  </g>
</svg>
