<?xml version="1.0" encoding="UTF-8" standalone="no"?>
<!-- Created with Inkscape (http://www.inkscape.org/) -->

<svg
   xmlns:dc="http://purl.org/dc/elements/1.1/"
   xmlns:cc="http://creativecommons.org/ns#"
   xmlns:rdf="http://www.w3.org/1999/02/22-rdf-syntax-ns#"
   xmlns:svg="http://www.w3.org/2000/svg"
   xmlns="http://www.w3.org/2000/svg"
   xmlns:sodipodi="http://sodipodi.sourceforge.net/DTD/sodipodi-0.dtd"
   xmlns:inkscape="http://www.inkscape.org/namespaces/inkscape"
   width="36.773872mm"
   height="36.773872mm"
   viewBox="0 0 130.30112 130.30112"
   id="svg9767"
   version="1.1"
   inkscape:version="0.91 r13725"
   sodipodi:docname="index_question.svg">
  <defs
     id="defs9769" />
  <sodipodi:namedview
     id="base"
     pagecolor="#ffffff"
     bordercolor="#666666"
     borderopacity="1.0"
     inkscape:pageopacity="0.0"
     inkscape:pageshadow="2"
     inkscape:zoom="1.7083333"
     inkscape:cx="-53.254525"
     inkscape:cy="182.14011"
     inkscape:document-units="px"
     inkscape:current-layer="layer1"
     showgrid="false"
     fit-margin-top="0"
     fit-margin-left="0"
     fit-margin-right="0"
     fit-margin-bottom="0"
     inkscape:window-width="1280"
     inkscape:window-height="1002"
     inkscape:window-x="-8"
     inkscape:window-y="49"
     inkscape:window-maximized="1" />
  <metadata
     id="metadata9772">
    <rdf:RDF>
      <cc:Work
         rdf:about="">
        <dc:format>image/svg+xml</dc:format>
        <dc:type
           rdf:resource="http://purl.org/dc/dcmitype/StillImage" />
        <dc:title></dc:title>
      </cc:Work>
    </rdf:RDF>
  </metadata>
  <g
     inkscape:label="Calque 1"
     inkscape:groupmode="layer"
     id="layer1"
     transform="translate(-512.6201,-613.83652)">
    <g
       transform="translate(436.38895,66.656022)"
       id="g10658">
      <path
         d="m 188.02436,658.97371 -11.86194,1.22888 -4.83428,10.90163 -11.66112,-2.49679 -7.96647,8.87418 -10.31884,-5.97808 -10.31883,5.97808 -7.96647,-8.87418 -11.66112,2.49679 -4.83429,-10.90163 -11.861937,-1.22888 -1.228889,-11.86195 -10.901629,-4.83428 2.496798,-11.66112 -8.874189,-7.96647 5.978082,-10.31883 -5.978082,-10.31884 8.874189,-7.96647 -2.496798,-11.66112 10.901629,-4.83428 1.228889,-11.86195 11.861937,-1.22889 4.83429,-10.90162 11.66112,2.49679 7.96647,-8.87418 10.31883,5.97808 10.31884,-5.97808 7.96646,8.87418 11.66113,-2.49679 4.83428,10.90162 11.86194,1.22889 1.22889,11.86194 10.90163,4.83429 -2.4968,11.66112 8.87419,7.96647 -5.97808,10.31883 5.97808,10.31884 -8.87419,7.96647 2.4968,11.66112 -10.90163,4.83428 z"
         inkscape:randomized="0"
         inkscape:rounded="3.1225e-017"
         inkscape:flatsided="false"
         sodipodi:arg2="0.94247779"
         sodipodi:arg1="0.78539816"
         sodipodi:r2="59.172478"
         sodipodi:r1="65.962669"
         sodipodi:cy="612.33105"
         sodipodi:cx="141.38171"
         sodipodi:sides="20"
         id="path10634"
         style="color:#000000;clip-rule:nonzero;display:inline;overflow:visible;visibility:visible;opacity:1;isolation:auto;mix-blend-mode:normal;color-interpolation:sRGB;color-interpolation-filters:linearRGB;solid-color:#000000;solid-opacity:1;fill:#ffffff;fill-opacity:1;fill-rule:nonzero;stroke:none;stroke-width:2;stroke-linecap:round;stroke-linejoin:round;stroke-miterlimit:4;stroke-dasharray:none;stroke-dashoffset:0;stroke-opacity:1;color-rendering:auto;image-rendering:auto;shape-rendering:auto;text-rendering:auto;enable-background:accumulate"
         sodipodi:type="star" />
      <path
         inkscape:connector-curvature="0"
         id="path10634-0"
         d="m 102.46944,564.88787 -7.730462,0.80078 -1.22852,11.86132 -10.902344,4.83399 2.498044,11.66211 -8.875004,7.9668 5.97852,10.31835 -5.97852,10.31836 8.875004,7.9668 -2.498044,11.66211 10.902344,4.83398 1.22852,11.86133 11.861322,1.22852 4.83399,10.90234 11.66211,-2.49609 7.96679,8.87304 10.31836,-5.97851 10.31836,5.97851 7.9668,-8.87304 11.66211,2.49609 4.83398,-10.90234 0.46289,-0.0488 -74.15625,-95.26562 z"
         style="color:#000000;clip-rule:nonzero;display:inline;overflow:visible;visibility:visible;opacity:1;isolation:auto;mix-blend-mode:normal;color-interpolation:sRGB;color-interpolation-filters:linearRGB;solid-color:#000000;solid-opacity:1;fill:#3db39e;fill-opacity:0.17372879;fill-rule:nonzero;stroke:none;stroke-width:2;stroke-linecap:round;stroke-linejoin:round;stroke-miterlimit:4;stroke-dasharray:none;stroke-dashoffset:0;stroke-opacity:1;color-rendering:auto;image-rendering:auto;shape-rendering:auto;text-rendering:auto;enable-background:accumulate" />
      <text
         sodipodi:linespacing="69.999999%"
         id="text10636"
         y="641.94165"
         x="120.78546"
         style="font-style:normal;font-weight:normal;font-size:77.96619415px;line-height:69.99999881%;font-family:sans-serif;letter-spacing:0px;word-spacing:0px;fill:#3db39e;fill-opacity:1;stroke:none;stroke-width:1px;stroke-linecap:butt;stroke-linejoin:miter;stroke-opacity:1"
         xml:space="preserve"><tspan
           style="font-style:normal;font-variant:normal;font-weight:900;font-stretch:normal;font-family:'Circular Std Black';-inkscape-font-specification:'Circular Std Black, Heavy';fill:#3db39e;fill-opacity:1"
           y="641.94165"
           x="120.78546"
           id="tspan10638"
           sodipodi:role="line">?</tspan></text>
    </g>
  </g>
</svg>
