<?xml version="1.0" encoding="UTF-8" standalone="no"?>
<!-- Created with Inkscape (http://www.inkscape.org/) -->

<svg
   xmlns:dc="http://purl.org/dc/elements/1.1/"
   xmlns:cc="http://creativecommons.org/ns#"
   xmlns:rdf="http://www.w3.org/1999/02/22-rdf-syntax-ns#"
   xmlns:svg="http://www.w3.org/2000/svg"
   xmlns="http://www.w3.org/2000/svg"
   xmlns:sodipodi="http://sodipodi.sourceforge.net/DTD/sodipodi-0.dtd"
   xmlns:inkscape="http://www.inkscape.org/namespaces/inkscape"
   width="100mm"
   height="100mm"
   viewBox="0 0 354.33071 354.33071"
   id="svg3379"
   version="1.1"
   inkscape:version="0.91 r13725"
   sodipodi:docname="social_education2.svg">
  <defs
     id="defs3381">
    <clipPath
       clipPathUnits="userSpaceOnUse"
       id="clipPath4259">
      <g
         transform="matrix(1.1594988,0,0,1.1594988,4.9803622,703.0113)"
         id="g4261"
         style="fill:#3db39e;fill-opacity:1">
        <g
           id="g4263"
           style="fill:#3db39e;fill-opacity:1">
          <g
             id="g4265"
             style="fill:#3db39e;fill-opacity:1">
            <path
               d="m 45.432,35.049 c -0.008,0 -0.017,0 -0.025,0 -2.809,0 -5.451,1.095 -7.446,3.085 -2.017,2.012 -3.128,4.691 -3.128,7.543 l 0,159.365 c 0,5.844 4.773,10.61 10.641,10.625 24.738,0.059 66.184,5.215 94.776,35.136 l 0,-166.78 c 0,-1.981 -0.506,-3.842 -1.461,-5.382 C 115.322,40.849 70.226,35.107 45.432,35.049 Z"
               id="path4267"
               inkscape:connector-curvature="0"
               style="fill:#3db39e;fill-opacity:1" />
            <path
               d="m 262.167,205.042 0,-159.366 c 0,-2.852 -1.111,-5.531 -3.128,-7.543 -1.995,-1.99 -4.639,-3.085 -7.445,-3.085 -0.009,0 -0.018,0 -0.026,0 -24.793,0.059 -69.889,5.801 -93.357,43.593 -0.955,1.54 -1.46,3.401 -1.46,5.382 l 0,166.779 c 28.592,-29.921 70.038,-35.077 94.776,-35.136 5.867,-0.015 10.64,-4.781 10.64,-10.624 z"
               id="path4269"
               inkscape:connector-curvature="0"
               style="fill:#3db39e;fill-opacity:1" />
            <path
               d="m 286.373,71.801 -7.706,0 0,133.241 c 0,14.921 -12.157,27.088 -27.101,27.125 -20.983,0.05 -55.581,4.153 -80.084,27.344 42.378,-10.376 87.052,-3.631 112.512,2.171 3.179,0.724 6.464,-0.024 9.011,-2.054 2.538,-2.025 3.994,-5.052 3.994,-8.301 l 0,-168.9 C 297,76.568 292.232,71.801 286.373,71.801 Z"
               id="path4271"
               inkscape:connector-curvature="0"
               style="fill:#3db39e;fill-opacity:1" />
            <path
               d="m 18.332,205.042 0,-133.241 -7.706,0 C 4.768,71.801 0,76.568 0,82.427 l 0,168.897 c 0,3.25 1.456,6.276 3.994,8.301 2.545,2.029 5.827,2.78 9.011,2.054 25.46,-5.803 70.135,-12.547 112.511,-2.171 -24.502,-23.19 -59.1,-27.292 -80.083,-27.342 C 30.49,232.13 18.332,219.963 18.332,205.042 Z"
               id="path4273"
               inkscape:connector-curvature="0"
               style="fill:#3db39e;fill-opacity:1" />
          </g>
        </g>
      </g>
    </clipPath>
    <clipPath
       clipPathUnits="userSpaceOnUse"
       id="clipPath4341">
      <g
         transform="matrix(0.86876854,0,0,0.86876854,3.8590621,701.89024)"
         id="g4343"
         style="fill:#3db39e;fill-opacity:1">
        <g
           id="g4345"
           style="fill:#3db39e;fill-opacity:1">
          <g
             id="g4347"
             style="fill:#3db39e;fill-opacity:1">
            <path
               inkscape:connector-curvature="0"
               d="m 225.092,276.586 c -7.101,4.355 -16.195,6.754 -25.607,6.754 -9.412,0 -18.506,-2.398 -25.607,-6.754 L 57.946,205.484 c 0,0 -10.464,-6.414 -10.464,8.116 0,16.5 0,66 0,66 0,0.66 0,3.973 0,5 0,37.402 68.053,77.723 152,77.723 83.947,0 152,-40.32 152,-77.723 0,-1.027 0,-4.34 0,-5 0,0 0,-52.502 0,-70.003 0,-11.663 -7.439,-5.964 -7.439,-5.964 l -118.951,72.953 z"
               id="path4349"
               style="fill:#3db39e;fill-opacity:1" />
            <path
               inkscape:connector-curvature="0"
               d="m 392.289,148.927 c 8.908,-5.463 8.908,-14.403 0,-19.867 L 215.681,40.745 c -8.908,-5.463 -23.485,-5.463 -32.393,0 L 6.681,129.06 c -8.908,5.463 -8.908,14.403 0,19.867 l 176.607,108.315 c 8.908,5.463 23.485,5.463 32.393,0"
               id="path4351"
               style="fill:#3db39e;fill-opacity:1" />
            <path
               inkscape:connector-curvature="0"
               d="m 384.985,309.475 c 0,-29.906 0,-119.625 0,-119.625 0,0 0.083,-5.666 -3.279,-3.795 -2.697,1.501 -9.308,5.186 -11.637,7.212 -2.689,2.337 -2.083,7.583 -2.083,7.583 0,0 0,81.469 0,108.625 0,1.542 -1.325,2.278 -1.957,2.65 -6.105,3.589 -10.21,10.214 -10.21,17.809 0,11.414 9.252,20.667 20.667,20.667 11.414,0 20.666,-9.253 20.666,-20.667 0,-7.624 -4.135,-14.27 -10.279,-17.85 -0.611,-0.356 -1.888,-1.068 -1.888,-2.609 z"
               id="path4353"
               style="fill:#3db39e;fill-opacity:1" />
          </g>
        </g>
      </g>
    </clipPath>
  </defs>
  <sodipodi:namedview
     id="base"
     pagecolor="#ffffff"
     bordercolor="#666666"
     borderopacity="1.0"
     inkscape:pageopacity="0.0"
     inkscape:pageshadow="2"
     inkscape:zoom="1.203268"
     inkscape:cx="93.80242"
     inkscape:cy="98.891907"
     inkscape:document-units="px"
     inkscape:current-layer="layer1"
     showgrid="false"
     inkscape:window-width="1280"
     inkscape:window-height="1002"
     inkscape:window-x="-8"
     inkscape:window-y="-8"
     inkscape:window-maximized="1" />
  <metadata
     id="metadata3384">
    <rdf:RDF>
      <cc:Work
         rdf:about="">
        <dc:format>image/svg+xml</dc:format>
        <dc:type
           rdf:resource="http://purl.org/dc/dcmitype/StillImage" />
        <dc:title></dc:title>
      </cc:Work>
    </rdf:RDF>
  </metadata>
  <g
     inkscape:label="Calque 1"
     inkscape:groupmode="layer"
     id="layer1"
     transform="translate(0,-698.0315)">
    <g
       id="g4397"
       transform="translate(0.97850303,10.714964)">
      <path
         id="path3"
         d="m 266.38532,783.56821 0,-53.05784 0.79618,0 c 6.89754,0 12.46879,-5.30584 12.46879,-11.938 0,-6.63213 -5.57125,-11.93799 -12.46879,-11.93799 l -86.48464,0 c -6.89754,0 -12.46878,5.30586 -12.46878,11.93799 0,6.63216 5.57124,11.938 12.46878,11.938 l 0.79618,0 0,52.26234 c -48.01738,16.71306 -82.23969,62.60865 -82.23969,116.19723 0,68.17924 55.18032,123.35946 123.35954,123.35946 68.17922,0 123.35952,-55.18022 123.35952,-123.35946 0,-52.79308 -33.16139,-97.62708 -79.58709,-115.40173 z"
         style="fill:#efefef"
         inkscape:connector-curvature="0" />
      <path
         id="path5"
         d="m 223.93919,741.12208 -42.44615,0 0,41.38524 c -48.01738,16.97845 -82.23969,62.87404 -82.23969,116.462 0,68.17911 55.18032,123.35938 123.35954,123.35938 l 1.3263,0 0,-281.20662 z"
         style="fill:#e5e4e4"
         inkscape:connector-curvature="0" />
      <path
         id="path7"
         d="m 202.98116,875.09331 c 48.81358,0 105.0548,-45.0994 118.84987,0.26537 2.38787,7.69374 2.91798,15.91752 2.91798,24.40677 0,57.56826 -46.42569,104.25925 -103.46309,104.25925 -57.0374,0 -103.4631,-46.69099 -103.4631,-104.25925 0,-12.20334 2.12247,-23.87592 5.83665,-35.01848 9.55012,-24.93686 34.2223,10.34634 79.32169,10.34634 z"
         style="fill:#3db39e;fill-opacity:1"
         inkscape:connector-curvature="0" />
      <path
         id="path9"
         d="m 223.93919,872.70609 c -7.16294,1.32634 -14.06048,2.38793 -20.95803,2.38793 -45.09939,0 -69.77157,-35.28391 -79.32169,-10.34633 -3.97957,10.87708 -5.83665,22.54967 -5.83665,35.01847 0,57.5682 46.4257,104.25914 103.4631,104.25914 l 2.65259,0 c 6.8e-4,-6e-4 6.8e-4,-131.31921 6.8e-4,-131.31921 z"
         style="fill:#38a491;fill-opacity:1"
         inkscape:connector-curvature="0" />
      <path
         id="path11"
         d="m 246.48888,940.08982 c -9.55012,0 -17.24385,7.69366 -17.24385,17.24389 0,9.55009 7.69373,17.24367 17.24385,17.24367 9.55013,0 17.24384,-7.69358 17.24384,-17.24367 0,-9.55086 -7.69371,-17.24389 -17.24384,-17.24389 z m 2.65259,-23.87601 c 5.04046,0 9.28542,-4.24493 9.28542,-9.28537 0,-5.04052 -4.24496,-9.28547 -9.28542,-9.28547 -5.04045,0 -9.28541,4.24495 -9.28541,9.28547 6.7e-4,5.04044 4.24496,9.28537 9.28541,9.28537 z m 34.48771,-2.65331 c -6.63216,0 -11.938,5.3059 -11.938,11.93806 0,6.63214 5.30584,11.93796 11.938,11.93796 6.63213,0 11.93799,-5.30582 11.93799,-11.93796 0,-6.63216 -5.30586,-11.93806 -11.93799,-11.93806 z m 7.9591,-37.14023 c -5.04045,0 -9.2854,4.24494 -9.2854,9.28547 0,5.04034 4.24495,9.28536 9.2854,9.28536 5.04047,0 9.28542,-4.24502 9.28542,-9.28536 -6.8e-4,-5.04116 -4.24495,-9.28547 -9.28542,-9.28547 z"
         style="fill:#ffffff;fill-opacity:0.34576272"
         inkscape:connector-curvature="0" />
      <path
         id="path13"
         d="m 181.49237,730.51037 84.89295,0 0,10.61171 -84.89295,0 0,-10.61171 z"
         style="fill:#dcdcdc"
         inkscape:connector-curvature="0" />
      <path
         id="path15"
         d="m 139.04623,706.63438 -122.033235,0 c -5.836642,0 -10.6117024,4.77507 -10.6117024,10.61171 l 0,2.65258 c 0,5.83664 4.7750604,10.6117 10.6117024,10.6117 l 0,231.06745 c 0,33.69151 27.324768,60.75158 61.016955,60.75158 33.69218,0 61.01695,-27.3247 61.01695,-60.75158 l 0,-231.06745 c 5.83665,0 10.61171,-4.77506 10.61171,-10.6117 l 0,-2.65258 c -6.7e-4,-5.83664 -4.77574,-10.61171 -10.61238,-10.61171 z"
         style="fill:#efefef"
         inkscape:connector-curvature="0" />
      <path
         id="path17"
         d="m 17.012995,730.51037 122.033235,0 0,10.61171 -122.033235,0 0,-10.61171 z"
         style="fill:#dcdcdc"
         inkscape:connector-curvature="0" />
      <path
         id="path19"
         d="m 96.069302,786.22148 c 12.998898,0 24.141388,6.10137 24.141388,6.10137 l 0,169.25497 c 0,23.34526 -19.10093,42.18148 -42.446133,42.18148 -23.34521,0 -42.446136,-18.83557 -42.446136,-42.18148 l 0,-169.25497 c 0,0 10.877094,6.10135 24.141389,6.10135 13.264294,0 24.14071,-12.20272 36.609492,-12.20272 z"
         style="fill:#2d4059;fill-opacity:1"
         inkscape:connector-curvature="0" />
      <path
         id="path21"
         d="m 70.070842,865.80856 c -8.754629,0 -15.917558,7.16299 -15.917558,15.91762 0,8.75452 7.162929,15.91752 15.917558,15.91752 8.754618,0 15.917547,-7.163 15.917547,-15.91752 0,-8.75463 -7.162929,-15.91762 -15.917547,-15.91762 z m 25.20228,-13.26492 c 5.040458,0 9.285408,-4.24494 9.285408,-9.28544 0,-5.04045 -4.24495,-9.2854 -9.285408,-9.2854 -5.040453,0 -9.285402,4.24495 -9.285402,9.2854 0,5.0405 4.244949,9.28544 9.285402,9.28544 z m 0,61.01686 c -6.632143,0 -11.937996,5.3059 -11.937996,11.93806 0,6.63214 5.305853,11.93796 11.937996,11.93796 6.632148,0 11.937998,-5.30582 11.937998,-11.93796 0,-6.63216 -5.30518,-11.93806 -11.937998,-11.93806 z m -30.508136,31.83514 c -4.509676,0 -7.958439,3.44876 -7.958439,7.95848 0,4.5096 3.448763,7.95842 7.958439,7.95842 4.509666,0 7.958439,-3.44882 7.958439,-7.95842 6.79e-4,-4.24498 -3.713486,-7.95848 -7.958439,-7.95848 z"
         style="fill:#ffffff;fill-opacity:0.26101697"
         inkscape:connector-curvature="0" />
      <circle
         id="ellipse23"
         cy="916.2124"
         cx="189.44879"
         style="fill:#ffffff;fill-opacity:0.34576272"
         r="21.223406" />
    </g>
  </g>
</svg>
