<?xml version="1.0" encoding="UTF-8" standalone="no"?>
<!-- Created with Inkscape (http://www.inkscape.org/) -->

<svg
   xmlns:dc="http://purl.org/dc/elements/1.1/"
   xmlns:cc="http://creativecommons.org/ns#"
   xmlns:rdf="http://www.w3.org/1999/02/22-rdf-syntax-ns#"
   xmlns:svg="http://www.w3.org/2000/svg"
   xmlns="http://www.w3.org/2000/svg"
   xmlns:sodipodi="http://sodipodi.sourceforge.net/DTD/sodipodi-0.dtd"
   xmlns:inkscape="http://www.inkscape.org/namespaces/inkscape"
   width="100mm"
   height="100mm"
   viewBox="0 0 354.33071 354.33071"
   id="svg3379"
   version="1.1"
   inkscape:version="0.91 r13725"
   sodipodi:docname="social_revenu_uc.svg">
  <defs
     id="defs3381">
    <clipPath
       clipPathUnits="userSpaceOnUse"
       id="clipPath4259">
      <g
         transform="matrix(1.1594988,0,0,1.1594988,4.9803622,703.0113)"
         id="g4261"
         style="fill:#3db39e;fill-opacity:1">
        <g
           id="g4263"
           style="fill:#3db39e;fill-opacity:1">
          <g
             id="g4265"
             style="fill:#3db39e;fill-opacity:1">
            <path
               d="m 45.432,35.049 c -0.008,0 -0.017,0 -0.025,0 -2.809,0 -5.451,1.095 -7.446,3.085 -2.017,2.012 -3.128,4.691 -3.128,7.543 l 0,159.365 c 0,5.844 4.773,10.61 10.641,10.625 24.738,0.059 66.184,5.215 94.776,35.136 l 0,-166.78 c 0,-1.981 -0.506,-3.842 -1.461,-5.382 C 115.322,40.849 70.226,35.107 45.432,35.049 Z"
               id="path4267"
               inkscape:connector-curvature="0"
               style="fill:#3db39e;fill-opacity:1" />
            <path
               d="m 262.167,205.042 0,-159.366 c 0,-2.852 -1.111,-5.531 -3.128,-7.543 -1.995,-1.99 -4.639,-3.085 -7.445,-3.085 -0.009,0 -0.018,0 -0.026,0 -24.793,0.059 -69.889,5.801 -93.357,43.593 -0.955,1.54 -1.46,3.401 -1.46,5.382 l 0,166.779 c 28.592,-29.921 70.038,-35.077 94.776,-35.136 5.867,-0.015 10.64,-4.781 10.64,-10.624 z"
               id="path4269"
               inkscape:connector-curvature="0"
               style="fill:#3db39e;fill-opacity:1" />
            <path
               d="m 286.373,71.801 -7.706,0 0,133.241 c 0,14.921 -12.157,27.088 -27.101,27.125 -20.983,0.05 -55.581,4.153 -80.084,27.344 42.378,-10.376 87.052,-3.631 112.512,2.171 3.179,0.724 6.464,-0.024 9.011,-2.054 2.538,-2.025 3.994,-5.052 3.994,-8.301 l 0,-168.9 C 297,76.568 292.232,71.801 286.373,71.801 Z"
               id="path4271"
               inkscape:connector-curvature="0"
               style="fill:#3db39e;fill-opacity:1" />
            <path
               d="m 18.332,205.042 0,-133.241 -7.706,0 C 4.768,71.801 0,76.568 0,82.427 l 0,168.897 c 0,3.25 1.456,6.276 3.994,8.301 2.545,2.029 5.827,2.78 9.011,2.054 25.46,-5.803 70.135,-12.547 112.511,-2.171 -24.502,-23.19 -59.1,-27.292 -80.083,-27.342 C 30.49,232.13 18.332,219.963 18.332,205.042 Z"
               id="path4273"
               inkscape:connector-curvature="0"
               style="fill:#3db39e;fill-opacity:1" />
          </g>
        </g>
      </g>
    </clipPath>
    <clipPath
       clipPathUnits="userSpaceOnUse"
       id="clipPath4341">
      <g
         transform="matrix(0.86876854,0,0,0.86876854,3.8590621,701.89024)"
         id="g4343"
         style="fill:#3db39e;fill-opacity:1">
        <g
           id="g4345"
           style="fill:#3db39e;fill-opacity:1">
          <g
             id="g4347"
             style="fill:#3db39e;fill-opacity:1">
            <path
               inkscape:connector-curvature="0"
               d="m 225.092,276.586 c -7.101,4.355 -16.195,6.754 -25.607,6.754 -9.412,0 -18.506,-2.398 -25.607,-6.754 L 57.946,205.484 c 0,0 -10.464,-6.414 -10.464,8.116 0,16.5 0,66 0,66 0,0.66 0,3.973 0,5 0,37.402 68.053,77.723 152,77.723 83.947,0 152,-40.32 152,-77.723 0,-1.027 0,-4.34 0,-5 0,0 0,-52.502 0,-70.003 0,-11.663 -7.439,-5.964 -7.439,-5.964 l -118.951,72.953 z"
               id="path4349"
               style="fill:#3db39e;fill-opacity:1" />
            <path
               inkscape:connector-curvature="0"
               d="m 392.289,148.927 c 8.908,-5.463 8.908,-14.403 0,-19.867 L 215.681,40.745 c -8.908,-5.463 -23.485,-5.463 -32.393,0 L 6.681,129.06 c -8.908,5.463 -8.908,14.403 0,19.867 l 176.607,108.315 c 8.908,5.463 23.485,5.463 32.393,0"
               id="path4351"
               style="fill:#3db39e;fill-opacity:1" />
            <path
               inkscape:connector-curvature="0"
               d="m 384.985,309.475 c 0,-29.906 0,-119.625 0,-119.625 0,0 0.083,-5.666 -3.279,-3.795 -2.697,1.501 -9.308,5.186 -11.637,7.212 -2.689,2.337 -2.083,7.583 -2.083,7.583 0,0 0,81.469 0,108.625 0,1.542 -1.325,2.278 -1.957,2.65 -6.105,3.589 -10.21,10.214 -10.21,17.809 0,11.414 9.252,20.667 20.667,20.667 11.414,0 20.666,-9.253 20.666,-20.667 0,-7.624 -4.135,-14.27 -10.279,-17.85 -0.611,-0.356 -1.888,-1.068 -1.888,-2.609 z"
               id="path4353"
               style="fill:#3db39e;fill-opacity:1" />
          </g>
        </g>
      </g>
    </clipPath>
  </defs>
  <sodipodi:namedview
     id="base"
     pagecolor="#ffffff"
     bordercolor="#666666"
     borderopacity="1.0"
     inkscape:pageopacity="0.0"
     inkscape:pageshadow="2"
     inkscape:zoom="1.203268"
     inkscape:cx="106.56457"
     inkscape:cy="98.891907"
     inkscape:document-units="px"
     inkscape:current-layer="layer1"
     showgrid="false"
     inkscape:window-width="1280"
     inkscape:window-height="1002"
     inkscape:window-x="-8"
     inkscape:window-y="49"
     inkscape:window-maximized="1" />
  <metadata
     id="metadata3384">
    <rdf:RDF>
      <cc:Work
         rdf:about="">
        <dc:format>image/svg+xml</dc:format>
        <dc:type
           rdf:resource="http://purl.org/dc/dcmitype/StillImage" />
        <dc:title></dc:title>
      </cc:Work>
    </rdf:RDF>
  </metadata>
  <g
     inkscape:label="Calque 1"
     inkscape:groupmode="layer"
     id="layer1"
     transform="translate(0,-698.0315)">
    <path
       style="fill:#3db39e;fill-opacity:1"
       d="m 175.44272,1002.8214 c -4.59757,-1.5166 -16.20864,-6.74287 -25.80241,-11.61417 -21.70237,-11.0195 -30.21698,-11.3783 -31.64357,-1.3335 -1.01709,7.1614 -2.69438,7.5687 -34.871404,8.4709 l -33.802961,0.9477 -2.141619,-15.625 c -2.731003,-19.92486 -2.701972,-66.02548 0.05215,-82.69433 l 2.120104,-12.83184 67.22449,1.65688 c 48.93238,1.20599 71.10128,3.06859 81.47188,6.84503 16.94274,6.1697 44.26706,24.34881 44.26706,29.45121 0,1.9849 6.73736,-2.60136 14.97189,-10.19168 17.91736,-16.51567 31.08649,-18.20144 43.69454,-5.5934 14.10768,14.10768 11.11984,22.9979 -17.70632,52.68534 -14.25242,14.67829 -31.93217,29.78989 -39.28826,33.58139 -14.55295,7.50097 -53.87702,11.08397 -68.54549,6.24547 z m 61.85811,-18.37267 c 17.29033,-8.1365 58.51446,-47.80822 58.51446,-56.31096 0,-2.54993 -1.80559,-6.44177 -4.01241,-8.64861 -9.07657,-9.07659 -14.68823,-5.17793 -55.57535,38.61029 -8.26105,8.84716 -15.60899,8.96453 -44.90233,0.71729 -12.93359,-3.6413 -14.28035,-5.32889 -9.83577,-12.32476 2.01391,-3.16989 6.57164,-2.82361 20.2009,1.53487 19.46589,6.22497 28.1331,3.81322 29.95023,-8.33391 2.94523,-19.68861 -60.26838,-42.57524 -99.35481,-35.97164 l -13.68565,2.31221 0,31.47106 c 0,30.38927 0.25847,31.47318 7.52329,31.53276 4.1378,0.0337 18.80822,5.27243 32.6009,11.6412 31.27295,14.4403 53.62348,15.5126 78.57654,3.7702 z M 212.22322,895.4499 c -17.56065,-3.27633 -31.44215,-11.68846 -44.54135,-26.99192 -48.41056,-56.55687 9.52013,-141.28268 81.79518,-119.62853 31.53368,9.4477 55.42803,45.4371 52.02947,78.36621 -2.0849,20.20039 -8.3119,33.54472 -22.07647,47.30931 -17.46752,17.46748 -43.07326,25.44748 -67.20683,20.94493 z m 47.99268,-23.57436 c 18.87723,-12.93489 26.56748,-29.84728 24.97115,-54.91666 -1.58204,-24.84604 -11.61698,-40.74552 -31.81499,-50.40833 -40.7932,-19.51552 -87.96038,9.86694 -87.96038,54.79431 0,24.74662 11.43572,42.8657 35.10866,55.62725 14.62771,7.88547 44.4675,5.33786 59.69556,-5.09657 z"
       id="path4213"
       inkscape:connector-curvature="0"
       sodipodi:nodetypes="cssscsscsssssssccssssssssscscssssssssssssss" />
    <g
       style="font-style:normal;font-weight:normal;font-size:87.21083069px;line-height:69.99999881%;font-family:sans-serif;letter-spacing:0px;word-spacing:0px;fill:#3db39e;fill-opacity:1;stroke:none;stroke-width:1px;stroke-linecap:butt;stroke-linejoin:miter;stroke-opacity:1"
       id="text4893"
       transform="matrix(1.0792798,0,0,1.0792798,-21.808686,-62.679383)">
      <path
         d="m 245.79978,834.47645 c -2.52912,2.00585 -6.19197,3.31401 -10.63972,3.31401 -5.14544,0 -9.76762,-2.00585 -12.73278,-6.10476 l 10.90135,0 3.92449,-8.8955 -17.96543,0 c -0.0872,-0.87211 -0.0872,-1.74422 -0.0872,-2.4419 0,-0.7849 0,-1.39538 0.0872,-2.26748 l 19.79685,0 4.09891,-8.8083 -21.27944,0 c 3.05238,-4.79659 8.11061,-6.80244 13.08163,-6.80244 4.01169,0 7.58734,0.78489 10.11645,2.52911 l 4.88381,-10.4653 c -3.92449,-2.4419 -8.37224,-3.92449 -15.00026,-3.92449 -12.47115,0 -23.37251,7.2385 -27.64584,18.66312 l -7.93618,0 0,8.8083 6.10475,0 c -0.0872,0.8721 -0.0872,1.56979 -0.0872,2.26748 0,1.04653 0,1.56979 0.0872,2.4419 l -6.10475,0 0,8.8955 7.93618,0 c 4.27333,11.42462 14.91305,18.22707 27.82026,18.22707 6.97686,0 12.81999,-2.4419 16.65727,-5.49428 l -6.01755,-9.94204 z"
         style="font-style:normal;font-variant:normal;font-weight:900;font-stretch:normal;font-family:'Circular Std Black';-inkscape-font-specification:'Circular Std Black, Heavy';fill:#3db39e;fill-opacity:1"
         id="path4898"
         inkscape:connector-curvature="0" />
    </g>
  </g>
</svg>
