<?xml version="1.0" encoding="UTF-8" standalone="no"?>
<!-- Created with Inkscape (http://www.inkscape.org/) -->

<svg
   xmlns:dc="http://purl.org/dc/elements/1.1/"
   xmlns:cc="http://creativecommons.org/ns#"
   xmlns:rdf="http://www.w3.org/1999/02/22-rdf-syntax-ns#"
   xmlns:svg="http://www.w3.org/2000/svg"
   xmlns="http://www.w3.org/2000/svg"
   xmlns:sodipodi="http://sodipodi.sourceforge.net/DTD/sodipodi-0.dtd"
   xmlns:inkscape="http://www.inkscape.org/namespaces/inkscape"
   width="100mm"
   height="100mm"
   viewBox="0 0 354.33071 354.33071"
   id="svg3379"
   version="1.1"
   inkscape:version="0.91 r13725"
   sodipodi:docname="social_fammone.svg">
  <defs
     id="defs3381">
    <clipPath
       clipPathUnits="userSpaceOnUse"
       id="clipPath4259">
      <g
         transform="matrix(1.1594988,0,0,1.1594988,4.9803622,703.0113)"
         id="g4261"
         style="fill:#3db39e;fill-opacity:1">
        <g
           id="g4263"
           style="fill:#3db39e;fill-opacity:1">
          <g
             id="g4265"
             style="fill:#3db39e;fill-opacity:1">
            <path
               d="m 45.432,35.049 c -0.008,0 -0.017,0 -0.025,0 -2.809,0 -5.451,1.095 -7.446,3.085 -2.017,2.012 -3.128,4.691 -3.128,7.543 l 0,159.365 c 0,5.844 4.773,10.61 10.641,10.625 24.738,0.059 66.184,5.215 94.776,35.136 l 0,-166.78 c 0,-1.981 -0.506,-3.842 -1.461,-5.382 C 115.322,40.849 70.226,35.107 45.432,35.049 Z"
               id="path4267"
               inkscape:connector-curvature="0"
               style="fill:#3db39e;fill-opacity:1" />
            <path
               d="m 262.167,205.042 0,-159.366 c 0,-2.852 -1.111,-5.531 -3.128,-7.543 -1.995,-1.99 -4.639,-3.085 -7.445,-3.085 -0.009,0 -0.018,0 -0.026,0 -24.793,0.059 -69.889,5.801 -93.357,43.593 -0.955,1.54 -1.46,3.401 -1.46,5.382 l 0,166.779 c 28.592,-29.921 70.038,-35.077 94.776,-35.136 5.867,-0.015 10.64,-4.781 10.64,-10.624 z"
               id="path4269"
               inkscape:connector-curvature="0"
               style="fill:#3db39e;fill-opacity:1" />
            <path
               d="m 286.373,71.801 -7.706,0 0,133.241 c 0,14.921 -12.157,27.088 -27.101,27.125 -20.983,0.05 -55.581,4.153 -80.084,27.344 42.378,-10.376 87.052,-3.631 112.512,2.171 3.179,0.724 6.464,-0.024 9.011,-2.054 2.538,-2.025 3.994,-5.052 3.994,-8.301 l 0,-168.9 C 297,76.568 292.232,71.801 286.373,71.801 Z"
               id="path4271"
               inkscape:connector-curvature="0"
               style="fill:#3db39e;fill-opacity:1" />
            <path
               d="m 18.332,205.042 0,-133.241 -7.706,0 C 4.768,71.801 0,76.568 0,82.427 l 0,168.897 c 0,3.25 1.456,6.276 3.994,8.301 2.545,2.029 5.827,2.78 9.011,2.054 25.46,-5.803 70.135,-12.547 112.511,-2.171 -24.502,-23.19 -59.1,-27.292 -80.083,-27.342 C 30.49,232.13 18.332,219.963 18.332,205.042 Z"
               id="path4273"
               inkscape:connector-curvature="0"
               style="fill:#3db39e;fill-opacity:1" />
          </g>
        </g>
      </g>
    </clipPath>
    <clipPath
       clipPathUnits="userSpaceOnUse"
       id="clipPath4341">
      <g
         transform="matrix(0.86876854,0,0,0.86876854,3.8590621,701.89024)"
         id="g4343"
         style="fill:#3db39e;fill-opacity:1">
        <g
           id="g4345"
           style="fill:#3db39e;fill-opacity:1">
          <g
             id="g4347"
             style="fill:#3db39e;fill-opacity:1">
            <path
               inkscape:connector-curvature="0"
               d="m 225.092,276.586 c -7.101,4.355 -16.195,6.754 -25.607,6.754 -9.412,0 -18.506,-2.398 -25.607,-6.754 L 57.946,205.484 c 0,0 -10.464,-6.414 -10.464,8.116 0,16.5 0,66 0,66 0,0.66 0,3.973 0,5 0,37.402 68.053,77.723 152,77.723 83.947,0 152,-40.32 152,-77.723 0,-1.027 0,-4.34 0,-5 0,0 0,-52.502 0,-70.003 0,-11.663 -7.439,-5.964 -7.439,-5.964 l -118.951,72.953 z"
               id="path4349"
               style="fill:#3db39e;fill-opacity:1" />
            <path
               inkscape:connector-curvature="0"
               d="m 392.289,148.927 c 8.908,-5.463 8.908,-14.403 0,-19.867 L 215.681,40.745 c -8.908,-5.463 -23.485,-5.463 -32.393,0 L 6.681,129.06 c -8.908,5.463 -8.908,14.403 0,19.867 l 176.607,108.315 c 8.908,5.463 23.485,5.463 32.393,0"
               id="path4351"
               style="fill:#3db39e;fill-opacity:1" />
            <path
               inkscape:connector-curvature="0"
               d="m 384.985,309.475 c 0,-29.906 0,-119.625 0,-119.625 0,0 0.083,-5.666 -3.279,-3.795 -2.697,1.501 -9.308,5.186 -11.637,7.212 -2.689,2.337 -2.083,7.583 -2.083,7.583 0,0 0,81.469 0,108.625 0,1.542 -1.325,2.278 -1.957,2.65 -6.105,3.589 -10.21,10.214 -10.21,17.809 0,11.414 9.252,20.667 20.667,20.667 11.414,0 20.666,-9.253 20.666,-20.667 0,-7.624 -4.135,-14.27 -10.279,-17.85 -0.611,-0.356 -1.888,-1.068 -1.888,-2.609 z"
               id="path4353"
               style="fill:#3db39e;fill-opacity:1" />
          </g>
        </g>
      </g>
    </clipPath>
  </defs>
  <sodipodi:namedview
     id="base"
     pagecolor="#ffffff"
     bordercolor="#666666"
     borderopacity="1.0"
     inkscape:pageopacity="0.0"
     inkscape:pageshadow="2"
     inkscape:zoom="1.203268"
     inkscape:cx="106.56457"
     inkscape:cy="98.891907"
     inkscape:document-units="px"
     inkscape:current-layer="layer1"
     showgrid="false"
     inkscape:window-width="1280"
     inkscape:window-height="1002"
     inkscape:window-x="-8"
     inkscape:window-y="49"
     inkscape:window-maximized="1" />
  <metadata
     id="metadata3384">
    <rdf:RDF>
      <cc:Work
         rdf:about="">
        <dc:format>image/svg+xml</dc:format>
        <dc:type
           rdf:resource="http://purl.org/dc/dcmitype/StillImage" />
        <dc:title></dc:title>
      </cc:Work>
    </rdf:RDF>
  </metadata>
  <g
     inkscape:label="Calque 1"
     inkscape:groupmode="layer"
     id="layer1"
     transform="translate(0,-698.0315)">
    <path
       style="fill:#3db39e;fill-opacity:1"
       d="m 99.511788,1023.3352 c -4.187527,-2.0276 -5.101386,-6.0853 -5.101386,-22.6512 l 0,-15.72581 -8.767096,0 c -4.821903,0 -8.767096,-0.17172 -8.767096,-0.38167 0,-0.20994 3.948618,-12.39269 8.774706,-27.0729 4.826088,-14.68026 8.522985,-26.94306 8.21533,-27.25071 -0.307655,-0.30767 -1.026194,0.69712 -1.596734,2.23286 -11.059645,29.76926 -11.334616,30.27483 -16.451187,30.24455 -3.727722,-0.0222 -5.190834,-0.94789 -7.038353,-4.45438 -1.238358,-2.35029 -0.687925,-4.88561 4.060592,-18.70309 7.171847,-20.86901 9.388753,-25.42638 14.12641,-29.03996 6.562814,-5.00571 11.549574,-6.12533 27.528226,-6.18064 l 14.82453,-0.0513 14.39912,-12.37435 c 7.91951,-6.8059 15.52305,-12.81951 16.89674,-13.36358 2.90223,-1.14946 3.91264,-3.66812 19.65409,-48.9921 11.23686,-32.35404 14.13001,-38.4282 20.57204,-43.191 7.1678,-5.2994 11.52751,-5.98726 37.94701,-5.98726 l 24.8519,0 6.27045,3.25754 c 6.83191,3.54924 12.87732,11.10428 14.99954,18.74517 0.71255,2.56551 1.19653,21.65469 1.20042,47.34726 l 0.007,43.0487 -3.41692,3.41691 c -4.43381,4.43381 -8.60444,4.43381 -13.03824,0 l -3.41742,-3.41691 0,-39.8341 c 0,-24.13057 -0.43392,-39.83408 -1.10071,-39.83408 -1.15369,0 -1.73267,38.01706 -2.18701,143.60159 -0.16255,37.77906 -0.69704,60.84176 -1.44229,62.23426 -1.42767,2.6676 -7.06154,5.7434 -10.52012,5.7434 -3.57743,0 -8.88112,-3.416 -10.36708,-6.6774 -0.85692,-1.8807 -1.26855,-21.35281 -1.26855,-60.00752 0,-56.18322 -0.042,-57.22337 -2.30635,-57.22337 -2.26076,0 -2.31275,1.15502 -2.63013,58.42154 l -0.32378,58.42145 -3.24117,3.2405 c -4.59728,4.5962 -12.29971,4.5959 -16.89658,-5e-4 l -3.24117,-3.2409 -0.31113,-102.34766 c -0.23943,-78.76053 -0.63323,-102.24025 -1.70874,-101.88175 -0.76868,0.25622 -3.16981,5.6043 -5.33583,11.88462 -21.42442,62.11941 -22.67823,64.98218 -28.46011,64.98218 -1.23301,0 -6.87787,4.0767 -12.54411,9.05934 -5.66626,4.98263 -14.0351,12.21548 -18.59746,16.07301 -7.35179,6.21603 -8.3034,7.48784 -8.36741,11.1831 -0.04,2.30458 4.04455,16.29036 9.13205,31.26935 l 9.20427,27.09979 -9.20427,0 -9.20428,0 0,15.72582 c 0,16.8956 -0.89958,20.6499 -5.44416,22.7206 -4.38458,1.9977 -7.2547,1.5636 -10.38974,-1.5714 -2.78333,-2.7834 -2.86924,-3.3783 -2.86924,-19.8721 0,-14.33433 -0.27518,-17.00292 -1.75342,-17.00292 -1.47823,0 -1.75342,2.66859 -1.75342,17.00292 0,16.4938 -0.0859,17.0887 -2.86922,19.8721 -3.01938,3.0194 -6.57206,3.5165 -10.732532,1.5021 z m 6.598982,-123.54094 c -4.4315,-2.37663 -9.362476,-10.37165 -9.362476,-15.18019 0,-1.62465 1.071714,-5.16778 2.381588,-7.87361 1.886378,-3.89674 3.572098,-5.43185 8.107088,-7.38275 7.12886,-3.06674 9.43907,-3.07851 15.32057,-0.078 6.23585,3.18129 9.36259,8.4144 9.0825,15.20104 -0.5538,13.41905 -14.01065,21.49101 -25.52927,15.31351 z M 227.06406,769.47543 c -4.0366,-1.83132 -10.71877,-9.01294 -12.33051,-13.25213 -2.9784,-7.83377 0.23527,-19.56193 6.89595,-25.16652 11.27557,-9.48777 28.29779,-5.97115 34.97218,7.22491 4.9468,9.78041 2.11038,21.25436 -7.05715,28.5477 -3.6615,2.91294 -5.68286,3.58464 -11.68946,3.88442 -4.40763,0.21997 -8.6495,-0.26683 -10.79101,-1.23838 z"
       id="path4174"
       inkscape:connector-curvature="0" />
  </g>
</svg>
