<?xml version="1.0" encoding="UTF-8" standalone="no"?>
<!-- Created with Inkscape (http://www.inkscape.org/) -->

<svg
   xmlns:dc="http://purl.org/dc/elements/1.1/"
   xmlns:cc="http://creativecommons.org/ns#"
   xmlns:rdf="http://www.w3.org/1999/02/22-rdf-syntax-ns#"
   xmlns:svg="http://www.w3.org/2000/svg"
   xmlns="http://www.w3.org/2000/svg"
   xmlns:sodipodi="http://sodipodi.sourceforge.net/DTD/sodipodi-0.dtd"
   xmlns:inkscape="http://www.inkscape.org/namespaces/inkscape"
   width="100mm"
   height="100mm"
   viewBox="0 0 354.33071 354.33071"
   id="svg3379"
   version="1.1"
   inkscape:version="0.91 r13725"
   sodipodi:docname="social_jeune_ssempl.svg">
  <defs
     id="defs3381">
    <clipPath
       clipPathUnits="userSpaceOnUse"
       id="clipPath4259">
      <g
         transform="matrix(1.1594988,0,0,1.1594988,4.9803622,703.0113)"
         id="g4261"
         style="fill:#3db39e;fill-opacity:1">
        <g
           id="g4263"
           style="fill:#3db39e;fill-opacity:1">
          <g
             id="g4265"
             style="fill:#3db39e;fill-opacity:1">
            <path
               d="m 45.432,35.049 c -0.008,0 -0.017,0 -0.025,0 -2.809,0 -5.451,1.095 -7.446,3.085 -2.017,2.012 -3.128,4.691 -3.128,7.543 l 0,159.365 c 0,5.844 4.773,10.61 10.641,10.625 24.738,0.059 66.184,5.215 94.776,35.136 l 0,-166.78 c 0,-1.981 -0.506,-3.842 -1.461,-5.382 C 115.322,40.849 70.226,35.107 45.432,35.049 Z"
               id="path4267"
               inkscape:connector-curvature="0"
               style="fill:#3db39e;fill-opacity:1" />
            <path
               d="m 262.167,205.042 0,-159.366 c 0,-2.852 -1.111,-5.531 -3.128,-7.543 -1.995,-1.99 -4.639,-3.085 -7.445,-3.085 -0.009,0 -0.018,0 -0.026,0 -24.793,0.059 -69.889,5.801 -93.357,43.593 -0.955,1.54 -1.46,3.401 -1.46,5.382 l 0,166.779 c 28.592,-29.921 70.038,-35.077 94.776,-35.136 5.867,-0.015 10.64,-4.781 10.64,-10.624 z"
               id="path4269"
               inkscape:connector-curvature="0"
               style="fill:#3db39e;fill-opacity:1" />
            <path
               d="m 286.373,71.801 -7.706,0 0,133.241 c 0,14.921 -12.157,27.088 -27.101,27.125 -20.983,0.05 -55.581,4.153 -80.084,27.344 42.378,-10.376 87.052,-3.631 112.512,2.171 3.179,0.724 6.464,-0.024 9.011,-2.054 2.538,-2.025 3.994,-5.052 3.994,-8.301 l 0,-168.9 C 297,76.568 292.232,71.801 286.373,71.801 Z"
               id="path4271"
               inkscape:connector-curvature="0"
               style="fill:#3db39e;fill-opacity:1" />
            <path
               d="m 18.332,205.042 0,-133.241 -7.706,0 C 4.768,71.801 0,76.568 0,82.427 l 0,168.897 c 0,3.25 1.456,6.276 3.994,8.301 2.545,2.029 5.827,2.78 9.011,2.054 25.46,-5.803 70.135,-12.547 112.511,-2.171 -24.502,-23.19 -59.1,-27.292 -80.083,-27.342 C 30.49,232.13 18.332,219.963 18.332,205.042 Z"
               id="path4273"
               inkscape:connector-curvature="0"
               style="fill:#3db39e;fill-opacity:1" />
          </g>
        </g>
      </g>
    </clipPath>
    <clipPath
       clipPathUnits="userSpaceOnUse"
       id="clipPath4341">
      <g
         transform="matrix(0.86876854,0,0,0.86876854,3.8590621,701.89024)"
         id="g4343"
         style="fill:#3db39e;fill-opacity:1">
        <g
           id="g4345"
           style="fill:#3db39e;fill-opacity:1">
          <g
             id="g4347"
             style="fill:#3db39e;fill-opacity:1">
            <path
               inkscape:connector-curvature="0"
               d="m 225.092,276.586 c -7.101,4.355 -16.195,6.754 -25.607,6.754 -9.412,0 -18.506,-2.398 -25.607,-6.754 L 57.946,205.484 c 0,0 -10.464,-6.414 -10.464,8.116 0,16.5 0,66 0,66 0,0.66 0,3.973 0,5 0,37.402 68.053,77.723 152,77.723 83.947,0 152,-40.32 152,-77.723 0,-1.027 0,-4.34 0,-5 0,0 0,-52.502 0,-70.003 0,-11.663 -7.439,-5.964 -7.439,-5.964 l -118.951,72.953 z"
               id="path4349"
               style="fill:#3db39e;fill-opacity:1" />
            <path
               inkscape:connector-curvature="0"
               d="m 392.289,148.927 c 8.908,-5.463 8.908,-14.403 0,-19.867 L 215.681,40.745 c -8.908,-5.463 -23.485,-5.463 -32.393,0 L 6.681,129.06 c -8.908,5.463 -8.908,14.403 0,19.867 l 176.607,108.315 c 8.908,5.463 23.485,5.463 32.393,0"
               id="path4351"
               style="fill:#3db39e;fill-opacity:1" />
            <path
               inkscape:connector-curvature="0"
               d="m 384.985,309.475 c 0,-29.906 0,-119.625 0,-119.625 0,0 0.083,-5.666 -3.279,-3.795 -2.697,1.501 -9.308,5.186 -11.637,7.212 -2.689,2.337 -2.083,7.583 -2.083,7.583 0,0 0,81.469 0,108.625 0,1.542 -1.325,2.278 -1.957,2.65 -6.105,3.589 -10.21,10.214 -10.21,17.809 0,11.414 9.252,20.667 20.667,20.667 11.414,0 20.666,-9.253 20.666,-20.667 0,-7.624 -4.135,-14.27 -10.279,-17.85 -0.611,-0.356 -1.888,-1.068 -1.888,-2.609 z"
               id="path4353"
               style="fill:#3db39e;fill-opacity:1" />
          </g>
        </g>
      </g>
    </clipPath>
  </defs>
  <sodipodi:namedview
     id="base"
     pagecolor="#ffffff"
     bordercolor="#666666"
     borderopacity="1.0"
     inkscape:pageopacity="0.0"
     inkscape:pageshadow="2"
     inkscape:zoom="1.203268"
     inkscape:cx="106.56457"
     inkscape:cy="98.891907"
     inkscape:document-units="px"
     inkscape:current-layer="layer1"
     showgrid="false"
     inkscape:window-width="1280"
     inkscape:window-height="1002"
     inkscape:window-x="-8"
     inkscape:window-y="49"
     inkscape:window-maximized="1" />
  <metadata
     id="metadata3384">
    <rdf:RDF>
      <cc:Work
         rdf:about="">
        <dc:format>image/svg+xml</dc:format>
        <dc:type
           rdf:resource="http://purl.org/dc/dcmitype/StillImage" />
        <dc:title></dc:title>
      </cc:Work>
    </rdf:RDF>
  </metadata>
  <g
     inkscape:label="Calque 1"
     inkscape:groupmode="layer"
     id="layer1"
     transform="translate(0,-698.0315)">
    <g
       id="g4844"
       transform="translate(0,18.127162)"
       style="fill:#3db39e;fill-opacity:1">
      <path
         inkscape:connector-curvature="0"
         id="path4200"
         d="m 46.370478,840.37716 c -5.890833,-5.89083 -4.473862,-9.89865 8.215919,-23.2384 L 66.502125,804.61274 54.253916,792.36453 c -9.174495,-9.17451 -11.748464,-13.82281 -10.256775,-18.52268 3.701875,-11.66357 11.32278,-10.9005 24.977913,2.50099 l 12.889483,12.65009 8.92517,-8.68525 c 17.635763,-17.16161 19.157803,-17.84921 25.934903,-11.71605 8.58278,7.76731 7.77936,10.93894 -6.23839,24.62692 l -12.346913,12.05642 13.057683,13.3048 c 10.74857,10.95201 12.46463,14.24655 9.70405,18.63021 -5.8186,9.23972 -13.63917,7.96673 -26.158343,-4.25792 l -11.99081,-11.70872 -11.691875,11.41682 c -12.235978,11.94811 -18.500404,13.90612 -24.689534,7.717 z m 104.211162,-24.04872 0,-12.55599 30.06092,0.88246 30.06091,0.88243 0,10.7911 0,10.7911 -30.06091,0.88244 -30.06092,0.88243 0,-12.55597 z m 0,-38.48757 0,-10.84317 80.35779,0 80.35778,0 -0.96615,10.02031 -0.96614,10.02031 -79.39165,0.82284 -79.39163,0.82285 0,-10.84314 z"
         style="fill:#3db39e;fill-opacity:1" />
      <path
         inkscape:connector-curvature="0"
         id="path4200-5"
         d="m 46.370477,945.63807 c -5.890833,-5.89083 -4.473862,-9.89865 8.215921,-23.2384 L 66.502127,909.87365 54.253917,897.62544 C 45.07942,888.45093 42.505451,883.80263 43.99714,879.10276 c 3.701875,-11.66358 11.322782,-10.9005 24.977915,2.50099 l 12.889481,12.65009 8.92517,-8.68525 c 17.635764,-17.16161 19.157804,-17.84921 25.934904,-11.71606 8.58278,7.76732 7.77936,10.93895 -6.23839,24.62692 l -12.346914,12.05643 13.057684,13.3048 c 10.74857,10.95201 12.46463,14.24655 9.70405,18.63021 -5.8186,9.23972 -13.63917,7.96673 -26.158344,-4.25792 l -11.99081,-11.70872 -11.691872,11.41681 c -12.235979,11.94812 -18.500407,13.90613 -24.689537,7.71701 z m 104.211163,-24.04872 0,-12.55599 30.06092,0.88246 30.06091,0.88243 0,10.7911 0,10.7911 -30.06091,0.88243 -30.06092,0.88244 0,-12.55597 z m 0,-38.48757 0,-10.84317 80.35779,0 80.35778,0 -0.96615,10.02031 -0.96614,10.02031 -79.39165,0.82284 -79.39163,0.82285 0,-10.84314 z"
         style="fill:#3db39e;fill-opacity:1" />
    </g>
  </g>
</svg>
