<?xml version="1.0" encoding="UTF-8" standalone="no"?>
<!-- Created with Inkscape (http://www.inkscape.org/) -->

<svg
   xmlns:dc="http://purl.org/dc/elements/1.1/"
   xmlns:cc="http://creativecommons.org/ns#"
   xmlns:rdf="http://www.w3.org/1999/02/22-rdf-syntax-ns#"
   xmlns:svg="http://www.w3.org/2000/svg"
   xmlns="http://www.w3.org/2000/svg"
   xmlns:sodipodi="http://sodipodi.sourceforge.net/DTD/sodipodi-0.dtd"
   xmlns:inkscape="http://www.inkscape.org/namespaces/inkscape"
   width="100mm"
   height="100mm"
   viewBox="0 0 354.33071 354.33071"
   id="svg3379"
   version="1.1"
   inkscape:version="0.91 r13725"
   sodipodi:docname="social_apprentissage.svg">
  <defs
     id="defs3381">
    <clipPath
       clipPathUnits="userSpaceOnUse"
       id="clipPath4259">
      <g
         transform="matrix(1.1594988,0,0,1.1594988,4.9803622,703.0113)"
         id="g4261"
         style="fill:#3db39e;fill-opacity:1">
        <g
           id="g4263"
           style="fill:#3db39e;fill-opacity:1">
          <g
             id="g4265"
             style="fill:#3db39e;fill-opacity:1">
            <path
               d="m 45.432,35.049 c -0.008,0 -0.017,0 -0.025,0 -2.809,0 -5.451,1.095 -7.446,3.085 -2.017,2.012 -3.128,4.691 -3.128,7.543 l 0,159.365 c 0,5.844 4.773,10.61 10.641,10.625 24.738,0.059 66.184,5.215 94.776,35.136 l 0,-166.78 c 0,-1.981 -0.506,-3.842 -1.461,-5.382 C 115.322,40.849 70.226,35.107 45.432,35.049 Z"
               id="path4267"
               inkscape:connector-curvature="0"
               style="fill:#3db39e;fill-opacity:1" />
            <path
               d="m 262.167,205.042 0,-159.366 c 0,-2.852 -1.111,-5.531 -3.128,-7.543 -1.995,-1.99 -4.639,-3.085 -7.445,-3.085 -0.009,0 -0.018,0 -0.026,0 -24.793,0.059 -69.889,5.801 -93.357,43.593 -0.955,1.54 -1.46,3.401 -1.46,5.382 l 0,166.779 c 28.592,-29.921 70.038,-35.077 94.776,-35.136 5.867,-0.015 10.64,-4.781 10.64,-10.624 z"
               id="path4269"
               inkscape:connector-curvature="0"
               style="fill:#3db39e;fill-opacity:1" />
            <path
               d="m 286.373,71.801 -7.706,0 0,133.241 c 0,14.921 -12.157,27.088 -27.101,27.125 -20.983,0.05 -55.581,4.153 -80.084,27.344 42.378,-10.376 87.052,-3.631 112.512,2.171 3.179,0.724 6.464,-0.024 9.011,-2.054 2.538,-2.025 3.994,-5.052 3.994,-8.301 l 0,-168.9 C 297,76.568 292.232,71.801 286.373,71.801 Z"
               id="path4271"
               inkscape:connector-curvature="0"
               style="fill:#3db39e;fill-opacity:1" />
            <path
               d="m 18.332,205.042 0,-133.241 -7.706,0 C 4.768,71.801 0,76.568 0,82.427 l 0,168.897 c 0,3.25 1.456,6.276 3.994,8.301 2.545,2.029 5.827,2.78 9.011,2.054 25.46,-5.803 70.135,-12.547 112.511,-2.171 -24.502,-23.19 -59.1,-27.292 -80.083,-27.342 C 30.49,232.13 18.332,219.963 18.332,205.042 Z"
               id="path4273"
               inkscape:connector-curvature="0"
               style="fill:#3db39e;fill-opacity:1" />
          </g>
        </g>
      </g>
    </clipPath>
    <clipPath
       clipPathUnits="userSpaceOnUse"
       id="clipPath4341">
      <g
         transform="matrix(0.86876854,0,0,0.86876854,3.8590621,701.89024)"
         id="g4343"
         style="fill:#3db39e;fill-opacity:1">
        <g
           id="g4345"
           style="fill:#3db39e;fill-opacity:1">
          <g
             id="g4347"
             style="fill:#3db39e;fill-opacity:1">
            <path
               inkscape:connector-curvature="0"
               d="m 225.092,276.586 c -7.101,4.355 -16.195,6.754 -25.607,6.754 -9.412,0 -18.506,-2.398 -25.607,-6.754 L 57.946,205.484 c 0,0 -10.464,-6.414 -10.464,8.116 0,16.5 0,66 0,66 0,0.66 0,3.973 0,5 0,37.402 68.053,77.723 152,77.723 83.947,0 152,-40.32 152,-77.723 0,-1.027 0,-4.34 0,-5 0,0 0,-52.502 0,-70.003 0,-11.663 -7.439,-5.964 -7.439,-5.964 l -118.951,72.953 z"
               id="path4349"
               style="fill:#3db39e;fill-opacity:1" />
            <path
               inkscape:connector-curvature="0"
               d="m 392.289,148.927 c 8.908,-5.463 8.908,-14.403 0,-19.867 L 215.681,40.745 c -8.908,-5.463 -23.485,-5.463 -32.393,0 L 6.681,129.06 c -8.908,5.463 -8.908,14.403 0,19.867 l 176.607,108.315 c 8.908,5.463 23.485,5.463 32.393,0"
               id="path4351"
               style="fill:#3db39e;fill-opacity:1" />
            <path
               inkscape:connector-curvature="0"
               d="m 384.985,309.475 c 0,-29.906 0,-119.625 0,-119.625 0,0 0.083,-5.666 -3.279,-3.795 -2.697,1.501 -9.308,5.186 -11.637,7.212 -2.689,2.337 -2.083,7.583 -2.083,7.583 0,0 0,81.469 0,108.625 0,1.542 -1.325,2.278 -1.957,2.65 -6.105,3.589 -10.21,10.214 -10.21,17.809 0,11.414 9.252,20.667 20.667,20.667 11.414,0 20.666,-9.253 20.666,-20.667 0,-7.624 -4.135,-14.27 -10.279,-17.85 -0.611,-0.356 -1.888,-1.068 -1.888,-2.609 z"
               id="path4353"
               style="fill:#3db39e;fill-opacity:1" />
          </g>
        </g>
      </g>
    </clipPath>
  </defs>
  <sodipodi:namedview
     id="base"
     pagecolor="#ffffff"
     bordercolor="#666666"
     borderopacity="1.0"
     inkscape:pageopacity="0.0"
     inkscape:pageshadow="2"
     inkscape:zoom="1.6229332"
     inkscape:cx="236.64178"
     inkscape:cy="119.61064"
     inkscape:document-units="px"
     inkscape:current-layer="layer1"
     showgrid="false"
     inkscape:window-width="1280"
     inkscape:window-height="1002"
     inkscape:window-x="-8"
     inkscape:window-y="49"
     inkscape:window-maximized="1" />
  <metadata
     id="metadata3384">
    <rdf:RDF>
      <cc:Work
         rdf:about="">
        <dc:format>image/svg+xml</dc:format>
        <dc:type
           rdf:resource="http://purl.org/dc/dcmitype/StillImage" />
        <dc:title />
      </cc:Work>
    </rdf:RDF>
  </metadata>
  <g
     inkscape:label="Calque 1"
     inkscape:groupmode="layer"
     id="layer1"
     transform="translate(0,-698.0315)">
    <path
       style="fill:#3db39e;fill-opacity:1"
       d="m 25.603761,952.30736 0,-32.27205 -5.640659,-6.69076 c -32.278281,-38.2874 -12.4510341,-99.26676 36.998955,-113.79157 8.782689,-2.5797 26.248394,-2.93961 35.803901,-0.73775 17.005192,3.91847 33.591682,15.63094 43.210242,30.51275 5.86809,9.07904 11.16301,23.98022 11.16301,31.41529 0,2.50095 3.56844,13.43912 7.92988,24.30703 7.52033,18.73932 7.814,19.93661 5.68635,23.18386 -1.86936,2.853 -3.43032,3.42405 -9.35969,3.42405 l -7.1162,0 -0.008,10.3662 c -0.004,5.70144 -0.72189,12.93789 -1.59444,16.08092 -3.00127,10.8109 -16.39111,20.70031 -28.06653,20.72924 -3.09738,0.008 -3.21712,0.48698 -3.21712,12.8764 l 0,12.86853 -42.89487,0 -42.894871,0 0,-32.27214 z m 29.536253,-58.61681 c 2.959778,-2.95982 3.499379,-4.54967 2.790364,-8.22153 -2.09337,-10.84123 -15.310695,-13.24005 -20.25629,-3.67632 -5.897779,11.40501 8.292365,21.07141 17.465926,11.89785 z m 28.982956,-0.0981 c 3.93113,-4.99763 3.742905,-9.8814 -0.546153,-14.17044 -6.899622,-6.89959 -17.937847,-2.30694 -17.937847,7.46341 0,10.00674 12.360494,14.49183 18.484,6.7071 z m 28.25074,0.65854 c 4.24143,-3.98463 4.33008,-10.63343 0.20039,-15.0293 -6.42373,-6.8377 -18.33854,-2.03366 -18.33854,7.39412 0,9.57824 11.0974,14.24964 18.13815,7.63518 z m -58.336075,-27.9899 c 7.539417,-6.2597 3.483614,-18.94524 -6.057158,-18.94524 -9.290919,0 -14.369591,7.70983 -10.283594,15.61127 1.179747,2.2814 2.962811,4.47703 3.962372,4.8792 3.86022,1.55316 9.493557,0.84993 12.37838,-1.54523 z m 29.539182,-1.00738 c 4.289058,-4.28906 4.477283,-9.17284 0.546153,-14.17045 -6.046232,-7.68654 -18.484,-3.30821 -18.484,6.50669 0,9.95192 10.965021,14.6366 17.937847,7.66376 z m 28.796893,0.40069 c 6.75648,-6.34739 2.03935,-18.33855 -7.21407,-18.33855 -9.969376,0 -14.798655,12.47283 -7.156702,18.484 4.858302,3.82154 10.205712,3.76741 14.370772,-0.14545 z M 83.576817,836.65715 c 5.595137,-5.59512 3.748507,-14.87763 -3.562133,-17.90579 -11.225097,-4.64957 -20.177998,10.13786 -10.945763,18.07908 4.996442,4.29776 10.097776,4.23684 14.507896,-0.17329 z M 242.93777,971.71097 c 0,-12.38942 -0.11984,-12.86877 -3.21712,-12.8764 -11.67545,-0.0292 -25.06528,-9.91834 -28.06656,-20.72924 -0.87255,-3.14303 -1.59004,-10.37948 -1.59441,-16.08092 l -0.008,-10.3662 -7.11618,0 c -5.92106,0 -7.49139,-0.57268 -9.35031,-3.40978 -2.11324,-3.2252 -1.83223,-4.40511 5.19291,-21.80487 4.12715,-10.22209 7.9234,-22.23361 8.54424,-27.03437 3.30862,-25.58438 20.19765,-47.42508 44.34643,-57.34835 12.28001,-5.04613 32.61739,-6.265 44.9803,-2.69583 37.2465,10.75314 59.66019,46.99064 51.94578,83.98366 -2.10246,10.08193 -8.49441,23.35951 -14.77033,30.68156 l -5.09703,5.94661 0,32.30127 0,32.30139 -42.89486,0 -42.89487,0 0,-12.86853 z m 42.89485,-77.21077 c 6.27318,-6.27311 1.32861,-18.58774 -7.46336,-18.58774 -5.06028,0 -11.12441,5.70515 -11.12441,10.46591 0,1.89569 1.33355,5.14202 2.96343,7.21414 3.71325,4.72062 11.3668,5.16525 15.62434,0.90769 z m -0.4496,-28.84578 c 4.2133,-3.95821 4.43227,-11.49623 0.4496,-15.47888 -4.25754,-4.25756 -11.91109,-3.81291 -15.62434,0.90774 -3.93111,4.99761 -3.74291,9.88139 0.54616,14.17045 4.36377,4.36378 10.23875,4.5247 14.62858,0.40069 z m -0.45813,-28.45113 c 9.59399,-7.54664 -0.14541,-24.02387 -10.83434,-18.32966 -7.60555,4.05164 -9.10026,12.01938 -3.33611,17.78352 4.28905,4.28905 9.17282,4.47727 14.17045,0.54614 z M 83.11507,786.46707 c -4.089058,-2.86408 -4.420133,-11.93482 -0.563024,-15.42543 6.322858,-5.72213 17.402816,-0.85635 17.402816,7.64244 0,8.44937 -9.572182,12.87342 -16.839792,7.78299 z m 173.62768,-0.38897 c -3.19796,-3.53371 -3.05734,-12.0448 0.24843,-15.03646 3.5976,-3.25579 11.04675,-3.00313 14.54315,0.4933 6.39698,6.39696 1.60384,17.15794 -7.64243,17.15794 -2.81763,0 -5.75511,-1.07436 -7.14915,-2.61478 z M 108.32038,761.23624 c -7.49479,-2.53695 -8.39712,-14.45485 -1.37882,-18.21093 6.90887,-3.69753 15.89056,1.26449 15.89056,8.77885 0,7.11426 -7.31444,11.86836 -14.51174,9.43208 z m 130.3279,0.70535 c -7.35916,-2.7059 -9.67389,-12.18901 -4.28949,-17.57341 6.44563,-6.44566 17.15794,-1.60064 17.15794,7.76029 0,7.11992 -6.56912,12.12935 -12.86845,9.81312 z m -103.441,-20.18819 c -3.19795,-3.5337 -3.05733,-12.0448 0.24843,-15.03647 3.59761,-3.25577 11.04675,-3.0031 14.54316,0.49332 6.39698,6.39696 1.60384,17.15793 -7.64245,17.15793 -2.81761,0 -5.75508,-1.07437 -7.14914,-2.61478 z m 68.63179,0 c -3.19796,-3.5337 -3.05733,-12.0448 0.24843,-15.03647 3.59761,-3.25577 11.04675,-3.0031 14.54317,0.49332 6.39696,6.39696 1.60384,17.15793 -7.64246,17.15793 -2.81762,0 -5.75509,-1.07437 -7.14914,-2.61478 z m -33.57337,-6.4138 c -4.39908,-4.68264 -4.10642,-11.42661 0.65852,-15.17472 2.07207,-1.62989 4.8807,-2.96344 6.24141,-2.96344 4.84703,0 10.0088,5.58398 10.0088,10.8275 0,9.63634 -10.4708,14.16351 -16.90873,7.31066 z"
       id="path4200"
       inkscape:connector-curvature="0" />
  </g>
</svg>
